<svg width="328" height="180" viewBox="0 0 328 180" fill="none" xmlns="http://www.w3.org/2000/svg">
<g clip-path="url(#clip0_524_2709)">
<path d="M18.0893 174.788C6.1967 174.788 -2.43454 163.515 0.618495 152.021C5.49357 133.669 19.4589 109.063 58.4938 97.3922C110.338 81.893 107.432 19.4144 148.841 19.4144C190.25 19.4144 190.468 51.1433 202.814 54.3701C215.16 57.5969 256.546 48.0142 265.79 76.299C282.88 128.584 305.818 103.378 323.619 143.641C324.725 146.165 325.684 148.751 326.489 151.386C330.076 163.013 321.368 174.788 309.202 174.788H18.0893Z" fill="#F3F5FD"/>
<path d="M186.96 2.62976H113.816C108.215 2.62976 103.674 7.1704 103.674 12.7716V162.016C103.674 167.618 108.215 172.158 113.816 172.158H186.96C192.561 172.158 197.102 167.618 197.102 162.016V12.7716C197.102 7.1704 192.561 2.62976 186.96 2.62976Z" fill="white"/>
<path d="M186.96 174.788H113.816C110.43 174.784 107.183 173.437 104.789 171.043C102.395 168.649 101.048 165.403 101.044 162.017V12.7719C101.048 9.38569 102.395 6.13931 104.789 3.74495C107.184 1.35059 110.43 0.00378647 113.816 0L186.96 0C190.346 0.0044174 193.592 1.3515 195.986 3.74579C198.38 6.14008 199.726 9.3861 199.73 12.7719V162.017C199.726 165.402 198.38 168.648 195.986 171.043C193.591 173.437 190.346 174.784 186.96 174.788ZM113.816 5.25958C111.825 5.26218 109.916 6.05436 108.508 7.46241C107.1 8.87046 106.308 10.7794 106.305 12.7707V162.017C106.308 164.008 107.1 165.917 108.508 167.325C109.916 168.733 111.825 169.525 113.816 169.528H186.96C188.952 169.525 190.861 168.733 192.269 167.325C193.677 165.917 194.469 164.008 194.471 162.017V12.7719C194.469 10.7806 193.677 8.87158 192.269 7.46352C190.861 6.05545 188.952 5.26329 186.96 5.26077L113.816 5.25958Z" fill="#DEE8F5"/>
<path d="M134.373 2.62976H166.403V8.84433C166.403 10.078 165.913 11.2611 165.041 12.1334C164.168 13.0057 162.985 13.4958 161.752 13.4959H139.024C138.414 13.4959 137.809 13.3755 137.244 13.1418C136.68 12.908 136.167 12.5653 135.735 12.1334C135.303 11.7014 134.96 11.1886 134.727 10.6242C134.493 10.0598 134.373 9.45491 134.373 8.84403V2.62976H134.373Z" fill="#DEE8F5"/>
<path d="M74.6137 39.3261C74.6015 40.4232 75.809 41.3595 76.068 42.3746C76.3362 43.4247 75.7353 44.8244 76.2555 45.7472C76.7833 46.6831 78.2966 46.8933 79.0426 47.6566C79.7887 48.4199 79.9666 49.9373 80.8891 50.4858C81.8 51.0265 83.214 50.456 84.2572 50.7487C85.2661 51.0303 86.1749 52.2583 87.2724 52.2709C88.3698 52.2834 89.3057 51.0756 90.3209 50.8166C91.371 50.5484 92.771 51.1493 93.6935 50.6288C94.6294 50.1013 94.8395 48.588 95.6029 47.8417C96.3662 47.0953 97.8836 46.9195 98.4321 45.9955C98.9727 45.0846 98.4023 43.6706 98.695 42.6274C98.9766 41.6185 100.205 40.7094 100.217 39.6122C100.229 38.5151 99.0219 37.5789 98.7629 36.5637C98.4947 35.5133 99.0955 34.1136 98.5754 33.1908C98.0476 32.2549 96.5343 32.0448 95.7883 31.2817C95.0422 30.5187 94.8643 29.001 93.9418 28.4525C93.0309 27.9119 91.6169 28.4823 90.5737 28.1896C89.5648 27.9077 88.656 26.6797 87.5585 26.6675C86.4611 26.6552 85.5251 27.8627 84.5099 28.1217C83.4599 28.3899 82.0599 27.7891 81.1374 28.3092C80.2012 28.8367 79.9914 30.3503 79.228 31.0963C78.4647 31.8424 76.9473 32.0188 76.3988 32.9428C75.8581 33.8534 76.4286 35.2677 76.1359 36.3109C75.8543 37.3198 74.626 38.2286 74.6137 39.3261Z" fill="#0F1011"/>
<path d="M93.0544 50.929C93.0544 50.929 90.67 49.8727 90.7397 43.5759L85.9275 43.031C85.9275 43.031 86.8581 48.6047 84.5812 50.5582L93.0544 50.929Z" fill="#E98862"/>
<g opacity="0.15">
<path d="M85.4727 49.3159L89.2053 46.0178L86.1037 46.205C86.0887 47.2722 85.8747 48.3272 85.4727 49.3159Z" fill="black"/>
</g>
<path d="M93.2631 40.9577C93.0688 42.8802 92.1603 44.7523 90.5275 45.4843C88.7525 46.3383 86.7954 46.745 84.8271 46.6688C79.5967 46.6092 79.7899 34.7139 82.0957 32.2427C84.4015 29.7715 91.7505 30.7133 92.9034 34.4924C93.5016 36.4468 93.4497 39.1276 93.2631 40.9577Z" fill="#E98862"/>
<path d="M85.692 40.0217C85.9305 40.0217 86.1239 39.8284 86.1239 39.5898C86.1239 39.3513 85.9305 39.158 85.692 39.158C85.4535 39.158 85.2601 39.3513 85.2601 39.5898C85.2601 39.8284 85.4535 40.0217 85.692 40.0217Z" fill="#0F1011"/>
<path d="M82.2736 39.9833C82.5121 39.9833 82.7055 39.7899 82.7055 39.5514C82.7055 39.3129 82.5121 39.1195 82.2736 39.1195C82.035 39.1195 81.8417 39.3129 81.8417 39.5514C81.8417 39.7899 82.035 39.9833 82.2736 39.9833Z" fill="#0F1011"/>
<path d="M81.4477 38.6865C81.3951 38.6868 81.3446 38.6667 81.3066 38.6305C81.2686 38.5942 81.2461 38.5446 81.2439 38.4921C81.2418 38.4397 81.2601 38.3884 81.295 38.3492C81.3298 38.3099 81.3786 38.2857 81.431 38.2817L82.5711 38.1866C82.6247 38.1821 82.6778 38.1991 82.7189 38.2338C82.76 38.2685 82.7856 38.3181 82.7901 38.3717C82.7946 38.4253 82.7777 38.4785 82.743 38.5196C82.7082 38.5607 82.6586 38.5863 82.605 38.5908L81.4649 38.6859C81.4592 38.6864 81.4534 38.6866 81.4477 38.6865Z" fill="#0F1011"/>
<path d="M86.5526 38.7437C86.5413 38.7436 86.53 38.7427 86.5189 38.741L85.3743 38.5496C85.3481 38.5452 85.3229 38.5357 85.3003 38.5216C85.2778 38.5075 85.2582 38.4891 85.2427 38.4674C85.2272 38.4458 85.2162 38.4213 85.2102 38.3953C85.2042 38.3694 85.2033 38.3425 85.2077 38.3162C85.2121 38.29 85.2216 38.2648 85.2357 38.2422C85.2498 38.2197 85.2682 38.2001 85.2899 38.1846C85.3116 38.1691 85.3361 38.1581 85.362 38.1521C85.388 38.1461 85.4148 38.1452 85.4411 38.1496L86.5857 38.3407C86.6356 38.3493 86.6805 38.3763 86.7115 38.4164C86.7426 38.4565 86.7575 38.5068 86.7533 38.5573C86.7492 38.6078 86.7263 38.655 86.6891 38.6894C86.652 38.7239 86.6033 38.7433 86.5526 38.7437Z" fill="#0F1011"/>
<path d="M85.7326 42.9967C85.7326 42.9967 84.1529 43.2769 83.0122 42.9669C83.0122 42.9669 83.0951 44.0137 84.3606 44.0277C85.6262 44.0417 85.7326 42.9967 85.7326 42.9967Z" fill="white"/>
<path d="M89.4181 36.2838C89.417 40.7579 90.2194 45.196 91.7871 49.3865C91.7871 49.3865 94.9763 42.8819 95.173 37.6378C95.3581 32.7216 91.5593 30.0969 89.0926 29.724C79.715 28.3127 79.5225 35.1034 79.5225 35.1034C81.4485 38.4837 90.5307 37.8343 90.5307 37.8343" fill="#0F1011"/>
<path d="M87.9988 41.2927C87.9961 41.5332 88.0408 41.7717 88.1303 41.9949C88.2198 42.218 88.3523 42.4214 88.5204 42.5933C88.6885 42.7652 88.8888 42.9023 89.1099 42.9968C89.331 43.0913 89.5685 43.1413 89.8089 43.144C90.0493 43.1467 90.2879 43.102 90.511 43.0125C90.7342 42.923 90.9375 42.7904 91.1094 42.6223C91.2813 42.4543 91.4184 42.254 91.5129 42.0329C91.6074 41.8118 91.6574 41.5743 91.6601 41.3339C91.6669 41.0924 91.6251 40.852 91.5371 40.627C91.449 40.402 91.3166 40.197 91.1477 40.0243C90.9788 39.8515 90.7769 39.7145 90.554 39.6214C90.331 39.5283 90.0916 39.481 89.85 39.4823C88.5454 39.5321 88.0101 40.2817 87.9988 41.2927Z" fill="#E98862"/>
<g opacity="0.15">
<path d="M83.938 42.1159C83.9267 42.1159 83.9156 42.1147 83.9046 42.1123L82.845 41.867C82.8244 41.8623 82.8051 41.8532 82.7882 41.8404C82.7714 41.8276 82.7575 41.8114 82.7475 41.7928C82.7374 41.7742 82.7314 41.7537 82.7299 41.7327C82.7284 41.7116 82.7313 41.6904 82.7386 41.6706L83.3129 40.104C83.3265 40.0669 83.3543 40.0367 83.3902 40.0201C83.426 40.0034 83.467 40.0017 83.5041 40.0153C83.5413 40.0289 83.5714 40.0567 83.5881 40.0926C83.6047 40.1284 83.6064 40.1694 83.5928 40.2065L83.0766 41.6149L83.9707 41.8217C84.0064 41.83 84.0377 41.8511 84.0588 41.881C84.0799 41.9109 84.0892 41.9475 84.0851 41.9838C84.0809 42.0202 84.0635 42.0537 84.0362 42.0781C84.0089 42.1024 83.9736 42.1159 83.9371 42.1159H83.938Z" fill="black"/>
</g>
<path d="M69.2478 59.0291C69.2478 59.0291 67.016 55.484 67.1075 54.5239C67.199 53.5639 69.9879 52.5928 69.9879 52.5928C69.9879 52.5928 69.5844 51.7436 69.2249 50.8119C68.8097 49.7368 68.4532 48.5511 68.8425 48.4331C69.2177 48.3189 69.787 49.295 70.3089 50.4301C70.9793 51.887 71.5709 53.6038 71.5709 53.6038C71.5709 53.6038 71.6323 51.9081 72.2597 52.016C72.5173 52.0604 72.6264 52.3669 72.6273 53.5823C72.6273 54.9674 72.8437 57.1272 72.8437 57.1272L69.2478 59.0291Z" fill="#E98862"/>
<path d="M76.3334 74.922C75.6869 74.922 75.0551 74.7291 74.5188 74.3681C73.9825 74.007 73.5661 73.4942 73.3229 72.8951L67.481 58.5092L73.5018 56.0651L75.2702 60.421L76.6612 53.481L83.0341 54.7561L79.5202 72.3095C79.3832 72.9947 79.0289 73.6175 78.5099 74.0854C77.9909 74.5534 77.3349 74.8415 76.6392 74.907C76.5364 74.917 76.4345 74.922 76.3334 74.922Z" fill="#367CFF"/>
<path d="M66.0183 63.2585L69.6314 62.6821C69.7734 62.6594 69.909 62.607 70.0293 62.5283C70.1497 62.4496 70.252 62.3464 70.3297 62.2254C70.4074 62.1044 70.4587 61.9684 70.4801 61.8262C70.5016 61.6841 70.4928 61.539 70.4544 61.4004L68.1813 53.2416C68.114 52.9999 67.96 52.7915 67.7488 52.656C67.5376 52.5206 67.284 52.4676 67.0362 52.5072L63.4231 53.0836C63.2811 53.1063 63.1456 53.1588 63.0253 53.2375C62.9049 53.3162 62.8026 53.4194 62.7249 53.5404C62.6472 53.6614 62.596 53.7974 62.5745 53.9395C62.553 54.0817 62.5617 54.2268 62.6002 54.3653L64.8735 62.5241C64.9408 62.7657 65.0947 62.9741 65.3059 63.1096C65.517 63.245 65.7706 63.298 66.0183 63.2585Z" fill="#C1D8ED"/>
<path d="M98.5231 136.614C93.1046 135.246 92.5714 135.041 92.3961 134.975L94.6351 129.13C94.6173 129.123 94.5946 129.115 94.5666 129.105C95.0071 129.25 97.7591 129.966 100.056 130.546L98.5231 136.614Z" fill="#E98862"/>
<path d="M98.2796 144.79C98.2253 144.949 98.1387 145.096 98.0252 145.22C97.9118 145.345 97.774 145.444 97.6203 145.513C97.4666 145.582 97.3004 145.618 97.1321 145.619C96.9638 145.621 96.7969 145.588 96.642 145.522C96.4272 145.431 96.243 145.28 96.111 145.088C95.979 144.896 95.9047 144.669 95.8969 144.436L95.901 136.753C95.9015 136.604 95.9342 136.457 95.9969 136.323C96.0595 136.188 96.1505 136.068 96.2638 135.972C97.2411 135.243 97.959 134.22 98.312 133.054C98.5499 132.132 98.5242 131.163 98.2378 130.256C98.207 130.174 98.2001 130.085 98.2178 130C98.2354 129.914 98.277 129.836 98.3377 129.773C98.3984 129.71 98.4756 129.666 98.5605 129.645C98.6453 129.625 98.7342 129.628 98.8169 129.656L102.194 130.789C102.294 130.822 102.386 130.875 102.465 130.944C102.544 131.013 102.609 131.097 102.656 131.192C102.702 131.286 102.73 131.388 102.737 131.493C102.744 131.598 102.73 131.703 102.696 131.802L98.2796 144.79Z" fill="#C1D8ED"/>
<path d="M83.6913 171.617C83.6913 171.617 83.6704 165.135 83.6704 164.561H89.9297C89.9297 165.133 89.9505 171.595 89.9505 171.597L83.6913 171.617Z" fill="#E98862"/>
<path d="M100.092 81.8635C96.0756 77.8475 77.4162 83.2644 77.4162 83.2644L77.3989 83.381L77.0168 83.1664C72.2657 92.7264 65.5581 106.954 60.9 116.706C60.5448 117.374 60.3308 118.109 60.2713 118.864C60.2117 119.618 60.3079 120.377 60.5539 121.093C60.7998 121.809 61.1903 122.467 61.701 123.026C62.2118 123.585 62.8319 124.032 63.523 124.342L83.8361 133.379C82.7929 144.837 81.5953 156.284 80.598 167.723L91.5413 169.089C93.5302 155.442 95.5749 141.811 97.4011 128.147L97.6992 127.477L97.5031 127.389C98.6229 118.971 99.6574 110.54 100.541 102.084C100.712 100.365 100.861 98.4947 100.935 96.6769L100.975 96.6789C100.975 96.6789 102.252 84.0233 100.092 81.8635ZM73.694 116.796C77.6102 110.269 82.2167 102.576 86.2054 96.047C86.0009 104.62 85.4927 113.187 84.8251 121.749L73.694 116.796Z" fill="#262626"/>
<path d="M71.6052 61.1203L69.4744 64.0115C69.4744 64.0115 63.7468 62.8633 63.2097 58.4512C63.1477 57.9444 63.2014 56.5376 63.8306 56.7263C65.4699 57.2175 67.5099 59.7328 68.9402 60.0675C68.6142 59.483 68.2157 58.6574 68.4726 58.5066C69.148 58.1096 70.9647 60.5063 71.6052 61.1203Z" fill="#E98862"/>
<path d="M100.411 52.0414C99.0485 50.6793 96.6968 49.8 93.8294 49.797C93.6148 51.4691 83.4629 51.4751 83.3854 49.8357C82.9979 49.8417 82.6969 49.8477 82.5091 49.8566C75.6188 50.1547 75.6388 55.7069 76.3169 61.8443L70.6475 59.3439L68.0245 65.2902L77.0486 69.2693C77.0543 69.4481 77.059 69.627 77.0611 69.8058C77.1774 79.4809 74.5634 81.305 75.851 84.2618C77.0999 87.1321 101.639 88.3243 101.967 83.2752C102.176 80.0621 99.3442 77.2573 99.3442 70.9951C99.3442 64.7328 105.105 56.7347 100.411 52.0414Z" fill="#367CFF"/>
<path d="M83.3854 49.8358C83.4629 51.4751 84.3541 53.8864 87.1052 54.0682C90.7713 54.3096 93.6148 51.4691 93.8294 49.797H93.8205C90.211 49.7958 85.4897 49.8018 83.3854 49.8358Z" fill="#E98862"/>
<path d="M76.0895 174.164C75.9211 174.163 75.7548 174.128 75.6008 174.06C75.4468 173.992 75.3084 173.893 75.1944 173.769C75.0804 173.645 74.9932 173.499 74.9381 173.34C74.8831 173.181 74.8615 173.012 74.8746 172.844C74.8927 172.612 74.9769 172.389 75.1173 172.203C75.2576 172.017 75.4483 171.874 75.6668 171.793L82.9523 169.352C83.0934 169.306 83.243 169.29 83.3908 169.306C83.5385 169.323 83.681 169.371 83.8083 169.448C84.8099 170.143 86.008 170.498 87.2265 170.461C88.1755 170.394 89.0864 170.061 89.8554 169.501C89.923 169.445 90.005 169.41 90.0918 169.4C90.1785 169.389 90.2665 169.403 90.3455 169.441C90.4245 169.478 90.4912 169.537 90.5378 169.611C90.5845 169.685 90.6091 169.771 90.6089 169.858V173.421C90.6089 173.526 90.5881 173.63 90.5478 173.727C90.5075 173.824 90.4484 173.912 90.374 173.986C90.2995 174.061 90.2111 174.119 90.1139 174.159C90.0167 174.199 89.9125 174.219 89.8074 174.219L76.0895 174.164Z" fill="#C1D8ED"/>
<path d="M219.949 126.206C219.949 126.206 217.644 124.984 218.159 118.708L213.397 117.823C213.397 117.823 213.932 123.45 211.523 125.237L219.949 126.206Z" fill="#E98862"/>
<g opacity="0.15">
<path d="M212.498 124.062L216.455 121.035L213.347 121.003C213.257 122.067 212.969 123.104 212.498 124.062Z" fill="black"/>
</g>
<path d="M220.86 116.274C220.531 118.178 219.492 119.981 217.812 120.595C215.981 121.322 214 121.589 212.042 121.375C206.829 120.947 207.861 109.095 210.336 106.792C212.811 104.488 220.074 105.948 220.958 109.798C221.415 111.791 221.174 114.462 220.86 116.274Z" fill="#E98862"/>
<path d="M206.689 105.692C206.689 104.118 208.649 101.538 213.876 105.096L213.881 105.099C215.239 105.061 216.596 105.21 217.914 105.541C218.858 105.813 219.74 106.267 220.511 106.876C221.966 108.056 223.026 109.998 222.532 113.118C221.674 118.541 219.452 119.989 218.333 120.654C218.047 120.824 217.979 120.686 217.879 120.369C217.569 119.198 217.347 118.005 217.215 116.801C217.045 115.549 215.92 114.754 216.056 113.254C216.103 112.73 216.947 110.81 214.336 110.789C212.866 110.777 213.416 110.835 211.848 110.835C211.624 110.835 211.427 110.825 211.245 110.809H211.243C205.831 110.809 206.689 107.267 206.689 105.692Z" fill="#0F1011"/>
<path d="M215.65 115.432C215.614 115.915 215.77 116.392 216.084 116.759C216.398 117.127 216.845 117.356 217.327 117.395C217.809 117.434 218.287 117.281 218.657 116.97C219.026 116.658 219.257 116.212 219.3 115.73C219.324 115.49 219.299 115.247 219.227 115.016C219.155 114.786 219.037 114.572 218.881 114.388C218.725 114.203 218.533 114.053 218.317 113.944C218.101 113.835 217.866 113.771 217.624 113.756C216.32 113.715 215.733 114.425 215.65 115.432Z" fill="#E98862"/>
<path d="M216.455 109.624L217.803 110.118C217.803 110.118 217.326 116.854 216.947 118.695C216.569 120.535 215.514 121.735 214.318 121.837C212.481 121.995 211.15 122.007 209.803 121.526C208.283 120.983 208.496 116.906 208.496 116.906C208.496 116.906 213.384 117.435 214.739 116.786C216.093 116.138 216.455 109.624 216.455 109.624Z" fill="#0F1011"/>
<path d="M213.404 114.807C213.642 114.807 213.835 114.614 213.835 114.375C213.835 114.137 213.642 113.944 213.404 113.944C213.165 113.944 212.972 114.137 212.972 114.375C212.972 114.614 213.165 114.807 213.404 114.807Z" fill="#0F1011"/>
<path d="M209.996 114.528C210.235 114.528 210.428 114.335 210.428 114.096C210.428 113.858 210.235 113.664 209.996 113.664C209.758 113.664 209.564 113.858 209.564 114.096C209.564 114.335 209.758 114.528 209.996 114.528Z" fill="#0F1011"/>
<path d="M209.248 113.176C209.194 113.176 209.142 113.155 209.104 113.117C209.066 113.079 209.044 113.028 209.044 112.974C209.043 112.92 209.064 112.868 209.102 112.83C209.14 112.792 209.192 112.77 209.245 112.77L210.389 112.755C210.443 112.756 210.494 112.777 210.532 112.815C210.57 112.852 210.593 112.903 210.595 112.956C210.595 112.983 210.59 113.009 210.581 113.034C210.571 113.059 210.556 113.081 210.537 113.1C210.519 113.119 210.497 113.135 210.472 113.145C210.448 113.156 210.421 113.161 210.395 113.161L209.25 113.176H209.248Z" fill="#0F1011"/>
<path d="M214.335 113.593C214.319 113.593 214.303 113.591 214.288 113.587L213.159 113.316C213.133 113.31 213.108 113.299 213.087 113.283C213.065 113.268 213.046 113.248 213.032 113.225C213.018 113.202 213.008 113.177 213.004 113.15C213 113.124 213.001 113.096 213.007 113.07C213.013 113.044 213.025 113.02 213.041 112.998C213.057 112.976 213.077 112.958 213.1 112.944C213.123 112.93 213.148 112.921 213.175 112.917C213.201 112.913 213.228 112.915 213.255 112.921L214.382 113.193C214.431 113.204 214.473 113.233 214.501 113.274C214.53 113.315 214.542 113.364 214.536 113.414C214.531 113.463 214.507 113.509 214.47 113.542C214.433 113.575 214.385 113.593 214.335 113.593Z" fill="#0F1011"/>
<g opacity="0.15">
<path d="M211.486 116.771C211.471 116.771 211.457 116.769 211.443 116.764L210.403 116.445C210.383 116.439 210.364 116.428 210.348 116.414C210.332 116.401 210.319 116.383 210.311 116.364C210.302 116.345 210.298 116.324 210.297 116.303C210.297 116.282 210.302 116.261 210.311 116.242L210.994 114.719C211.011 114.683 211.041 114.656 211.077 114.642C211.114 114.629 211.155 114.63 211.191 114.646C211.226 114.662 211.254 114.692 211.268 114.728C211.283 114.765 211.282 114.805 211.266 114.841L210.652 116.21L211.53 116.478C211.564 116.488 211.593 116.511 211.612 116.541C211.631 116.571 211.639 116.607 211.634 116.643C211.628 116.678 211.611 116.71 211.583 116.733C211.556 116.757 211.522 116.769 211.486 116.769V116.771Z" fill="black"/>
</g>
<path d="M213.203 117.777C213.203 117.777 211.609 117.945 210.49 117.555C210.49 117.555 210.499 118.604 211.761 118.708C213.022 118.812 213.203 117.777 213.203 117.777Z" fill="white"/>
<path d="M201.739 172.661C201.173 172.566 194.784 171.475 194.784 171.475L195.837 165.305C195.837 165.305 202.209 166.393 202.774 166.487L201.739 172.661Z" fill="#E98862"/>
<path d="M191.139 178.579C191.112 178.745 191.12 178.915 191.161 179.078C191.203 179.241 191.278 179.394 191.381 179.527C191.484 179.66 191.614 179.77 191.762 179.851C191.909 179.931 192.072 179.98 192.24 179.995C192.472 180.016 192.706 179.97 192.913 179.862C193.12 179.754 193.292 179.59 193.408 179.388L197.018 172.607C197.087 172.475 197.128 172.33 197.136 172.182C197.144 172.034 197.12 171.885 197.065 171.747C196.545 170.644 196.393 169.404 196.63 168.208C196.854 167.283 197.332 166.44 198.012 165.774C198.078 165.716 198.126 165.641 198.15 165.557C198.175 165.474 198.176 165.384 198.152 165.3C198.128 165.216 198.08 165.141 198.015 165.083C197.95 165.024 197.869 164.986 197.783 164.972L194.27 164.383C194.166 164.366 194.06 164.369 193.957 164.393C193.855 164.417 193.758 164.46 193.673 164.522C193.587 164.583 193.515 164.66 193.459 164.749C193.404 164.839 193.367 164.938 193.35 165.042L191.139 178.579Z" fill="#C1D8ED"/>
<path d="M221.519 155.973C224.17 156.083 226.87 156.161 229.571 156.228L233.629 156.317L237.683 156.39L238.087 156.397C239.761 156.429 241.361 157.094 242.564 158.259C243.768 159.423 244.484 161.001 244.571 162.673C244.657 164.345 244.105 165.988 243.028 167.27C241.951 168.552 240.428 169.378 238.765 169.581L198.706 174.445L197.074 162.606L236.954 156.45L238.037 169.641L233.921 169.907L229.808 170.156C227.061 170.314 224.314 170.463 221.517 170.578L221.519 155.973Z" fill="#262626"/>
<path d="M231.623 170.068C226.092 169.264 225.541 169.115 225.36 169.067L226.986 163.023C226.968 163.018 226.944 163.011 226.915 163.005C227.368 163.104 230.179 163.533 232.523 163.874L231.623 170.068Z" fill="#E98862"/>
<path d="M238.531 175.448C238.589 175.606 238.614 175.775 238.604 175.943C238.594 176.111 238.55 176.275 238.474 176.425C238.398 176.575 238.291 176.708 238.161 176.815C238.032 176.922 237.881 177.002 237.719 177.048C237.495 177.112 237.257 177.111 237.033 177.045C236.809 176.978 236.609 176.849 236.457 176.673L231.625 170.699C231.532 170.583 231.465 170.449 231.429 170.305C231.393 170.161 231.389 170.011 231.416 169.865C231.718 168.684 231.632 167.437 231.172 166.308C230.777 165.442 230.147 164.705 229.354 164.18C229.278 164.136 229.216 164.072 229.176 163.994C229.136 163.916 229.119 163.829 229.126 163.742C229.134 163.655 229.166 163.571 229.219 163.502C229.272 163.432 229.344 163.379 229.426 163.349L232.764 162.105C232.862 162.068 232.967 162.051 233.072 162.055C233.177 162.059 233.28 162.083 233.376 162.127C233.471 162.171 233.557 162.233 233.629 162.31C233.7 162.387 233.756 162.478 233.792 162.577L238.531 175.448Z" fill="#C1D8ED"/>
<path d="M212.622 169.505C210.944 169.362 209.266 169.259 207.588 169.162C205.911 169.073 204.233 168.983 202.556 168.924L200.04 168.827L197.525 168.754C195.848 168.698 194.172 168.675 192.496 168.644L193.076 156.599C196.215 157.038 199.357 157.441 202.499 157.854C205.64 158.267 208.785 158.648 211.93 159.034L216.649 159.591L221.372 160.12C224.522 160.459 227.672 160.795 230.829 161.072L229.444 172.944C226.308 172.487 223.165 172.089 220.021 171.692L215.303 171.12L210.583 170.574C207.434 170.227 204.286 169.874 201.134 169.551C197.983 169.229 194.831 168.899 191.676 168.603C190.163 168.462 188.759 167.754 187.745 166.621C186.732 165.488 186.183 164.015 186.209 162.495C186.236 160.975 186.835 159.521 187.887 158.425C188.94 157.328 190.367 156.669 191.885 156.58L192.258 156.559C193.932 156.461 195.606 156.371 197.279 156.249L199.79 156.078L202.3 155.881C203.973 155.755 205.646 155.599 207.319 155.444C208.991 155.281 210.664 155.112 212.335 154.902L212.622 169.505Z" fill="#262626"/>
<path d="M227.608 154.144L228.49 168.959L203.009 168.66L204.932 155.544L227.608 154.144Z" fill="#262626"/>
<path d="M196.384 152.179C195.877 152.179 195.378 152.056 194.929 151.82C194.48 151.584 194.096 151.242 193.808 150.824C193.521 150.407 193.339 149.926 193.279 149.422C193.218 148.919 193.281 148.408 193.462 147.934L199.625 131.773L203.971 133.43L206.537 129.936L211.582 133.64L198.909 150.901C198.618 151.298 198.238 151.62 197.799 151.842C197.361 152.064 196.876 152.18 196.384 152.179Z" fill="#367CFF"/>
<path d="M203.14 156.541C204.388 159.412 228.927 160.604 229.255 155.555C229.464 152.342 226.632 149.537 226.632 143.275C226.632 137.013 232.394 131.698 227.699 127.004C226.337 125.642 223.985 124.762 221.118 124.759C220.903 126.431 210.751 126.437 210.674 124.798C210.287 124.804 209.985 124.81 209.798 124.819C199.908 125.245 204.254 133.817 204.349 142.086C204.466 151.761 201.852 153.585 203.14 156.541Z" fill="#367CFF"/>
<path d="M210.658 124.798C210.736 126.437 211.627 128.849 214.378 129.03C218.044 129.272 220.888 126.431 221.103 124.759H221.094C217.484 124.76 212.763 124.766 210.658 124.798Z" fill="#E98862"/>
<path d="M200.023 133.397C200.023 133.397 200.845 129.29 201.573 128.656C202.301 128.023 204.991 129.238 204.991 129.238C204.991 129.238 205.283 128.344 205.664 127.42C206.103 126.354 206.66 125.249 207.024 125.431C207.375 125.607 207.116 126.707 206.714 127.888C206.197 129.406 205.445 131.059 205.445 131.059C205.445 131.059 206.656 129.871 207.037 130.381C207.194 130.59 207.062 130.888 206.225 131.771C205.272 132.776 203.943 134.491 203.943 134.491L200.023 133.397Z" fill="#E98862"/>
<path d="M199.625 131.772L193.462 147.934L199.31 150.164L205.473 134.003L199.625 131.772Z" fill="#367CFF"/>
<path d="M230.979 152.865C230.425 152.865 229.88 152.723 229.396 152.452L211.758 142.605L214.926 136.929L225.99 143.107L223.022 131.326L229.324 129.738L234.131 148.822C234.252 149.301 234.262 149.802 234.16 150.286C234.058 150.769 233.847 151.224 233.543 151.614C233.239 152.003 232.85 152.319 232.406 152.536C231.962 152.753 231.474 152.865 230.979 152.865V152.865Z" fill="#367CFF"/>
<path d="M207.472 139.755L211.086 139.178C211.228 139.156 211.363 139.103 211.483 139.024C211.604 138.946 211.706 138.842 211.784 138.722C211.861 138.601 211.913 138.465 211.934 138.322C211.956 138.18 211.947 138.035 211.909 137.897L209.635 129.738C209.568 129.496 209.414 129.288 209.203 129.152C208.992 129.017 208.738 128.964 208.49 129.003L204.877 129.58C204.735 129.602 204.6 129.655 204.479 129.734C204.359 129.812 204.257 129.915 204.179 130.036C204.101 130.157 204.05 130.293 204.029 130.436C204.007 130.578 204.016 130.723 204.054 130.861L206.327 139.02C206.395 139.262 206.549 139.47 206.76 139.606C206.971 139.741 207.225 139.794 207.472 139.755Z" fill="#262626"/>
<path d="M213.292 137.616L211.161 140.508C211.161 140.508 205.434 139.359 204.897 134.947C204.835 134.441 204.888 133.034 205.517 133.222C207.157 133.714 209.197 136.229 210.627 136.564C210.301 135.979 209.903 135.154 210.159 135.003C210.834 134.606 212.65 137.001 213.292 137.616Z" fill="#E98862"/>
<path d="M218.409 115.237C218.408 115.06 218.338 114.889 218.212 114.763C218.086 114.638 217.916 114.567 217.738 114.567C217.65 114.566 217.562 114.583 217.481 114.617C217.399 114.65 217.325 114.7 217.263 114.762C217.2 114.825 217.151 114.899 217.117 114.98C217.084 115.062 217.067 115.149 217.067 115.237C217.067 115.339 217.09 115.44 217.135 115.532C217.18 115.623 217.245 115.703 217.327 115.765C217.402 115.825 217.489 115.867 217.583 115.89C217.649 120.856 217.002 124.272 213.863 124.889C212.522 124.7 211.295 124.032 210.409 123.008C210.031 122.549 209.76 122.011 209.616 121.434C209.283 121.199 209.037 120.86 208.915 120.471C209.008 121.622 209.276 122.602 209.962 123.404C210.773 124.348 211.854 125.022 213.059 125.336C213.034 125.361 213.011 125.388 212.99 125.416C212.612 126.006 212.817 126.862 212.966 127.485L212.999 127.631C213.044 127.804 213.033 127.987 212.967 128.153C212.901 128.319 212.784 128.46 212.632 128.555C212.197 128.85 211.321 128.939 210.292 128.221C209.294 127.523 208.465 127.342 207.833 127.678C206.71 128.281 206.737 130.301 206.737 130.388L207.333 130.376C207.324 129.893 207.449 128.561 208.117 128.203C208.638 127.926 209.402 128.325 209.95 128.71C211.225 129.601 212.346 129.47 212.966 129.05C213.217 128.886 213.411 128.648 213.521 128.37C213.631 128.091 213.652 127.785 213.58 127.494L213.544 127.348C213.428 126.856 213.249 126.114 213.491 125.741C213.543 125.669 213.609 125.609 213.685 125.565C213.762 125.52 213.847 125.492 213.935 125.482C217.744 124.766 218.251 120.412 218.176 115.738C218.248 115.676 218.307 115.599 218.347 115.513C218.387 115.427 218.408 115.333 218.409 115.237Z" fill="#262626"/>
<path d="M91.2123 41.0202C91.2126 40.8941 91.1774 40.7704 91.1106 40.6634C91.0439 40.5563 90.9483 40.4703 90.8348 40.4151C90.7214 40.36 90.5947 40.338 90.4693 40.3516C90.3438 40.3652 90.2248 40.4139 90.1258 40.4921C90.0269 40.5703 89.952 40.6748 89.9097 40.7937C89.8675 40.9126 89.8596 41.0409 89.887 41.1641C89.9144 41.2872 89.976 41.4001 90.0647 41.4898C90.1534 41.5795 90.2656 41.6424 90.3884 41.6712C90.454 46.6402 89.8057 49.458 86.6683 50.0741C85.3281 49.8843 84.1016 49.2168 83.2144 48.1946C82.3895 47.1743 81.8883 45.9309 81.7751 44.6238C81.4985 44.12 81.2756 43.5885 81.1101 43.0381C81.0535 45.3689 81.6108 47.2348 82.7673 48.591C83.6454 49.6092 84.8329 50.3118 86.1482 50.5913C86.0997 51.0239 86.1146 51.4613 86.1926 51.8896C86.4177 53.7617 86.7253 56.3256 82.95 56.8994C78.7852 57.5331 76.3253 54.7221 74.1548 52.2422C73.6523 51.6679 73.1775 51.1254 72.7 50.6482C71.475 49.4232 69.9617 48.8831 68.5492 49.1668C67.9933 49.2694 67.4714 49.5079 67.0301 49.8612C66.5888 50.2144 66.2417 50.6713 66.0199 51.1913C65.761 51.7785 65.5999 52.4041 65.543 53.0434L66.1391 53.0652C66.1961 52.4967 66.3419 51.9407 66.5713 51.4175C66.756 50.9885 67.044 50.6119 67.4095 50.3212C67.775 50.0305 68.2068 49.8347 68.6663 49.7513C69.3802 49.608 70.7975 49.5889 72.2785 51.0696C72.7417 51.5331 73.2103 52.0681 73.7063 52.6348C75.6574 54.864 78.0392 57.5858 81.792 57.5856C82.2098 57.5848 82.6269 57.5525 83.0397 57.489C87.386 56.8282 86.9947 53.5692 86.7846 51.8184C86.7315 51.3778 86.6591 50.7752 86.7402 50.6688C90.5497 49.9534 91.0564 46.1949 90.9824 41.5219C91.0543 41.4595 91.112 41.3824 91.1516 41.2959C91.1912 41.2094 91.2119 41.1154 91.2123 41.0202Z" fill="#C1D8ED"/>
<path d="M131.842 20.7235H111.671V40.8945H131.842V20.7235Z" fill="#DEE8F5"/>
<path d="M189.105 32.4346H136.535V37.7833H189.105V32.4346Z" fill="#DEE8F5"/>
<path d="M173.976 22.8546H136.535V28.2033H173.976V22.8546Z" fill="#DEE8F5"/>
<path d="M188.143 51.2062H110.71V109.556H188.143V51.2062Z" fill="#DEE8F5"/>
<path d="M149.427 146.289C156.158 146.289 161.614 140.833 161.614 134.102C161.614 127.371 156.158 121.914 149.427 121.914C142.696 121.914 137.24 127.371 137.24 134.102C137.24 140.833 142.696 146.289 149.427 146.289Z" fill="#8DDBE0"/>
<path d="M121.26 141.301C125.236 141.301 128.459 138.078 128.459 134.102C128.459 130.126 125.236 126.903 121.26 126.903C117.284 126.903 114.061 130.126 114.061 134.102C114.061 138.078 117.284 141.301 121.26 141.301Z" fill="#DEE8F5"/>
<path d="M177.594 141.301C181.57 141.301 184.793 138.078 184.793 134.102C184.793 130.126 181.57 126.903 177.594 126.903C173.618 126.903 170.395 130.126 170.395 134.102C170.395 138.078 173.618 141.301 177.594 141.301Z" fill="#DEE8F5"/>
<path d="M115.002 93.3261C114.844 93.3261 114.692 93.2633 114.58 93.1515C114.469 93.0397 114.406 92.8881 114.406 92.73V69.3388C114.406 69.1807 114.469 69.0291 114.58 68.9173C114.692 68.8055 114.844 68.7427 115.002 68.7427C115.16 68.7427 115.312 68.8055 115.423 68.9173C115.535 69.0291 115.598 69.1807 115.598 69.3388V92.73C115.598 92.8881 115.535 93.0397 115.423 93.1515C115.312 93.2633 115.16 93.3261 115.002 93.3261Z" fill="#9EBCEA"/>
<path d="M126.432 96.3067C126.274 96.3067 126.122 96.2439 126.01 96.1321C125.899 96.0203 125.836 95.8687 125.836 95.7106V66.3582C125.836 66.2001 125.899 66.0485 126.01 65.9367C126.122 65.8249 126.274 65.7621 126.432 65.7621C126.59 65.7621 126.742 65.8249 126.853 65.9367C126.965 66.0485 127.028 66.2001 127.028 66.3582V95.7106C127.028 95.8687 126.965 96.0203 126.853 96.1321C126.742 96.2439 126.59 96.3067 126.432 96.3067Z" fill="#9EBCEA"/>
<path d="M183.582 90.3455C183.424 90.3455 183.272 90.2827 183.16 90.1709C183.048 90.0591 182.986 89.9075 182.986 89.7494V72.3194C182.986 72.1613 183.048 72.0097 183.16 71.8979C183.272 71.7861 183.424 71.7233 183.582 71.7233C183.74 71.7233 183.891 71.7861 184.003 71.8979C184.115 72.0097 184.178 72.1613 184.178 72.3194V89.7494C184.178 89.9075 184.115 90.0591 184.003 90.1709C183.891 90.2827 183.74 90.3455 183.582 90.3455Z" fill="#9EBCEA"/>
<path d="M120.717 88.8551C120.559 88.8551 120.407 88.7923 120.295 88.6805C120.184 88.5687 120.121 88.4171 120.121 88.259V73.8096C120.121 73.6515 120.184 73.4999 120.295 73.3881C120.407 73.2763 120.559 73.2135 120.717 73.2135C120.875 73.2135 121.027 73.2763 121.138 73.3881C121.25 73.4999 121.313 73.6515 121.313 73.8096V88.259C121.313 88.4171 121.25 88.5687 121.138 88.6805C121.027 88.7923 120.875 88.8551 120.717 88.8551Z" fill="#9EBCEA"/>
<path d="M137.862 85.8745C137.704 85.8745 137.552 85.8117 137.44 85.6999C137.328 85.5881 137.266 85.4365 137.266 85.2784V76.7902C137.266 76.6321 137.328 76.4805 137.44 76.3687C137.552 76.2569 137.704 76.1941 137.862 76.1941C138.02 76.1941 138.171 76.2569 138.283 76.3687C138.395 76.4805 138.458 76.6321 138.458 76.7902V85.2784C138.458 85.4365 138.395 85.5881 138.283 85.6999C138.171 85.8117 138.02 85.8745 137.862 85.8745Z" fill="#9EBCEA"/>
<path d="M132.147 90.4945C131.989 90.4945 131.837 90.4317 131.725 90.3199C131.614 90.2081 131.551 90.0565 131.551 89.8984V72.1703C131.551 72.0122 131.614 71.8606 131.725 71.7488C131.837 71.637 131.989 71.5742 132.147 71.5742C132.305 71.5742 132.457 71.637 132.568 71.7488C132.68 71.8606 132.743 72.0122 132.743 72.1703V89.8984C132.743 90.0565 132.68 90.2081 132.568 90.3199C132.457 90.4317 132.305 90.4945 132.147 90.4945Z" fill="#9EBCEA"/>
<path d="M166.437 96.3067C166.279 96.3067 166.127 96.2439 166.016 96.1321C165.904 96.0203 165.841 95.8687 165.841 95.7106V66.3582C165.841 66.2001 165.904 66.0485 166.016 65.9367C166.127 65.8249 166.279 65.7621 166.437 65.7621C166.595 65.7621 166.747 65.8249 166.859 65.9367C166.97 66.0485 167.033 66.2001 167.033 66.3582V95.7106C167.033 95.8687 166.97 96.0203 166.859 96.1321C166.747 96.2439 166.595 96.3067 166.437 96.3067Z" fill="#9EBCEA"/>
<path d="M160.722 88.8551C160.564 88.8551 160.412 88.7923 160.3 88.6805C160.188 88.5687 160.126 88.4171 160.126 88.259V73.8096C160.126 73.6515 160.188 73.4999 160.3 73.3881C160.412 73.2763 160.564 73.2135 160.722 73.2135C160.88 73.2135 161.031 73.2763 161.143 73.3881C161.255 73.4999 161.318 73.6515 161.318 73.8096V88.259C161.318 88.4171 161.255 88.5687 161.143 88.6805C161.031 88.7923 160.88 88.8551 160.722 88.8551Z" fill="#9EBCEA"/>
<path d="M177.867 85.8745C177.709 85.8745 177.557 85.8117 177.445 85.6999C177.333 85.5881 177.271 85.4365 177.271 85.2784V76.7902C177.271 76.6321 177.333 76.4805 177.445 76.3687C177.557 76.2569 177.709 76.1941 177.867 76.1941C178.025 76.1941 178.176 76.2569 178.288 76.3687C178.4 76.4805 178.463 76.6321 178.463 76.7902V85.2784C178.463 85.4365 178.4 85.5881 178.288 85.6999C178.176 85.8117 178.025 85.8745 177.867 85.8745Z" fill="#9EBCEA"/>
<path d="M172.151 90.4945C171.993 90.4945 171.842 90.4317 171.73 90.3199C171.618 90.2081 171.555 90.0565 171.555 89.8984V72.1703C171.555 72.0122 171.618 71.8606 171.73 71.7488C171.842 71.637 171.993 71.5742 172.151 71.5742C172.31 71.5742 172.461 71.637 172.573 71.7488C172.685 71.8606 172.748 72.0122 172.748 72.1703V89.8984C172.748 90.0565 172.685 90.2081 172.573 90.3199C172.461 90.4317 172.31 90.4945 172.151 90.4945Z" fill="#9EBCEA"/>
<path d="M155.007 87.3649C154.849 87.3649 154.697 87.3021 154.585 87.1903C154.473 87.0785 154.411 86.9269 154.411 86.7688V75.3C154.411 75.1419 154.473 74.9903 154.585 74.8785C154.697 74.7667 154.849 74.7039 155.007 74.7039C155.165 74.7039 155.316 74.7667 155.428 74.8785C155.54 74.9903 155.603 75.1419 155.603 75.3V86.7688C155.603 86.9269 155.54 87.0785 155.428 87.1903C155.316 87.3021 155.165 87.3649 155.007 87.3649Z" fill="#9EBCEA"/>
<path d="M149.292 91.9848C149.134 91.9848 148.982 91.922 148.87 91.8102C148.758 91.6984 148.696 91.5467 148.696 91.3886V70.68C148.696 70.5219 148.758 70.3703 148.87 70.2585C148.982 70.1467 149.134 70.0839 149.292 70.0839C149.45 70.0839 149.601 70.1467 149.713 70.2585C149.825 70.3703 149.888 70.5219 149.888 70.68V91.3886C149.888 91.5467 149.825 91.6984 149.713 91.8102C149.601 91.922 149.45 91.9848 149.292 91.9848Z" fill="#9EBCEA"/>
<path d="M143.576 97.797C143.418 97.797 143.266 97.7342 143.154 97.6224C143.042 97.5106 142.98 97.359 142.98 97.2009V64.8678C142.98 64.7097 143.042 64.5581 143.154 64.4463C143.266 64.3345 143.418 64.2717 143.576 64.2717C143.734 64.2717 143.885 64.3345 143.997 64.4463C144.109 64.5581 144.172 64.7097 144.172 64.8678V97.2009C144.172 97.359 144.109 97.5106 143.997 97.6224C143.885 97.7342 143.734 97.797 143.576 97.797Z" fill="#9EBCEA"/>
<path d="M145.637 139.58C145.479 139.58 145.327 139.517 145.216 139.405C145.104 139.293 145.041 139.142 145.041 138.984V129.22C145.041 129.062 145.104 128.91 145.216 128.798C145.327 128.686 145.479 128.624 145.637 128.624C145.795 128.624 145.947 128.686 146.059 128.798C146.17 128.91 146.233 129.062 146.233 129.22V138.984C146.233 139.142 146.17 139.293 146.059 139.405C145.947 139.517 145.795 139.58 145.637 139.58Z" fill="white"/>
<path d="M152.791 139.58C152.632 139.58 152.481 139.517 152.369 139.405C152.257 139.293 152.194 139.142 152.194 138.984V129.22C152.194 129.062 152.257 128.91 152.369 128.798C152.481 128.686 152.632 128.624 152.791 128.624C152.949 128.624 153.1 128.686 153.212 128.798C153.324 128.91 153.387 129.062 153.387 129.22V138.984C153.387 139.142 153.324 139.293 153.212 139.405C153.1 139.517 152.949 139.58 152.791 139.58Z" fill="white"/>
<path d="M174.889 137.402C174.772 137.402 174.656 137.367 174.558 137.302C174.46 137.236 174.384 137.143 174.339 137.034C174.294 136.925 174.282 136.805 174.305 136.69C174.328 136.574 174.385 136.468 174.468 136.385L179.876 130.976C179.988 130.864 180.14 130.802 180.298 130.802C180.456 130.801 180.608 130.864 180.719 130.976C180.831 131.088 180.894 131.239 180.894 131.398C180.894 131.556 180.831 131.707 180.72 131.819L175.311 137.227C175.256 137.283 175.19 137.327 175.118 137.357C175.045 137.387 174.968 137.402 174.889 137.402Z" fill="white"/>
<path d="M180.297 137.402C180.219 137.402 180.141 137.387 180.069 137.357C179.996 137.327 179.931 137.283 179.875 137.227L174.467 131.819C174.359 131.707 174.298 131.556 174.3 131.4C174.301 131.243 174.364 131.094 174.474 130.983C174.585 130.873 174.734 130.81 174.891 130.809C175.047 130.808 175.198 130.868 175.31 130.976L180.719 136.384C180.802 136.468 180.859 136.574 180.882 136.69C180.905 136.805 180.893 136.925 180.848 137.034C180.803 137.143 180.726 137.236 180.628 137.302C180.53 137.367 180.415 137.402 180.297 137.402Z" fill="white"/>
<path d="M123.495 131.867H119.026V136.336H123.495V131.867Z" fill="white"/>
<path d="M273.314 170.629H269.541V174.788H273.314V170.629Z" fill="#C1D8ED"/>
<path d="M309.208 170.629H305.436V174.788H309.208V170.629Z" fill="#C1D8ED"/>
<path d="M312.456 123.211H296.627V171.112H312.456V123.211Z" fill="#C1D8ED"/>
<path d="M269.493 124.271H253.282V170.629H269.493V124.271Z" fill="#C1D8ED"/>
<path d="M297.693 171.112H252.216V123.211H297.693V171.112ZM254.349 168.979H295.56V125.343H254.349V168.979Z" fill="#DEE8F5"/>
<path d="M297.693 171.112H252.216V144.703H297.693V171.112ZM254.349 168.979H295.56V146.833H254.349V168.979Z" fill="#DEE8F5"/>
<path d="M258.894 170.629H255.121V174.788H258.894V170.629Z" fill="#DEE8F5"/>
<path d="M294.788 170.629H291.015V174.788H294.788V170.629Z" fill="#DEE8F5"/>
<path d="M288.852 140.839H270.75V144.937H288.852V140.839Z" fill="#C1D8ED"/>
<path d="M289.163 132.65H271.061V136.748H289.163V132.65Z" fill="#C1D8ED"/>
<path d="M282.675 140.839H263.531V144.937H282.675V140.839Z" fill="#DEE8F5"/>
<g opacity="0.62">
<path d="M281.112 140.839H280.183V144.937H281.112V140.839Z" fill="#C1D8ED"/>
</g>
<g opacity="0.62">
<path d="M279.254 140.839H278.325V144.937H279.254V140.839Z" fill="#C1D8ED"/>
</g>
<path d="M265.726 144.21C266.456 144.21 267.048 143.618 267.048 142.888C267.048 142.158 266.456 141.566 265.726 141.566C264.996 141.566 264.404 142.158 264.404 142.888C264.404 143.618 264.996 144.21 265.726 144.21Z" fill="#F3F5FD"/>
<path d="M282.986 132.65H263.843V136.748H282.986V132.65Z" fill="#DEE8F5"/>
<path d="M278.434 133.573H265.075V135.825H278.434V133.573Z" fill="#F3F5FD"/>
<g opacity="0.62">
<path d="M281.423 132.65H279.665V136.748H281.423V132.65Z" fill="#C1D8ED"/>
</g>
<path d="M272.226 140.843H290.329V136.744H272.226V140.843Z" fill="#C1D8ED"/>
<path d="M265.008 140.843H284.151V136.744H265.008V140.843Z" fill="#F3F5FD"/>
<path d="M266.571 140.843H267.5V136.744H266.571V140.843Z" fill="#DEE8F5"/>
<path d="M268.429 140.843H269.358V136.744H268.429V140.843Z" fill="#DEE8F5"/>
<path d="M281.957 140.115C282.687 140.115 283.279 139.524 283.279 138.793C283.279 138.063 282.687 137.472 281.957 137.472C281.227 137.472 280.635 138.063 280.635 138.793C280.635 139.524 281.227 140.115 281.957 140.115Z" fill="#DEE8F5"/>
<path d="M279.241 137.789H270.79V139.798H279.241V137.789Z" fill="#DEE8F5"/>
<path d="M280.461 155.314C279.646 155.048 278.81 155.348 278.009 155.956C279.064 153.294 279.5 150.888 277.697 150.781C276.436 150.706 275.47 151.673 274.736 153.048C274.478 150.63 273.812 148.827 272.322 149.425C270.684 150.08 270.435 152.331 270.683 154.685C269.961 153.483 269.185 152.812 268.479 153.517C266.374 155.622 271.541 161.553 271.541 161.553H272.822L273.555 162.348C273.406 162.662 273.325 162.848 273.325 162.848L274.255 164.741C274.255 164.741 283.843 156.422 280.461 155.314Z" fill="#8DDBE0"/>
<path d="M278.161 168.979H270.9L269.684 160.502H279.376L278.161 168.979Z" fill="#262626"/>
<path d="M26.1912 172.147C20.2878 170.317 14.5603 167.927 9.34123 161.235C8.2703 159.864 7.26405 158.107 7.85093 156.466C8.29236 155.231 9.57014 154.439 10.8685 154.237C11.3521 154.167 11.8423 154.154 12.329 154.197C12.3317 154.197 12.3341 154.197 12.3347 154.197C13.083 154.274 13.8227 154.419 14.5445 154.631L14.7504 154.69C18.1949 155.669 21.476 157.151 24.4878 159.088C24.7607 159.262 25.0844 159.338 25.4063 159.305C25.7282 159.272 26.0293 159.13 26.2607 158.904C26.4921 158.678 26.6402 158.38 26.6809 158.059C26.7215 157.738 26.6524 157.413 26.4848 157.136C26.1774 156.634 25.8199 156.164 25.4177 155.735C24.8243 155.114 24.1743 154.551 23.4762 154.051C22.548 153.374 21.5575 152.77 20.5888 152.152C16.9864 149.857 13.5735 147.278 10.383 144.439C8.10577 142.411 5.87866 140.159 4.7964 137.307C4.29924 135.996 4.07301 134.484 4.66615 133.213C5.64498 131.126 8.41754 130.542 10.6849 130.975C14.658 131.736 17.8321 134.648 20.6467 137.551C22.9808 139.963 25.5963 142.634 28.9497 142.782C29.5213 142.836 30.096 142.72 30.6028 142.451C31.5596 141.871 31.8052 140.529 31.4645 139.463C31.1238 138.397 30.3345 137.545 29.573 136.727C25.1465 131.979 20.7906 127.038 17.9161 121.22C15.0416 115.401 13.7704 108.53 15.7674 102.352C16.3528 100.546 17.2327 98.7889 18.6053 97.4765C19.9778 96.1641 21.903 95.3418 23.7873 95.5931C26.3545 95.9311 28.2881 98.0968 29.5888 100.335C34.0597 108.011 33.7864 117.416 35.0457 126.209C35.398 128.67 35.9101 131.195 37.3765 133.221C37.5117 133.416 37.687 133.58 37.8907 133.701C39.0972 134.4 40.1801 132.991 40.6328 131.796C42.4212 127.066 42.8683 121.656 46.0704 117.742C47.2924 116.251 49.0212 115.006 50.9481 115.018C53.3013 115.034 55.3162 117 56.0026 119.25C56.6891 121.501 56.2786 123.947 55.543 126.182C54.1773 130.327 51.7278 134.051 48.845 137.323C47.3249 139.052 45.6048 140.798 45.149 143.052C45.0094 143.818 45.068 144.607 45.319 145.345C45.5701 146.082 46.0054 146.743 46.5836 147.265C46.854 147.5 47.1689 147.678 47.5097 147.79C47.8504 147.901 48.21 147.943 48.5672 147.913C49.3395 147.842 50.0384 147.448 50.7118 147.065C50.9943 146.904 51.2781 146.741 51.5633 146.581C52.688 145.941 53.8128 145.299 54.9377 144.657C57.7975 143.026 61.2509 141.359 64.23 142.764C65.7501 143.482 66.7459 144.895 67.2145 146.515C67.6338 147.986 67.6338 149.545 67.2145 151.016C66.3271 154.075 60.7343 162.587 58.4273 164.782C55.7326 167.346 46.3899 178.407 26.1912 172.147Z" fill="#8DDBE0"/>
</g>
<defs>
<clipPath id="clip0_524_2709">
<rect width="327.304" height="180" fill="white"/>
</clipPath>
</defs>
</svg>
