<svg width="310" height="151" viewBox="0 0 310 151" fill="none" xmlns="http://www.w3.org/2000/svg">
<g clip-path="url(#clip0_794_4554)">
<path d="M17.1331 151C5.8695 151 -2.305 140.044 0.586217 128.873C5.20332 111.038 18.4302 87.1241 55.4018 75.7815C104.505 60.7188 101.752 0 140.972 0C180.192 0 180.399 30.8359 192.092 33.9718C203.785 37.1076 242.983 27.7947 251.739 55.2832C267.925 106.096 289.65 81.6013 306.509 120.73C307.56 123.189 308.467 125.701 309.228 128.256C312.626 139.555 304.378 151 292.854 151L17.1331 151Z" fill="#F3F5FD"/>
<path d="M78.1536 151H22.5209C19.4697 143.397 28.6388 139.647 31.5521 144.574C29.8134 141.635 29.3509 137.909 32.9624 135.511C36.7473 133.61 41.3039 135.783 42.0014 139.222C41.0733 134.642 45.4933 130.08 50.4121 129.042C63.0365 126.381 65.8527 138.307 64.708 140.182C68.0432 134.718 81.8297 141.461 78.1536 151Z" fill="#8DDBE0"/>
<path d="M151.24 42.5125C149.973 42.119 148.61 42.119 147.343 42.5125C146.615 42.7452 145.965 43.1597 145.461 43.7134C144.817 44.4441 144.342 45.4557 144.388 46.4256C144.422 46.9269 144.587 47.4119 144.87 47.8352C145.152 48.2584 145.542 48.6061 146.003 48.8456C146.82 49.2467 148.049 49.3299 148.764 48.6885C149.31 48.2002 149.282 47.3605 148.93 46.7778C148.368 45.8479 147.141 45.4687 146.075 45.5982C145.467 45.6817 144.883 45.8814 144.358 46.1852C143.833 46.4891 143.376 46.8909 143.016 47.367C142.676 47.8174 142.43 48.3263 142.291 48.8659C142.131 49.3775 142.139 49.9239 142.315 50.4308C142.352 50.5463 142.434 50.6438 142.544 50.7035C142.653 50.7632 142.783 50.7805 142.905 50.7518C143.028 50.7188 143.131 50.6409 143.194 50.535C143.257 50.4292 143.274 50.304 143.241 50.1864C143.181 50.056 143.147 49.916 143.142 49.7737C143.133 49.5982 143.147 49.4223 143.184 49.2502C143.27 48.8526 143.425 48.4717 143.644 48.124C144.086 47.4309 144.77 46.9097 145.574 46.6525C146.343 46.4061 147.252 46.4084 147.869 46.9669C147.984 47.0659 148.078 47.1853 148.146 47.3184C148.155 47.3333 148.183 47.4007 148.15 47.3214C148.165 47.3572 148.178 47.394 148.189 47.4309C148.196 47.4542 148.203 47.4774 148.209 47.5018C148.217 47.5337 148.228 47.6806 148.221 47.5462C148.223 47.583 148.256 47.7997 148.221 47.8206C148.21 47.8269 148.249 47.6899 148.227 47.7704C148.224 47.7843 148.223 47.7992 148.219 47.8129C148.21 47.8523 148.199 47.8911 148.185 47.9292C148.123 48.025 148.031 48.099 147.921 48.1398C147.991 48.1079 147.848 48.163 147.849 48.163C147.82 48.1716 147.789 48.1788 147.759 48.1863C147.671 48.2084 147.581 48.2216 147.491 48.2258C147.334 48.2363 147.177 48.2324 147.022 48.2142C146.855 48.1856 146.692 48.1388 146.536 48.0747C146.196 47.9163 145.906 47.6735 145.697 47.3716C145.488 47.0697 145.368 46.7197 145.348 46.358C145.357 45.9466 145.454 45.5413 145.632 45.1669C145.703 45.0149 145.784 44.8674 145.875 44.7252C145.954 44.5983 146.044 44.4774 146.142 44.3634C146.242 44.2503 146.349 44.1434 146.463 44.0433C146.518 43.9945 146.575 43.9473 146.634 43.9019C146.747 43.8133 146.561 43.9514 146.678 43.8696C146.714 43.8447 146.751 43.8201 146.787 43.7964C146.914 43.7142 147.045 43.6394 147.182 43.5722C147.252 43.5374 147.324 43.5048 147.396 43.4737C147.412 43.4672 147.481 43.4404 147.4 43.4718C147.447 43.4537 147.494 43.4365 147.541 43.42C147.854 43.3126 148.178 43.2348 148.507 43.1875C148.645 43.1665 148.407 43.1963 148.545 43.1828C148.587 43.1789 148.628 43.174 148.67 43.1703C148.752 43.1628 148.834 43.157 148.917 43.1528C149.079 43.1447 149.241 43.1431 149.402 43.147C149.559 43.1507 149.715 43.16 149.871 43.1747C149.905 43.1779 150.138 43.2058 150.005 43.1879C150.078 43.1977 150.149 43.2084 150.221 43.2203C150.48 43.2627 150.736 43.3222 150.986 43.3981C151.576 43.5785 151.828 42.6913 151.241 42.5116L151.24 42.5125Z" fill="#0CBC8B"/>
<path d="M59.5648 25.6496C60.7896 25.2281 62.0676 26.0807 62.643 27.1243C63.2101 28.1531 63.0778 29.6225 61.9683 30.2806C61.4966 30.5596 60.8362 30.654 60.425 30.2951C59.996 29.9207 60.0222 29.4544 60.4461 29.0798C60.5454 28.9946 60.6536 28.9194 60.769 28.8555C60.8362 28.8166 60.9047 28.7799 60.9749 28.7462C61.0006 28.7339 61.0266 28.7229 61.0526 28.7104C61.1237 28.6783 60.9489 28.7462 61.0783 28.7002C61.182 28.6629 61.2878 28.6314 61.3954 28.606C61.4465 28.5941 61.4981 28.5835 61.55 28.5744C61.5799 28.5693 61.6097 28.5644 61.6398 28.56C61.5403 28.5749 61.6884 28.5556 61.6949 28.5549C61.9388 28.5336 62.1844 28.5375 62.4274 28.5667C62.5087 28.5765 62.3626 28.5565 62.4437 28.5695C62.4755 28.5746 62.5075 28.5797 62.5393 28.5855C62.5954 28.5955 62.651 28.6067 62.7066 28.619C62.8422 28.6495 62.9759 28.6871 63.1072 28.7316C63.1446 28.7441 63.2577 28.7855 63.257 28.7853C63.2169 28.7692 63.2912 28.8001 63.2902 28.7997C63.3203 28.8127 63.3502 28.8262 63.3798 28.8399C63.5059 28.8985 63.6282 28.9642 63.7462 29.0366C63.9484 29.1589 64.1314 29.3083 64.2895 29.4802C64.4448 29.6472 64.5736 29.8352 64.6716 30.0382C64.6909 30.0756 64.7072 30.1145 64.7202 30.1544C64.7495 30.2318 64.7753 30.3109 64.7991 30.3901C64.8516 30.5614 64.891 30.7361 64.9168 30.9128C65.0008 31.5627 64.8926 32.2222 64.6047 32.8162C64.3167 33.4103 63.8604 33.915 63.2878 34.273C63.0593 34.4098 62.8 34.4925 62.5315 34.5142C62.263 34.5359 61.993 34.496 61.7437 34.3979C61.6747 34.3662 61.6083 34.3295 61.5452 34.2881C61.4694 34.2395 61.5808 34.3221 61.5371 34.2832C61.5257 34.273 61.5141 34.2632 61.5034 34.2525C61.4888 34.2381 61.4762 34.2233 61.4624 34.2086C61.5876 34.3411 61.4769 34.2332 61.4847 34.23C61.4738 34.2135 61.464 34.1963 61.4553 34.1786C61.482 34.2186 61.4762 34.2584 61.4636 34.1919C61.4607 34.1754 61.4337 34.0421 61.4425 34.1177C61.4505 34.1874 61.4442 34.0728 61.4425 34.0498C61.4408 34.0268 61.4459 34.0052 61.4466 33.9826C61.4466 34.0003 61.4223 34.0824 61.4444 34.001C61.4592 33.9468 61.4687 33.8926 61.4881 33.8394C61.4971 33.8124 61.5464 33.705 61.5083 33.7824C61.5325 33.7311 61.5609 33.6806 61.5908 33.6316C61.6207 33.5825 61.6573 33.5286 61.694 33.4793C61.6979 33.4742 61.7474 33.4125 61.7098 33.4579C61.7314 33.4321 61.7539 33.407 61.777 33.3821C61.9757 33.1683 62.208 32.9856 62.4655 32.8404C62.5444 32.7939 62.625 32.7509 62.7083 32.7109C62.7362 32.6974 62.8656 32.6446 62.76 32.6844C62.8611 32.6461 62.9645 32.6136 63.0695 32.587C63.2821 32.526 63.5032 32.4972 63.725 32.5014C63.8502 32.4996 63.9754 32.504 64.1001 32.5147C64.1424 32.5156 64.1844 32.521 64.2254 32.5307C64.3014 32.544 64.3769 32.5591 64.4517 32.5772C64.7013 32.6319 64.9365 32.7351 65.1426 32.8806C65.5228 33.1751 65.7905 33.5819 65.9039 34.0375C66.0329 34.5121 66.0447 35.009 65.9384 35.4887C65.8397 35.9632 65.623 36.408 65.3067 36.7853C65.1461 36.972 64.9572 37.1346 64.7461 37.2675C64.2305 37.5895 64.7112 38.386 65.2317 38.0615C65.8122 37.6761 66.2776 37.1522 66.5816 36.5417C66.8856 35.9311 67.0178 35.2551 66.9651 34.5806C66.9313 33.8991 66.6919 33.2415 66.2759 32.6876C65.8268 32.1216 65.1658 31.7445 64.4322 31.6356C63.7429 31.5163 63.0321 31.5923 62.3872 31.8543C61.7422 32.1162 61.1911 32.5528 60.8015 33.1103C60.4983 33.5704 60.3475 34.2 60.6578 34.6938C61.0511 35.3215 62.0013 35.4973 62.701 35.4145C63.5441 35.2813 64.3002 34.8395 64.8095 34.1823C65.4083 33.5076 65.7839 32.6775 65.8884 31.7977C65.9824 30.979 65.8197 30.1521 65.4211 29.4223C65.0856 28.8645 64.592 28.4092 63.9974 28.1089C62.8598 27.5233 61.3878 27.4115 60.2587 28.075C59.5204 28.5095 58.9421 29.276 59.2189 30.1384C59.3501 30.5265 59.6088 30.8637 59.9563 31.0997C60.3038 31.3357 60.7216 31.458 61.1475 31.4482C62.9739 31.4187 64.1256 29.5883 63.9125 27.9808C63.691 26.3129 62.2669 24.8189 60.4925 24.6302C60.0931 24.5877 59.689 24.6326 59.3104 24.7615C59.1894 24.7965 59.0871 24.8747 59.0246 24.98C58.9622 25.0853 58.9445 25.2095 58.9751 25.3269C59.0098 25.444 59.0912 25.5432 59.2017 25.6033C59.3121 25.6634 59.4428 25.6794 59.5656 25.648L59.5648 25.6496Z" fill="#0CBC8B"/>
<path d="M81.3149 54.8194C82.7136 54.6935 84.0286 54.1246 85.0519 53.2029C85.6399 52.6538 86.0497 51.9537 86.232 51.1869C86.4593 50.2393 86.3687 49.1145 85.8021 48.2896C85.5374 47.9215 85.1892 47.6154 84.7835 47.3943C84.3778 47.1733 83.9252 47.0429 83.4596 47.013C82.5698 46.9769 81.4329 47.3547 81.0512 48.1943C80.746 48.8657 81.124 49.6625 81.7283 50.0542C82.6875 50.6738 83.939 50.5308 84.8883 49.9726C85.4045 49.6538 85.8482 49.2385 86.1928 48.7515C86.5375 48.2646 86.7759 47.716 86.8939 47.1388C87.1012 46.1176 86.9762 44.8506 86.1701 44.0859C86.0698 44.0112 85.9428 43.9772 85.8165 43.9915C85.6903 44.0057 85.5749 44.0669 85.4955 44.1619C85.4195 44.2588 85.3854 44.3799 85.4002 44.5002C85.4149 44.6205 85.4775 44.7307 85.5749 44.808C85.502 44.7397 85.6091 44.8492 85.6137 44.8545C85.6341 44.8792 85.6535 44.9047 85.6722 44.9305C85.7081 44.9773 85.7387 45.0276 85.7635 45.0805C85.8417 45.242 85.9012 45.4112 85.9412 45.585C86.0197 45.9545 86.0367 46.3336 85.9915 46.7082C85.8887 47.5255 85.4848 48.2809 84.8524 48.8385C84.2554 49.3591 83.4399 49.711 82.6395 49.4681C82.478 49.4251 82.3284 49.3487 82.2012 49.2442C82.177 49.2247 82.1527 49.2042 82.1296 49.1831C82.2039 49.2507 82.1053 49.1559 82.0978 49.1463C82.0803 49.1256 82.0633 49.1045 82.0473 49.0829C82.0313 49.0612 81.9475 48.9189 82.0094 49.0364C81.9677 48.9573 81.9495 48.8564 81.9043 48.782C81.907 48.7864 81.9182 48.8897 81.9089 48.7955C81.9004 48.748 81.8985 48.6996 81.9034 48.6516C81.9276 48.4995 81.8949 48.6665 81.9223 48.5851C81.9259 48.5739 81.9747 48.477 81.9466 48.526C81.9705 48.4906 81.9966 48.4565 82.0247 48.424C82.0357 48.4096 82.1112 48.3328 82.0541 48.3858C82.1718 48.2829 82.3043 48.1968 82.4477 48.1301C82.7359 47.9816 83.0607 47.9107 83.3877 47.9248C83.3197 47.9225 83.4251 47.929 83.4401 47.9309C83.4819 47.9355 83.5234 47.939 83.5649 47.9448C83.6486 47.9557 83.7315 47.9713 83.8133 47.9913C83.7567 47.9769 83.8375 47.9987 83.8429 48.0001C83.8914 48.0152 83.94 48.0325 83.9886 48.0508C84.0785 48.0852 84.1665 48.124 84.2522 48.1671C84.562 48.3279 84.8281 48.556 85.0291 48.8332C85.4608 49.4637 85.451 50.3481 85.2835 51.0469C85.2634 51.1316 85.2512 51.1734 85.2369 51.2164C85.2117 51.2921 85.1839 51.3668 85.1536 51.4406C85.0941 51.5841 85.025 51.7239 84.9468 51.859C84.8718 51.9885 84.9953 51.7881 84.9138 51.9127C84.8973 51.9381 84.8803 51.9634 84.8628 51.9883C84.8197 52.0503 84.7747 52.1112 84.7278 52.171C84.6254 52.3003 84.5147 52.4234 84.3964 52.5395C84.3751 52.5605 84.3534 52.5814 84.3316 52.6019C84.4032 52.5347 84.2886 52.6384 84.2741 52.6509C84.2119 52.7041 84.1482 52.7558 84.083 52.806C83.9419 52.9142 83.7948 53.0151 83.6424 53.1082C83.5732 53.1505 83.5025 53.1903 83.4321 53.2305C83.4117 53.2421 83.3253 53.2882 83.4095 53.244C83.3707 53.2642 83.3314 53.284 83.2923 53.3031C83.1376 53.3791 82.9793 53.4484 82.8186 53.5123C82.5339 53.6226 82.242 53.7147 81.9446 53.7883C81.9187 53.7948 81.8313 53.8131 81.9356 53.7908C81.899 53.7987 81.8628 53.8066 81.8259 53.8141C81.755 53.8285 81.6839 53.8417 81.6125 53.8536C81.4806 53.8758 81.3481 53.893 81.2151 53.9054C80.5987 53.9638 80.7002 54.8784 81.3154 54.8201L81.3149 54.8194Z" fill="#0CBC8B"/>
<path d="M73.2322 16.8341L71.709 17.772L74.0283 21.2263L75.5514 20.2884L73.2322 16.8341Z" fill="#0CBC8B"/>
<path d="M113.165 54.6502L110.546 58.4375L112.055 59.395L114.675 55.6077L113.165 54.6502Z" fill="#0CBC8B"/>
<path d="M162.474 62.5282L160.716 62.9438L161.84 67.3029L163.598 66.8873L162.474 62.5282Z" fill="#0CBC8B"/>
<path d="M166.099 27.9154L164.608 28.8994L167.37 32.7375L168.861 31.7534L166.099 27.9154Z" fill="#0CBC8B"/>
<path d="M33.5931 45.1847L30.208 49.0228L31.5913 50.1417L34.9764 46.3036L33.5931 45.1847Z" fill="#0CBC8B"/>
<path d="M139.341 22.7478C138.116 22.3263 136.838 23.1786 136.263 24.2225C135.696 25.2512 135.828 26.7206 136.937 27.3788C137.409 27.6578 138.069 27.7522 138.481 27.3932C138.909 27.0189 138.883 26.5525 138.459 26.178C138.36 26.0927 138.252 26.0175 138.136 25.9536C138.069 25.9148 138.001 25.878 137.931 25.8443C137.905 25.832 137.879 25.8211 137.853 25.8085C137.782 25.7764 137.956 25.8443 137.827 25.7983C137.724 25.761 137.618 25.7296 137.51 25.7041C137.459 25.6922 137.407 25.6817 137.356 25.6725C137.326 25.6674 137.296 25.6625 137.266 25.6581C137.365 25.673 137.217 25.6537 137.21 25.653C136.967 25.6316 136.721 25.6356 136.478 25.6648C136.397 25.6746 136.543 25.6546 136.462 25.6676C136.43 25.6727 136.398 25.6779 136.366 25.6837C136.31 25.6937 136.254 25.7048 136.199 25.7172C136.063 25.7476 135.93 25.7852 135.798 25.8297C135.761 25.8422 135.648 25.8836 135.648 25.8834C135.689 25.8673 135.614 25.8983 135.615 25.8978C135.585 25.9108 135.555 25.9243 135.526 25.938C135.4 25.9966 135.277 26.0623 135.159 26.1347C134.957 26.2571 134.774 26.4065 134.616 26.5783C134.461 26.7453 134.332 26.9333 134.234 27.1363C134.214 27.1738 134.198 27.2127 134.184 27.2525C134.155 27.33 134.129 27.409 134.105 27.4883C134.053 27.6595 134.013 27.8342 133.988 28.0109C133.904 28.6609 134.012 29.3203 134.3 29.9144C134.588 30.5084 135.044 31.0131 135.616 31.3711C135.845 31.5079 136.104 31.5906 136.373 31.6123C136.641 31.634 136.911 31.5941 137.16 31.496C137.229 31.4642 137.296 31.4276 137.359 31.3862C137.435 31.3377 137.324 31.4202 137.367 31.3814C137.378 31.3711 137.391 31.3614 137.401 31.3507C137.415 31.3363 137.428 31.3214 137.442 31.3067C137.317 31.4393 137.427 31.3314 137.42 31.3281C137.43 31.3115 137.44 31.2944 137.449 31.2767C137.422 31.3167 137.428 31.3565 137.441 31.29C137.444 31.2735 137.471 31.1403 137.462 31.2158C137.454 31.2856 137.46 31.171 137.46 31.1479C137.461 31.1249 137.457 31.1033 137.457 31.0807C137.457 31.0984 137.481 31.1805 137.459 31.0991C137.444 31.0449 137.433 30.9908 137.415 30.9375C137.406 30.9106 137.357 30.8032 137.395 30.8806C137.37 30.8292 137.342 30.7787 137.312 30.7297C137.282 30.6806 137.246 30.6267 137.209 30.5774C137.205 30.5723 137.156 30.5107 137.193 30.556C137.172 30.5302 137.149 30.5051 137.126 30.4802C136.927 30.2665 136.695 30.0838 136.438 29.9385C136.359 29.892 136.278 29.8488 136.195 29.809C136.167 29.7955 136.038 29.7428 136.143 29.7825C136.042 29.7442 135.939 29.7117 135.834 29.6851C135.621 29.6242 135.4 29.5953 135.178 29.5995C135.053 29.5977 134.928 29.6021 134.803 29.6128C134.761 29.6137 134.719 29.6191 134.678 29.6288C134.602 29.6421 134.526 29.6572 134.452 29.6753C134.202 29.7296 133.967 29.8325 133.761 29.9776C133.38 30.2721 133.113 30.6789 132.999 31.1345C132.87 31.6091 132.859 32.1059 132.965 32.5857C133.064 33.0602 133.281 33.5049 133.598 33.882C133.758 34.0688 133.947 34.2312 134.158 34.364C134.674 34.6862 134.193 35.4828 133.673 35.1582C133.092 34.7728 132.627 34.2489 132.323 33.6384C132.019 33.0278 131.887 32.3518 131.94 31.6773C131.973 30.9957 132.213 30.338 132.629 29.7841C133.078 29.2182 133.739 28.8411 134.472 28.7323C135.162 28.6131 135.872 28.689 136.517 28.9509C137.162 29.2129 137.713 29.6493 138.103 30.2068C138.406 30.6671 138.557 31.2967 138.247 31.7905C137.853 32.4183 136.903 32.594 136.204 32.5113C135.36 32.3781 134.604 31.9362 134.095 31.2791C133.496 30.6043 133.121 29.7742 133.016 28.8944C132.922 28.0757 133.085 27.2488 133.484 26.519C133.819 25.9612 134.312 25.5058 134.907 25.2057C136.045 24.62 137.517 24.5082 138.646 25.1717C139.384 25.6063 139.963 26.3728 139.686 27.2351C139.554 27.6232 139.296 27.9604 138.948 28.1964C138.601 28.4324 138.183 28.5547 137.757 28.545C135.931 28.5154 134.779 26.685 134.992 25.0776C135.213 23.4097 136.637 21.9157 138.412 21.7269C138.812 21.6851 139.217 21.7311 139.596 21.8613C139.717 21.8963 139.819 21.9745 139.882 22.0798C139.944 22.185 139.962 22.3092 139.931 22.4267C139.896 22.5435 139.815 22.6426 139.705 22.7026C139.594 22.7626 139.463 22.7788 139.341 22.7478Z" fill="#0CBC8B"/>
<path d="M106.225 43.1254C104.826 42.9996 103.511 42.4307 102.488 41.5086C101.9 40.9597 101.49 40.2597 101.308 39.4929C101.081 38.5453 101.171 37.4205 101.738 36.5956C102.002 36.2275 102.351 35.9215 102.756 35.7004C103.162 35.4793 103.615 35.3489 104.08 35.319C104.97 35.283 106.107 35.6605 106.489 36.5003C106.794 37.1717 106.416 37.9685 105.812 38.3602C104.852 38.9801 103.601 38.8371 102.651 38.2786C102.135 37.9598 101.692 37.5445 101.347 37.0576C101.002 36.5707 100.764 36.0222 100.646 35.445C100.439 34.4239 100.564 33.1568 101.37 32.3922C101.47 32.3174 101.597 32.2835 101.723 32.2977C101.849 32.312 101.965 32.3732 102.044 32.4682C102.12 32.5649 102.154 32.6861 102.14 32.8063C102.125 32.9266 102.062 33.0368 101.965 33.114C102.038 33.0459 101.931 33.1554 101.926 33.1605C101.906 33.1852 101.886 33.2108 101.868 33.2366C101.832 33.2833 101.801 33.3335 101.776 33.3865C101.698 33.548 101.638 33.7171 101.598 33.891C101.52 34.2605 101.503 34.6395 101.548 35.014C101.651 35.8314 102.055 36.5869 102.688 37.1445C103.284 37.6648 104.1 38.0168 104.9 37.7741C105.062 37.7309 105.211 37.6545 105.339 37.5502C105.363 37.5307 105.387 37.5102 105.411 37.4891C105.337 37.5567 105.436 37.4619 105.443 37.4521C105.461 37.4317 105.477 37.4105 105.494 37.3889C105.51 37.3672 105.594 37.2247 105.532 37.3424C105.573 37.2636 105.591 37.1627 105.637 37.0883C105.634 37.0924 105.623 37.1959 105.632 37.1017C105.641 37.0542 105.643 37.0058 105.638 36.9578C105.613 36.8058 105.646 36.9727 105.619 36.8911C105.615 36.8802 105.566 36.7832 105.594 36.8323C105.57 36.7968 105.544 36.7627 105.516 36.7302C105.505 36.7158 105.43 36.6389 105.487 36.6921C105.369 36.5891 105.236 36.503 105.093 36.4364C104.805 36.2877 104.48 36.2168 104.153 36.2311C104.221 36.2287 104.116 36.2352 104.101 36.2369C104.059 36.2418 104.017 36.245 103.976 36.2508C103.892 36.2622 103.809 36.2782 103.727 36.2987C103.784 36.2843 103.703 36.3059 103.698 36.3076C103.649 36.3227 103.601 36.3399 103.552 36.3582C103.462 36.3927 103.374 36.4315 103.288 36.4745C102.979 36.6355 102.713 36.8636 102.511 37.1406C102.08 37.7713 102.089 38.6557 102.257 39.3546C102.277 39.4392 102.289 39.4811 102.304 39.5241C102.329 39.5997 102.357 39.6744 102.387 39.7482C102.446 39.8918 102.516 40.0316 102.594 40.1667C102.669 40.2964 102.545 40.0969 102.627 40.2204C102.643 40.246 102.66 40.2711 102.678 40.2962C102.721 40.3582 102.766 40.419 102.813 40.4787C102.915 40.6081 103.026 40.7312 103.144 40.8474C103.166 40.8684 103.187 40.889 103.209 40.9097C103.137 40.8425 103.252 40.9462 103.266 40.9588C103.329 41.012 103.392 41.0636 103.457 41.1139C103.599 41.2221 103.746 41.3229 103.898 41.4161C103.967 41.4584 104.038 41.4979 104.108 41.5382C104.129 41.55 104.215 41.5961 104.131 41.5519C104.17 41.5721 104.209 41.5916 104.248 41.6109C104.403 41.6869 104.561 41.7566 104.722 41.8202C105.007 41.9304 105.299 42.0225 105.596 42.0959C105.622 42.1027 105.709 42.121 105.605 42.0985C105.642 42.1064 105.678 42.1145 105.715 42.1217C105.786 42.1361 105.857 42.1492 105.928 42.1612C106.06 42.1831 106.192 42.2004 106.326 42.2131C106.942 42.2714 106.84 43.1861 106.225 43.1277L106.225 43.1254Z" fill="#0CBC8B"/>
<path d="M125.674 13.9331L123.355 17.3875L124.878 18.3253L127.197 14.871L125.674 13.9331Z" fill="#0CBC8B"/>
<path d="M64.6028 59.9748L63.0933 60.9323L65.7127 64.7195L67.2222 63.7621L64.6028 59.9748Z" fill="#0CBC8B"/>
<path d="M165.312 42.2839L163.929 43.4027L167.314 47.2408L168.698 46.122L165.312 42.2839Z" fill="#0CBC8B"/>
<path d="M61.3852 72.9461L58.1138 76.1624L59.4109 77.3724L62.6824 74.1562L61.3852 72.9461Z" fill="#0CBC8B"/>
<path d="M131.874 68.8435L130.351 69.7814L132.67 73.2357L134.193 72.2978L131.874 68.8435Z" fill="#0CBC8B"/>
<path d="M225.842 25.6497C227.067 25.2282 228.345 26.0808 228.92 27.1244C229.487 28.1532 229.355 29.6226 228.245 30.2807C227.774 30.5597 227.113 30.6541 226.702 30.2952C226.273 29.9208 226.299 29.4545 226.723 29.0799C226.823 28.9948 226.931 28.9196 227.046 28.8556C227.113 28.8167 227.182 28.78 227.252 28.7463C227.278 28.734 227.304 28.723 227.33 28.7105C227.401 28.6784 227.226 28.7463 227.355 28.7003C227.459 28.663 227.565 28.6315 227.672 28.6061C227.724 28.5942 227.775 28.5829 227.827 28.5745C227.857 28.5694 227.887 28.5645 227.917 28.5601C227.818 28.5749 227.965 28.5556 227.972 28.555C228.216 28.5337 228.462 28.5376 228.705 28.5668C228.786 28.5766 228.64 28.5566 228.721 28.5696C228.753 28.5747 228.785 28.5798 228.817 28.5856C228.872 28.5956 228.928 28.6068 228.984 28.6191C229.119 28.6496 229.253 28.6871 229.384 28.7316C229.422 28.7442 229.535 28.7856 229.534 28.7854C229.494 28.7693 229.568 28.8002 229.568 28.7998C229.597 28.8128 229.627 28.8263 229.657 28.84C229.783 28.8986 229.905 28.9643 230.023 29.0367C230.226 29.1589 230.408 29.3083 230.567 29.4803C230.722 29.6472 230.851 29.8352 230.949 30.0383C230.968 30.0757 230.985 30.1146 230.998 30.1545C231.028 30.2319 231.054 30.311 231.077 30.3902C231.13 30.5615 231.169 30.7362 231.195 30.9129C231.279 31.5628 231.171 32.2224 230.883 32.8164C230.595 33.4104 230.139 33.9151 229.566 34.2731C229.338 34.4099 229.078 34.4926 228.81 34.5143C228.541 34.536 228.271 34.4961 228.022 34.3979C227.953 34.3663 227.887 34.3297 227.824 34.2882C227.748 34.2396 227.859 34.3222 227.815 34.2833C227.804 34.2731 227.791 34.2633 227.782 34.2526C227.767 34.2382 227.754 34.2233 227.741 34.2087C227.866 34.3412 227.755 34.2333 227.763 34.2301C227.752 34.2135 227.742 34.1964 227.734 34.1787C227.761 34.2187 227.754 34.2585 227.742 34.192C227.739 34.1755 227.712 34.0422 227.721 34.1178C227.729 34.1875 227.722 34.0729 227.721 34.0499C227.719 34.0269 227.724 34.0053 227.725 33.9827C227.725 34.0004 227.701 34.0825 227.723 34.0011C227.737 33.9469 227.748 33.8927 227.766 33.8395C227.776 33.8125 227.825 33.7051 227.787 33.7825C227.812 33.7312 227.839 33.6807 227.869 33.6317C227.899 33.5826 227.936 33.5287 227.972 33.4794C227.976 33.4743 228.026 33.4126 227.988 33.458C228.01 33.4322 228.032 33.4071 228.055 33.3822C228.254 33.1685 228.486 32.9857 228.744 32.8405C228.823 32.794 228.903 32.751 228.987 32.711C229.014 32.6975 229.144 32.6447 229.038 32.6845C229.139 32.6463 229.243 32.6137 229.348 32.5871C229.56 32.5261 229.781 32.4973 230.003 32.5015C230.128 32.4996 230.254 32.5041 230.378 32.5148C230.421 32.5157 230.462 32.5211 230.503 32.5308C230.579 32.5441 230.655 32.5592 230.73 32.5773C230.979 32.632 231.215 32.7352 231.421 32.8807C231.801 33.1752 232.069 33.582 232.182 34.0376C232.311 34.5122 232.323 35.0091 232.216 35.4888C232.118 35.9634 231.901 36.4081 231.584 36.7852C231.423 36.9719 231.234 37.1345 231.023 37.2674C230.508 37.5894 230.988 38.3859 231.509 38.0613C232.089 37.676 232.554 37.1521 232.858 36.5416C233.162 35.931 233.295 35.255 233.242 34.5805C233.208 33.8989 232.969 33.2414 232.553 32.6875C232.104 32.1214 231.443 31.7443 230.709 31.6355C230.02 31.5162 229.309 31.5922 228.664 31.8542C228.019 32.1161 227.468 32.5526 227.078 33.1102C226.775 33.5703 226.625 34.1999 226.935 34.6937C227.328 35.3214 228.278 35.4972 228.978 35.4144C229.821 35.2813 230.577 34.8394 231.086 34.1822C231.685 33.5075 232.061 32.6774 232.165 31.7975C232.259 30.9789 232.096 30.1519 231.698 29.4221C231.362 28.8644 230.869 28.409 230.274 28.1088C229.137 27.5232 227.665 27.4113 226.536 28.0749C225.797 28.5094 225.219 29.2759 225.496 30.1382C225.627 30.5264 225.886 30.8636 226.233 31.0996C226.581 31.3356 226.999 31.4579 227.425 31.4481C229.251 31.4186 230.403 29.5881 230.189 27.9807C229.968 26.3128 228.544 24.8188 226.769 24.63C226.37 24.5876 225.966 24.6325 225.587 24.7614C225.466 24.7964 225.364 24.8746 225.302 24.9799C225.239 25.0851 225.221 25.2094 225.252 25.3268C225.287 25.4436 225.368 25.5427 225.479 25.6027C225.589 25.6627 225.72 25.6789 225.843 25.6479L225.842 25.6497Z" fill="#0CBC8B"/>
<path d="M247.592 54.8193C248.991 54.6935 250.306 54.1246 251.329 53.2028C251.917 52.6538 252.327 51.9538 252.509 51.1869C252.737 50.2392 252.646 49.1144 252.08 48.2896C251.815 47.9215 251.467 47.6154 251.061 47.3944C250.655 47.1733 250.203 47.0429 249.737 47.013C248.847 46.9769 247.71 47.3547 247.329 48.1942C247.023 48.8657 247.401 49.6624 248.006 50.0542C248.965 50.6738 250.217 50.5308 251.166 49.9726C251.682 49.6537 252.126 49.2384 252.47 48.7515C252.815 48.2645 253.053 47.716 253.171 47.1387C253.379 46.1176 253.254 44.8505 252.447 44.0859C252.347 44.0111 252.22 43.9772 252.094 43.9915C251.968 44.0057 251.853 44.0669 251.773 44.1619C251.697 44.2587 251.663 44.3799 251.678 44.5002C251.692 44.6205 251.755 44.7307 251.852 44.808C251.78 44.7396 251.886 44.8491 251.891 44.8545C251.911 44.8791 251.931 44.9047 251.95 44.9305C251.986 44.9772 252.016 45.0275 252.041 45.0805C252.119 45.2419 252.179 45.4111 252.219 45.585C252.297 45.9545 252.314 46.3336 252.269 46.7082C252.166 47.5255 251.762 48.2808 251.13 48.8385C250.533 49.359 249.717 49.711 248.917 49.4681C248.756 49.4251 248.606 49.3487 248.479 49.2442C248.454 49.2247 248.43 49.2042 248.407 49.183C248.481 49.2507 248.383 49.1558 248.375 49.1463C248.358 49.1256 248.341 49.1045 248.325 49.0828C248.308 49.0612 248.225 48.9189 248.287 49.0363C248.245 48.9573 248.227 48.8564 248.182 48.782C248.184 48.7864 248.196 48.8896 248.186 48.7955C248.178 48.748 248.176 48.6996 248.181 48.6516C248.205 48.4995 248.172 48.6664 248.2 48.5851C248.204 48.5739 248.252 48.477 248.224 48.526C248.248 48.4905 248.274 48.4565 248.302 48.4239C248.314 48.4095 248.389 48.3328 248.332 48.3858C248.449 48.2828 248.582 48.1967 248.725 48.1301C249.014 47.9816 249.338 47.9106 249.665 47.9248C249.598 47.9225 249.703 47.929 249.718 47.9308C249.759 47.9355 249.801 47.939 249.843 47.9448C249.926 47.9557 250.009 47.9713 250.091 47.9913C250.035 47.9769 250.115 47.9987 250.121 48.0001C250.169 48.0152 250.218 48.0324 250.266 48.0508C250.356 48.0851 250.444 48.1239 250.53 48.167C250.84 48.3279 251.106 48.556 251.307 48.8331C251.739 49.4637 251.729 50.3481 251.562 51.0469C251.541 51.1316 251.529 51.1734 251.515 51.2164C251.49 51.2921 251.462 51.3668 251.431 51.4405C251.372 51.5841 251.303 51.7239 251.225 51.859C251.15 51.9885 251.273 51.7881 251.192 51.9127C251.175 51.9381 251.158 51.9634 251.141 51.9883C251.098 52.0503 251.053 52.1112 251.006 52.171C250.903 52.3003 250.793 52.4234 250.674 52.5395C250.653 52.5604 250.631 52.5814 250.609 52.6018C250.682 52.5346 250.567 52.6383 250.552 52.6509C250.49 52.7041 250.426 52.7557 250.361 52.806C250.22 52.9142 250.073 53.0151 249.92 53.1082C249.851 53.1505 249.78 53.1903 249.71 53.2305C249.69 53.2421 249.603 53.2882 249.687 53.244C249.649 53.2641 249.609 53.2838 249.57 53.303C249.416 53.379 249.258 53.4487 249.096 53.5123C248.812 53.6226 248.52 53.7148 248.222 53.7882C248.196 53.7948 248.109 53.8131 248.213 53.7908C248.177 53.7987 248.141 53.8066 248.104 53.814C248.033 53.8285 247.962 53.8416 247.89 53.8536C247.758 53.8757 247.626 53.893 247.493 53.9054C246.877 53.9638 246.978 54.8784 247.593 54.82L247.592 54.8193Z" fill="#0CBC8B"/>
<path d="M239.509 16.8332L237.985 17.7711L240.305 21.2254L241.828 20.2876L239.509 16.8332Z" fill="#0CBC8B"/>
<path d="M279.442 54.6503L276.823 58.4376L278.332 59.3951L280.952 55.6078L279.442 54.6503Z" fill="#0CBC8B"/>
<path d="M184.805 27.9324L182.509 31.2976L184.025 32.2459L186.321 28.8807L184.805 27.9324Z" fill="#0CBC8B"/>
<path d="M199.869 45.1844L196.484 49.0225L197.868 50.1413L201.253 46.3032L199.869 45.1844Z" fill="#0CBC8B"/>
<path d="M272.502 43.1254C271.103 42.9995 269.788 42.4306 268.765 41.5086C268.177 40.9597 267.767 40.2597 267.585 39.4929C267.357 38.5453 267.448 37.4205 268.015 36.5956C268.279 36.2275 268.628 35.9214 269.033 35.7004C269.439 35.4793 269.891 35.3489 270.357 35.319C271.247 35.283 272.384 35.6605 272.766 36.5003C273.071 37.1717 272.693 37.9685 272.088 38.3602C271.129 38.9801 269.878 38.8371 268.928 38.2786C268.412 37.9598 267.969 37.5446 267.624 37.0577C267.279 36.5708 267.041 36.0223 266.923 35.445C266.716 34.4239 266.841 33.1568 267.647 32.3922C267.747 32.3174 267.874 32.2835 268 32.2977C268.126 32.312 268.242 32.3732 268.321 32.4682C268.397 32.5649 268.431 32.6861 268.416 32.8063C268.402 32.9266 268.339 33.0368 268.242 33.114C268.314 33.0459 268.208 33.1554 268.203 33.1605C268.183 33.1852 268.163 33.2108 268.145 33.2366C268.109 33.2833 268.078 33.3336 268.053 33.3865C267.975 33.548 267.915 33.7172 267.876 33.891C267.797 34.2605 267.78 34.6395 267.825 35.014C267.928 35.8314 268.332 36.5869 268.964 37.1445C269.561 37.6648 270.377 38.0168 271.177 37.7741C271.338 37.7307 271.487 37.6543 271.614 37.5502C271.639 37.5307 271.663 37.5102 271.687 37.4891C271.613 37.5567 271.711 37.4619 271.719 37.4521C271.736 37.4317 271.753 37.4105 271.769 37.3889C271.786 37.3672 271.869 37.2247 271.807 37.3424C271.849 37.2636 271.867 37.1627 271.912 37.0883C271.91 37.0924 271.899 37.1959 271.908 37.1017C271.916 37.0542 271.918 37.0058 271.913 36.9578C271.889 36.8058 271.922 36.9727 271.894 36.8911C271.891 36.8802 271.842 36.7832 271.87 36.8323C271.846 36.7968 271.82 36.7627 271.792 36.7302C271.781 36.7158 271.706 36.6389 271.763 36.6921C271.645 36.5892 271.512 36.5031 271.369 36.4364C271.081 36.2878 270.756 36.2168 270.429 36.2311C270.497 36.2287 270.392 36.2352 270.377 36.2369C270.335 36.2418 270.293 36.245 270.252 36.2508C270.168 36.2622 270.085 36.2782 270.003 36.2987C270.06 36.2843 269.979 36.3059 269.974 36.3076C269.925 36.3227 269.877 36.3399 269.828 36.3582C269.738 36.3927 269.65 36.4315 269.565 36.4745C269.255 36.6355 268.989 36.8636 268.788 37.1406C268.356 37.7713 268.366 38.6557 268.533 39.3546C268.553 39.4392 268.565 39.4811 268.58 39.5241C268.605 39.5997 268.633 39.6744 268.663 39.7482C268.723 39.8918 268.792 40.0316 268.87 40.1667C268.945 40.2964 268.821 40.0969 268.903 40.2204C268.919 40.246 268.936 40.2711 268.954 40.2962C268.997 40.3582 269.042 40.419 269.089 40.4787C269.191 40.6081 269.302 40.7312 269.42 40.8474C269.442 40.8684 269.463 40.889 269.485 40.9097C269.413 40.8425 269.528 40.9462 269.543 40.9588C269.605 41.012 269.669 41.0636 269.734 41.1139C269.875 41.222 270.022 41.3229 270.174 41.4161C270.244 41.4584 270.314 41.4979 270.385 41.5382C270.405 41.55 270.491 41.5961 270.407 41.5519C270.446 41.5721 270.485 41.5916 270.524 41.6109C270.679 41.687 270.837 41.7562 270.998 41.8202C271.283 41.9304 271.575 42.0225 271.872 42.0959C271.898 42.1027 271.985 42.121 271.881 42.0985C271.918 42.1064 271.954 42.1145 271.991 42.1217C272.062 42.1361 272.133 42.1492 272.204 42.1612C272.336 42.1831 272.468 42.2004 272.602 42.2131C273.218 42.2714 273.117 43.1861 272.501 43.1277L272.502 43.1254Z" fill="#0CBC8B"/>
<path d="M230.88 59.9745L229.37 60.932L231.99 64.7193L233.499 63.7618L230.88 59.9745Z" fill="#0CBC8B"/>
<path d="M227.661 72.9453L224.39 76.1615L225.687 77.3715L228.958 74.1553L227.661 72.9453Z" fill="#0CBC8B"/>
<path d="M168.578 12.4414L171.156 11.2257C171.156 11.2257 171.114 7.66413 167.819 6.10457C166.727 5.58774 166.098 6.76089 166.324 7.10126C167.073 8.22606 167.927 9.24507 168.035 10.3866C167.601 10.0714 166.98 9.67425 166.829 9.8563C166.434 10.3352 168.578 12.4414 168.578 12.4414Z" fill="#E98862"/>
<path d="M167.163 37.0904L163.154 33.7797L172.322 23.6008L167.084 11.796L171.956 9.81396L177.837 23.0704C178.03 23.5062 178.092 23.985 178.016 24.4528C177.939 24.9205 177.728 25.3584 177.405 25.7169L167.163 37.0904Z" fill="#367CFF"/>
<path d="M125.788 85.4318C125.64 85.3962 125.189 85.2884 120.935 83.7397L122.746 79.1761C124.55 79.8327 126.722 80.606 127.083 80.7106C127.059 80.7039 127.041 80.6992 127.026 80.696L125.788 85.4318Z" fill="#E98862"/>
<path d="M117.279 89.0732C117.241 89.1993 117.23 89.3315 117.248 89.4618C117.266 89.592 117.311 89.7173 117.381 89.83C117.452 89.9426 117.546 90.0401 117.657 90.1165C117.769 90.1928 117.896 90.2462 118.03 90.2735C118.216 90.3113 118.409 90.2975 118.587 90.2336C118.765 90.1697 118.92 90.0584 119.035 89.9129L122.62 85.0011C122.689 84.9058 122.736 84.7974 122.757 84.6832C122.778 84.569 122.773 84.4518 122.743 84.3396C122.431 83.4369 122.429 82.4621 122.739 81.5585C123.01 80.8635 123.48 80.2555 124.095 79.8039C124.154 79.7656 124.201 79.712 124.229 79.6493C124.257 79.5867 124.266 79.5177 124.255 79.4503C124.244 79.3829 124.213 79.3199 124.166 79.2687C124.119 79.2175 124.058 79.1802 123.989 79.1611L121.206 78.3748C121.124 78.3516 121.038 78.3442 120.953 78.3529C120.868 78.3617 120.785 78.3864 120.71 78.4257C120.635 78.4651 120.569 78.5182 120.515 78.5821C120.462 78.646 120.422 78.7195 120.398 78.7982L117.279 89.0732Z" fill="#C1D8ED"/>
<path d="M146.636 100.773L145.769 95.9622C147.67 95.6476 149.949 95.2547 150.316 95.168C150.292 95.1733 150.274 95.1791 150.259 95.1831L151.714 99.8624C151.567 99.9043 151.121 100.031 146.636 100.773Z" fill="#E98862"/>
<path d="M146.326 107.146C146.36 107.273 146.421 107.392 146.506 107.496C146.59 107.599 146.696 107.685 146.816 107.748C146.937 107.81 147.069 107.848 147.206 107.859C147.343 107.871 147.48 107.855 147.61 107.813C147.79 107.755 147.949 107.649 148.068 107.507C148.188 107.365 148.262 107.194 148.283 107.013L148.757 101.038C148.766 100.922 148.748 100.806 148.706 100.698C148.663 100.589 148.597 100.49 148.511 100.409C147.762 99.7841 147.243 98.9458 147.029 98.0173C146.893 97.2867 146.974 96.5342 147.263 95.8456C147.293 95.7839 147.304 95.7152 147.295 95.6475C147.286 95.5799 147.258 95.516 147.212 95.4635C147.167 95.411 147.107 95.3719 147.039 95.3508C146.971 95.3297 146.899 95.3274 146.83 95.3444L144.016 96.0249C143.933 96.0449 143.855 96.0805 143.787 96.1295C143.718 96.1785 143.66 96.24 143.617 96.3104C143.573 96.3809 143.544 96.459 143.532 96.5401C143.52 96.6212 143.525 96.7039 143.546 96.7833L146.326 107.146Z" fill="#C1D8ED"/>
<path d="M174.23 91.9274L174.206 91.731C173.568 86.6506 170.013 61.8841 169.593 59.266H151.212C151.212 59.266 144.059 81.6515 143.783 82.2718L126.211 78.6842L124.006 87.0218L145.641 93.1152C146.789 93.4381 148.019 93.3646 149.117 92.9074C150.214 92.4502 151.109 91.6385 151.645 90.6138C151.645 90.6138 159.499 71.4005 159.656 71.0468L164.504 89.3991L148.102 93.8699L150.561 102.144L171.005 96.5712C172.031 96.2909 172.92 95.6695 173.511 94.8184C174.102 93.9673 174.357 92.9423 174.23 91.9274Z" fill="#262626"/>
<path d="M134.568 16.6637L131.817 17.4667C131.817 17.4667 129.493 14.3529 130.783 11.0571C131.21 9.96439 132.507 10.4082 132.585 10.8051C132.842 12.1161 132.759 13.9063 133.495 14.8102C133.587 14.2955 133.756 13.5992 133.997 13.6334C134.628 13.7229 134.568 16.6637 134.568 16.6637Z" fill="#E98862"/>
<path d="M171.015 58.5101C170.301 60.8537 150.597 64.1992 149.81 60.3236C149.313 57.8592 151.311 55.4087 150.665 50.5636C150.019 45.7184 144.537 40.0991 147.846 36.0026C148.805 34.8168 150.617 33.9032 152.933 33.6195C153.28 34.8889 161.486 33.8939 161.379 32.6175C161.694 32.5826 161.937 32.5594 162.088 32.5477C170.121 31.8991 167.771 41.0383 168.546 47.4435C169.451 54.9414 171.75 56.0945 171.015 58.5101Z" fill="#367CFF"/>
<path d="M158.807 36.2584C155.87 36.8047 153.279 34.889 152.932 33.6196C152.934 33.6173 152.939 33.6173 152.942 33.6173C155.858 33.2592 159.676 32.7989 161.378 32.6176C161.485 33.8939 161.009 35.8469 158.807 36.2584Z" fill="#E98862"/>
<path d="M148.175 40.8152L133.491 33.2207C133.121 33.0296 132.804 32.757 132.567 32.4255C132.329 32.094 132.177 31.7131 132.123 31.3142L130.097 16.242L135.347 15.5945L137.2 29.3778L150.69 36.3546L148.175 40.8152Z" fill="#367CFF"/>
<path d="M222.865 16.8931L220.168 15.9378C220.168 15.9378 219.828 12.3909 222.938 10.5154C223.969 9.89392 224.721 10.9987 224.532 11.3596C223.908 12.5522 223.168 13.6498 223.183 14.796C223.581 14.4396 224.156 13.9837 224.326 14.1499C224.772 14.5872 222.865 16.8931 222.865 16.8931Z" fill="#E98862"/>
<path d="M224.059 45.8758L216.792 32.6751C216.527 32.1933 216.431 31.6423 216.518 31.104L219.137 14.969L224.367 15.7474L221.883 31.0535L228.742 43.5118L224.059 45.8758Z" fill="#367CFF"/>
<path d="M262.805 97.9703L261.795 93.1847C261.779 93.1877 261.76 93.1915 261.736 93.197C262.103 93.1085 264.308 92.4298 266.14 91.8525L267.735 96.4901C263.411 97.8534 262.955 97.9413 262.805 97.9703Z" fill="#E98862"/>
<path d="M271.135 101.976C271.167 102.104 271.172 102.237 271.148 102.366C271.124 102.495 271.073 102.619 270.997 102.728C270.921 102.837 270.823 102.931 270.708 103.002C270.593 103.074 270.464 103.121 270.328 103.143C270.141 103.173 269.948 103.15 269.774 103.079C269.599 103.007 269.449 102.89 269.342 102.739L265.992 97.6772C265.927 97.579 265.886 97.4686 265.87 97.3536C265.854 97.2386 265.864 97.1217 265.9 97.0109C266.255 96.1227 266.302 95.149 266.036 94.233C265.797 93.5269 265.356 92.8991 264.763 92.4212C264.706 92.3804 264.663 92.3249 264.637 92.2611C264.612 92.1973 264.606 92.128 264.62 92.0611C264.635 91.9943 264.669 91.9328 264.718 91.8837C264.768 91.8346 264.831 91.8 264.9 91.784L267.716 91.1188C267.799 91.0992 267.886 91.0955 267.97 91.1079C268.055 91.1203 268.136 91.1486 268.209 91.1912C268.282 91.2337 268.346 91.2897 268.397 91.3559C268.447 91.4221 268.483 91.4971 268.504 91.5768L271.135 101.976Z" fill="#C1D8ED"/>
<path d="M225.235 131.438C223.429 127.436 223.297 127.009 223.253 126.869L228.139 125.475C228.135 125.461 228.129 125.443 228.121 125.421C228.246 125.763 229.149 127.805 229.915 129.501L225.235 131.438Z" fill="#E98862"/>
<path d="M219.833 135.173C219.703 135.215 219.566 135.231 219.429 135.22C219.292 135.209 219.159 135.171 219.038 135.109C218.918 135.047 218.812 134.961 218.727 134.858C218.642 134.754 218.581 134.635 218.546 134.508C218.499 134.332 218.505 134.146 218.564 133.973C218.622 133.8 218.731 133.647 218.878 133.531L223.842 129.881C223.939 129.811 224.05 129.761 224.168 129.736C224.286 129.711 224.408 129.71 224.527 129.734C225.482 129.993 226.499 129.951 227.428 129.614C228.141 129.323 228.754 128.847 229.198 128.238C229.236 128.18 229.289 128.134 229.354 128.104C229.418 128.074 229.489 128.062 229.56 128.07C229.631 128.078 229.698 128.104 229.753 128.147C229.809 128.19 229.85 128.247 229.873 128.311L230.818 130.938C230.846 131.016 230.857 131.098 230.852 131.18C230.847 131.262 230.824 131.342 230.787 131.415C230.749 131.489 230.697 131.555 230.632 131.609C230.568 131.663 230.493 131.704 230.412 131.731L219.833 135.173Z" fill="#C1D8ED"/>
<path d="M214.449 100.281C214.7 94.9875 219.817 70.9045 220.359 68.3074L238.722 69.1034C238.722 69.1034 244.81 91.7758 245.057 92.4075L262.703 91.2102L264.512 99.6362L242.69 103.16C241.527 103.433 240.302 103.306 239.227 102.802C238.153 102.298 237.297 101.448 236.81 100.402C236.81 100.402 229.871 80.8675 229.731 80.5074L224.02 98.6309L230.467 126.486L221.889 129.041C221.889 129.041 214.348 102.421 214.449 100.281Z" fill="#262626"/>
<path d="M255.584 23.9123L258.453 24.0818C258.453 24.0818 259.958 20.536 257.905 17.6173C257.226 16.6499 256.071 17.3697 256.091 17.7728C256.159 19.1053 256.674 20.828 256.177 21.871C255.963 21.3907 255.629 20.7511 255.404 20.8376C254.812 21.0652 255.584 23.9123 255.584 23.9123Z" fill="#E98862"/>
<path d="M240.558 70.2231C239.589 74.0592 220.063 69.8627 219.461 67.4913C218.839 65.0455 221.191 63.9946 222.449 56.5432C223.527 50.1776 221.611 40.9453 229.604 41.9404C229.754 41.959 229.997 41.9939 230.31 42.0427C230.145 43.3144 238.29 44.6652 238.698 43.4098C241 43.7934 242.765 44.7861 243.668 46.0113C246.78 50.2474 241.038 55.6249 240.164 60.4352C239.29 65.2454 241.173 67.7819 240.558 70.2231Z" fill="#367CFF"/>
<path d="M238.698 43.4098C238.29 44.6652 235.612 46.4647 232.706 45.7905C230.524 45.2837 230.145 43.3145 230.31 42.0427C232.002 42.2985 235.794 42.9239 238.69 43.4075C238.692 43.4073 238.693 43.4074 238.694 43.4078C238.696 43.4082 238.697 43.4089 238.698 43.4098Z" fill="#E98862"/>
<path d="M243.574 49.136L240.348 45.1169L252.15 36.4289L254.941 22.4071L260.14 23.3561L257.161 38.3254C257.04 38.9354 256.689 39.4814 256.175 39.8598L243.574 49.136Z" fill="#367CFF"/>
<path d="M81.4464 27.6677L83.6947 25.9517C83.6947 25.9517 82.8571 22.4819 79.2905 21.6333C78.1082 21.3523 77.7554 22.627 78.0524 22.9121C79.0351 23.8576 80.097 24.6778 80.458 25.7717C79.963 25.5527 79.2684 25.2923 79.1614 25.5009C78.8812 26.05 81.4464 27.6677 81.4464 27.6677Z" fill="#E98862"/>
<path d="M77.5218 48.3335L75.1865 43.7843L87.7837 37.8534L79.857 27.362L84.1464 24.3905L93.9123 37.3171C94.1383 37.616 94.2934 37.9587 94.3667 38.321C94.44 38.6833 94.4298 39.0566 94.3368 39.4148C94.2438 39.7729 94.0702 40.1073 93.8281 40.3945C93.5861 40.6818 93.2815 40.9149 92.9356 41.0776L77.5218 48.3335Z" fill="#367CFF"/>
<path d="M40.8129 99.2346C40.6628 99.2056 40.2059 99.1184 35.8828 97.7543L37.4769 93.1168C39.3096 93.6946 41.5145 94.3723 41.8811 94.4613C41.8568 94.4555 41.8379 94.452 41.8228 94.449L40.8129 99.2346Z" fill="#E98862"/>
<path d="M32.4835 103.24C32.4513 103.368 32.4469 103.501 32.4706 103.63C32.4943 103.759 32.5456 103.883 32.6212 103.992C32.6969 104.102 32.7954 104.195 32.9105 104.266C33.0255 104.338 33.1548 104.386 33.29 104.407C33.4775 104.437 33.67 104.415 33.8448 104.343C34.0195 104.271 34.1693 104.154 34.2764 104.003L37.6267 98.9412C37.6912 98.8431 37.7328 98.7328 37.7486 98.6178C37.7644 98.5028 37.754 98.3859 37.7183 98.2752C37.364 97.3869 37.3166 96.4133 37.583 95.4973C37.8212 94.7912 38.262 94.1633 38.8549 93.6855C38.912 93.6447 38.9557 93.5891 38.981 93.5254C39.0064 93.4616 39.0122 93.3923 38.9979 93.3254C38.9837 93.2586 38.9498 93.197 38.9004 93.1479C38.851 93.0988 38.788 93.0642 38.7187 93.048L35.9013 92.3831C35.8182 92.3635 35.7319 92.3598 35.6473 92.3722C35.5627 92.3846 35.4815 92.4128 35.4084 92.4554C35.3352 92.4979 35.2716 92.5539 35.221 92.62C35.1705 92.6862 35.1342 92.7612 35.114 92.8409L32.4835 103.24Z" fill="#C1D8ED"/>
<path d="M85.8801 135.136L80.8403 134.4C81.1317 132.573 81.4635 130.378 81.4941 130.018C81.4919 130.041 81.4915 130.06 81.491 130.074L86.5863 130.236C86.5815 130.382 86.5662 130.827 85.8801 135.136Z" fill="#E98862"/>
<path d="M92.0944 137.436C92.2313 137.446 92.3687 137.428 92.498 137.384C92.6274 137.34 92.7459 137.271 92.8461 137.182C92.9464 137.092 93.0262 136.983 93.0807 136.863C93.1352 136.742 93.1631 136.612 93.1627 136.481C93.1621 136.299 93.1072 136.121 93.0045 135.968C92.9019 135.814 92.7557 135.693 92.5832 135.616L86.8146 133.293C86.7028 133.248 86.5824 133.227 86.4613 133.231C86.3403 133.235 86.2217 133.264 86.1134 133.316C85.2577 133.799 84.2628 134.005 83.2754 133.905C82.5086 133.797 81.7889 133.485 81.1984 133.005C81.1469 132.958 81.0825 132.926 81.0126 132.912C80.9427 132.899 80.8703 132.905 80.8039 132.929C80.7374 132.954 80.6796 132.996 80.6373 133.051C80.595 133.106 80.5698 133.171 80.5648 133.239L80.3475 136.01C80.3411 136.092 80.3517 136.174 80.3785 136.252C80.4053 136.33 80.448 136.402 80.5039 136.464C80.5599 136.526 80.6281 136.577 80.7046 136.613C80.7811 136.65 80.8645 136.672 80.9498 136.678L92.0944 137.436Z" fill="#C1D8ED"/>
<path d="M89.1682 101.545C88.9181 96.2515 83.8007 72.1686 83.2586 69.5714L64.8955 70.3677C64.8955 70.3677 58.8079 93.0401 58.5603 93.6711L40.9149 92.474L39.1055 100.9L60.9281 104.424C62.0904 104.697 63.3158 104.57 64.3905 104.066C65.4651 103.562 66.3207 102.712 66.8079 101.665C66.8079 101.665 73.7466 82.1313 73.8867 81.7712L79.5973 99.8947L79.5072 131.618L88.4807 132.005C88.4807 132.005 89.2687 103.685 89.1682 101.545Z" fill="#262626"/>
<path d="M49.6465 36.7782L46.775 36.6433C46.775 36.6433 45.6866 32.9602 48.0644 30.2763C48.8522 29.3868 49.9162 30.224 49.8495 30.6225C49.6286 31.9398 48.9179 33.5984 49.2911 34.6865C49.5594 34.2319 49.9646 33.6316 50.1782 33.7414C50.7405 34.0301 49.6465 36.7782 49.6465 36.7782Z" fill="#E98862"/>
<path d="M84.157 68.7561C83.5549 71.1275 64.0285 75.324 63.0622 71.4855C62.4456 69.0444 64.3271 66.5102 63.4529 61.6999C62.5786 56.8897 56.8372 51.5098 59.9498 47.2761C60.8527 46.0486 62.6177 45.0558 64.9192 44.6722C65.3246 45.9277 73.4722 44.5792 73.3073 43.3075C73.6203 43.2586 73.8631 43.2238 74.0136 43.2052C82.0058 42.2101 80.0927 51.4424 81.1684 57.8057C82.426 65.2605 84.7785 66.3102 84.157 68.7561Z" fill="#367CFF"/>
<path d="M70.9136 47.0564C68.0029 47.7306 65.3249 45.9288 64.9194 44.6733C64.9204 44.6724 64.9216 44.6718 64.9229 44.6714C64.9242 44.671 64.9256 44.6708 64.927 44.671C67.8257 44.1897 71.6154 43.5643 73.3076 43.3086C73.4724 44.5792 73.0915 46.5484 70.9136 47.0564Z" fill="#E98862"/>
<path d="M49.0563 53.2741C48.3899 53.2743 47.7479 53.0336 47.2587 52.6002C46.7695 52.1669 46.469 51.5727 46.4174 50.9364L45.1816 35.7439L50.4591 35.3501L51.4686 47.7538L62.4012 45.8939L63.3274 50.8848L49.5198 53.2329C49.3669 53.2597 49.2118 53.2735 49.0563 53.2741Z" fill="#367CFF"/>
<path d="M286.485 131.508C285.272 131.128 284.026 131.556 282.834 132.423C284.404 128.626 285.052 125.197 282.368 125.043C280.49 124.935 279.051 126.314 277.958 128.276C277.574 124.827 276.582 122.254 274.36 123.107C271.921 124.044 271.55 127.253 271.92 130.61C270.846 128.895 269.689 127.939 268.639 128.945C265.504 131.947 273.199 140.407 273.199 140.407H275.11L276.2 141.541C275.979 141.988 275.858 142.254 275.858 142.254L277.244 144.954C277.244 144.954 291.525 133.087 286.485 131.508Z" fill="#8DDBE0"/>
<path d="M283.059 151H272.244L270.433 138.909H284.87L283.059 151Z" fill="#C1D8ED"/>
<path d="M65.7954 45.5952C65.7954 45.5952 67.5388 44.4327 66.5053 39.6201L70.2683 38.4877C70.2683 38.4877 70.3897 42.8953 72.5128 44.0514L65.7954 45.5952Z" fill="#E98862"/>
<g opacity="0.15">
<path d="M71.6083 43.2332L68.1123 41.2624L70.6214 40.9448C70.7987 41.7598 71.1334 42.5359 71.6083 43.2332Z" fill="black"/>
</g>
<path d="M64.0812 37.9908C64.5352 39.4341 65.5527 40.7323 66.9702 41.0504C68.6544 41.4279 69.8534 41.327 71.7121 41.1106C74.2487 40.8151 73.843 38.2916 73.59 35.7303C73.3358 33.1589 72.7738 30.4343 71.6578 29.658C69.4303 28.1085 63.7005 29.9217 63.365 32.9866C63.1924 34.5715 63.6493 36.6174 64.0812 37.9908Z" fill="#E98862"/>
<path d="M74.426 28.2582C74.2711 27.0393 72.4333 25.2263 68.5566 28.4731L68.5527 28.4763C67.451 28.5746 66.3685 28.8171 65.3355 29.197C63.4731 29.9759 61.2466 31.81 62.3464 35.4999C63.5741 39.6183 65.5125 40.5299 66.4833 40.9402C66.7305 41.0444 66.7729 40.9312 66.8217 40.6766C66.9575 39.7407 67.0198 38.7964 67.0079 37.8516C67.0507 36.9257 67.0056 35.9981 66.8732 35.08C66.8215 34.6725 66.6351 33.1866 68.7448 32.9244C69.9315 32.7767 69.493 32.8737 70.7598 32.7258C70.9404 32.7049 71.0997 32.6793 71.2454 32.6488H71.2471C75.6233 32.1392 74.5809 29.4774 74.426 28.2582Z" fill="#0F1011"/>
<path d="M69.924 36.155C70.1183 36.155 70.2758 36.0041 70.2758 35.8181C70.2758 35.632 70.1183 35.4812 69.924 35.4812C69.7298 35.4812 69.5723 35.632 69.5723 35.8181C69.5723 36.0041 69.7298 36.155 69.924 36.155Z" fill="#0F1011"/>
<path d="M72.6511 35.6177C72.8454 35.6177 73.0029 35.4669 73.0029 35.2809C73.0029 35.0948 72.8454 34.944 72.6511 34.944C72.4568 34.944 72.2993 35.0948 72.2993 35.2809C72.2993 35.4669 72.4568 35.6177 72.6511 35.6177Z" fill="#0F1011"/>
<path d="M72.2191 34.5948C72.1769 34.5947 72.1362 34.5791 72.1056 34.5512C72.075 34.5233 72.0567 34.4852 72.0544 34.4448C72.0522 34.4044 72.0662 34.3647 72.0936 34.3339C72.121 34.303 72.1596 34.2834 72.2016 34.279L73.1281 34.1826C73.1716 34.1781 73.2153 34.1903 73.2494 34.2166C73.2835 34.2429 73.3053 34.2811 73.31 34.3229C73.3147 34.3646 73.3019 34.4064 73.2745 34.439C73.247 34.4717 73.2071 34.4926 73.1635 34.4971L72.2371 34.5938C72.2311 34.5945 72.2251 34.5948 72.2191 34.5948Z" fill="#0F1011"/>
<path d="M69.0735 35.3013C69.0348 35.3013 68.9972 35.2883 68.9675 35.2645C68.9378 35.2407 68.9177 35.2077 68.9108 35.1711C68.9039 35.1346 68.9107 35.0969 68.9299 35.0647C68.949 35.0324 68.9794 35.0077 69.0157 34.9947L69.9009 34.6783C69.9415 34.6651 69.986 34.6676 70.0248 34.6852C70.0635 34.7029 70.0936 34.7343 70.1087 34.7728C70.1237 34.8113 70.1225 34.8539 70.1054 34.8916C70.0882 34.9293 70.0564 34.9591 70.0167 34.9747L69.1313 35.2911C69.1128 35.2979 69.0933 35.3013 69.0735 35.3013Z" fill="#0F1011"/>
<path d="M68.2111 36.8481C68.2532 37.0328 68.2566 37.2236 68.2211 37.4095C68.1857 37.5955 68.112 37.7728 68.0044 37.9313C67.8969 38.0898 67.7575 38.2262 67.5945 38.3327C67.4314 38.4392 67.2479 38.5137 67.0546 38.5518C66.8613 38.5899 66.662 38.5908 66.4683 38.5546C66.2746 38.5184 66.0903 38.4457 65.9261 38.3408C65.762 38.2359 65.6212 38.1008 65.5119 37.9434C65.4027 37.786 65.3272 37.6094 65.2897 37.4238C65.2468 37.2398 65.2429 37.0495 65.2784 36.8641C65.3139 36.6788 65.388 36.5021 65.4962 36.3447C65.6045 36.1873 65.7447 36.0524 65.9086 35.948C66.0724 35.8436 66.2565 35.7719 66.45 35.737C67.5009 35.5813 68.0452 36.0756 68.2111 36.8481Z" fill="#E98862"/>
<g opacity="0.15">
<path d="M71.7098 37.4925C71.6809 37.4959 71.6518 37.4892 71.6276 37.4738C71.6034 37.4583 71.5859 37.435 71.5781 37.4082C71.5704 37.3814 71.5729 37.3528 71.5853 37.3276C71.5977 37.3024 71.6191 37.2823 71.6457 37.271L72.3296 36.9794L71.6984 35.9779C71.6901 35.9648 71.6846 35.9503 71.6823 35.9352C71.6799 35.9201 71.6806 35.9047 71.6844 35.8899C71.6882 35.8751 71.6951 35.8611 71.7045 35.8488C71.714 35.8365 71.7259 35.8261 71.7395 35.8183C71.7532 35.8104 71.7683 35.8051 71.7841 35.8028C71.7998 35.8005 71.8159 35.8012 71.8314 35.8049C71.8468 35.8086 71.8614 35.8151 71.8743 35.8242C71.8871 35.8332 71.8979 35.8446 71.9062 35.8577L72.6085 36.9718C72.6175 36.9859 72.6232 37.0016 72.6252 37.018C72.6273 37.0344 72.6257 37.051 72.6206 37.0668C72.6154 37.0825 72.6069 37.097 72.5954 37.1093C72.5839 37.1217 72.5699 37.1315 72.5541 37.1382L71.745 37.4832C71.7338 37.488 71.7219 37.4911 71.7098 37.4925Z" fill="black"/>
</g>
<path d="M70.4199 38.4333C70.4199 38.4333 71.7256 38.4133 72.5906 38.0055C72.5906 38.0055 72.6877 38.8192 71.677 39.0185C70.6663 39.2177 70.4199 38.4333 70.4199 38.4333Z" fill="white"/>
<path d="M237.949 44.1198C237.949 44.1198 236.18 42.9934 237.103 38.1617L233.314 37.1088C233.314 37.1088 233.294 41.5177 231.198 42.7183L237.949 44.1198Z" fill="#E98862"/>
<g opacity="0.15">
<path d="M232.083 41.8807L235.534 39.8368L233.018 39.572C232.86 40.3906 232.543 41.1736 232.083 41.8807Z" fill="black"/>
</g>
<path d="M239.489 36.4813C239.068 37.9337 238.081 39.2531 236.67 39.6009C235.127 40.0236 233.5 40.0785 231.93 39.7608C227.74 39.0266 229.531 29.9059 231.722 28.3097C233.914 26.7134 239.684 28.4059 240.089 31.4632C240.299 33.0444 239.889 35.0987 239.489 36.4813Z" fill="#E98862"/>
<path d="M228.855 27.1743C228.982 25.9521 230.778 24.1013 234.728 27.2657L234.732 27.2687C235.836 27.344 236.924 27.5639 237.965 27.9223C238.708 28.2068 239.387 28.6269 239.963 29.1591C241.047 30.1874 241.75 31.7765 241.098 34.1607C239.965 38.304 238.048 39.256 237.087 39.6859C236.842 39.7954 236.797 39.6829 236.743 39.4302C236.585 38.4974 236.501 37.5546 236.492 36.6098C236.455 35.6238 235.607 34.9203 235.838 33.7671C235.919 33.364 236.757 31.9381 234.642 31.7212C233.453 31.5984 233.893 31.6863 232.622 31.5652C232.441 31.548 232.282 31.5247 232.137 31.4985H232.135C227.748 31.0795 228.729 28.3966 228.855 27.1743Z" fill="#0F1011"/>
<path d="M235.333 35.4257C235.266 35.7965 235.355 36.1777 235.58 36.4863C235.805 36.7949 236.148 37.006 236.535 37.0737C236.921 37.1414 237.32 37.0603 237.645 36.8479C237.969 36.6355 238.193 36.309 238.267 35.9395C238.306 35.7547 238.305 35.5644 238.266 35.3798C238.226 35.1952 238.148 35.0202 238.036 34.8652C237.924 34.7101 237.781 34.5782 237.615 34.4772C237.448 34.3763 237.263 34.3084 237.069 34.2776C236.015 34.1439 235.482 34.6498 235.333 35.4257Z" fill="#E98862"/>
<path d="M236.454 30.9795L237.507 31.4677C237.507 31.4677 236.576 36.6588 236.123 38.0589C235.669 39.4589 234.716 40.308 233.738 40.2952C232.237 40.2757 231.157 40.1827 230.104 39.7049C228.916 39.166 229.417 36.0169 229.417 36.0169C229.417 36.0169 233.337 36.8055 234.486 36.4054C235.636 36.0053 236.454 30.9795 236.454 30.9795Z" fill="#0F1011"/>
<path d="M233.597 34.769C233.792 34.769 233.949 34.6182 233.949 34.4321C233.949 34.246 233.792 34.0952 233.597 34.0952C233.403 34.0952 233.246 34.246 233.246 34.4321C233.246 34.6182 233.403 34.769 233.597 34.769Z" fill="#0F1011"/>
<path d="M230.859 34.2891C231.053 34.2891 231.21 34.1383 231.21 33.9522C231.21 33.7662 231.053 33.6154 230.859 33.6154C230.664 33.6154 230.507 33.7662 230.507 33.9522C230.507 34.1383 230.664 34.2891 230.859 34.2891Z" fill="#0F1011"/>
<path d="M231.271 33.258C231.266 33.2583 231.262 33.2583 231.257 33.258L230.328 33.1811C230.307 33.1793 230.286 33.1734 230.266 33.1639C230.247 33.1543 230.23 33.1412 230.216 33.1252C230.202 33.1093 230.192 33.0909 230.185 33.0711C230.178 33.0513 230.176 33.0304 230.178 33.0097C230.18 32.989 230.186 32.9688 230.196 32.9504C230.206 32.9319 230.22 32.9155 230.236 32.9022C230.253 32.8888 230.272 32.8787 230.293 32.8724C230.313 32.8661 230.335 32.8638 230.357 32.8656L231.285 32.9428C231.327 32.9466 231.366 32.9657 231.394 32.9963C231.422 33.0269 231.437 33.0666 231.435 33.1071C231.433 33.1477 231.415 33.1861 231.385 33.2143C231.354 33.2425 231.313 33.2584 231.271 33.2587V33.258Z" fill="#0F1011"/>
<path d="M234.433 33.8974C234.414 33.8973 234.396 33.8943 234.378 33.8886L233.486 33.5907C233.445 33.5764 233.412 33.5473 233.393 33.5098C233.375 33.4723 233.372 33.4293 233.387 33.3901C233.401 33.3508 233.431 33.3186 233.47 33.3002C233.508 33.2818 233.553 33.2788 233.594 33.2918L234.487 33.5893C234.524 33.6018 234.555 33.6263 234.574 33.6584C234.594 33.6906 234.601 33.7285 234.595 33.7653C234.588 33.8021 234.569 33.8355 234.539 33.8597C234.509 33.8839 234.472 33.8972 234.433 33.8974Z" fill="#0F1011"/>
<g opacity="0.15">
<path d="M231.851 36.1431C231.879 36.1458 231.908 36.1385 231.932 36.1225C231.956 36.1065 231.973 36.0829 231.98 36.056C231.987 36.0291 231.984 36.0006 231.971 35.9758C231.958 35.9509 231.936 35.9313 231.91 35.9204L231.219 35.6433L231.828 34.6284C231.836 34.6152 231.841 34.6006 231.843 34.5855C231.845 34.5703 231.844 34.5549 231.84 34.5402C231.836 34.5254 231.829 34.5116 231.819 34.4995C231.809 34.4873 231.797 34.4772 231.783 34.4695C231.769 34.4619 231.754 34.457 231.738 34.455C231.723 34.453 231.706 34.454 231.691 34.458C231.676 34.4619 231.661 34.4688 231.649 34.4781C231.636 34.4874 231.625 34.499 231.617 34.5122L230.94 35.641C230.932 35.6552 230.927 35.6711 230.925 35.6875C230.923 35.7039 230.925 35.7205 230.931 35.7361C230.936 35.7517 230.945 35.766 230.957 35.778C230.969 35.7901 230.983 35.7996 230.999 35.806L231.816 36.1341C231.827 36.1388 231.839 36.1419 231.851 36.1431Z" fill="black"/>
</g>
<path d="M233.162 37.0567C233.162 37.0567 231.856 37.0641 230.982 36.6747C230.982 36.6747 230.904 37.4905 231.918 37.6681C232.933 37.8457 233.162 37.0567 233.162 37.0567Z" fill="white"/>
<path d="M153.602 34.4746C153.602 34.4746 155.417 33.4174 154.698 28.5539L158.527 27.6472C158.527 27.6472 158.362 32.0534 160.407 33.334L153.602 34.4746Z" fill="#E98862"/>
<g opacity="0.15">
<path d="M159.557 32.4633L156.195 30.2884L158.72 30.1207C158.844 30.9447 159.128 31.7392 159.557 32.4633Z" fill="black"/>
</g>
<path d="M152.384 26.7831C152.744 28.2506 153.675 29.607 155.07 30.009C156.594 30.4908 158.217 30.6083 159.799 30.3512C164.017 29.7792 162.611 20.5967 160.488 18.9174C158.366 17.2381 152.529 18.7068 151.995 21.7459C151.719 23.319 152.042 25.3861 152.384 26.7831Z" fill="#E98862"/>
<path d="M161.907 19.1574C161.769 18.9722 161.582 18.8253 161.365 18.7314C159.423 17.8575 155.914 17.7152 154.268 18.2897C152.358 18.9563 150.017 20.6544 150.875 24.4026C150.911 24.5605 150.948 24.7123 150.988 24.8613C150.368 24.7958 149.741 24.8949 149.176 25.1479C148.611 25.4008 148.129 25.7978 147.784 26.2954C147.439 26.7929 147.243 27.3719 147.219 27.9688C147.194 28.5657 147.342 29.1575 147.645 29.6795C147.949 30.2014 148.396 30.6334 148.939 30.928C149.481 31.2226 150.098 31.3686 150.722 31.3499C151.345 31.3311 151.951 31.1485 152.474 30.8219C152.996 30.4952 153.414 30.0373 153.683 29.4981C153.986 29.7204 154.31 29.9145 154.652 30.0778C154.892 30.1966 154.942 30.0859 155.007 29.8348C155.235 28.9578 155.301 25.5358 154.929 23.0746L159.487 22.6657L160.149 20.4526L160.935 22.5841L162.491 22.4962C162.623 21.3098 162.757 19.9657 161.907 19.1574Z" fill="#0F1011"/>
<path d="M158.357 25.2994C158.551 25.2994 158.709 25.1485 158.709 24.9625C158.709 24.7764 158.551 24.6256 158.357 24.6256C158.163 24.6256 158.005 24.7764 158.005 24.9625C158.005 25.1485 158.163 25.2994 158.357 25.2994Z" fill="#0F1011"/>
<path d="M161.114 24.9256C161.308 24.9256 161.466 24.7748 161.466 24.5887C161.466 24.4027 161.308 24.2518 161.114 24.2518C160.92 24.2518 160.762 24.4027 160.762 24.5887C160.762 24.7748 160.92 24.9256 161.114 24.9256Z" fill="#0F1011"/>
<path d="M160.738 23.8793C160.695 23.8789 160.653 23.8626 160.623 23.8337C160.592 23.8048 160.575 23.7656 160.574 23.7245C160.573 23.6834 160.589 23.6435 160.618 23.6134C160.647 23.5832 160.687 23.5651 160.73 23.5629L161.661 23.5215C161.705 23.5196 161.748 23.5345 161.78 23.5628C161.813 23.5911 161.832 23.6306 161.834 23.6725C161.836 23.7145 161.821 23.7555 161.791 23.7865C161.761 23.8175 161.72 23.836 161.676 23.8379L160.745 23.8791L160.738 23.8793Z" fill="#0F1011"/>
<path d="M157.552 24.3961C157.512 24.3961 157.474 24.3825 157.444 24.3578C157.414 24.333 157.394 24.2988 157.389 24.2613C157.383 24.2238 157.391 24.1855 157.412 24.1534C157.433 24.1213 157.466 24.0976 157.504 24.0864L158.408 23.8233C158.449 23.8134 158.492 23.819 158.529 23.8389C158.566 23.8588 158.593 23.8915 158.606 23.9302C158.618 23.969 158.615 24.0109 158.596 24.0472C158.577 24.0835 158.544 24.1116 158.505 24.1255L157.6 24.3887C157.585 24.3935 157.568 24.396 157.552 24.3961Z" fill="#0F1011"/>
<path d="M156.581 25.8884C156.61 26.0751 156.601 26.2656 156.554 26.4489C156.506 26.6321 156.421 26.8045 156.303 26.9561C156.186 27.1076 156.038 27.2353 155.868 27.3318C155.699 27.4282 155.511 27.4915 155.315 27.518C155.12 27.5444 154.921 27.5336 154.731 27.486C154.54 27.4384 154.361 27.355 154.204 27.2407C154.047 27.1264 153.915 26.9834 153.816 26.82C153.717 26.6566 153.653 26.476 153.628 26.2888C153.597 26.1027 153.605 25.9125 153.653 25.7296C153.7 25.5467 153.785 25.3748 153.904 25.2242C154.022 25.0735 154.171 24.9473 154.341 24.8528C154.511 24.7584 154.7 24.6978 154.895 24.6746C155.954 24.5816 156.465 25.1075 156.581 25.8884Z" fill="#E98862"/>
<g opacity="0.15">
<path d="M160.03 26.7399C160.001 26.7416 159.973 26.7333 159.949 26.7164C159.926 26.6996 159.91 26.6752 159.904 26.6479C159.898 26.6206 159.902 26.5921 159.916 26.5677C159.931 26.5433 159.953 26.5245 159.981 26.5148L160.682 26.2646L160.117 25.2273C160.102 25.1999 160.099 25.168 160.109 25.1386C160.118 25.1092 160.14 25.0846 160.168 25.0703C160.197 25.0561 160.23 25.0532 160.261 25.0625C160.292 25.0717 160.317 25.0923 160.332 25.1196L160.961 26.2737C160.969 26.2883 160.974 26.3044 160.975 26.3209C160.976 26.3373 160.973 26.3538 160.967 26.3692C160.961 26.3846 160.951 26.3985 160.939 26.4101C160.927 26.4217 160.912 26.4307 160.896 26.4365L160.066 26.7327C160.054 26.7367 160.043 26.7391 160.03 26.7399Z" fill="black"/>
</g>
<path d="M158.682 27.6019C158.682 27.6019 159.987 27.6596 160.876 27.3043C160.876 27.3043 160.92 28.1222 159.899 28.2608C158.878 28.3994 158.682 27.6019 158.682 27.6019Z" fill="white"/>
</g>
<defs>
<clipPath id="clip0_794_4554">
<rect width="310" height="151" fill="white"/>
</clipPath>
</defs>
</svg>
