<svg width="284" height="180" viewBox="0 0 284 180" fill="none" xmlns="http://www.w3.org/2000/svg">
<path opacity="0.1" d="M253.019 178.458C279.368 178.458 287.396 156.653 279.805 129.949C275.512 114.847 265.584 95.0991 249.365 86.1621C204.981 61.7053 210.963 60.531 199.975 34.4995C182.039 -7.99521 113.07 -9.63502 84.8892 20.8157C62.9621 44.5088 53.5787 77.9095 23.7045 102.519C-12.3554 132.225 -2.52007 178.888 32.1177 178.888L253.019 178.458Z" fill="#367CFF"/>
<path d="M282.525 152.705H4.60107L20.596 118.16H266.53L282.525 152.705Z" fill="#292A2E"/>
<path d="M282.525 152.705H4.60107L20.596 118.16H266.53L282.525 152.705Z" fill="white"/>
<path d="M282.525 153.009H4.60262C4.55149 153.009 4.50118 152.997 4.45636 152.972C4.41154 152.947 4.37366 152.912 4.34625 152.868C4.31883 152.825 4.30277 152.775 4.29955 152.724C4.29633 152.673 4.30607 152.622 4.32785 152.575L20.3216 118.031C20.346 117.978 20.3849 117.934 20.4335 117.903C20.4821 117.872 20.5385 117.856 20.596 117.856H266.53C266.588 117.856 266.644 117.872 266.693 117.903C266.741 117.934 266.78 117.978 266.805 118.031L282.801 152.575C282.822 152.622 282.832 152.673 282.829 152.724C282.826 152.775 282.81 152.824 282.783 152.867C282.755 152.911 282.718 152.946 282.673 152.971C282.629 152.996 282.579 153.009 282.528 153.009H282.525ZM5.07846 152.401H282.047L266.338 118.464H20.7889L5.07846 152.401Z" fill="#292A2E"/>
<path d="M162.783 106.594H135.868V127.01H162.783V106.594Z" fill="#292A2E"/>
<path opacity="0.64" d="M162.783 106.594H135.868V117.501H162.783V106.594Z" fill="#0C0C0C"/>
<path d="M206.49 25.5979H92.1612C90.3629 25.5979 88.9052 27.0605 88.9052 28.8647V108.92C88.9052 110.725 90.3629 112.187 92.1612 112.187H206.49C208.288 112.187 209.746 110.725 209.746 108.92V28.8647C209.746 27.0605 208.288 25.5979 206.49 25.5979Z" fill="#292A2E"/>
<path d="M204.882 29.3087H93.7686C93.0304 29.3087 92.432 29.9091 92.432 30.6497V97.0444C92.432 97.785 93.0304 98.3854 93.7686 98.3854H204.882C205.621 98.3854 206.219 97.785 206.219 97.0444V30.6497C206.219 29.9091 205.621 29.3087 204.882 29.3087Z" fill="white"/>
<path d="M168.382 125.332H130.268C129.293 125.332 128.502 126.125 128.502 127.104C128.502 128.082 129.293 128.876 130.268 128.876H168.382C169.358 128.876 170.149 128.082 170.149 127.104C170.149 126.125 169.358 125.332 168.382 125.332Z" fill="#292A2E"/>
<path d="M130.475 40.3425H125.415C125.384 40.3436 125.354 40.3386 125.326 40.3278C125.298 40.317 125.272 40.3006 125.25 40.2795C125.229 40.2585 125.211 40.2333 125.199 40.2054C125.188 40.1775 125.182 40.1475 125.182 40.1172C125.182 40.0869 125.188 40.0569 125.199 40.029C125.211 40.0011 125.229 39.9759 125.25 39.9549C125.272 39.9338 125.298 39.9174 125.326 39.9066C125.354 39.8958 125.384 39.8908 125.415 39.8919H130.475C130.533 39.894 130.588 39.9187 130.628 39.9607C130.669 40.0027 130.691 40.0588 130.691 40.1172C130.691 40.1756 130.669 40.2317 130.628 40.2737C130.588 40.3157 130.533 40.3404 130.475 40.3425Z" fill="#292A2E"/>
<path d="M121.765 40.3425H119.851C119.82 40.3436 119.79 40.3386 119.762 40.3278C119.734 40.317 119.708 40.3006 119.686 40.2795C119.665 40.2585 119.647 40.2333 119.635 40.2054C119.624 40.1775 119.618 40.1475 119.618 40.1172C119.618 40.0869 119.624 40.0569 119.635 40.029C119.647 40.0011 119.665 39.9759 119.686 39.9549C119.708 39.9338 119.734 39.9174 119.762 39.9066C119.79 39.8958 119.82 39.8908 119.851 39.8919H121.765C121.795 39.8908 121.825 39.8958 121.854 39.9066C121.882 39.9174 121.908 39.9338 121.929 39.9549C121.951 39.9759 121.968 40.0011 121.98 40.029C121.992 40.0569 121.998 40.0869 121.998 40.1172C121.998 40.1475 121.992 40.1775 121.98 40.2054C121.968 40.2333 121.951 40.2585 121.929 40.2795C121.908 40.3006 121.882 40.317 121.854 40.3278C121.825 40.3386 121.795 40.3436 121.765 40.3425Z" fill="#367CFF"/>
<path d="M121.765 44.4093H119.851C119.791 44.4093 119.734 44.3856 119.692 44.3433C119.65 44.301 119.626 44.2437 119.626 44.1839C119.626 44.1241 119.65 44.0667 119.692 44.0244C119.734 43.9821 119.791 43.9584 119.851 43.9584H121.765C121.825 43.9584 121.882 43.9821 121.924 44.0244C121.966 44.0667 121.99 44.1241 121.99 44.1839C121.99 44.2437 121.966 44.301 121.924 44.3433C121.882 44.3856 121.825 44.4093 121.765 44.4093Z" fill="#367CFF"/>
<path d="M121.765 48.4761H119.851C119.791 48.4761 119.734 48.4523 119.692 48.4101C119.65 48.3678 119.626 48.3104 119.626 48.2506C119.626 48.1908 119.65 48.1335 119.692 48.0912C119.734 48.0489 119.791 48.0251 119.851 48.0251H121.765C121.825 48.0251 121.882 48.0489 121.924 48.0912C121.966 48.1335 121.99 48.1908 121.99 48.2506C121.99 48.3104 121.966 48.3678 121.924 48.4101C121.882 48.4523 121.825 48.4761 121.765 48.4761Z" fill="#367CFF"/>
<path d="M121.765 52.543H119.851C119.791 52.543 119.734 52.5192 119.692 52.477C119.65 52.4347 119.626 52.3773 119.626 52.3175C119.626 52.2577 119.65 52.2004 119.692 52.1581C119.734 52.1158 119.791 52.092 119.851 52.092H121.765C121.825 52.092 121.882 52.1158 121.924 52.1581C121.966 52.2004 121.99 52.2577 121.99 52.3175C121.99 52.3773 121.966 52.4347 121.924 52.477C121.882 52.5192 121.825 52.543 121.765 52.543Z" fill="#367CFF"/>
<path d="M121.765 56.6095H119.851C119.82 56.6106 119.79 56.6056 119.762 56.5948C119.734 56.584 119.708 56.5675 119.686 56.5465C119.665 56.5255 119.647 56.5003 119.635 56.4724C119.624 56.4445 119.618 56.4145 119.618 56.3842C119.618 56.3539 119.624 56.3239 119.635 56.296C119.647 56.2681 119.665 56.2429 119.686 56.2218C119.708 56.2008 119.734 56.1844 119.762 56.1736C119.79 56.1627 119.82 56.1577 119.851 56.1588H121.765C121.795 56.1577 121.825 56.1627 121.854 56.1736C121.882 56.1844 121.908 56.2008 121.929 56.2218C121.951 56.2429 121.968 56.2681 121.98 56.296C121.992 56.3239 121.998 56.3539 121.998 56.3842C121.998 56.4145 121.992 56.4445 121.98 56.4724C121.968 56.5003 121.951 56.5255 121.929 56.5465C121.908 56.5675 121.882 56.584 121.854 56.5948C121.825 56.6056 121.795 56.6106 121.765 56.6095Z" fill="#367CFF"/>
<path d="M121.765 60.6751H119.851C119.791 60.6751 119.734 60.6513 119.692 60.609C119.65 60.5668 119.626 60.5094 119.626 60.4496C119.626 60.3898 119.65 60.3324 119.692 60.2902C119.734 60.2479 119.791 60.2241 119.851 60.2241H121.765C121.825 60.2241 121.882 60.2479 121.924 60.2902C121.966 60.3324 121.99 60.3898 121.99 60.4496C121.99 60.5094 121.966 60.5668 121.924 60.609C121.882 60.6513 121.825 60.6751 121.765 60.6751Z" fill="#367CFF"/>
<path d="M121.765 64.7431H119.851C119.791 64.7431 119.734 64.7193 119.692 64.677C119.65 64.6347 119.626 64.5774 119.626 64.5176C119.626 64.4578 119.65 64.4004 119.692 64.3582C119.734 64.3159 119.791 64.2921 119.851 64.2921H121.765C121.825 64.2921 121.882 64.3159 121.924 64.3582C121.966 64.4004 121.99 64.4578 121.99 64.5176C121.99 64.5774 121.966 64.6347 121.924 64.677C121.882 64.7193 121.825 64.7431 121.765 64.7431Z" fill="#367CFF"/>
<path d="M121.765 68.8096H119.851C119.82 68.8107 119.79 68.8057 119.762 68.7949C119.734 68.784 119.708 68.7676 119.686 68.7466C119.665 68.7255 119.647 68.7003 119.635 68.6724C119.624 68.6445 119.618 68.6146 119.618 68.5842C119.618 68.5539 119.624 68.5239 119.635 68.496C119.647 68.4682 119.665 68.4429 119.686 68.4219C119.708 68.4009 119.734 68.3845 119.762 68.3736C119.79 68.3628 119.82 68.3578 119.851 68.3589H121.765C121.795 68.3578 121.825 68.3628 121.854 68.3736C121.882 68.3845 121.908 68.4009 121.929 68.4219C121.951 68.4429 121.968 68.4682 121.98 68.496C121.992 68.5239 121.998 68.5539 121.998 68.5842C121.998 68.6146 121.992 68.6445 121.98 68.6724C121.968 68.7003 121.951 68.7255 121.929 68.7466C121.908 68.7676 121.882 68.784 121.854 68.7949C121.825 68.8057 121.795 68.8107 121.765 68.8096Z" fill="#367CFF"/>
<path d="M121.765 72.877H119.851C119.791 72.877 119.734 72.8532 119.692 72.8109C119.65 72.7687 119.626 72.7113 119.626 72.6515C119.626 72.5917 119.65 72.5343 119.692 72.4921C119.734 72.4498 119.791 72.426 119.851 72.426H121.765C121.825 72.426 121.882 72.4498 121.924 72.4921C121.966 72.5343 121.99 72.5917 121.99 72.6515C121.99 72.7113 121.966 72.7687 121.924 72.8109C121.882 72.8532 121.825 72.877 121.765 72.877Z" fill="#367CFF"/>
<path d="M121.765 76.9431H119.851C119.791 76.9431 119.734 76.9194 119.692 76.8771C119.65 76.8348 119.626 76.7775 119.626 76.7177C119.626 76.6579 119.65 76.6005 119.692 76.5582C119.734 76.5159 119.791 76.4922 119.851 76.4922H121.765C121.825 76.4922 121.882 76.5159 121.924 76.5582C121.966 76.6005 121.99 76.6579 121.99 76.7177C121.99 76.7775 121.966 76.8348 121.924 76.8771C121.882 76.9194 121.825 76.9431 121.765 76.9431Z" fill="#367CFF"/>
<path d="M121.765 81.0098H119.851C119.82 81.0109 119.79 81.0059 119.762 80.995C119.734 80.9842 119.708 80.9678 119.686 80.9468C119.665 80.9257 119.647 80.9005 119.635 80.8726C119.624 80.8447 119.618 80.8147 119.618 80.7844C119.618 80.7541 119.624 80.7241 119.635 80.6962C119.647 80.6683 119.665 80.6431 119.686 80.6221C119.708 80.6011 119.734 80.5846 119.762 80.5738C119.79 80.563 119.82 80.558 119.851 80.5591H121.765C121.795 80.558 121.825 80.563 121.854 80.5738C121.882 80.5846 121.908 80.6011 121.929 80.6221C121.951 80.6431 121.968 80.6683 121.98 80.6962C121.992 80.7241 121.998 80.7541 121.998 80.7844C121.998 80.8147 121.992 80.8447 121.98 80.8726C121.968 80.9005 121.951 80.9257 121.929 80.9468C121.908 80.9678 121.882 80.9842 121.854 80.995C121.825 81.0059 121.795 81.0109 121.765 81.0098Z" fill="#367CFF"/>
<path d="M121.765 85.0765H119.851C119.791 85.0765 119.734 85.0527 119.692 85.0104C119.65 84.9681 119.626 84.9108 119.626 84.851C119.626 84.7912 119.65 84.7338 119.692 84.6915C119.734 84.6492 119.791 84.6255 119.851 84.6255H121.765C121.825 84.6255 121.882 84.6492 121.924 84.6915C121.966 84.7338 121.99 84.7912 121.99 84.851C121.99 84.9108 121.966 84.9681 121.924 85.0104C121.882 85.0527 121.825 85.0765 121.765 85.0765Z" fill="#367CFF"/>
<path d="M121.765 89.1433H119.851C119.791 89.1433 119.734 89.1196 119.692 89.0773C119.65 89.035 119.626 88.9777 119.626 88.9179C119.626 88.8581 119.65 88.8007 119.692 88.7584C119.734 88.7161 119.791 88.6924 119.851 88.6924H121.765C121.825 88.6924 121.882 88.7161 121.924 88.7584C121.966 88.8007 121.99 88.8581 121.99 88.9179C121.99 88.9777 121.966 89.035 121.924 89.0773C121.882 89.1196 121.825 89.1433 121.765 89.1433Z" fill="#367CFF"/>
<path d="M121.765 93.2098H119.851C119.82 93.211 119.79 93.2059 119.762 93.1951C119.734 93.1843 119.708 93.1679 119.686 93.1469C119.665 93.1258 119.647 93.1006 119.635 93.0727C119.624 93.0448 119.618 93.0148 119.618 92.9845C119.618 92.9542 119.624 92.9242 119.635 92.8963C119.647 92.8684 119.665 92.8432 119.686 92.8222C119.708 92.8011 119.734 92.7847 119.762 92.7739C119.79 92.7631 119.82 92.7581 119.851 92.7592H121.765C121.795 92.7581 121.825 92.7631 121.854 92.7739C121.882 92.7847 121.908 92.8011 121.929 92.8222C121.951 92.8432 121.968 92.8684 121.98 92.8963C121.992 92.9242 121.998 92.9542 121.998 92.9845C121.998 93.0148 121.992 93.0448 121.98 93.0727C121.968 93.1006 121.951 93.1258 121.929 93.1469C121.908 93.1679 121.882 93.1843 121.854 93.1951C121.825 93.2059 121.795 93.211 121.765 93.2098Z" fill="#367CFF"/>
<path d="M134.519 44.4093H129.909C129.879 44.4104 129.848 44.4054 129.82 44.3946C129.792 44.3838 129.766 44.3673 129.745 44.3463C129.723 44.3253 129.706 44.3001 129.694 44.2722C129.682 44.2443 129.676 44.2143 129.676 44.184C129.676 44.1537 129.682 44.1237 129.694 44.0958C129.706 44.0679 129.723 44.0427 129.745 44.0216C129.766 44.0006 129.792 43.9842 129.82 43.9734C129.848 43.9625 129.879 43.9575 129.909 43.9586H134.519C134.549 43.9575 134.579 43.9625 134.607 43.9734C134.635 43.9842 134.661 44.0006 134.683 44.0216C134.705 44.0427 134.722 44.0679 134.734 44.0958C134.746 44.1237 134.752 44.1537 134.752 44.184C134.752 44.2143 134.746 44.2443 134.734 44.2722C134.722 44.3001 134.705 44.3253 134.683 44.3463C134.661 44.3673 134.635 44.3838 134.607 44.3946C134.579 44.4054 134.549 44.4104 134.519 44.4093Z" fill="#292A2E"/>
<path d="M130.475 68.8096H125.415C125.384 68.8107 125.354 68.8057 125.326 68.7949C125.298 68.784 125.272 68.7676 125.25 68.7466C125.229 68.7255 125.211 68.7003 125.199 68.6724C125.188 68.6445 125.182 68.6146 125.182 68.5842C125.182 68.5539 125.188 68.5239 125.199 68.496C125.211 68.4682 125.229 68.4429 125.25 68.4219C125.272 68.4009 125.298 68.3845 125.326 68.3736C125.354 68.3628 125.384 68.3578 125.415 68.3589H130.475C130.533 68.3611 130.588 68.3857 130.628 68.4278C130.669 68.4698 130.691 68.5259 130.691 68.5842C130.691 68.6426 130.669 68.6987 130.628 68.7407C130.588 68.7827 130.533 68.8074 130.475 68.8096Z" fill="#292A2E"/>
<path d="M134.519 72.877H129.909C129.849 72.877 129.792 72.8532 129.75 72.8109C129.708 72.7687 129.684 72.7113 129.684 72.6515C129.684 72.5917 129.708 72.5343 129.75 72.4921C129.792 72.4498 129.849 72.426 129.909 72.426H134.519C134.578 72.426 134.635 72.4498 134.678 72.4921C134.72 72.5343 134.743 72.5917 134.743 72.6515C134.743 72.7113 134.72 72.7687 134.678 72.8109C134.635 72.8532 134.578 72.877 134.519 72.877Z" fill="#292A2E"/>
<path d="M166.647 48.4761H133.053C132.994 48.4761 132.937 48.4523 132.895 48.4101C132.852 48.3678 132.829 48.3104 132.829 48.2506C132.829 48.1908 132.852 48.1335 132.895 48.0912C132.937 48.0489 132.994 48.0251 133.053 48.0251H166.647C166.707 48.0251 166.764 48.0489 166.806 48.0912C166.848 48.1335 166.872 48.1908 166.872 48.2506C166.872 48.3104 166.848 48.3678 166.806 48.4101C166.764 48.4523 166.707 48.4761 166.647 48.4761Z" fill="#292A2E"/>
<path d="M190.951 48.4761H171.511C171.452 48.4761 171.394 48.4523 171.352 48.4101C171.31 48.3678 171.286 48.3104 171.286 48.2506C171.286 48.1908 171.31 48.1335 171.352 48.0912C171.394 48.0489 171.452 48.0251 171.511 48.0251H190.951C191.011 48.0251 191.068 48.0489 191.11 48.0912C191.152 48.1335 191.176 48.1908 191.176 48.2506C191.176 48.3104 191.152 48.3678 191.11 48.4101C191.068 48.4523 191.011 48.4761 190.951 48.4761Z" fill="#0CBC8B"/>
<path d="M201.384 48.4761H195.426C195.366 48.4761 195.309 48.4523 195.267 48.4101C195.225 48.3678 195.201 48.3104 195.201 48.2506C195.201 48.1908 195.225 48.1335 195.267 48.0912C195.309 48.0489 195.366 48.0251 195.426 48.0251H201.384C201.444 48.0251 201.501 48.0489 201.543 48.0912C201.585 48.1335 201.609 48.1908 201.609 48.2506C201.609 48.3104 201.585 48.3678 201.543 48.4101C201.501 48.4523 201.444 48.4761 201.384 48.4761H201.384Z" fill="#292A2E"/>
<path d="M180.128 56.6094H133.054C133.023 56.6105 132.993 56.6055 132.965 56.5947C132.937 56.5838 132.911 56.5674 132.889 56.5464C132.868 56.5254 132.85 56.5001 132.838 56.4722C132.827 56.4444 132.821 56.4144 132.821 56.384C132.821 56.3537 132.827 56.3237 132.838 56.2958C132.85 56.268 132.868 56.2427 132.889 56.2217C132.911 56.2007 132.937 56.1843 132.965 56.1734C132.993 56.1626 133.023 56.1576 133.054 56.1587H180.128C180.158 56.1576 180.188 56.1626 180.216 56.1734C180.244 56.1843 180.27 56.2007 180.292 56.2217C180.314 56.2427 180.331 56.268 180.343 56.2958C180.354 56.3237 180.361 56.3537 180.361 56.384C180.361 56.4144 180.354 56.4444 180.343 56.4722C180.331 56.5001 180.314 56.5254 180.292 56.5464C180.27 56.5674 180.244 56.5838 180.216 56.5947C180.188 56.6055 180.158 56.6105 180.128 56.6094Z" fill="#292A2E"/>
<path d="M190.951 56.6094H184.993C184.963 56.6105 184.933 56.6055 184.905 56.5947C184.876 56.5838 184.851 56.5674 184.829 56.5464C184.807 56.5254 184.79 56.5001 184.778 56.4722C184.766 56.4444 184.76 56.4144 184.76 56.384C184.76 56.3537 184.766 56.3237 184.778 56.2958C184.79 56.268 184.807 56.2427 184.829 56.2217C184.851 56.2007 184.876 56.1843 184.905 56.1734C184.933 56.1626 184.963 56.1576 184.993 56.1587H190.952C190.982 56.1576 191.012 56.1626 191.04 56.1734C191.069 56.1843 191.094 56.2007 191.116 56.2217C191.138 56.2427 191.155 56.268 191.167 56.2958C191.179 56.3237 191.185 56.3537 191.185 56.384C191.185 56.4144 191.179 56.4444 191.167 56.4722C191.155 56.5001 191.138 56.5254 191.116 56.5464C191.094 56.5674 191.069 56.5838 191.04 56.5947C191.012 56.6055 190.982 56.6105 190.952 56.6094H190.951Z" fill="#367CFF"/>
<path d="M138.114 52.5429H133.053C132.994 52.5429 132.937 52.5191 132.895 52.4768C132.852 52.4345 132.829 52.3772 132.829 52.3174C132.829 52.2576 132.852 52.2002 132.895 52.158C132.937 52.1157 132.994 52.0919 133.053 52.0919H138.114C138.173 52.0919 138.23 52.1157 138.273 52.158C138.315 52.2002 138.338 52.2576 138.338 52.3174C138.338 52.3772 138.315 52.4345 138.273 52.4768C138.23 52.5191 138.173 52.5429 138.114 52.5429Z" fill="#0CBC8B"/>
<path d="M177.472 52.5429H142.978C142.919 52.5429 142.862 52.5191 142.819 52.4768C142.777 52.4345 142.754 52.3772 142.754 52.3174C142.754 52.2576 142.777 52.2002 142.819 52.158C142.862 52.1157 142.919 52.0919 142.978 52.0919H177.472C177.531 52.0919 177.588 52.1157 177.631 52.158C177.673 52.2002 177.696 52.2576 177.696 52.3174C177.696 52.3772 177.673 52.4345 177.631 52.4768C177.588 52.5191 177.531 52.5429 177.472 52.5429Z" fill="#367CFF"/>
<path d="M201.423 52.5429H182.882C182.823 52.5429 182.765 52.5191 182.723 52.4768C182.681 52.4345 182.657 52.3772 182.657 52.3174C182.657 52.2576 182.681 52.2002 182.723 52.158C182.765 52.1157 182.823 52.0919 182.882 52.0919H201.423C201.482 52.0919 201.54 52.1157 201.582 52.158C201.624 52.2002 201.648 52.2576 201.648 52.3174C201.648 52.3772 201.624 52.4345 201.582 52.4768C201.54 52.5191 201.482 52.5429 201.423 52.5429Z" fill="#292A2E"/>
<path d="M166.647 60.675H133.053C132.994 60.675 132.937 60.6512 132.895 60.6089C132.852 60.5666 132.829 60.5093 132.829 60.4495C132.829 60.3897 132.852 60.3323 132.895 60.29C132.937 60.2478 132.994 60.224 133.053 60.224H166.647C166.707 60.224 166.764 60.2478 166.806 60.29C166.848 60.3323 166.872 60.3897 166.872 60.4495C166.872 60.5093 166.848 60.5666 166.806 60.6089C166.764 60.6512 166.707 60.675 166.647 60.675Z" fill="#292A2E"/>
<path d="M181.964 60.675H171.512C171.452 60.675 171.395 60.6512 171.353 60.6089C171.311 60.5666 171.287 60.5093 171.287 60.4495C171.287 60.3897 171.311 60.3323 171.353 60.29C171.395 60.2478 171.452 60.224 171.512 60.224H181.964C182.024 60.224 182.081 60.2478 182.123 60.29C182.165 60.3323 182.189 60.3897 182.189 60.4495C182.189 60.5093 182.165 60.5666 182.123 60.6089C182.081 60.6512 182.024 60.675 181.964 60.675Z" fill="#0CBC8B"/>
<path d="M201.384 60.675H186.438C186.378 60.675 186.321 60.6512 186.279 60.6089C186.237 60.5666 186.213 60.5093 186.213 60.4495C186.213 60.3897 186.237 60.3323 186.279 60.29C186.321 60.2478 186.378 60.224 186.438 60.224H201.384C201.443 60.224 201.501 60.2478 201.543 60.29C201.585 60.3323 201.608 60.3897 201.608 60.4495C201.608 60.5093 201.585 60.5666 201.543 60.6089C201.501 60.6512 201.443 60.675 201.384 60.675Z" fill="#292A2E"/>
<path d="M138.114 64.7431H133.053C132.994 64.7431 132.937 64.7193 132.895 64.677C132.852 64.6347 132.829 64.5774 132.829 64.5176C132.829 64.4578 132.852 64.4004 132.895 64.3582C132.937 64.3159 132.994 64.2921 133.053 64.2921H138.114C138.173 64.2921 138.23 64.3159 138.273 64.3582C138.315 64.4004 138.338 64.4578 138.338 64.5176C138.338 64.5774 138.315 64.6347 138.273 64.677C138.23 64.7193 138.173 64.7431 138.114 64.7431Z" fill="#367CFF"/>
<path d="M177.472 64.7431H142.978C142.919 64.7431 142.862 64.7193 142.819 64.677C142.777 64.6347 142.754 64.5774 142.754 64.5176C142.754 64.4578 142.777 64.4004 142.819 64.3582C142.862 64.3159 142.919 64.2921 142.978 64.2921H177.472C177.531 64.2921 177.588 64.3159 177.631 64.3582C177.673 64.4004 177.696 64.4578 177.696 64.5176C177.696 64.5774 177.673 64.6347 177.631 64.677C177.588 64.7193 177.531 64.7431 177.472 64.7431Z" fill="#0CBC8B"/>
<path d="M165.748 81.0099H132.155C132.095 81.0099 132.038 80.9862 131.996 80.9439C131.954 80.9016 131.93 80.8442 131.93 80.7844C131.93 80.7246 131.954 80.6673 131.996 80.625C132.038 80.5827 132.095 80.559 132.155 80.559H165.748C165.808 80.559 165.865 80.5827 165.907 80.625C165.949 80.6673 165.973 80.7246 165.973 80.7844C165.973 80.8442 165.949 80.9016 165.907 80.9439C165.865 80.9862 165.808 81.0099 165.748 81.0099Z" fill="#292A2E"/>
<path d="M190.053 81.0099H170.613C170.553 81.0099 170.496 80.9862 170.454 80.9439C170.411 80.9016 170.388 80.8442 170.388 80.7844C170.388 80.7246 170.411 80.6673 170.454 80.625C170.496 80.5827 170.553 80.559 170.613 80.559H190.053C190.112 80.559 190.169 80.5827 190.212 80.625C190.254 80.6673 190.277 80.7246 190.277 80.7844C190.277 80.8442 190.254 80.9016 190.212 80.9439C190.169 80.9862 190.112 81.0099 190.053 81.0099Z" fill="#367CFF"/>
<path d="M146.204 76.9431H132.155C132.095 76.9431 132.038 76.9194 131.996 76.8771C131.954 76.8348 131.93 76.7775 131.93 76.7177C131.93 76.6579 131.954 76.6005 131.996 76.5582C132.038 76.5159 132.095 76.4922 132.155 76.4922H146.204C146.263 76.4922 146.32 76.5159 146.363 76.5582C146.405 76.6005 146.428 76.6579 146.428 76.7177C146.428 76.7775 146.405 76.8348 146.363 76.8771C146.32 76.9194 146.263 76.9431 146.204 76.9431Z" fill="#0CBC8B"/>
<path d="M176.572 76.9431H151.066C151.007 76.9431 150.949 76.9194 150.907 76.8771C150.865 76.8348 150.841 76.7775 150.841 76.7177C150.841 76.6579 150.865 76.6005 150.907 76.5582C150.949 76.5159 151.007 76.4922 151.066 76.4922H176.572C176.632 76.4922 176.689 76.5159 176.731 76.5582C176.773 76.6005 176.797 76.6579 176.797 76.7177C176.797 76.7775 176.773 76.8348 176.731 76.8771C176.689 76.9194 176.632 76.9431 176.572 76.9431Z" fill="#367CFF"/>
<path d="M200.524 76.9431H181.984C181.924 76.9431 181.867 76.9194 181.825 76.8771C181.783 76.8348 181.759 76.7775 181.759 76.7177C181.759 76.6579 181.783 76.6005 181.825 76.5582C181.867 76.5159 181.924 76.4922 181.984 76.4922H200.524C200.584 76.4922 200.641 76.5159 200.683 76.5582C200.725 76.6005 200.749 76.6579 200.749 76.7177C200.749 76.7775 200.725 76.8348 200.683 76.8771C200.641 76.9194 200.584 76.9431 200.524 76.9431Z" fill="#292A2E"/>
<path d="M179.229 89.1432H132.155C132.095 89.1432 132.038 89.1195 131.996 89.0772C131.954 89.0349 131.93 88.9775 131.93 88.9177C131.93 88.8579 131.954 88.8006 131.996 88.7583C132.038 88.716 132.095 88.6923 132.155 88.6923H179.229C179.289 88.6923 179.346 88.716 179.388 88.7583C179.43 88.8006 179.454 88.8579 179.454 88.9177C179.454 88.9775 179.43 89.0349 179.388 89.0772C179.346 89.1195 179.289 89.1432 179.229 89.1432Z" fill="#367CFF"/>
<path d="M193.085 89.1432H184.094C184.034 89.1432 183.977 89.1195 183.935 89.0772C183.893 89.0349 183.869 88.9775 183.869 88.9177C183.869 88.8579 183.893 88.8006 183.935 88.7583C183.977 88.716 184.034 88.6923 184.094 88.6923H193.085C193.145 88.6923 193.202 88.716 193.244 88.7583C193.287 88.8006 193.31 88.8579 193.31 88.9177C193.31 88.9775 193.287 89.0349 193.244 89.0772C193.202 89.1195 193.145 89.1432 193.085 89.1432Z" fill="#292A2E"/>
<path d="M137.215 85.0764H132.155C132.125 85.0775 132.095 85.0725 132.066 85.0617C132.038 85.0509 132.012 85.0345 131.991 85.0134C131.969 84.9924 131.952 84.9672 131.94 84.9393C131.928 84.9114 131.922 84.8814 131.922 84.8511C131.922 84.8208 131.928 84.7908 131.94 84.7629C131.952 84.735 131.969 84.7098 131.991 84.6888C132.012 84.6677 132.038 84.6513 132.066 84.6405C132.095 84.6297 132.125 84.6246 132.155 84.6258H137.215C137.245 84.6246 137.275 84.6297 137.303 84.6405C137.331 84.6513 137.357 84.6677 137.379 84.6888C137.401 84.7098 137.418 84.735 137.43 84.7629C137.442 84.7908 137.448 84.8208 137.448 84.8511C137.448 84.8814 137.442 84.9114 137.43 84.9393C137.418 84.9672 137.401 84.9924 137.379 85.0134C137.357 85.0345 137.331 85.0509 137.303 85.0617C137.275 85.0725 137.245 85.0775 137.215 85.0764Z" fill="#367CFF"/>
<path d="M176.572 85.0764H142.079C142.049 85.0775 142.019 85.0725 141.991 85.0617C141.962 85.0509 141.937 85.0345 141.915 85.0134C141.893 84.9924 141.876 84.9672 141.864 84.9393C141.852 84.9114 141.846 84.8814 141.846 84.8511C141.846 84.8208 141.852 84.7908 141.864 84.7629C141.876 84.735 141.893 84.7098 141.915 84.6888C141.937 84.6677 141.962 84.6513 141.991 84.6405C142.019 84.6297 142.049 84.6246 142.079 84.6258H176.572C176.602 84.6246 176.632 84.6297 176.66 84.6405C176.689 84.6513 176.714 84.6677 176.736 84.6888C176.758 84.7098 176.775 84.735 176.787 84.7629C176.799 84.7908 176.805 84.8208 176.805 84.8511C176.805 84.8814 176.799 84.9114 176.787 84.9393C176.775 84.9672 176.758 84.9924 176.736 85.0134C176.714 85.0345 176.689 85.0509 176.66 85.0617C176.632 85.0725 176.602 85.0775 176.572 85.0764Z" fill="#292A2E"/>
<path d="M200.524 85.0764H181.984C181.953 85.0775 181.923 85.0725 181.895 85.0617C181.867 85.0509 181.841 85.0345 181.819 85.0134C181.798 84.9924 181.78 84.9672 181.769 84.9393C181.757 84.9114 181.751 84.8814 181.751 84.8511C181.751 84.8208 181.757 84.7908 181.769 84.7629C181.78 84.735 181.798 84.7098 181.819 84.6888C181.841 84.6677 181.867 84.6513 181.895 84.6405C181.923 84.6297 181.953 84.6246 181.984 84.6258H200.524C200.554 84.6246 200.585 84.6297 200.613 84.6405C200.641 84.6513 200.667 84.6677 200.688 84.6888C200.71 84.7098 200.728 84.735 200.739 84.7629C200.751 84.7908 200.757 84.8208 200.757 84.8511C200.757 84.8814 200.751 84.9114 200.739 84.9393C200.728 84.9672 200.71 84.9924 200.688 85.0134C200.667 85.0345 200.641 85.0509 200.613 85.0617C200.585 85.0725 200.554 85.0775 200.524 85.0764Z" fill="#0CBC8B"/>
<path d="M165.748 93.2101H132.155C132.095 93.2101 132.038 93.1864 131.996 93.1441C131.954 93.1018 131.93 93.0444 131.93 92.9846C131.93 92.9248 131.954 92.8675 131.996 92.8252C132.038 92.7829 132.095 92.7592 132.155 92.7592H165.748C165.808 92.7592 165.865 92.7829 165.907 92.8252C165.949 92.8675 165.973 92.9248 165.973 92.9846C165.973 93.0444 165.949 93.1018 165.907 93.1441C165.865 93.1864 165.808 93.2101 165.748 93.2101Z" fill="#0CBC8B"/>
<path d="M181.066 93.2101H170.613C170.554 93.2101 170.496 93.1864 170.454 93.1441C170.412 93.1018 170.388 93.0444 170.388 92.9846C170.388 92.9248 170.412 92.8675 170.454 92.8252C170.496 92.7829 170.554 92.7592 170.613 92.7592H181.066C181.125 92.7592 181.182 92.7829 181.225 92.8252C181.267 92.8675 181.29 92.9248 181.29 92.9846C181.29 93.0444 181.267 93.1018 181.225 93.1441C181.182 93.1864 181.125 93.2101 181.066 93.2101Z" fill="#292A2E"/>
<path d="M200.485 93.2101H185.539C185.479 93.2101 185.422 93.1864 185.38 93.1441C185.338 93.1018 185.314 93.0444 185.314 92.9846C185.314 92.9248 185.338 92.8675 185.38 92.8252C185.422 92.7829 185.479 92.7592 185.539 92.7592H200.485C200.544 92.7592 200.602 92.7829 200.644 92.8252C200.686 92.8675 200.71 92.9248 200.71 92.9846C200.71 93.0444 200.686 93.1018 200.644 93.1441C200.602 93.1864 200.544 93.2101 200.485 93.2101H200.485Z" fill="#367CFF"/>
<path d="M116.807 95.4314C116.777 95.4314 116.748 95.4256 116.721 95.4143C116.694 95.403 116.669 95.3864 116.648 95.3655C116.627 95.3446 116.611 95.3198 116.599 95.2924C116.588 95.2651 116.582 95.2358 116.582 95.2062V33.244C116.582 33.1842 116.606 33.1269 116.648 33.0846C116.69 33.0423 116.747 33.0186 116.807 33.0186C116.866 33.0186 116.924 33.0423 116.966 33.0846C117.008 33.1269 117.032 33.1842 117.032 33.244V95.2062C117.032 95.2358 117.026 95.2651 117.014 95.2924C117.003 95.3198 116.987 95.3446 116.966 95.3655C116.945 95.3864 116.92 95.403 116.893 95.4143C116.866 95.4256 116.836 95.4314 116.807 95.4314Z" fill="#292A2E"/>
<path d="M106.53 36.0596H96.7993C96.7397 36.0596 96.6826 36.0358 96.6404 35.9936C96.5983 35.9513 96.5746 35.8939 96.5746 35.8341C96.5746 35.7743 96.5983 35.717 96.6404 35.6747C96.6826 35.6324 96.7397 35.6086 96.7993 35.6086H106.529C106.589 35.6086 106.646 35.6324 106.688 35.6747C106.73 35.717 106.754 35.7743 106.754 35.8341C106.754 35.8939 106.73 35.9513 106.688 35.9936C106.646 36.0358 106.589 36.0596 106.529 36.0596H106.53Z" fill="#292A2E"/>
<path d="M103.6 40.5059H96.7995C96.7693 40.507 96.7392 40.502 96.711 40.4911C96.6828 40.4803 96.657 40.4639 96.6353 40.4429C96.6135 40.4218 96.5963 40.3966 96.5844 40.3687C96.5726 40.3408 96.5665 40.3108 96.5665 40.2805C96.5665 40.2502 96.5726 40.2202 96.5844 40.1923C96.5963 40.1644 96.6135 40.1392 96.6353 40.1182C96.657 40.0972 96.6828 40.0807 96.711 40.0699C96.7392 40.0591 96.7693 40.0541 96.7995 40.0552H103.598C103.657 40.0573 103.712 40.082 103.752 40.124C103.792 40.1661 103.815 40.2222 103.815 40.2805C103.815 40.3389 103.792 40.395 103.752 40.437C103.712 40.479 103.657 40.5037 103.598 40.5059H103.6Z" fill="#292A2E"/>
<path d="M109.578 44.9524H96.7996C96.74 44.9524 96.6828 44.9287 96.6407 44.8864C96.5985 44.8441 96.5748 44.7867 96.5748 44.7269C96.5748 44.6671 96.5985 44.6098 96.6407 44.5675C96.6828 44.5252 96.74 44.5015 96.7996 44.5015H109.577C109.637 44.5015 109.694 44.5252 109.736 44.5675C109.778 44.6098 109.802 44.6671 109.802 44.7269C109.802 44.7867 109.778 44.8441 109.736 44.8864C109.694 44.9287 109.637 44.9524 109.577 44.9524H109.578Z" fill="#292A2E"/>
<path d="M111.962 49.3987H101.294C101.264 49.3998 101.234 49.3948 101.206 49.384C101.178 49.3731 101.152 49.3567 101.13 49.3357C101.108 49.3147 101.091 49.2894 101.079 49.2616C101.067 49.2337 101.061 49.2037 101.061 49.1734C101.061 49.143 101.067 49.1131 101.079 49.0852C101.091 49.0573 101.108 49.032 101.13 49.011C101.152 48.99 101.178 48.9736 101.206 48.9627C101.234 48.9519 101.264 48.9469 101.294 48.948H111.962C111.992 48.9469 112.022 48.9519 112.05 48.9627C112.078 48.9736 112.104 48.99 112.126 49.011C112.148 49.032 112.165 49.0573 112.177 49.0852C112.189 49.1131 112.195 49.143 112.195 49.1734C112.195 49.2037 112.189 49.2337 112.177 49.2616C112.165 49.2894 112.148 49.3147 112.126 49.3357C112.104 49.3567 112.078 49.3731 112.05 49.384C112.022 49.3948 111.992 49.3998 111.962 49.3987Z" fill="#292A2E"/>
<path d="M106.804 53.8452H101.294C101.235 53.8452 101.178 53.8215 101.136 53.7792C101.093 53.7369 101.07 53.6796 101.07 53.6198C101.07 53.56 101.093 53.5026 101.136 53.4603C101.178 53.418 101.235 53.3943 101.294 53.3943H106.804C106.863 53.3943 106.921 53.418 106.963 53.4603C107.005 53.5026 107.029 53.56 107.029 53.6198C107.029 53.6796 107.005 53.7369 106.963 53.7792C106.921 53.8215 106.863 53.8452 106.804 53.8452Z" fill="#292A2E"/>
<path d="M111.023 58.2918H101.294C101.235 58.2918 101.178 58.268 101.136 58.2257C101.093 58.1834 101.07 58.1261 101.07 58.0663C101.07 58.0065 101.093 57.9491 101.136 57.9069C101.178 57.8646 101.235 57.8408 101.294 57.8408H111.023C111.083 57.8408 111.14 57.8646 111.182 57.9069C111.224 57.9491 111.248 58.0065 111.248 58.0663C111.248 58.1261 111.224 58.1834 111.182 58.2257C111.14 58.268 111.083 58.2918 111.023 58.2918Z" fill="#292A2E"/>
<path d="M104.303 62.7381H96.7996C96.74 62.7381 96.6828 62.7143 96.6407 62.672C96.5985 62.6297 96.5748 62.5724 96.5748 62.5126C96.5748 62.4528 96.5985 62.3954 96.6407 62.3532C96.6828 62.3109 96.74 62.2871 96.7996 62.2871H104.302C104.361 62.2871 104.419 62.3109 104.461 62.3532C104.503 62.3954 104.526 62.4528 104.526 62.5126C104.526 62.5724 104.503 62.6297 104.461 62.672C104.419 62.7143 104.361 62.7381 104.302 62.7381H104.303Z" fill="#292A2E"/>
<path d="M101.724 67.1846H96.7996C96.74 67.1846 96.6828 67.1608 96.6407 67.1186C96.5985 67.0763 96.5748 67.0189 96.5748 66.9591C96.5748 66.8993 96.5985 66.842 96.6407 66.7997C96.6828 66.7574 96.74 66.7336 96.7996 66.7336H101.723C101.782 66.7336 101.839 66.7574 101.882 66.7997C101.924 66.842 101.947 66.8993 101.947 66.9591C101.947 67.0189 101.924 67.0763 101.882 67.1186C101.839 67.1608 101.782 67.1846 101.723 67.1846H101.724Z" fill="#292A2E"/>
<path d="M121.459 35.106V35.1872L124.268 36.2331C124.308 36.2495 124.343 36.2776 124.367 36.3138C124.391 36.35 124.403 36.3926 124.403 36.436V36.5127C124.403 36.5467 124.395 36.5802 124.379 36.6102C124.363 36.6402 124.34 36.6656 124.312 36.684C124.283 36.7041 124.25 36.7168 124.216 36.7207C124.181 36.7246 124.146 36.7198 124.114 36.7066L120.942 35.462C120.902 35.4462 120.868 35.4189 120.844 35.3835C120.82 35.3482 120.807 35.3064 120.807 35.2636V35.0339C120.806 34.991 120.819 34.9489 120.843 34.9135C120.867 34.878 120.902 34.8508 120.942 34.8355L124.114 33.5879C124.14 33.579 124.167 33.5743 124.195 33.5742C124.236 33.5751 124.277 33.5877 124.312 33.6104C124.34 33.6298 124.364 33.656 124.38 33.6868C124.395 33.7175 124.403 33.7517 124.403 33.7863V33.8627C124.404 33.9057 124.391 33.9479 124.367 33.9835C124.343 34.0191 124.308 34.0462 124.268 34.0611L121.459 35.106Z" fill="#367CFF"/>
<path d="M127.027 32.6668L125.347 37.829C125.333 37.8722 125.306 37.9099 125.27 37.9366C125.233 37.9634 125.189 37.9778 125.144 37.9778C125.112 37.9784 125.079 37.9708 125.05 37.9558C125.021 37.9409 124.996 37.919 124.978 37.892C124.958 37.8654 124.944 37.8344 124.938 37.8016C124.932 37.7688 124.933 37.735 124.942 37.7028L126.622 32.5451C126.637 32.5014 126.665 32.4633 126.702 32.436C126.739 32.4088 126.783 32.3937 126.829 32.3929C126.862 32.3929 126.894 32.4007 126.923 32.4156C126.952 32.4305 126.977 32.4522 126.996 32.4788C127.015 32.5053 127.029 32.5362 127.034 32.5689C127.04 32.6016 127.037 32.6352 127.027 32.6668Z" fill="#367CFF"/>
<path d="M131.154 35.0339V35.2636C131.154 35.306 131.142 35.3476 131.119 35.383C131.096 35.4183 131.063 35.4459 131.024 35.462L127.847 36.7066C127.815 36.7196 127.781 36.7244 127.747 36.7205C127.713 36.7165 127.681 36.704 127.653 36.6841C127.625 36.6656 127.601 36.6403 127.584 36.6104C127.568 36.5805 127.559 36.5469 127.559 36.5127V36.4361C127.558 36.3919 127.572 36.3486 127.597 36.3123C127.622 36.2759 127.657 36.2482 127.699 36.2331L130.507 35.1873V35.106L127.699 34.0599C127.657 34.0461 127.621 34.0195 127.596 33.9837C127.571 33.948 127.558 33.9052 127.559 33.8615V33.7851C127.559 33.7503 127.568 33.716 127.584 33.6854C127.601 33.6547 127.624 33.6286 127.653 33.6092C127.688 33.5865 127.729 33.574 127.77 33.573C127.796 33.5727 127.822 33.5774 127.847 33.5867L131.024 34.8343C131.063 34.85 131.097 34.8777 131.12 34.9134C131.144 34.9491 131.155 34.9912 131.154 35.0339Z" fill="#367CFF"/>
<path d="M15.7461 178.974C13.9139 178.973 12.1089 178.529 10.4847 177.678C8.86056 176.828 7.46527 175.596 6.41762 174.088C5.36997 172.58 4.70097 170.84 4.46755 169.017C4.23414 167.193 4.44322 165.34 5.077 163.616C5.72026 161.864 22.2199 119.131 25.0934 111.704L44.9491 123.297C43.3344 127.474 37.483 143.303 32.7821 156.054L40.5919 155.202L43.0484 176.065L16.9765 178.907C16.5678 178.951 16.1571 178.974 15.7461 178.974Z" fill="#367CFF"/>
<path d="M80.6917 102.819C80.622 102.81 78.7113 110.024 63.7991 108.902C53.4755 108.126 50.9582 101.075 50.7217 101.075C51.8347 100.838 53.6423 100.591 54.1366 100.327C55.7622 99.4504 56.9462 98.3836 57.5424 96.0941C58.0086 94.3037 58.246 87.4109 58.246 83.953L74.1318 87.5345C73.9104 91.4354 72.3606 100.479 77.7924 102.079C78.6961 102.343 79.6697 102.586 80.6917 102.819Z" fill="#E98862"/>
<path d="M73.582 95.2022C67.3196 95.6982 59.2748 93.0452 57.7466 84.662L56.3679 77.098C54.8397 68.7149 57.9895 61.1138 65.8566 59.6703C73.7234 58.2267 80.8425 63.9434 82.3705 72.3265L82.981 75.6755C83.5672 78.8918 84.7557 94.318 73.582 95.2022Z" fill="#E98862"/>
<path d="M43.938 102.234C38.3103 102.653 32.572 103.265 28.431 107.111C23.4439 111.744 22.5401 117.44 25.7218 133.115C28.4592 146.602 27.3732 152.496 29.2047 177.384C29.2586 178.117 29.3742 179.634 29.3742 179.634L89.5751 179.534C89.5751 179.534 95.2161 146.513 98.3304 131.284C100.699 119.705 106.92 105.649 80.6905 102.817C80.6226 102.809 59.5872 101.07 43.938 102.234Z" fill="#367CFF"/>
<path d="M29.3754 179.786C29.3361 179.786 29.2984 179.771 29.2701 179.744C29.2419 179.717 29.2252 179.679 29.2237 179.64L27.337 130.505C27.3363 130.485 27.3394 130.465 27.3463 130.447C27.3533 130.428 27.3638 130.411 27.3773 130.396C27.3909 130.381 27.4072 130.369 27.4253 130.361C27.4434 130.353 27.463 130.348 27.4829 130.347C27.503 130.346 27.5232 130.348 27.5423 130.355C27.5613 130.362 27.5788 130.372 27.5936 130.386C27.6084 130.4 27.6202 130.416 27.6282 130.435C27.6363 130.453 27.6404 130.473 27.6403 130.494L29.527 179.629C29.5285 179.669 29.5139 179.708 29.4866 179.738C29.4592 179.767 29.4213 179.785 29.3811 179.786L29.3754 179.786Z" fill="#0C0C0C"/>
<path d="M125.975 119.778L130.204 110.259C130.297 110.05 130.433 109.862 130.602 109.708C130.771 109.555 130.97 109.438 131.187 109.365C131.403 109.293 131.632 109.267 131.859 109.288C132.087 109.31 132.307 109.378 132.506 109.49C132.868 109.707 133.137 110.052 133.26 110.457C133.383 110.861 133.352 111.298 133.172 111.681L132.265 113.722L138.054 108.616C138.687 108.038 139.834 107.734 140.434 108.49C140.684 108.766 140.834 109.118 140.858 109.49C140.883 109.862 140.781 110.232 140.569 110.538C140.576 110.542 140.583 110.548 140.588 110.554C140.592 110.559 140.595 110.565 140.598 110.57L141.575 109.678C141.756 109.513 141.972 109.39 142.206 109.319C142.44 109.248 142.688 109.23 142.93 109.267C143.172 109.304 143.402 109.395 143.605 109.532C143.808 109.67 143.977 109.851 144.101 110.063C144.29 110.4 144.357 110.793 144.292 111.174C144.227 111.555 144.033 111.902 143.743 112.157L143.327 112.538C143.333 112.555 143.335 112.573 143.334 112.59C143.674 112.399 144.071 112.336 144.454 112.411C144.837 112.487 145.18 112.697 145.423 113.003C145.679 113.346 145.796 113.773 145.752 114.199C145.708 114.625 145.505 115.019 145.184 115.301L144.152 116.245C144.176 116.242 144.2 116.244 144.223 116.253C144.245 116.261 144.266 116.275 144.282 116.292C144.301 116.314 144.312 116.341 144.315 116.37C144.666 116.284 145.034 116.316 145.365 116.461C145.695 116.606 145.969 116.855 146.144 117.172C146.321 117.507 146.38 117.894 146.311 118.267C146.243 118.641 146.05 118.981 145.765 119.231L137.05 127.191C135.831 128.305 134.308 129.028 132.677 129.268C131.045 129.507 129.38 129.252 127.894 128.536C126.612 127.919 125.621 126.824 125.131 125.485C124.641 124.146 124.691 122.668 125.27 121.365L125.975 119.778Z" fill="#E98862"/>
<g opacity="0.2">
<path d="M134.863 115.619C134.89 115.648 134.928 115.666 134.967 115.668C135.007 115.67 135.046 115.656 135.076 115.63L140.574 110.768C140.605 110.741 140.623 110.703 140.626 110.663C140.628 110.623 140.615 110.583 140.588 110.553C140.561 110.522 140.524 110.504 140.484 110.501C140.443 110.499 140.404 110.512 140.374 110.539L134.875 115.401C134.86 115.414 134.848 115.43 134.839 115.448C134.83 115.466 134.825 115.486 134.824 115.506C134.823 115.526 134.825 115.546 134.832 115.565C134.838 115.584 134.848 115.601 134.862 115.616L134.863 115.619Z" fill="#0C0C0C"/>
</g>
<g opacity="0.2">
<path d="M136.934 118.111C136.961 118.14 136.998 118.158 137.038 118.16C137.077 118.162 137.116 118.148 137.146 118.122L143.283 112.696C143.298 112.683 143.31 112.666 143.319 112.649C143.327 112.631 143.332 112.611 143.334 112.591C143.335 112.571 143.332 112.551 143.326 112.532C143.319 112.513 143.309 112.496 143.296 112.481C143.269 112.452 143.231 112.434 143.192 112.432C143.152 112.429 143.113 112.442 143.082 112.467L136.945 117.894C136.93 117.907 136.918 117.923 136.909 117.941C136.901 117.959 136.896 117.978 136.894 117.998C136.893 118.018 136.896 118.038 136.902 118.057C136.909 118.076 136.919 118.093 136.932 118.108L136.934 118.111Z" fill="#0C0C0C"/>
</g>
<g opacity="0.2">
<path d="M139.161 120.823C139.188 120.853 139.225 120.87 139.265 120.872C139.305 120.874 139.343 120.861 139.373 120.834L144.268 116.506C144.298 116.479 144.317 116.441 144.319 116.401C144.322 116.361 144.308 116.321 144.281 116.291C144.255 116.261 144.217 116.242 144.177 116.24C144.137 116.237 144.098 116.251 144.067 116.278L139.172 120.606C139.157 120.619 139.145 120.635 139.137 120.653C139.128 120.671 139.123 120.691 139.121 120.711C139.12 120.731 139.123 120.751 139.129 120.77C139.136 120.788 139.146 120.806 139.159 120.821L139.161 120.823Z" fill="#0C0C0C"/>
</g>
<path d="M79.3877 86.6104C78.3092 81.1734 77.8146 77.546 77.8713 73.7192C79.3901 71.0458 78.991 67.9776 78.6456 66.6516C79.0808 66.9004 79.5363 67.1119 80.007 67.2839C80.2259 67.3602 80.462 67.3723 80.6875 67.3187C80.913 67.2651 81.1186 67.1481 81.2801 66.9813C81.4415 66.8145 81.5522 66.6049 81.5991 66.3772C81.6459 66.1495 81.6271 65.9131 81.5446 65.6958C80.3691 62.6419 77.3475 56.7077 71.11 54.7192C69.5399 54.1061 65.5297 53.3317 60.208 54.0641C55.6807 54.6873 45.4305 58.9966 43.8361 71.6023V71.6093C43.7833 72.0274 41.802 82.7292 39.6657 88.3019C36.794 95.7932 32.7619 98.121 32.8641 106.764C32.9957 117.882 53.3658 119.362 65.6546 118.53C77.9435 117.699 84.8009 113.645 84.8898 105.633C84.9865 96.6543 81.5446 97.4881 79.3877 86.6104Z" fill="#0A0A0A"/>
<path d="M79.3913 82.7551C77.0006 83.1939 74.5947 80.9832 74.1576 78.5845C73.7206 76.1858 74.81 73.7192 77.871 73.7192L79.3913 82.7551Z" fill="#E98862"/>
<path d="M105.107 177.248C102.702 177.247 100.359 176.483 98.4143 175.063C96.4697 173.644 95.0232 171.643 94.2826 169.347L78.4814 120.315L100.124 113.294L108.434 139.084L122.795 116.17L142.052 128.318L114.732 171.911C113.708 173.544 112.288 174.89 110.605 175.824C108.922 176.757 107.03 177.247 105.107 177.248Z" fill="#367CFF"/>
<path d="M92.3561 163.709C92.3468 163.709 92.3374 163.708 92.3282 163.706C92.2887 163.699 92.2537 163.676 92.2309 163.643C92.2082 163.61 92.1995 163.569 92.2069 163.529L97.5783 134.274C97.5819 134.255 97.5893 134.236 97.6001 134.219C97.611 134.202 97.625 134.188 97.6414 134.177C97.6578 134.165 97.6763 134.157 97.6957 134.153C97.7152 134.149 97.7354 134.149 97.7549 134.152C97.7745 134.156 97.7932 134.163 97.8099 134.174C97.8267 134.185 97.8411 134.199 97.8524 134.215C97.8637 134.232 97.8717 134.25 97.8759 134.27C97.88 134.29 97.8803 134.31 97.8767 134.329L92.505 163.585C92.4984 163.62 92.4799 163.651 92.4527 163.674C92.4255 163.696 92.3914 163.709 92.3561 163.709Z" fill="#0C0C0C"/>
<path d="M110.367 145.989C110.333 145.989 110.301 145.977 110.274 145.957C110.248 145.936 110.229 145.907 110.22 145.875L108.431 138.959C108.421 138.92 108.427 138.879 108.447 138.844C108.467 138.809 108.501 138.784 108.54 138.774C108.579 138.764 108.62 138.77 108.655 138.79C108.689 138.811 108.714 138.844 108.724 138.883L110.514 145.798C110.52 145.821 110.52 145.844 110.515 145.867C110.511 145.89 110.501 145.911 110.487 145.93C110.473 145.948 110.454 145.963 110.434 145.973C110.413 145.983 110.39 145.989 110.367 145.989H110.367Z" fill="#0C0C0C"/>
<path d="M232.099 144.829H172.806C172.435 144.829 172.068 144.75 171.729 144.597C171.391 144.445 171.089 144.222 170.843 143.943C170.596 143.665 170.412 143.337 170.301 142.982C170.19 142.627 170.156 142.252 170.2 141.882L171.786 128.599C171.863 127.96 172.17 127.371 172.65 126.943C173.13 126.516 173.75 126.28 174.392 126.28H232.099C232.795 126.28 233.462 126.557 233.954 127.051C234.447 127.545 234.723 128.214 234.723 128.913V142.196C234.723 142.894 234.446 143.564 233.954 144.058C233.462 144.551 232.795 144.829 232.099 144.829Z" fill="#292A2E"/>
<path d="M188.845 144.954L191.38 135.19C191.436 134.976 191.447 134.752 191.412 134.533C191.377 134.314 191.296 134.105 191.176 133.919C191.056 133.733 190.898 133.574 190.714 133.452C190.529 133.331 190.321 133.249 190.103 133.213C188.298 132.871 188.079 135.365 187.737 136.56L186.435 129.189C186.236 127.201 183.572 127.136 183.375 129.117C183.361 129.114 183.347 129.117 183.334 129.124C183.397 125.503 179.401 125.783 180.085 128.956C180.071 128.966 180.058 128.978 180.048 128.992C179.381 127.237 176.646 128.058 177.015 129.92L177.228 131.259C177.215 131.245 177.199 131.234 177.182 131.227C177.166 131.219 177.147 131.215 177.129 131.215C177.11 131.214 177.092 131.218 177.074 131.224C177.057 131.231 177.041 131.241 177.028 131.254C176.111 129.951 173.861 130.907 174.207 132.539L176.002 143.843C177.029 151.155 187.753 153.608 188.845 144.954Z" fill="#E98862"/>
<g opacity="0.2">
<path d="M184.629 136.418C184.235 136.381 183.392 129.502 183.234 129.286C183.227 129.248 183.236 129.208 183.258 129.176C183.281 129.144 183.315 129.123 183.353 129.116C183.392 129.109 183.431 129.118 183.463 129.14C183.495 129.163 183.517 129.197 183.523 129.236L184.75 136.247C184.754 136.266 184.753 136.286 184.749 136.305C184.745 136.324 184.737 136.342 184.725 136.358C184.714 136.374 184.7 136.387 184.683 136.397C184.667 136.408 184.648 136.415 184.629 136.418Z" fill="#0C0C0C"/>
</g>
<g opacity="0.2">
<path d="M181.561 137.047C181.523 137.053 181.484 137.043 181.453 137.02C181.422 136.998 181.401 136.963 181.394 136.925L180.023 129.101C180.016 129.062 180.025 129.023 180.047 128.991C180.069 128.959 180.103 128.937 180.142 128.93C180.544 128.893 181.523 136.71 181.684 136.874C181.687 136.894 181.687 136.914 181.683 136.933C181.678 136.952 181.67 136.971 181.659 136.987C181.647 137.003 181.633 137.016 181.616 137.027C181.599 137.037 181.58 137.044 181.561 137.047Z" fill="#0C0C0C"/>
</g>
<g opacity="0.2">
<path d="M178.243 137.748C178.205 137.753 178.166 137.744 178.135 137.721C178.104 137.698 178.083 137.664 178.076 137.626L176.982 131.384C176.977 131.347 176.986 131.308 177.009 131.277C177.031 131.246 177.065 131.225 177.102 131.219C177.14 131.212 177.178 131.22 177.21 131.242C177.241 131.263 177.263 131.296 177.271 131.334L178.366 137.575C178.369 137.594 178.369 137.614 178.365 137.634C178.36 137.653 178.352 137.671 178.341 137.687C178.329 137.703 178.315 137.717 178.298 137.727C178.281 137.738 178.262 137.745 178.243 137.748Z" fill="#0C0C0C"/>
</g>
<path d="M98.7101 179.786H28.226L23.7465 145.256C23.6566 144.563 23.7151 143.859 23.918 143.19C24.1208 142.522 24.4635 141.905 24.923 141.38C25.3826 140.855 25.9484 140.434 26.5828 140.146C27.2172 139.858 27.9056 139.709 28.602 139.709H89.2063C90.3958 139.708 91.5448 140.142 92.4388 140.93C93.3329 141.717 93.9108 142.804 94.0648 143.987L98.7101 179.786Z" fill="white"/>
<path d="M94.4318 143.941C94.2643 142.669 93.6423 141.5 92.6813 140.653C91.7203 139.806 90.4856 139.337 89.2063 139.334H28.602C27.9363 139.335 27.2767 139.462 26.658 139.709C26.3963 139.812 26.1437 139.937 25.9029 140.083C25.0199 140.611 24.3103 141.387 23.8614 142.315C23.4125 143.242 23.2439 144.282 23.3765 145.304L27.8529 179.786H28.602L24.1165 145.21C24.0334 144.57 24.0872 143.92 24.2745 143.302C24.4619 142.684 24.7783 142.114 25.2028 141.628C25.6273 141.143 26.1501 140.754 26.7363 140.488C27.3224 140.221 27.9585 140.083 28.602 140.083H89.2063C90.3044 140.086 91.3642 140.488 92.1894 141.215C93.0147 141.941 93.5495 142.944 93.6948 144.036L98.335 179.786H99.0871L94.4318 143.941Z" fill="#292A2E"/>
<path d="M94.5985 179.786H24.1134L19.634 145.256C19.5439 144.563 19.6023 143.859 19.8051 143.19C20.0079 142.522 20.3506 141.904 20.8101 141.379C21.2697 140.854 21.8356 140.434 22.4701 140.146C23.1046 139.857 23.793 139.709 24.4895 139.709H85.0928C86.282 139.709 87.4304 140.143 88.3239 140.93C89.2174 141.718 89.7948 142.804 89.9483 143.987L94.5985 179.786Z" fill="#292A2E"/>
<path d="M90.3193 143.941C90.2157 143.148 89.9343 142.389 89.4962 141.721C89.0581 141.052 88.4747 140.492 87.7899 140.083C87.5488 139.938 87.2962 139.813 87.0348 139.709C86.4172 139.462 85.7586 139.335 85.0938 139.334H24.4895C23.7399 139.334 22.9989 139.494 22.3159 139.804C21.633 140.114 21.0238 140.567 20.5292 141.132C20.0346 141.697 19.6658 142.362 19.4477 143.081C19.2295 143.801 19.1669 144.559 19.264 145.304L23.7374 179.786H24.4895L20.004 145.21C19.9208 144.57 19.9747 143.92 20.162 143.302C20.3493 142.684 20.6658 142.114 21.0903 141.628C21.5148 141.143 22.0376 140.754 22.6238 140.488C23.2099 140.221 23.846 140.083 24.4895 140.083H85.0929C86.1909 140.086 87.2507 140.488 88.076 141.215C88.9013 141.941 89.4361 142.944 89.5814 144.036L94.2216 179.786H94.9737L90.3193 143.941Z" fill="#292A2E"/>
<path d="M214.239 104.326C214.308 104.317 215.08 117.164 229.955 116.044C240.253 115.27 243.925 104.308 244.161 104.308C243.051 104.071 241.181 103.727 240.688 103.463C239.066 102.589 236.756 101.679 236.234 98.5196C235.933 96.6985 236.444 87.3827 236.286 85.5399L220.782 89.0797C221.003 92.9712 222.549 101.992 217.131 103.588C216.231 103.853 215.258 104.097 214.239 104.326Z" fill="#E98862"/>
<path d="M221.218 95.149C227.461 95.6325 235.475 92.9745 236.984 84.6167L238.345 77.0752C239.854 68.717 236.702 61.1466 228.858 59.7214C221.015 58.2958 213.929 64.006 212.421 72.3639L211.818 75.7026C211.631 76.8525 211.522 78.0139 211.493 79.1787C211.392 82.2566 211.25 86.9381 212.766 90.3765C214.201 93.6242 217.232 94.8401 221.218 95.149Z" fill="#E98862"/>
<path d="M235.218 59.2929C232.74 58.5176 230.17 58.0789 227.575 57.9885C227.324 56.995 226.764 56.2236 225.94 55.8998C224.569 55.3622 222.893 56.2282 221.779 57.8966C221.159 56.9435 220.319 56.0848 219.206 55.7361C216.136 54.7767 215.983 59.2023 215.983 59.2023C215.983 59.2023 211.115 54.382 210.962 60.5299C210.779 67.9682 212.14 70.1496 213.134 70.7004C215.097 71.7879 216.559 71.6041 217.336 73.2041C219.688 78.0493 217.382 91.6969 220.104 93.4058C224.274 96.0226 232.816 96.1139 235.59 95.9149C236.657 95.8382 237.655 94.5976 238.105 93.6236C239.556 90.4797 242.792 83.3521 243.692 80.4044C245.354 74.9656 245.229 62.5726 235.218 59.2929Z" fill="#0C0C0C"/>
<path d="M218.241 88.5314C220.649 88.2691 222.321 85.4715 222.06 83.0542C221.799 80.637 219.702 79.5184 217.294 79.7804L216.228 81.5346L216.17 88.756L218.241 88.5314Z" fill="#E98862"/>
<path d="M258.468 177.771L258.543 177.776C258.543 177.776 258.489 176.333 258.468 177.771Z" fill="#333333"/>
<path d="M192.854 132.753C193.325 138.295 195.612 172.869 196.064 179.695H258.363C258.714 173.539 260.295 146.619 261.629 134.579C262.903 123.09 265.403 117.338 263.57 113.942C260.576 108.391 252.396 105.183 246.818 104.426C243.411 103.963 242.71 103.631 241.321 103.631H217.335C215.054 103.631 200.488 105.836 197.502 108.039C189.239 114.136 191.856 121.009 192.854 132.753Z" fill="#367CFF"/>
<path d="M271.664 179.333C273.496 179.333 275.302 178.889 276.926 178.038C278.551 177.188 279.946 175.956 280.994 174.447C282.042 172.939 282.711 171.199 282.944 169.375C283.178 167.552 282.968 165.699 282.334 163.974C281.691 162.223 266.602 122.134 263.73 114.705L242.46 123.352C244.075 127.529 249.927 143.359 254.628 156.112L246.818 155.26L244.359 177.95L270.433 179.266C270.842 179.311 271.253 179.333 271.664 179.333Z" fill="#367CFF"/>
<path d="M259.525 134.811L257.995 179.69L258.409 179.704L259.939 134.826L259.525 134.811Z" fill="#0C0C0C"/>
<path d="M183.843 179.333C182.01 179.333 180.205 178.889 178.58 178.038C176.956 177.188 175.56 175.956 174.513 174.447C173.465 172.939 172.796 171.199 172.563 169.375C172.329 167.552 172.539 165.699 173.173 163.974C173.816 162.223 189.537 121.957 192.409 114.529L213.047 123.353C211.432 127.53 205.58 143.36 200.879 156.113L208.689 155.261L211.147 177.951L185.073 179.267C184.665 179.311 184.254 179.334 183.843 179.333Z" fill="#367CFF"/>
<path d="M200.83 153.452C200.794 153.452 200.759 153.444 200.727 153.428C200.695 153.412 200.667 153.388 200.646 153.359C200.625 153.33 200.611 153.297 200.605 153.261C200.6 153.226 200.602 153.189 200.613 153.155L206.135 135.712C206.144 135.683 206.158 135.656 206.177 135.632C206.196 135.608 206.22 135.589 206.246 135.574C206.273 135.56 206.303 135.551 206.333 135.548C206.363 135.545 206.394 135.549 206.423 135.558C206.452 135.567 206.479 135.582 206.502 135.602C206.525 135.622 206.544 135.646 206.557 135.673C206.571 135.701 206.579 135.73 206.581 135.761C206.583 135.791 206.579 135.822 206.569 135.851L201.047 153.292C201.032 153.338 201.004 153.379 200.965 153.408C200.926 153.437 200.878 153.452 200.83 153.452Z" fill="#0C0C0C"/>
<path d="M271.591 145.256L267.109 179.786H196.627L201.273 143.987C201.427 142.804 202.005 141.718 202.898 140.93C203.791 140.143 204.94 139.709 206.129 139.709H266.733C267.43 139.708 268.118 139.857 268.753 140.145C269.388 140.433 269.954 140.853 270.414 141.379C270.874 141.904 271.217 142.521 271.42 143.19C271.623 143.858 271.681 144.563 271.591 145.256Z" fill="white"/>
<path d="M270.694 141.133C270.331 140.719 269.907 140.365 269.435 140.083C269.193 139.937 268.94 139.812 268.677 139.709C268.058 139.462 267.399 139.335 266.733 139.334H206.129C204.85 139.338 203.615 139.807 202.654 140.654C201.693 141.501 201.071 142.669 200.903 143.941L196.251 179.786H197.003L201.643 144.036C201.787 142.944 202.321 141.941 203.146 141.214C203.971 140.487 205.031 140.085 206.129 140.083H266.733C267.377 140.083 268.013 140.222 268.599 140.488C269.185 140.755 269.708 141.144 270.133 141.629C270.557 142.114 270.874 142.684 271.062 143.302C271.25 143.919 271.304 144.57 271.222 145.21L266.733 179.786H267.485L271.959 145.304C272.056 144.559 271.993 143.801 271.775 143.082C271.557 142.362 271.188 141.698 270.694 141.133Z" fill="#292A2E"/>
<path d="M275.704 145.256L271.222 179.786H200.739L205.386 143.987C205.497 143.131 205.831 142.319 206.354 141.634C206.878 140.948 207.572 140.414 208.367 140.083C208.961 139.834 209.598 139.707 210.241 139.709H270.848C271.545 139.709 272.233 139.858 272.867 140.146C273.502 140.434 274.067 140.855 274.527 141.38C274.986 141.905 275.329 142.522 275.532 143.191C275.735 143.859 275.794 144.563 275.704 145.256Z" fill="#292A2E"/>
<path d="M274.806 141.133C274.311 140.568 273.703 140.116 273.02 139.806C272.338 139.496 271.597 139.335 270.848 139.334H210.241C209.293 139.336 208.362 139.594 207.548 140.083C206.863 140.492 206.279 141.052 205.84 141.72C205.402 142.389 205.12 143.148 205.016 143.941L200.364 179.786H201.115L205.756 144.036C205.9 142.944 206.434 141.941 207.259 141.214C208.083 140.487 209.143 140.085 210.241 140.083H270.848C271.492 140.083 272.128 140.221 272.714 140.488C273.3 140.754 273.823 141.143 274.248 141.628C274.672 142.113 274.989 142.684 275.176 143.302C275.363 143.919 275.417 144.57 275.334 145.21L270.848 179.786H271.597L276.074 145.304C276.17 144.559 276.107 143.801 275.888 143.082C275.669 142.362 275.3 141.698 274.806 141.133Z" fill="#292A2E"/>
<path d="M4.58742 180H281.608C281.665 180 281.719 179.978 281.758 179.938C281.798 179.898 281.821 179.843 281.821 179.787C281.821 179.73 281.798 179.676 281.758 179.636C281.719 179.596 281.665 179.574 281.608 179.574H4.58742C4.53111 179.574 4.47712 179.596 4.4373 179.636C4.39749 179.676 4.37512 179.73 4.37512 179.787C4.37512 179.843 4.39749 179.898 4.4373 179.938C4.47712 179.978 4.53111 180 4.58742 180Z" fill="#292A2E"/>
<g opacity="0.65">
<path d="M4.58742 180H281.608C281.665 180 281.719 179.978 281.758 179.938C281.798 179.898 281.821 179.843 281.821 179.787C281.821 179.73 281.798 179.676 281.758 179.636C281.719 179.596 281.665 179.574 281.608 179.574H4.58742C4.53111 179.574 4.47712 179.596 4.4373 179.636C4.39749 179.676 4.37512 179.73 4.37512 179.787C4.37512 179.843 4.39749 179.898 4.4373 179.938C4.47712 179.978 4.53111 180 4.58742 180Z" fill="#292A2E"/>
</g>
<path d="M172.47 168.107L173.446 142.379L186.919 141.663L188.145 168.107H172.47Z" fill="#367CFF"/>
</svg>
