<svg width="219" height="134" viewBox="0 0 219 134" fill="none" xmlns="http://www.w3.org/2000/svg">
<path d="M31.5832 55.9743L28.3667 56.7372L32.3993 73.8487L35.6157 73.0858L31.5832 55.9743Z" fill="#F0F6FF"/>
<path d="M35.1212 54.6465L32.3596 69.6656L34.1453 69.9961L36.907 54.977L35.1212 54.6465Z" fill="#C1D8ED"/>
<path d="M35.1221 54.6415L34.8079 56.2981L36.5917 56.6387L36.906 54.982L35.1221 54.6415Z" fill="#DEE8F5"/>
<path d="M29.5941 58.4633L28.6025 58.8553L34.389 73.5915L35.3807 73.1995L29.5941 58.4633Z" fill="#0CBC8B"/>
<path d="M37.0487 64.9115H28.3262V76.0958H37.0487V64.9115Z" fill="#C1D8ED"/>
<path d="M219 127.759H0C2.39975 121.62 6.83028 116.412 13.0783 114.866C22.2166 112.609 31.8876 118.816 41.0059 116.482C46.1861 115.158 50.2642 111.298 54.5499 108.093C70.7175 95.9998 92.873 92.4255 112.004 98.8264C122.004 102.171 131.116 108.019 141.36 110.505C154.606 113.721 168.459 111.054 182.081 110.615C195.349 110.187 214.357 115.61 219 127.759Z" fill="#F3F5FD"/>
<path d="M135.309 76.749C135.309 76.749 132.847 75.4395 133.397 68.7145L128.31 67.7681C128.31 67.7681 128.883 73.7979 126.309 75.712L135.309 76.749Z" fill="#E98862"/>
<g opacity="0.15">
<path d="M127.351 74.4529L131.576 71.2098L128.257 71.1754C128.161 72.3149 127.854 73.4265 127.351 74.4529Z" fill="black"/>
</g>
<path d="M136.282 66.108C135.93 68.1483 134.82 70.0805 133.026 70.7391C131.071 71.518 128.955 71.8049 126.864 71.575C121.296 71.117 122.397 58.4162 125.041 55.9483C127.684 53.4803 135.442 55.0434 136.386 59.1699C136.874 61.3041 136.617 64.1652 136.282 66.108Z" fill="#E98862"/>
<path d="M123.203 56.3867C123.369 56.1222 123.602 55.9063 123.878 55.7611C126.35 54.412 130.933 53.9453 133.133 54.6058C135.686 55.3724 138.888 57.5196 138.068 62.7263C138.033 62.9457 137.996 63.1568 137.957 63.3651C138.764 63.2268 139.592 63.3138 140.353 63.6167C141.113 63.9195 141.776 64.4264 142.268 65.0819C142.76 65.7374 143.063 66.5162 143.144 67.3329C143.224 68.1497 143.079 68.9729 142.724 69.7123C142.369 70.4518 141.818 71.079 141.132 71.5253C140.445 71.9715 139.649 72.2196 138.832 72.2423C138.014 72.265 137.206 72.0615 136.495 71.6541C135.785 71.2466 135.201 70.651 134.806 69.9323C134.427 70.2606 134.018 70.5518 133.584 70.802C133.279 70.9834 133.205 70.834 133.1 70.4964C132.73 69.3111 132.367 64.6235 132.657 61.2197L126.657 61.0115L125.612 58.0278L124.755 61.0115H122.712C122.439 59.3941 122.156 57.5611 123.203 56.3867Z" fill="#0F1011"/>
<path d="M128.318 64.5362C128.572 64.5362 128.779 64.329 128.779 64.0735C128.779 63.8179 128.572 63.6107 128.318 63.6107C128.063 63.6107 127.856 63.8179 127.856 64.0735C127.856 64.329 128.063 64.5362 128.318 64.5362Z" fill="#0F1011"/>
<path d="M124.678 64.2367C124.933 64.2367 125.14 64.0295 125.14 63.7739C125.14 63.5183 124.933 63.3111 124.678 63.3111C124.424 63.3111 124.217 63.5183 124.217 63.7739C124.217 64.0295 124.424 64.2367 124.678 64.2367Z" fill="#0F1011"/>
<path d="M123.879 62.7879C123.822 62.7883 123.766 62.7658 123.725 62.7252C123.684 62.6847 123.661 62.6295 123.661 62.5719C123.66 62.5142 123.683 62.4587 123.723 62.4176C123.764 62.3766 123.819 62.3533 123.876 62.3529L125.098 62.3376C125.155 62.3384 125.21 62.3611 125.251 62.401C125.291 62.4408 125.315 62.4948 125.318 62.5519C125.318 62.5805 125.313 62.6088 125.302 62.6354C125.292 62.6619 125.276 62.6861 125.256 62.7065C125.236 62.727 125.213 62.7433 125.187 62.7546C125.16 62.7659 125.132 62.7719 125.104 62.7723L123.882 62.7879H123.879Z" fill="#0F1011"/>
<path d="M129.313 63.2347C129.296 63.2347 129.279 63.2328 129.262 63.229L128.057 62.9377C128.029 62.9313 128.003 62.9194 127.98 62.9027C127.956 62.886 127.936 62.8648 127.921 62.8403C127.906 62.8158 127.896 62.7886 127.891 62.7602C127.887 62.7317 127.888 62.7027 127.895 62.6747C127.901 62.6467 127.914 62.6203 127.931 62.5971C127.948 62.5738 127.969 62.5542 127.994 62.5394C128.018 62.5245 128.045 62.5147 128.074 62.5105C128.102 62.5062 128.131 62.5077 128.159 62.5148L129.364 62.8058C129.415 62.8183 129.46 62.8493 129.491 62.893C129.521 62.9367 129.534 62.99 129.528 63.0428C129.522 63.0957 129.497 63.1444 129.457 63.1798C129.417 63.2151 129.366 63.2347 129.313 63.2347Z" fill="#0F1011"/>
<path d="M130.716 65.2057C130.681 65.7201 130.85 66.2274 131.185 66.6181C131.521 67.0087 131.996 67.2512 132.508 67.2932C133.02 67.3351 133.528 67.1732 133.922 66.8423C134.316 66.5114 134.565 66.0383 134.614 65.5251C134.639 65.2674 134.613 65.0073 134.536 64.7602C134.459 64.5131 134.334 64.284 134.167 64.0866C134 63.8892 133.795 63.7275 133.564 63.6111C133.334 63.4948 133.082 63.4262 132.825 63.4094C131.432 63.3666 130.805 64.1258 130.716 65.2057Z" fill="#E98862"/>
<g opacity="0.15">
<path d="M126.27 66.6401C126.254 66.6401 126.238 66.6377 126.223 66.633L125.113 66.2906C125.091 66.284 125.072 66.2728 125.055 66.2579C125.038 66.2429 125.024 66.2245 125.015 66.204C125.006 66.1834 125.001 66.161 125.001 66.1384C125.001 66.1158 125.005 66.0935 125.015 66.0728L125.745 64.4417C125.762 64.4031 125.794 64.373 125.833 64.3579C125.873 64.3429 125.917 64.3443 125.955 64.3617C125.994 64.3791 126.024 64.4111 126.039 64.4508C126.054 64.4904 126.052 64.5343 126.035 64.573L125.379 66.0387L126.317 66.328C126.353 66.3394 126.384 66.3634 126.404 66.3957C126.424 66.428 126.432 66.4665 126.427 66.5041C126.421 66.5418 126.402 66.5762 126.374 66.6011C126.345 66.626 126.308 66.6398 126.27 66.6401H126.27Z" fill="black"/>
</g>
<path d="M128.106 67.718C128.106 67.718 126.403 67.8981 125.208 67.4797C125.208 67.4797 125.218 68.6049 126.565 68.7158C127.913 68.8266 128.106 67.718 128.106 67.718Z" fill="white"/>
<path d="M115.711 126.135C115.106 126.034 108.281 124.865 108.281 124.865L109.407 118.253C109.407 118.253 116.211 119.419 116.814 119.521L115.711 126.135Z" fill="#E98862"/>
<path d="M104.388 132.477C104.359 132.655 104.367 132.837 104.412 133.012C104.456 133.187 104.536 133.351 104.646 133.493C104.757 133.635 104.895 133.754 105.053 133.84C105.211 133.926 105.385 133.979 105.564 133.995C105.812 134.017 106.061 133.967 106.283 133.852C106.504 133.736 106.687 133.56 106.812 133.344L110.668 126.076C110.742 125.935 110.785 125.78 110.793 125.621C110.802 125.462 110.777 125.303 110.718 125.155C110.163 123.973 110 122.644 110.254 121.362C110.492 120.371 111.003 119.468 111.729 118.754C111.799 118.692 111.851 118.612 111.877 118.522C111.904 118.432 111.904 118.337 111.879 118.247C111.853 118.157 111.802 118.076 111.733 118.013C111.663 117.951 111.577 117.91 111.485 117.895L107.731 117.264C107.62 117.245 107.507 117.249 107.398 117.274C107.288 117.3 107.185 117.347 107.094 117.412C107.002 117.478 106.925 117.561 106.866 117.657C106.806 117.752 106.767 117.859 106.748 117.97L104.388 132.477Z" fill="#C1D8ED"/>
<path d="M136.835 108.253C139.667 108.372 142.551 108.455 145.435 108.527L149.77 108.622L154.099 108.701L154.53 108.708C156.319 108.742 158.028 109.455 159.313 110.703C160.598 111.951 161.364 113.641 161.456 115.433C161.547 117.225 160.959 118.985 159.808 120.359C158.657 121.733 157.03 122.618 155.255 122.835L112.468 128.048L110.726 115.363L153.322 108.766L154.478 122.901L150.082 123.186L145.689 123.453C142.755 123.623 139.821 123.782 136.834 123.905L136.835 108.253Z" fill="#262626"/>
<path d="M147.628 123.357C141.721 122.495 141.132 122.335 140.938 122.284L142.676 115.808C142.657 115.803 142.631 115.796 142.6 115.789C143.084 115.895 146.086 116.355 148.59 116.72L147.628 123.357Z" fill="#E98862"/>
<path d="M155.006 129.123C155.068 129.292 155.095 129.472 155.084 129.652C155.074 129.832 155.026 130.008 154.945 130.169C154.864 130.33 154.75 130.472 154.611 130.587C154.473 130.702 154.312 130.787 154.139 130.836C153.9 130.905 153.645 130.904 153.407 130.833C153.168 130.762 152.954 130.624 152.791 130.435L147.63 124.033C147.531 123.909 147.46 123.765 147.422 123.611C147.383 123.456 147.378 123.296 147.407 123.139C147.729 121.873 147.638 120.537 147.146 119.328C146.725 118.4 146.052 117.61 145.204 117.048C145.123 117.001 145.058 116.932 145.015 116.848C144.972 116.765 144.953 116.671 144.961 116.578C144.969 116.485 145.004 116.396 145.06 116.321C145.117 116.247 145.194 116.19 145.281 116.157L148.847 114.824C148.952 114.784 149.064 114.766 149.176 114.77C149.288 114.774 149.398 114.801 149.5 114.848C149.602 114.895 149.694 114.961 149.77 115.044C149.846 115.126 149.906 115.223 149.945 115.329L155.006 129.123Z" fill="#C1D8ED"/>
<path d="M127.334 122.754C125.542 122.601 123.749 122.49 121.957 122.386C120.165 122.291 118.373 122.195 116.582 122.131L113.896 122.027L111.209 121.95C109.418 121.889 107.627 121.865 105.837 121.831L106.457 108.924C109.809 109.394 113.166 109.826 116.521 110.269C119.877 110.712 123.236 111.12 126.594 111.534L131.635 112.13L136.679 112.697C140.043 113.06 143.408 113.42 146.78 113.717L145.301 126.439C141.951 125.949 138.594 125.522 135.237 125.097L130.198 124.484L125.156 123.899C121.792 123.527 118.43 123.148 115.064 122.803C111.698 122.458 108.332 122.104 104.962 121.787C103.346 121.635 101.847 120.876 100.765 119.662C99.6824 118.449 99.0968 116.87 99.1249 115.242C99.1531 113.614 99.793 112.056 100.916 110.881C102.04 109.706 103.564 109 105.185 108.904L105.583 108.881C107.371 108.776 109.159 108.68 110.947 108.549L113.628 108.365L116.309 108.155C118.096 108.02 119.882 107.852 121.669 107.686C123.456 107.512 125.242 107.33 127.028 107.106L127.334 122.754Z" fill="#262626"/>
<path d="M143.34 106.294L144.282 122.17L117.066 121.849L119.121 107.794L143.34 106.294Z" fill="#262626"/>
<path d="M117.189 108.863C118.522 111.939 144.733 113.216 145.083 107.806C145.306 104.363 142.281 101.358 142.281 94.6472C142.281 87.9369 148.435 82.2422 143.421 77.2118C141.966 75.7522 139.454 74.81 136.392 74.8068C136.162 76.5986 125.319 76.605 125.237 74.8483C124.823 74.8547 124.501 74.8611 124.301 74.8707C113.738 75.3274 118.379 84.513 118.481 93.3729C118.605 103.74 115.813 105.695 117.189 108.863Z" fill="#367CFF"/>
<path d="M125.237 74.8483C125.319 76.605 126.271 79.1888 129.21 79.3837C133.125 79.6424 136.162 76.5986 136.392 74.8068H136.382C132.527 74.8068 127.484 74.8132 125.237 74.8483Z" fill="#E98862"/>
<path d="M151.849 105.332C151.029 105.333 150.235 105.042 149.609 104.51L138.48 95.0784L142.481 90.3272L138.54 82.0949L144.797 79.0793L154.977 100.343C155.232 100.873 155.347 101.46 155.314 102.048C155.281 102.636 155.1 103.206 154.787 103.704C154.475 104.203 154.041 104.614 153.527 104.899C153.013 105.183 152.436 105.332 151.849 105.332Z" fill="#367CFF"/>
<path d="M106.667 107.52C106.08 107.52 105.502 107.363 104.994 107.068C104.486 106.772 104.064 106.347 103.772 105.836C103.479 105.324 103.326 104.744 103.328 104.155C103.33 103.565 103.487 102.987 103.783 102.477L118.559 77.0461L124.335 80.4239L116.995 93.0532L117.609 93.4543L109.47 105.996C109.167 106.464 108.751 106.849 108.262 107.115C107.772 107.382 107.224 107.521 106.667 107.52Z" fill="#367CFF"/>
<path d="M127.755 98.8974C133.126 93.5096 139.129 96.959 139.129 96.959V80.4827C131.46 78.5443 127.755 82.5824 127.755 82.5824C127.755 82.5824 123.295 78.4364 116.156 81.4517V98.0717C116.156 98.0717 119.461 96.0615 122.758 96.9219C126.054 97.7824 127.755 98.8974 127.755 98.8974Z" fill="#9EBCEA"/>
<path d="M142.255 91.1161L139.979 94.2142C139.979 94.2142 134.525 93.5339 133.951 88.8056C133.886 88.2627 134.118 86.4914 135.28 86.9573C136.932 87.6207 138.037 88.6115 139.409 89.988C139.06 89.3614 138.635 88.477 138.909 88.3154C139.63 87.89 141.572 90.4569 142.255 91.1161Z" fill="#E98862"/>
<path d="M117.856 93.5511L114.208 90.6319C114.867 89.5108 115.781 88.0129 116.36 88.2173C116.659 88.3259 116.411 89.2745 116.188 89.958C117.271 88.3419 118.248 86.9014 119.776 86.1477C120.897 85.5919 121.39 87.1601 121.432 87.7063C121.654 90.8363 119.41 92.6696 117.856 93.5511Z" fill="#E98862"/>
<path d="M118.792 94.3017L109.283 106.26L104.056 102.076L113.565 90.1177L114.208 90.6319L117.856 93.5511L118.792 94.3017Z" fill="#367CFF"/>
<path d="M142.96 89.7582L138.48 95.078L149.609 104.51L154.088 99.1897L142.96 89.7582Z" fill="#367CFF"/>
<path d="M60.8441 127.759H64.0728V95.8944H60.8441L60.8441 127.759Z" fill="#C1D8ED"/>
<path d="M63.5014 127.759H66.7301V95.8944H63.5014L63.5014 127.759Z" fill="#DEE8F5"/>
<path d="M20.6293 127.759H23.8581L23.8581 95.8944H20.6293L20.6293 127.759Z" fill="#C1D8ED"/>
<path d="M23.2863 127.759H26.515L26.515 95.8944H23.2863L23.2863 127.759Z" fill="#DEE8F5"/>
<path d="M51.9888 127.759H55.2175L55.2175 95.8944H51.9888L51.9888 127.759Z" fill="#C1D8ED"/>
<path d="M54.6461 127.759H57.8748L57.8748 95.8944H54.6461L54.6461 127.759Z" fill="#DEE8F5"/>
<path d="M11.7737 127.759H15.0024L15.0024 95.8944H11.7737L11.7737 127.759Z" fill="#C1D8ED"/>
<path d="M14.431 127.759H17.6597L17.6597 95.8944H14.431L14.431 127.759Z" fill="#DEE8F5"/>
<path d="M55.1976 75.4973H11.7742V96.6581H55.1976V75.4973Z" fill="#C1D8ED"/>
<path d="M66.7298 75.4973H23.3064V96.6581H66.7298V75.4973Z" fill="#DEE8F5"/>
<g opacity="0.53">
<path d="M64.3941 78.5056H25.6428V93.5565H64.3941V78.5056Z" fill="#F3F5FD"/>
</g>
<path d="M45.0184 87.7577C45.9689 87.7577 46.7394 86.9846 46.7394 86.0311C46.7394 85.0775 45.9689 84.3044 45.0184 84.3044C44.0679 84.3044 43.2974 85.0775 43.2974 86.0311C43.2974 86.9846 44.0679 87.7577 45.0184 87.7577Z" fill="white"/>
<path d="M92.8001 119.323V117.946H85.1482V127.758H92.8001V126.095C93.6951 126.095 94.5534 125.738 95.1863 125.103C95.8191 124.468 96.1747 123.607 96.1747 122.709C96.1747 121.811 95.8191 120.95 95.1863 120.315C94.5534 119.68 93.6951 119.324 92.8001 119.324V119.323ZM92.8001 124.697V120.723C93.0624 120.72 93.3227 120.769 93.5659 120.867C93.8092 120.965 94.0306 121.111 94.2172 121.296C94.4038 121.481 94.552 121.701 94.6531 121.944C94.7543 122.187 94.8063 122.447 94.8063 122.71C94.8063 122.974 94.7543 123.234 94.6531 123.477C94.552 123.72 94.4038 123.94 94.2172 124.125C94.0306 124.31 93.8092 124.455 93.5659 124.554C93.3227 124.652 93.0624 124.701 92.8001 124.698V124.697Z" fill="#0CBC8B"/>
<path d="M66.7301 32.2333H83.3068V12.033L66.7301 12.033V32.2333Z" fill="#C1D8ED"/>
<path d="M67.3792 32.2333H83.9559V12.033L67.3792 12.033V32.2333Z" fill="#DEE8F5"/>
<path d="M68.7676 30.8408H82.5679V13.4258H68.7676V30.8408Z" fill="white"/>
<path d="M72.5528 24.8877H79.9329V16.2256H72.5528V24.8877Z" fill="#C1D8ED"/>
<path d="M72.946 28.041H72.9463C74.4199 28.041 75.6144 26.8426 75.6144 25.3642V25.3639C75.6144 23.8855 74.4199 22.6871 72.9463 22.6871H72.946C71.4724 22.6871 70.2779 23.8855 70.2779 25.3639V25.3642C70.2779 26.8426 71.4724 28.041 72.946 28.041Z" fill="#DEE8F5"/>
<path d="M70.2782 21.1857H76.2425V20.0043H70.2782V21.1857Z" fill="#F3F5FD"/>
<path d="M176.546 124.65H197.046V119.992H176.546V124.65Z" fill="#C1D8ED"/>
<path d="M176.193 115.346H196.694V110.689H176.193V115.346Z" fill="#C1D8ED"/>
<path d="M183.541 124.65H205.221V119.992H183.541V124.65Z" fill="#DEE8F5"/>
<g opacity="0.62">
<path d="M185.311 124.65H186.363V119.992H185.311V124.65Z" fill="#C1D8ED"/>
</g>
<g opacity="0.62">
<path d="M187.415 124.65H188.468V119.992H187.415V124.65Z" fill="#C1D8ED"/>
</g>
<path d="M202.735 123.823C203.562 123.823 204.232 123.151 204.232 122.321C204.232 121.492 203.562 120.819 202.735 120.819C201.909 120.819 201.238 121.492 201.238 122.321C201.238 123.151 201.909 123.823 202.735 123.823Z" fill="#F3F5FD"/>
<path d="M183.189 115.346H204.869V110.689H183.189V115.346Z" fill="#DEE8F5"/>
<path d="M188.344 114.297H203.472V111.738H188.344V114.297Z" fill="#F3F5FD"/>
<g opacity="0.62">
<path d="M184.959 115.346H186.95V110.689H184.959V115.346Z" fill="#C1D8ED"/>
</g>
<path d="M195.374 115.341H174.874V119.998H195.374V115.341Z" fill="#C1D8ED"/>
<path d="M203.549 115.341H181.869V119.998H203.549V115.341Z" fill="#F3F5FD"/>
<path d="M201.779 115.341H200.727V119.998H201.779V115.341Z" fill="#DEE8F5"/>
<path d="M199.674 115.341H198.622V119.998H199.674V115.341Z" fill="#DEE8F5"/>
<path d="M184.355 119.171C185.182 119.171 185.852 118.499 185.852 117.669C185.852 116.84 185.182 116.168 184.355 116.168C183.528 116.168 182.858 116.84 182.858 117.669C182.858 118.499 183.528 119.171 184.355 119.171Z" fill="#DEE8F5"/>
<path d="M187.43 118.811H197.001V116.528H187.43V118.811Z" fill="#DEE8F5"/>
<path d="M175.175 110.735H195.676V106.078H175.175V110.735Z" fill="#C1D8ED"/>
<path d="M174.822 101.432H195.323V96.7746H174.822V101.432Z" fill="#C1D8ED"/>
<path d="M182.171 110.735H203.85V106.078H182.171V110.735Z" fill="#DEE8F5"/>
<g opacity="0.62">
<path d="M183.94 110.735H184.993V106.078H183.94V110.735Z" fill="#C1D8ED"/>
</g>
<g opacity="0.62">
<path d="M186.045 110.735H187.097V106.078H186.045V110.735Z" fill="#C1D8ED"/>
</g>
<path d="M201.364 109.909C202.191 109.909 202.861 109.237 202.861 108.407C202.861 107.578 202.191 106.905 201.364 106.905C200.538 106.905 199.868 107.578 199.868 108.407C199.868 109.237 200.538 109.909 201.364 109.909Z" fill="#F3F5FD"/>
<path d="M181.818 101.432H203.498V96.7747H181.818V101.432Z" fill="#DEE8F5"/>
<path d="M186.973 100.383H202.102V97.8239H186.973V100.383Z" fill="#F3F5FD"/>
<g opacity="0.62">
<path d="M183.588 101.432H185.579V96.7747H183.588V101.432Z" fill="#C1D8ED"/>
</g>
<path d="M194.004 101.427H173.503V106.084H194.004V101.427Z" fill="#C1D8ED"/>
<path d="M202.178 101.427H180.498V106.084H202.178V101.427Z" fill="#F3F5FD"/>
<path d="M200.408 101.427H199.356V106.084H200.408V101.427Z" fill="#DEE8F5"/>
<path d="M198.304 101.427H197.251V106.084H198.304V101.427Z" fill="#DEE8F5"/>
<path d="M182.984 105.257C183.811 105.257 184.481 104.585 184.481 103.755C184.481 102.926 183.811 102.253 182.984 102.253C182.157 102.253 181.487 102.926 181.487 103.755C181.487 104.585 182.157 105.257 182.984 105.257Z" fill="#DEE8F5"/>
<path d="M186.06 104.897H195.63V102.614H186.06V104.897Z" fill="#DEE8F5"/>
</svg>
