<svg width="240" height="240" viewBox="0 0 240 240" fill="none" xmlns="http://www.w3.org/2000/svg">
<rect width="240" height="240" rx="80" fill="#4555E5" fill-opacity="0.2"/>
<g clip-path="url(#clip0_452_2730)">
<path d="M204.327 147.017C204.356 165.734 198.178 183.928 186.769 198.727H53.4002C41.9908 183.928 35.8131 165.734 35.8423 147.017C35.8423 100.283 73.5603 62.4004 120.086 62.4004C166.613 62.4004 204.327 100.284 204.327 147.017Z" fill="white"/>
<path opacity="0.1" d="M204.327 147.017C204.356 165.734 198.178 183.928 186.769 198.727H53.4002C41.9908 183.928 35.8131 165.734 35.8423 147.017C35.8423 100.283 73.5603 62.4004 120.086 62.4004C166.613 62.4004 204.327 100.284 204.327 147.017Z" fill="#367CFF"/>
<path d="M161.705 199H126.271L124.144 170.593L160.435 171.877C160.435 171.877 160.874 168.565 160.896 174.843C160.911 179.198 161.816 187.833 161.705 199Z" fill="#262626"/>
<path d="M139.155 168.961C139.123 169.638 139.086 170.318 139.042 170.994C138.478 180.417 137.18 189.78 135.162 199H99.7469C100.208 184.576 100.592 173.152 100.592 173.152L124.144 170.593L125.557 170.438L139.155 168.961Z" fill="#262626"/>
<path d="M147.697 72.7023C147.697 72.7023 148.099 81.9933 150.097 85.4077C155.854 95.2369 157.335 106.178 151.212 111.732C145.09 117.286 106.881 116.472 104.29 103.307C102.109 92.2223 107.366 91.1586 108.849 82.0917C109.52 77.9892 111.304 69.395 111.304 69.395" fill="#0A0A0A"/>
<path d="M115.004 101.86C115.069 101.851 115.801 114.052 129.913 112.989C139.682 112.253 143.166 101.842 143.389 101.842C142.336 101.618 140.562 101.29 140.094 101.04C138.556 100.209 136.653 99.3456 136.157 96.3449C135.871 94.6152 136.356 85.7675 136.207 84.0176L121.211 87.3795C121.42 91.0754 122.887 99.6426 117.747 101.16C116.892 101.41 115.971 101.64 115.004 101.86Z" fill="#E98862"/>
<path opacity="0.52" d="M121.001 97.658C121.236 96.8976 121.387 96.1137 121.452 95.3203C121.617 93.5096 121.584 91.6863 121.354 89.8828C124.402 89.4697 127.273 88.206 129.642 86.2354C129.92 87.2683 131.452 91.7817 131.028 92.7634C130.226 94.6191 126.46 97.658 121.001 97.658Z" fill="#0C0C0C"/>
<path d="M122.344 93.8017C128.241 94.5155 135.944 92.3184 137.712 84.4489L139.306 77.3485C141.074 69.4793 138.392 62.1676 131.015 60.4953C123.639 58.8237 116.692 63.9538 114.925 71.8239L114.219 74.9674C113.541 77.9863 111.822 92.5301 122.344 93.8017Z" fill="#E98862"/>
<path d="M120.934 85.1085C122.066 85.1298 123.177 85.4182 124.178 85.9502C124.219 85.9722 124.249 86.0092 124.263 86.0532C124.277 86.0973 124.273 86.1451 124.252 86.1863C124.231 86.2276 124.195 86.2591 124.152 86.2742C124.108 86.2893 124.061 86.2867 124.019 86.2671C121.86 85.1734 119.835 85.1827 118.165 86.2941C118.131 86.3176 118.096 86.3394 118.06 86.3593C118.018 86.3769 117.971 86.3778 117.929 86.3618C117.887 86.3458 117.852 86.3141 117.832 86.2733C117.813 86.2325 117.809 86.1857 117.823 86.1424C117.836 86.0991 117.866 86.0626 117.905 86.0405C117.919 86.0331 117.941 86.0182 117.971 85.998C118.848 85.412 119.88 85.1023 120.934 85.1085Z" fill="#0C0C0C"/>
<path d="M120.646 82.6996H120.631C120.328 82.6532 120.027 82.5901 119.731 82.5106C119.288 82.3886 118.707 82.18 118.764 81.7809C118.829 81.3259 120.777 76.5977 120.999 76.0601C121.008 76.0362 121.022 76.0143 121.04 75.9959C121.057 75.9774 121.078 75.9627 121.102 75.9526C121.125 75.9424 121.151 75.9372 121.176 75.937C121.202 75.9369 121.227 75.9419 121.25 75.9517C121.274 75.9615 121.295 75.976 121.313 75.9943C121.331 76.0125 121.345 76.0342 121.355 76.058C121.364 76.0818 121.369 76.1073 121.368 76.1329C121.368 76.1586 121.362 76.1838 121.351 76.2072C120.521 78.2206 119.186 81.5295 119.142 81.8358C119.197 81.9742 119.933 82.2104 120.687 82.32C120.735 82.3274 120.779 82.3533 120.809 82.3923C120.84 82.4314 120.853 82.4806 120.848 82.5297C120.843 82.5788 120.819 82.6241 120.782 82.656C120.744 82.6879 120.696 82.7041 120.647 82.7011L120.646 82.6996Z" fill="#0C0C0C"/>
<path d="M145.16 80.0477L138.548 78.5889C133.578 76.3633 132.358 67.544 132.358 67.544C132.358 67.544 126.026 73.3244 111.305 69.3951C111.305 69.3951 115.002 48.7128 136.715 55.5245C143.716 57.7211 148.541 65.053 147.577 74.5947C146.9 81.2795 145.16 80.0477 145.16 80.0477Z" fill="#0A0A0A"/>
<path d="M136.715 86.7422C138.956 87.2502 141.315 85.2524 141.821 83.0016C142.326 80.7507 140.788 79.0961 138.545 78.5884L137.051 79.8351L134.787 86.3076L136.715 86.7422Z" fill="#E98862"/>
<path d="M119.793 71.8565C119.15 71.4065 118.398 71.1385 117.616 71.0806C117.231 71.0498 116.844 71.0773 116.467 71.1622C116.094 71.2446 115.733 71.3739 115.392 71.547C115.345 71.5694 115.309 71.6092 115.291 71.6581C115.272 71.7069 115.274 71.7609 115.295 71.8086C115.316 71.8563 115.355 71.894 115.403 71.9135C115.451 71.933 115.505 71.933 115.553 71.9133L115.567 71.9074C115.881 71.7657 116.212 71.6641 116.552 71.6051C116.888 71.545 117.23 71.5364 117.569 71.5793C118.24 71.6595 118.878 71.9165 119.419 72.3242L119.436 72.3382C119.499 72.3872 119.578 72.4092 119.657 72.3994C119.736 72.3895 119.807 72.3487 119.856 72.2857C119.905 72.2228 119.927 72.143 119.917 72.0638C119.907 71.9846 119.867 71.9126 119.804 71.8636L119.793 71.8565Z" fill="#0C0C0C"/>
<path d="M125.571 73.2019C126.232 73.0634 126.919 73.1032 127.56 73.3174C127.885 73.4231 128.191 73.5774 128.47 73.7752C128.752 73.9736 129.009 74.2068 129.233 74.4695L129.244 74.4806C129.279 74.5188 129.327 74.5417 129.379 74.5445C129.431 74.5473 129.481 74.5298 129.52 74.4956C129.56 74.4615 129.584 74.4135 129.588 74.3617C129.593 74.3099 129.577 74.2584 129.544 74.2181C129.309 73.916 129.037 73.6448 128.734 73.4111C128.429 73.1733 128.09 72.983 127.729 72.8465C126.997 72.5647 126.203 72.4858 125.43 72.6181C125.39 72.6241 125.352 72.6379 125.318 72.6589C125.284 72.6799 125.254 72.7075 125.231 72.7402C125.208 72.7728 125.191 72.8099 125.182 72.8491C125.174 72.8883 125.173 72.9289 125.18 72.9684C125.187 73.008 125.202 73.0458 125.223 73.0795C125.245 73.1132 125.274 73.1421 125.307 73.1646C125.34 73.1872 125.377 73.2028 125.416 73.2106C125.456 73.2183 125.496 73.2181 125.535 73.21L125.548 73.2075L125.571 73.2019Z" fill="#0C0C0C"/>
<path d="M138.535 78.5034L138.607 78.3206C130.279 74.9844 132.63 66.7437 132.655 66.6605L132.467 66.604C132.443 66.6884 130.038 75.0995 138.535 78.5034Z" fill="#0C0C0C"/>
<path d="M116.209 75.203C116.723 75.203 117.14 74.7841 117.14 74.2675C117.14 73.7509 116.723 73.332 116.209 73.332C115.695 73.332 115.278 73.7509 115.278 74.2675C115.278 74.7841 115.695 75.203 116.209 75.203Z" fill="#0C0C0C"/>
<path d="M125.415 76.7943C125.929 76.7943 126.346 76.3754 126.346 75.8588C126.346 75.3422 125.929 74.9233 125.415 74.9233C124.9 74.9233 124.483 75.3422 124.483 75.8588C124.483 76.3754 124.9 76.7943 125.415 76.7943Z" fill="#0C0C0C"/>
<path opacity="0.1" d="M128.281 82.4873C128.383 81.7726 127.679 81.0802 126.709 80.9409C125.739 80.8016 124.87 81.268 124.769 81.9827C124.667 82.6975 125.371 83.3898 126.341 83.5291C127.311 83.6685 128.18 83.202 128.281 82.4873Z" fill="#0C0C0C"/>
<path opacity="0.1" d="M116.129 80.4236C116.026 81.1374 115.157 81.603 114.187 81.4652C114.02 81.4409 113.855 81.3993 113.696 81.341C113.67 80.4866 113.687 79.665 113.729 78.9065C114.001 78.8451 114.282 78.8351 114.557 78.877C115.527 79.0139 116.231 79.7072 116.129 80.4236Z" fill="#0C0C0C"/>
<path d="M46.9222 101.143C47.052 100.885 47.2585 100.674 47.5131 100.538C47.7677 100.403 48.0579 100.351 48.3435 100.388C48.341 100.371 48.3428 100.353 48.3486 100.337C48.3544 100.32 48.3641 100.305 48.3769 100.294C48.3897 100.282 48.4051 100.273 48.4219 100.269C48.4388 100.264 48.4564 100.264 48.4733 100.268L47.5096 99.5739C47.2213 99.3757 47.0141 99.0793 46.9264 98.7397C46.8387 98.4 46.8764 98.0399 47.0325 97.7259C47.1967 97.4209 47.4677 97.188 47.7931 97.0723C48.1186 96.9567 48.4751 96.9665 48.7938 97.0999C48.7913 97.0862 48.8006 97.0732 48.8027 97.0592L48.4066 96.774C48.1357 96.5861 47.9378 96.3099 47.8463 95.9922C47.7548 95.6745 47.7753 95.3349 47.9045 95.0306C47.9894 94.8416 48.115 94.6738 48.2723 94.5395C48.4296 94.4051 48.6146 94.3074 48.814 94.2536C49.0134 94.1997 49.2223 94.191 49.4254 94.228C49.6286 94.265 49.8211 94.3469 49.9889 94.4676L50.9026 95.1256C50.9054 95.12 50.9026 95.1138 50.9063 95.1086C50.9101 95.1033 50.9199 95.1017 50.9252 95.0961C50.7151 94.8592 50.5915 94.5576 50.5747 94.2408C50.5578 93.924 50.6487 93.6108 50.8325 93.3528C51.2651 92.6557 52.2594 92.7981 52.8505 93.2234L58.2289 96.9553L57.2676 95.3295C57.0745 95.0167 57.0067 94.642 57.0778 94.281C57.149 93.9199 57.3539 93.5994 57.6511 93.3841C57.8085 93.2783 57.9856 93.2059 58.1718 93.1712C58.358 93.1364 58.5493 93.1402 58.734 93.1821C58.9187 93.2241 59.0929 93.3034 59.2461 93.4152C59.3993 93.5271 59.5282 93.6691 59.6249 93.8326L64.8744 102.709C65.4902 103.751 65.6775 104.992 65.3966 106.17C65.1156 107.348 64.3884 108.369 63.3696 109.017C62.1881 109.769 60.8101 110.149 59.4122 110.108C58.0143 110.068 56.6603 109.609 55.5236 108.791L47.4011 102.944C47.1309 102.742 46.9366 102.454 46.8496 102.127C46.7627 101.8 46.7883 101.454 46.9222 101.143Z" fill="#E98862"/>
<g opacity="0.25">
<path d="M56.2263 98.8158C56.2066 98.8432 56.1771 98.8618 56.1439 98.8676C56.1108 98.8734 56.0767 98.8659 56.0489 98.8468L50.9385 95.2893C50.924 95.2799 50.9115 95.2677 50.9018 95.2533C50.8922 95.239 50.8854 95.2228 50.8821 95.2058C50.8787 95.1888 50.8788 95.1712 50.8824 95.1543C50.8859 95.1373 50.8928 95.1212 50.9026 95.1069C50.9125 95.0927 50.925 95.0806 50.9396 95.0713C50.9542 95.062 50.9705 95.0558 50.9876 95.053C51.0046 95.0502 51.022 95.0508 51.0388 95.0549C51.0556 95.059 51.0714 95.0664 51.0853 95.0767L56.1957 98.6324C56.2237 98.6519 56.2428 98.6818 56.2489 98.7155C56.255 98.7492 56.2475 98.7839 56.2282 98.8121L56.2263 98.8158Z" fill="#0C0C0C"/>
</g>
<g opacity="0.25">
<path d="M54.7274 101.122C54.7077 101.149 54.6781 101.168 54.645 101.174C54.6118 101.18 54.5778 101.172 54.55 101.153L48.8469 97.1839C48.8189 97.1644 48.7997 97.1345 48.7936 97.1009C48.7874 97.0672 48.7948 97.0324 48.8141 97.0042C48.8343 96.9769 48.8641 96.9584 48.8973 96.9523C48.9306 96.9463 48.965 96.9532 48.9934 96.9716L54.6968 100.94C54.7247 100.959 54.7439 100.989 54.7499 101.023C54.756 101.057 54.7486 101.091 54.7292 101.119L54.7274 101.122Z" fill="#0C0C0C"/>
</g>
<g opacity="0.25">
<path d="M53.1181 103.63C53.0986 103.657 53.069 103.676 53.0359 103.681C53.0028 103.687 52.9687 103.68 52.9411 103.661L48.3914 100.495C48.3652 100.475 48.3477 100.445 48.3425 100.412C48.3374 100.379 48.3451 100.346 48.3639 100.318C48.3827 100.291 48.4113 100.272 48.4437 100.265C48.4761 100.259 48.5098 100.265 48.5379 100.282L53.0875 103.448C53.1156 103.468 53.1348 103.498 53.1408 103.531C53.1469 103.565 53.1394 103.6 53.12 103.628L53.1181 103.63Z" fill="#0C0C0C"/>
</g>
<path d="M67.1888 99.5063L80.2537 129.813L98.2804 105.03L113.903 119.176L87.2252 153.88L87.0503 154.129C85.9825 155.598 84.5599 156.77 82.9166 157.534C81.2733 158.298 79.4634 158.629 77.6574 158.496C75.8514 158.363 74.1088 157.771 72.5938 156.775C71.0787 155.778 69.8412 154.411 68.9977 152.802L50.2108 108.992L67.1888 99.5063Z" fill="#367CFF"/>
<path d="M81.7659 132.984C81.7995 132.984 81.8324 132.975 81.8617 132.959C81.891 132.942 81.9155 132.919 81.933 132.89C81.9505 132.861 81.9604 132.828 81.9616 132.795C81.9629 132.761 81.9555 132.728 81.9402 132.698L80.4289 129.723C80.4044 129.678 80.3635 129.645 80.3148 129.63C80.2661 129.615 80.2135 129.619 80.1681 129.643C80.1227 129.666 80.0881 129.706 80.0717 129.754C80.0552 129.803 80.0582 129.856 80.08 129.902L81.5913 132.877C81.6078 132.909 81.6328 132.936 81.6636 132.955C81.6944 132.974 81.7298 132.984 81.7659 132.984Z" fill="#0C0C0C"/>
<path d="M97.4706 128.722C97.9152 133.967 100.077 166.691 100.505 173.151H160.866C161.198 167.324 161.228 141.845 162.49 130.45C163.695 119.577 166.057 114.133 164.325 110.918C161.495 105.664 157.431 100.926 149.638 100.272C146.4 100 140.424 101.161 140.424 101.161C140.424 101.161 140.013 109.493 130.236 109.956C116.925 110.587 117.809 101.182 117.747 101.159C115.004 100.152 105.453 99.6385 101.247 102.429C93.2225 107.751 96.5272 117.606 97.4706 128.722Z" fill="#367CFF"/>
<path d="M97.9202 132.126L97.5293 132.148L97.9999 140.478L98.3908 140.456L97.9202 132.126Z" fill="#0C0C0C"/>
<path d="M207.812 104.821C207.659 104.576 207.434 104.385 207.169 104.274C206.903 104.163 206.61 104.137 206.329 104.2C206.33 104.183 206.326 104.166 206.319 104.15C206.312 104.134 206.301 104.12 206.287 104.11C206.273 104.099 206.257 104.092 206.24 104.089C206.223 104.086 206.205 104.088 206.189 104.093L207.085 103.313C207.354 103.089 207.533 102.774 207.589 102.428C207.645 102.082 207.575 101.727 207.39 101.428C207.199 101.14 206.907 100.933 206.573 100.848C206.238 100.763 205.884 100.806 205.579 100.968C205.579 100.954 205.57 100.942 205.567 100.928L205.935 100.608C206.187 100.396 206.359 100.102 206.421 99.7774C206.483 99.4526 206.431 99.1163 206.275 98.8253C206.173 98.645 206.032 98.4896 205.863 98.3703C205.694 98.2511 205.501 98.171 205.298 98.1358C205.094 98.1006 204.885 98.1112 204.687 98.1669C204.488 98.2225 204.304 98.3218 204.147 98.4575L203.298 99.1972C203.295 99.1919 203.298 99.1854 203.293 99.1807C203.288 99.1761 203.279 99.1751 203.273 99.1702C203.46 98.9146 203.555 98.6028 203.543 98.2858C203.53 97.9688 203.411 97.6655 203.204 97.4256C202.71 96.7713 201.732 97.0053 201.183 97.4833L196.17 101.697L196.978 99.9899C197.142 99.6604 197.176 99.2806 197.072 98.9273C196.968 98.574 196.734 98.2735 196.418 98.0867C196.252 97.9958 196.068 97.94 195.88 97.9226C195.691 97.9052 195.501 97.9266 195.321 97.9855C195.141 98.0444 194.975 98.1395 194.832 98.265C194.69 98.3906 194.575 98.544 194.494 98.7158L190.08 108.04C189.563 109.134 189.49 110.388 189.878 111.535C190.265 112.682 191.083 113.631 192.157 114.183C193.402 114.821 194.809 115.072 196.198 114.903C197.586 114.733 198.892 114.151 199.949 113.231L207.501 106.657C207.751 106.431 207.918 106.126 207.975 105.793C208.031 105.46 207.974 105.117 207.812 104.821Z" fill="#E98862"/>
<g opacity="0.25">
<path d="M198.334 103.362C198.356 103.387 198.387 103.403 198.421 103.405C198.454 103.408 198.488 103.397 198.513 103.376L203.276 99.3625C203.289 99.3516 203.3 99.3382 203.308 99.3232C203.315 99.3081 203.32 99.2917 203.322 99.2748C203.323 99.2579 203.321 99.2409 203.316 99.2247C203.311 99.2085 203.303 99.1935 203.292 99.1805C203.281 99.1675 203.268 99.1567 203.253 99.1489C203.238 99.1411 203.222 99.1363 203.205 99.1348C203.188 99.1333 203.171 99.1351 203.155 99.1402C203.139 99.1453 203.124 99.1536 203.111 99.1645L198.348 103.178C198.322 103.2 198.306 103.231 198.303 103.265C198.3 103.299 198.31 103.333 198.332 103.359L198.334 103.362Z" fill="#0C0C0C"/>
</g>
<g opacity="0.25">
<path d="M200.038 105.52C200.06 105.545 200.091 105.561 200.125 105.563C200.158 105.566 200.192 105.555 200.217 105.533L205.532 101.055C205.558 101.033 205.574 101.001 205.577 100.967C205.58 100.933 205.57 100.899 205.548 100.872C205.525 100.847 205.494 100.832 205.461 100.829C205.427 100.826 205.393 100.836 205.367 100.857L200.052 105.335C200.026 105.357 200.01 105.389 200.007 105.423C200.004 105.457 200.014 105.491 200.036 105.517L200.038 105.52Z" fill="#0C0C0C"/>
</g>
<g opacity="0.25">
<path d="M201.87 107.87C201.893 107.895 201.924 107.91 201.957 107.913C201.991 107.916 202.024 107.905 202.05 107.883L206.29 104.309C206.316 104.287 206.332 104.256 206.335 104.222C206.338 104.187 206.328 104.154 206.306 104.127C206.284 104.101 206.252 104.085 206.218 104.082C206.184 104.079 206.151 104.089 206.124 104.111L201.884 107.684C201.858 107.706 201.842 107.738 201.839 107.772C201.836 107.806 201.847 107.84 201.869 107.866L201.87 107.87Z" fill="#0C0C0C"/>
</g>
<path d="M188.008 104.43L178.076 130.015L163.574 109.562L147.954 123.708L170.323 158.018L170.498 158.266C171.566 159.735 172.989 160.907 174.632 161.671C176.275 162.435 178.085 162.767 179.891 162.634C181.697 162.501 183.44 161.909 184.955 160.912C186.47 159.916 187.708 158.549 188.551 156.939L204.597 113.523L188.008 104.43Z" fill="#367CFF"/>
<path d="M176.565 133.186C176.531 133.186 176.498 133.177 176.469 133.161C176.44 133.144 176.415 133.121 176.398 133.092C176.38 133.063 176.37 133.03 176.369 132.997C176.368 132.963 176.375 132.93 176.39 132.9L177.901 129.925C177.926 129.88 177.967 129.845 178.016 129.829C178.065 129.814 178.118 129.818 178.164 129.842C178.21 129.865 178.245 129.906 178.261 129.955C178.277 130.004 178.273 130.058 178.25 130.104L176.739 133.079C176.723 133.111 176.698 133.138 176.667 133.157C176.636 133.176 176.601 133.186 176.565 133.186Z" fill="#0C0C0C"/>
<path d="M195.343 198.998H46.7219C46.6267 198.995 46.5363 198.955 46.4699 198.887C46.4035 198.818 46.3664 198.726 46.3664 198.63C46.3664 198.535 46.4035 198.443 46.4699 198.374C46.5363 198.305 46.6267 198.265 46.7219 198.263H195.343C195.438 198.265 195.529 198.305 195.595 198.374C195.661 198.443 195.698 198.535 195.698 198.63C195.698 198.726 195.661 198.818 195.595 198.887C195.529 198.955 195.438 198.995 195.343 198.998Z" fill="#292A2E"/>
<path d="M81.317 80.7432V43.1798C81.317 42.3367 80.9836 41.5281 80.3902 40.9318C79.7968 40.3355 78.9919 40.0003 78.1525 40H34.1656C33.3261 40 32.5209 40.335 31.9272 40.9313C31.3335 41.5277 31 42.3364 31 43.1798V71.1884C31 72.0317 31.3335 72.8405 31.9272 73.4368C32.5209 74.0331 33.3261 74.3681 34.1656 74.3681H69.9076L79.8764 81.4896C80.0128 81.5871 80.1733 81.645 80.3403 81.657C80.5073 81.6689 80.6744 81.6345 80.8232 81.5574C80.9719 81.4803 81.0967 81.3635 81.1838 81.2199C81.2709 81.0763 81.317 80.9114 81.317 80.7432Z" fill="#0CBC8B"/>
<path d="M54.8046 69.811C55.8746 69.811 56.742 68.9397 56.742 67.865C56.742 66.7902 55.8746 65.9189 54.8046 65.9189C53.7346 65.9189 52.8672 66.7902 52.8672 67.865C52.8672 68.9397 53.7346 69.811 54.8046 69.811Z" fill="white"/>
<path d="M54.7144 63.6416C54.3799 63.6416 54.0592 63.508 53.8227 63.2704C53.5862 63.0329 53.4534 62.7107 53.4534 62.3747V57.6695C53.4534 57.3852 53.5486 57.1092 53.7237 56.8859C53.8988 56.6625 54.1436 56.5049 54.4187 56.4382C54.4734 56.4245 60.1153 54.9903 60.1153 51.1768C60.1153 48.7838 58.1622 47.1109 55.3658 47.1109C52.3376 47.1109 50.7809 50.1525 50.7163 50.281C50.565 50.577 50.3039 50.8013 49.9893 50.9055C49.6747 51.0096 49.332 50.9854 49.0351 50.8379C48.7382 50.6904 48.511 50.4315 48.4026 50.1171C48.2941 49.8028 48.3131 49.4582 48.4554 49.1578C48.5481 48.9716 50.7525 44.5776 55.3658 44.5776C59.5792 44.5776 62.6373 47.3521 62.6373 51.1752C62.6373 55.7827 58.0333 57.8932 55.9757 58.6065V62.3747C55.9756 62.7107 55.8427 63.0329 55.6062 63.2705C55.3697 63.508 55.0489 63.6416 54.7144 63.6416Z" fill="white"/>
</g>
<defs>
<clipPath id="clip0_452_2730">
<rect width="177" height="159" fill="white" transform="translate(31 40)"/>
</clipPath>
</defs>
</svg>
