<svg width="240" height="240" viewBox="0 0 240 240" fill="none" xmlns="http://www.w3.org/2000/svg">
<rect width="240" height="240" rx="80" fill="#4555E5" fill-opacity="0.2"/>
<g clip-path="url(#clip0_452_2731)">
<path d="M55.2605 173.771L205.597 173.771C209.289 173.771 212.282 170.776 212.282 167.083L212.282 56.9634C212.282 53.2699 209.289 50.2757 205.597 50.2757L55.2605 50.2757C51.5686 50.2757 48.5757 53.2699 48.5757 56.9634L48.5757 167.083C48.5757 170.776 51.5686 173.771 55.2605 173.771Z" fill="white"/>
<path d="M205.597 174.046H55.2599C53.4146 174.044 51.6455 173.31 50.3406 172.004C49.0358 170.699 48.3018 168.929 48.2997 167.083V56.9634C48.3017 55.1171 49.0357 53.3471 50.3407 52.0416C51.6457 50.7361 53.415 50.0019 55.2605 50H205.598C207.443 50.002 209.212 50.7363 210.517 52.0418C211.822 53.3472 212.556 55.1172 212.558 56.9634V167.083C212.556 168.929 211.822 170.699 210.517 172.004C209.212 173.31 207.442 174.044 205.597 174.046ZM55.2605 50.5513C53.5611 50.553 51.9317 51.2291 50.73 52.4312C49.5282 53.6333 48.8522 55.2632 48.8502 56.9634V167.083C48.8522 168.783 49.5281 170.412 50.7296 171.615C51.9311 172.817 53.5602 173.493 55.2594 173.495H205.597C207.296 173.493 208.925 172.817 210.126 171.615C211.328 170.412 212.004 168.783 212.006 167.083V56.9634C212.004 55.2635 211.328 53.6338 210.127 52.4318C208.925 51.2297 207.296 50.5535 205.597 50.5513H55.2605Z" fill="#292A2E"/>
<g opacity="0.14">
<path d="M97.9878 73.1166C96.979 70.0514 95.1014 67.3456 92.5834 65.3285C90.0655 63.3115 87.0158 62.0701 83.8056 61.7556C80.5953 61.441 77.3628 62.0668 74.5015 63.5567C71.6403 65.0467 69.2736 67.3366 67.6895 70.1477C66.1054 72.9589 65.3722 76.1701 65.5792 79.3906C65.7861 82.611 66.9243 85.7019 68.8551 88.287C70.786 90.872 73.4262 92.8399 76.4546 93.9511C79.4831 95.0622 82.769 95.2687 85.9126 94.5455C85.1879 92.3466 84.9298 90.0206 85.1549 87.7163C85.38 85.4119 86.0833 83.1799 87.2198 81.163C88.3563 79.1461 89.901 77.3887 91.7552 76.0032C93.6094 74.6176 95.7321 73.6345 97.9878 73.1166Z" fill="#367CFF"/>
<path d="M101.71 72.6934C100.457 72.6941 99.2085 72.8362 97.9878 73.1168C98.7127 75.3157 98.9708 77.6417 98.7458 79.9461C98.5208 82.2505 97.8175 84.4825 96.681 86.4995C95.5444 88.5164 93.9996 90.2738 92.1454 91.6593C90.2912 93.0448 88.1683 94.0279 85.9126 94.5457C86.8723 97.4574 88.6173 100.047 90.9551 102.03C93.293 104.012 96.1328 105.309 99.1611 105.779C102.189 106.249 105.289 105.872 108.117 104.691C110.945 103.51 113.392 101.571 115.188 99.0865C116.983 96.6022 118.058 93.6699 118.294 90.613C118.529 87.5562 117.916 84.4937 116.522 81.7635C115.128 79.0332 113.007 76.7414 110.393 75.1409C107.779 73.5404 104.774 72.6934 101.71 72.6934Z" fill="#367CFF"/>
</g>
<g opacity="0.22">
<path d="M82.1911 95.2442C78.8468 95.2442 75.5775 94.2521 72.7968 92.3933C70.0161 90.5345 67.8488 87.8924 66.5689 84.8013C65.2891 81.7101 64.9542 78.3087 65.6066 75.0272C66.2591 71.7456 67.8695 68.7313 70.2343 66.3655C72.5991 63.9996 75.612 62.3884 78.8921 61.7357C82.1722 61.083 85.572 61.418 88.6618 62.6984C91.7515 63.9788 94.3923 66.1471 96.2503 68.9291C98.1083 71.7111 99.0999 74.9818 99.0999 78.3277C99.0949 82.8127 97.3118 87.1125 94.1419 90.2839C90.9719 93.4552 86.674 95.2391 82.1911 95.2442ZM82.1911 61.9623C78.9558 61.9622 75.7931 62.922 73.103 64.7202C70.4129 66.5184 68.3162 69.0743 67.0781 72.0647C65.84 75.0551 65.516 78.3456 66.1471 81.5202C66.7783 84.6948 68.3362 87.6109 70.6239 89.8997C72.9116 92.1884 75.8263 93.7471 78.9994 94.3786C82.1726 95.0101 85.4616 94.686 88.4507 93.4474C91.4397 92.2087 93.9945 90.1111 95.792 87.4198C97.5894 84.7286 98.5488 81.5645 98.5488 78.3277C98.5438 73.9889 96.8189 69.8292 93.7523 66.7612C90.6857 63.6931 86.5279 61.9673 82.1911 61.9623Z" fill="#367CFF"/>
<path d="M101.709 106.251C98.365 106.251 95.0958 105.259 92.315 103.4C89.5343 101.541 87.367 98.8993 86.0871 95.8082C84.8073 92.7171 84.4724 89.3157 85.1248 86.0341C85.7772 82.7526 87.3876 79.7383 89.7524 77.3724C92.1172 75.0065 95.1301 73.3953 98.4101 72.7426C101.69 72.0898 105.09 72.4248 108.18 73.7052C111.27 74.9856 113.91 77.1538 115.768 79.9358C117.626 82.7177 118.618 85.9884 118.618 89.3342C118.613 93.8193 116.83 98.1192 113.66 101.291C110.49 104.462 106.192 106.246 101.709 106.251ZM101.709 72.9688C98.474 72.9688 95.3113 73.9285 92.6212 75.7268C89.9311 77.525 87.8344 80.0809 86.5963 83.0713C85.3581 86.0617 85.0342 89.3522 85.6653 92.5268C86.2964 95.7014 87.8544 98.6175 90.1421 100.906C92.4298 103.195 95.3445 104.754 98.5176 105.385C101.691 106.017 104.98 105.693 107.969 104.454C110.958 103.215 113.513 101.118 115.31 98.4264C117.108 95.7351 118.067 92.571 118.067 89.3342C118.062 84.9954 116.337 80.8356 113.271 77.7676C110.204 74.6995 106.046 72.9737 101.709 72.9688Z" fill="#367CFF"/>
</g>
<path d="M218.725 190H27.4831C27.41 190 27.3399 189.971 27.2882 189.919C27.2366 189.868 27.2075 189.798 27.2075 189.724C27.2075 189.651 27.2366 189.581 27.2882 189.529C27.3399 189.478 27.41 189.449 27.4831 189.449H218.725C218.798 189.449 218.868 189.478 218.92 189.529C218.972 189.581 219.001 189.651 219.001 189.724C219.001 189.798 218.972 189.868 218.92 189.919C218.868 189.971 218.798 190 218.725 190Z" fill="#292A2E"/>
<path d="M126.388 112.963L126.113 108.093C126.125 107.747 126.005 107.409 125.777 107.148C125.549 106.887 125.231 106.722 124.887 106.687C124.708 106.675 124.53 106.7 124.361 106.759C124.192 106.818 124.038 106.912 123.906 107.033C123.775 107.154 123.67 107.301 123.597 107.464C123.524 107.627 123.485 107.804 123.483 107.983L123.263 121.581" fill="#E98862"/>
<path d="M133.186 103.267L133.839 105.639L121.421 109.228L120.769 106.856L133.186 103.267Z" fill="#0CBC8B"/>
<path opacity="0.5" d="M133.186 103.267L133.839 105.639L121.421 109.228L120.769 106.856L133.186 103.267Z" fill="white"/>
<path d="M118.805 107.403L119.458 109.775L121.421 109.228L120.769 106.856L118.805 107.403Z" fill="#262626"/>
<path d="M133.186 103.267C133.186 103.267 133.911 103.443 134.559 103.603C135.073 103.73 135.539 103.847 135.558 103.857C135.335 104.128 135.096 104.386 134.842 104.629C134.37 105.11 133.84 105.64 133.84 105.64L133.186 103.267Z" fill="#367CFF"/>
<path opacity="0.9" d="M133.186 103.267C133.186 103.267 133.911 103.443 134.559 103.603C135.073 103.73 135.539 103.847 135.558 103.857C135.335 104.128 135.096 104.386 134.842 104.629C134.37 105.11 133.84 105.64 133.84 105.64L133.186 103.267Z" fill="white"/>
<path d="M134.559 103.603C135.073 103.73 135.539 103.846 135.558 103.857C135.335 104.128 135.096 104.386 134.842 104.629L134.559 103.603Z" fill="#0CBC8B"/>
<path d="M123.262 121.58L127.507 121.758C128.825 121.814 130.13 121.474 131.254 120.782C132.379 120.09 133.271 119.079 133.817 117.877L136.279 112.427C136.412 112.146 136.444 111.828 136.37 111.526C136.296 111.224 136.12 110.957 135.872 110.771C135.644 110.607 135.37 110.52 135.089 110.523C134.809 110.526 134.537 110.618 134.313 110.787C134.302 110.768 134.286 110.753 134.268 110.742C134.25 110.733 134.23 110.728 134.21 110.728C134.19 110.729 134.17 110.734 134.153 110.744L134.609 109.74C134.758 109.427 134.783 109.07 134.68 108.74C134.576 108.409 134.351 108.131 134.049 107.96C133.775 107.818 133.459 107.776 133.157 107.843C132.855 107.911 132.586 108.082 132.398 108.328C132.393 108.315 132.385 108.303 132.376 108.293L132.563 107.879C132.697 107.599 132.729 107.28 132.655 106.979C132.581 106.677 132.405 106.41 132.156 106.223C131.88 106.024 131.538 105.94 131.201 105.988C130.864 106.036 130.558 106.213 130.349 106.482C130.34 106.478 130.332 106.476 130.323 106.474L126.187 109.492" fill="#E98862"/>
<path d="M132.582 103.645C132.506 103.956 132.324 104.23 132.067 104.421C131.364 105.036 130.744 105.741 130.225 106.518C129.431 107.624 128.785 109.412 128.602 110.009C128.506 110.324 128.289 110.587 127.999 110.742C127.708 110.896 127.369 110.929 127.054 110.833C126.74 110.737 126.476 110.52 126.322 110.229C126.167 109.939 126.135 109.599 126.231 109.284C126.263 109.18 127.019 106.731 128.21 105.071C128.77 104.291 130.145 102.73 130.668 102.372C130.872 102.233 131.113 102.157 131.36 102.156C131.607 102.154 131.848 102.227 132.054 102.363C132.259 102.5 132.42 102.695 132.514 102.924C132.608 103.152 132.631 103.403 132.582 103.645Z" fill="#E98862"/>
<path opacity="0.2" d="M130.428 106.611C130.426 106.626 130.422 106.639 130.415 106.652L128.966 109.499C128.958 109.513 128.948 109.526 128.936 109.537C128.923 109.547 128.909 109.555 128.894 109.56C128.878 109.565 128.862 109.567 128.846 109.566C128.829 109.565 128.814 109.56 128.799 109.553C128.785 109.545 128.772 109.535 128.761 109.523C128.751 109.51 128.743 109.496 128.738 109.481C128.733 109.465 128.731 109.449 128.732 109.433C128.733 109.416 128.738 109.401 128.745 109.386L130.195 106.54C130.208 106.514 130.23 106.494 130.257 106.483C130.283 106.472 130.313 106.47 130.341 106.479C130.369 106.487 130.392 106.505 130.408 106.529C130.424 106.553 130.431 106.583 130.428 106.611H130.428Z" fill="#0A0A0A"/>
<path opacity="0.2" d="M132.408 108.384C132.406 108.398 132.402 108.412 132.396 108.424L131.274 110.67C131.258 110.698 131.232 110.718 131.202 110.727C131.172 110.736 131.14 110.733 131.111 110.719C131.083 110.705 131.062 110.681 131.051 110.651C131.04 110.622 131.041 110.589 131.053 110.56L132.175 108.314C132.188 108.288 132.21 108.267 132.237 108.256C132.263 108.244 132.293 108.242 132.321 108.251C132.349 108.259 132.373 108.277 132.389 108.302C132.405 108.326 132.412 108.356 132.408 108.385L132.408 108.384Z" fill="#0A0A0A"/>
<path opacity="0.2" d="M134.333 110.866C134.331 110.881 134.326 110.896 134.319 110.909L133.765 111.956C133.748 111.984 133.722 112.005 133.692 112.013C133.661 112.022 133.628 112.019 133.6 112.004C133.571 111.989 133.55 111.963 133.54 111.933C133.53 111.903 133.532 111.869 133.546 111.841L134.101 110.793C134.114 110.768 134.136 110.748 134.163 110.737C134.19 110.726 134.219 110.725 134.247 110.733C134.275 110.742 134.298 110.76 134.314 110.784C134.329 110.808 134.336 110.837 134.333 110.866Z" fill="#0A0A0A"/>
<path d="M121.147 112.77L110.763 142.57L93.8849 120.489L78.0929 133.691L107.269 164.861C108.306 166.046 109.639 166.936 111.132 167.439C112.625 167.943 114.225 168.041 115.768 167.725C117.312 167.409 118.744 166.69 119.919 165.641C121.095 164.591 121.971 163.249 122.46 161.751L136.681 117.87L121.147 112.77Z" fill="#367CFF"/>
<path d="M28.9834 176.745C27.536 176.745 26.11 176.395 24.8268 175.725C23.5436 175.055 22.4413 174.085 21.6136 172.897C20.786 171.709 20.2575 170.338 20.0732 168.902C19.889 167.466 20.0544 166.006 20.5553 164.647C21.0637 163.269 33.0306 130.799 35.2994 124.949L52.0506 131.45C50.7751 134.74 46.154 147.208 42.4396 157.253L48.6085 156.582L50.5506 174.453L29.9555 176.693C29.6327 176.728 29.3081 176.745 28.9834 176.745Z" fill="#367CFF"/>
<path d="M39.7495 175.827L37.01 189.469H90.2182L87.1536 175.567L39.7495 175.827Z" fill="#262626"/>
<path d="M51.254 114.861C46.8084 115.192 42.2754 116.636 38.9372 119.592C33.9027 124.051 34.3507 126.838 36.864 139.185C39.0265 149.808 38.1684 154.451 39.615 174.055C39.6577 174.632 39.7489 175.827 39.7489 175.827L87.3041 175.748C87.3041 175.748 91.7596 149.739 94.2203 137.742C96.0912 128.622 101.005 117.551 80.286 115.32C80.2314 115.314 63.6141 113.944 51.254 114.861Z" fill="#367CFF"/>
<path d="M80.286 115.32C80.2309 115.313 78.7214 120.996 66.9419 120.112C58.7858 119.5 56.7985 113.947 56.6117 113.947C57.491 113.76 58.9186 113.566 59.3093 113.357C60.5933 112.668 61.5288 111.827 61.9995 110.024C62.3679 108.613 62.5555 103.184 62.5555 100.46L75.1041 103.281C74.9291 106.354 73.7049 113.477 77.9956 114.738C78.7096 114.948 79.4786 115.138 80.286 115.32Z" fill="#E98862"/>
<path d="M74.6687 109.322C69.7219 109.713 63.367 107.623 62.159 101.02L61.0698 95.0618C59.8629 88.4587 62.3508 82.4714 68.5646 81.3335C74.7789 80.1963 80.4025 84.6994 81.6097 91.3025L82.0919 93.9401C82.5573 96.4749 83.4963 108.625 74.6687 109.322Z" fill="#E98862"/>
<path d="M79.2568 103.26C78.3687 98.7956 77.9617 95.8165 78.0089 92.6757C79.2596 90.4809 78.9308 87.9618 78.6465 86.8732C79.8724 87.5422 80.3849 87.6153 81.5397 87.6153C81.5397 87.6153 79.4712 79.3102 72.4407 77.0753C71.1481 76.5719 67.8473 75.936 63.4645 76.5375C59.7367 77.0489 50.5478 79.8375 49.2351 90.187V90.1928C49.1916 90.536 48.3093 100.072 46.5505 104.647C44.1858 110.797 40.866 112.708 40.9503 119.805C41.0586 128.933 57.8318 130.148 67.9487 129.465C78.0656 128.782 83.7132 125.454 83.7865 118.876C83.8667 111.506 81.0338 112.191 79.2568 103.26Z" fill="#0A0A0A"/>
<path d="M79.2596 99.5178C77.3712 99.8635 75.4708 98.1223 75.1264 96.2329C74.782 94.3435 76.1214 93.0213 78.01 92.6768L79.2596 99.5178Z" fill="#E98862"/>
<path d="M92.02 149.741C92.0125 149.741 92.0051 149.741 91.9977 149.739C91.9822 149.736 91.9675 149.73 91.9543 149.722C91.9411 149.713 91.9298 149.702 91.9209 149.689C91.912 149.676 91.9058 149.661 91.9026 149.646C91.8993 149.63 91.8992 149.615 91.9021 149.599L93.8962 137.102C93.9033 137.072 93.9217 137.046 93.9476 137.03C93.9734 137.013 94.0048 137.007 94.035 137.012C94.0653 137.018 94.0922 137.035 94.1102 137.06C94.1282 137.085 94.1358 137.116 94.1315 137.147L92.1382 149.644C92.1331 149.671 92.1184 149.696 92.0968 149.714C92.0752 149.732 92.048 149.742 92.02 149.741Z" fill="#0C0C0C"/>
<path d="M39.7495 175.947C39.7185 175.947 39.6888 175.935 39.6664 175.913C39.6441 175.892 39.631 175.862 39.6299 175.831L38.1398 137.129C38.1391 137.114 38.1415 137.098 38.147 137.083C38.1524 137.068 38.1607 137.055 38.1713 137.043C38.182 137.032 38.1949 137.022 38.2092 137.016C38.2235 137.009 38.2389 137.005 38.2547 137.005C38.286 137.005 38.3161 137.017 38.3391 137.038C38.3621 137.06 38.3763 137.089 38.3789 137.12L39.8693 175.822C39.8705 175.854 39.8591 175.885 39.8375 175.908C39.8159 175.932 39.7859 175.945 39.7542 175.947H39.7495Z" fill="#0C0C0C"/>
<path opacity="0.21" d="M142.702 125.592C142.662 125.592 142.623 125.583 142.587 125.567C142.55 125.55 142.518 125.526 142.492 125.495L140.12 122.706C140.097 122.678 140.079 122.647 140.068 122.612C140.056 122.578 140.052 122.541 140.055 122.505C140.058 122.469 140.068 122.434 140.084 122.401C140.101 122.369 140.123 122.34 140.151 122.317C140.179 122.293 140.211 122.275 140.245 122.264C140.28 122.253 140.316 122.249 140.352 122.252C140.388 122.255 140.423 122.264 140.456 122.281C140.488 122.297 140.517 122.32 140.54 122.348L142.574 124.74L145.24 115.019C145.256 114.961 145.29 114.91 145.338 114.873C145.386 114.836 145.445 114.816 145.505 114.816H145.507L170.738 114.954C170.774 114.954 170.81 114.962 170.843 114.976C170.876 114.989 170.907 115.01 170.932 115.036C170.958 115.061 170.978 115.092 170.992 115.125C171.005 115.159 171.012 115.195 171.012 115.231C171.012 115.267 171.005 115.303 170.991 115.336C170.977 115.37 170.957 115.4 170.931 115.425C170.905 115.451 170.875 115.471 170.841 115.485C170.808 115.499 170.772 115.506 170.736 115.506H170.734L145.715 115.369L142.967 125.389C142.951 125.447 142.917 125.499 142.869 125.535C142.821 125.572 142.762 125.592 142.702 125.592L142.702 125.592Z" fill="#367CFF"/>
<g opacity="0.2">
<path d="M148.663 121.674C148.953 120.983 149.313 120.324 149.738 119.707C149.88 119.5 150.075 119.131 150.374 119.249C150.655 119.414 150.903 119.629 151.106 119.883C151.507 120.333 151.97 120.724 152.48 121.044C153.003 121.334 153.616 121.414 154.196 121.267C154.791 121.074 155.362 120.81 155.894 120.481C156.5 120.144 157.183 119.97 157.876 119.978C158.626 120.02 159.368 120.142 160.092 120.34C160.844 120.515 161.599 120.669 162.363 120.777C164.093 121.022 165.844 121.074 167.585 120.93C167.974 120.897 167.977 120.286 167.585 120.319C165.969 120.456 164.342 120.421 162.733 120.217C161.93 120.109 161.133 119.961 160.345 119.773C159.596 119.573 158.831 119.439 158.058 119.374C157.33 119.331 156.602 119.469 155.94 119.777C155.371 120.041 154.847 120.415 154.249 120.615C153.966 120.716 153.663 120.746 153.366 120.703C153.07 120.66 152.788 120.544 152.546 120.367C152.064 119.982 151.61 119.563 151.188 119.114C150.914 118.861 150.602 118.588 150.205 118.605C150.036 118.629 149.875 118.691 149.732 118.785C149.59 118.88 149.471 119.005 149.384 119.152C148.879 119.836 148.46 120.579 148.136 121.364C148.097 121.435 148.088 121.517 148.108 121.595C148.129 121.673 148.178 121.739 148.246 121.782C148.316 121.822 148.399 121.833 148.477 121.813C148.555 121.792 148.622 121.742 148.663 121.672L148.663 121.674Z" fill="#367CFF"/>
</g>
<path d="M180.678 189.284H211.404V180.463H180.678V189.284Z" fill="#367CFF"/>
<path opacity="0.69" d="M180.678 189.284H211.404V180.463H180.678V189.284Z" fill="white"/>
<path opacity="0.65" d="M184.804 189.284H188.83V180.463H184.804V189.284Z" fill="white"/>
<path opacity="0.65" d="M190.737 187.367H207.478V182.14H190.737V187.367Z" fill="white"/>
<path d="M173.352 180.471H203.656V171.65H173.352V180.471Z" fill="#367CFF"/>
<path opacity="0.6" d="M173.352 180.471H203.656V171.65H173.352V180.471Z" fill="white"/>
<path opacity="0.42" d="M177.224 178.554H193.735V173.327H177.224V178.554Z" fill="white"/>
<path opacity="0.42" d="M195.615 180.471H199.586V171.65H195.615V180.471Z" fill="white"/>
<path d="M158.555 189.284L178.517 165.915L171.814 160.184L151.852 183.553L158.555 189.284Z" fill="#367CFF"/>
<path opacity="0.78" d="M158.555 189.284L178.517 165.915L171.814 160.184L151.852 183.553L158.555 189.284Z" fill="white"/>
<path opacity="0.2" d="M161.236 186.146L163.852 183.084L157.149 177.353L154.533 180.415L161.236 186.146Z" fill="#367CFF"/>
<path opacity="0.2" d="M163.634 180.388L174.51 167.656L170.538 164.26L159.662 176.992L163.634 180.388Z" fill="#367CFF"/>
<path opacity="0.21" d="M185.832 157.963L168.274 127.538C168.264 127.522 168.253 127.508 168.24 127.496C168.215 127.466 168.184 127.442 168.148 127.425C168.113 127.408 168.074 127.4 168.035 127.4C167.996 127.4 167.958 127.408 167.922 127.425C167.887 127.442 167.855 127.466 167.83 127.496C167.817 127.508 167.806 127.522 167.796 127.538L150.238 157.963C150.214 158.005 150.202 158.053 150.202 158.101C150.202 158.149 150.214 158.197 150.238 158.239C150.263 158.281 150.297 158.316 150.339 158.34C150.381 158.364 150.429 158.377 150.477 158.377H185.593C185.642 158.377 185.689 158.364 185.731 158.34C185.773 158.316 185.808 158.281 185.832 158.239C185.856 158.197 185.869 158.149 185.869 158.101C185.869 158.053 185.856 158.005 185.832 157.963ZM167.76 157.825H157.47C157.608 156.686 157.315 155.536 156.648 154.602C155.981 153.668 154.988 153.019 153.866 152.781L167.76 128.704V157.825ZM168.311 128.704L182.181 152.74C182.153 152.734 182.123 152.733 182.094 152.736C180.927 152.932 179.88 153.57 179.171 154.517C178.462 155.465 178.145 156.65 178.287 157.825H168.311V128.704ZM153.576 153.282C154.613 153.459 155.539 154.032 156.162 154.88C156.785 155.727 157.054 156.783 156.915 157.825H150.954L153.576 153.282ZM178.842 157.825C178.702 156.782 178.972 155.725 179.596 154.877C180.22 154.029 181.149 153.457 182.186 153.28C182.233 153.272 182.277 153.251 182.313 153.221C182.349 153.19 182.377 153.151 182.393 153.106L185.117 157.825H178.842Z" fill="#367CFF"/>
<g opacity="0.2">
<path d="M200.445 67.5367H135.626C135.552 67.5367 135.482 67.5076 135.431 67.4559C135.379 67.4043 135.35 67.3341 135.35 67.261C135.35 67.1879 135.379 67.1178 135.431 67.0661C135.482 67.0144 135.552 66.9854 135.626 66.9854H200.445C200.518 66.9854 200.588 67.0144 200.639 67.0661C200.691 67.1178 200.72 67.1879 200.72 67.261C200.72 67.3341 200.691 67.4043 200.639 67.4559C200.588 67.5076 200.518 67.5367 200.445 67.5367Z" fill="#367CFF"/>
</g>
<g opacity="0.2">
<path d="M132.607 104.684C132.534 104.684 132.464 104.655 132.412 104.603C132.361 104.552 132.332 104.481 132.332 104.408V69.8313C132.332 69.7582 132.361 69.6881 132.412 69.6364C132.464 69.5847 132.534 69.5557 132.607 69.5557C132.68 69.5557 132.75 69.5847 132.802 69.6364C132.854 69.6881 132.883 69.7582 132.883 69.8313V104.408C132.883 104.481 132.854 104.552 132.802 104.603C132.75 104.655 132.68 104.684 132.607 104.684Z" fill="#367CFF"/>
</g>
<path d="M200.72 97.9582V91.6539C200.722 91.6365 200.722 91.6189 200.72 91.6015V84.3906C200.722 84.3731 200.722 84.3556 200.72 84.3382V77.3086C200.722 77.2912 200.722 77.2736 200.72 77.2562V69.8975C200.722 69.88 200.722 69.8624 200.72 69.8448V69.8313C200.72 69.7582 200.691 69.6881 200.639 69.6364C200.588 69.5847 200.518 69.5557 200.445 69.5557H135.626C135.552 69.5557 135.482 69.5847 135.431 69.6364C135.379 69.6881 135.35 69.7582 135.35 69.8313V104.408C135.35 104.415 135.354 104.421 135.354 104.427C135.355 104.489 135.38 104.549 135.424 104.593C135.426 104.595 135.427 104.6 135.43 104.602C135.456 104.628 135.486 104.649 135.52 104.662C135.553 104.676 135.589 104.684 135.625 104.684H165.473C165.513 104.709 165.558 104.723 165.605 104.723C165.652 104.723 165.698 104.709 165.737 104.684H173.345C173.384 104.709 173.43 104.723 173.477 104.723C173.523 104.723 173.569 104.709 173.609 104.684H180.41C180.45 104.709 180.495 104.723 180.542 104.723C180.589 104.723 180.635 104.709 180.674 104.684H187.398C187.437 104.709 187.483 104.723 187.53 104.723C187.576 104.723 187.622 104.709 187.662 104.684H193.938C193.978 104.709 194.024 104.723 194.071 104.723C194.118 104.723 194.163 104.709 194.203 104.684H200.445C200.518 104.684 200.588 104.655 200.64 104.603C200.691 104.551 200.72 104.481 200.72 104.408V98.0125C200.722 97.9944 200.722 97.9762 200.72 97.9582ZM188.238 104.133L200.169 92.2957V97.878L193.994 104.133H188.238ZM181.243 104.133L200.169 85.04V91.5183L187.455 104.132L181.243 104.133ZM174.178 104.133L200.169 77.9559V84.2571L180.467 104.133L174.178 104.133ZM166.314 104.133L200.169 70.5376V77.173L173.4 104.133L166.314 104.133ZM158.661 104.133L193.144 70.107H199.821L165.531 104.133L158.661 104.133ZM151.029 104.133L185.511 70.107H192.359L157.876 104.133L151.029 104.133ZM143.756 104.133L178.239 70.107H184.726L150.243 104.133L143.756 104.133ZM136.296 104.133L170.584 70.107H177.454L142.97 104.133L136.296 104.133ZM135.901 76.4069L142.12 70.107H147.877L135.901 81.9884V76.4069ZM135.901 82.7655L148.659 70.107H154.871L135.901 89.2446V82.7655ZM135.901 90.0275L155.648 70.107H161.937L135.901 96.3287V90.0275ZM135.901 97.1122L162.714 70.1081H169.801L135.901 103.747V97.1122ZM141.346 70.1081L135.901 75.6215V70.1081H141.346ZM194.769 104.133L200.169 98.6623V104.133H194.769Z" fill="#0CBC8B"/>
</g>
<defs>
<clipPath id="clip0_452_2731">
<rect width="199" height="140" fill="white" transform="translate(20 50)"/>
</clipPath>
</defs>
</svg>
