<svg width="240" height="240" viewBox="0 0 240 240" fill="none" xmlns="http://www.w3.org/2000/svg">
<rect width="240" height="240" rx="80" fill="#4555E5" fill-opacity="0.2"/>
<g clip-path="url(#clip0_452_2732)">
<path d="M175.822 148.986H132.228C130.454 148.986 129.015 150.421 129.015 152.19V175.764C129.015 177.534 130.454 178.969 132.228 178.969H175.822C177.597 178.969 179.036 177.534 179.036 175.764V152.19C179.036 150.421 177.597 148.986 175.822 148.986Z" fill="white"/>
<path opacity="0.1" d="M175.822 148.986H132.228C130.454 148.986 129.015 150.421 129.015 152.19V175.764C129.015 177.534 130.454 178.969 132.228 178.969H175.822C177.597 178.969 179.036 177.534 179.036 175.764V152.19C179.036 150.421 177.597 148.986 175.822 148.986Z" fill="#367CFF"/>
<path d="M165.257 165.062H161.397C161.162 165.062 160.972 165.252 160.972 165.486V174.018C160.972 174.252 161.162 174.442 161.397 174.442H165.257C165.492 174.442 165.683 174.252 165.683 174.018V165.486C165.683 165.252 165.492 165.062 165.257 165.062Z" fill="white"/>
<path d="M174.559 157.767H170.699C170.464 157.767 170.274 157.957 170.274 158.191V174.018C170.274 174.252 170.464 174.442 170.699 174.442H174.559C174.794 174.442 174.985 174.252 174.985 174.018V158.191C174.985 157.957 174.794 157.767 174.559 157.767Z" fill="white"/>
<path d="M137.351 165.062H133.491C133.256 165.062 133.066 165.252 133.066 165.486V174.018C133.066 174.252 133.256 174.442 133.491 174.442H137.351C137.586 174.442 137.777 174.252 137.777 174.018V165.486C137.777 165.252 137.586 165.062 137.351 165.062Z" fill="white"/>
<path d="M146.653 154.45H142.793C142.558 154.45 142.368 154.64 142.368 154.874V174.018C142.368 174.252 142.558 174.442 142.793 174.442H146.653C146.888 174.442 147.079 174.252 147.079 174.018V154.874C147.079 154.64 146.888 154.45 146.653 154.45Z" fill="white"/>
<path d="M155.955 162.96H152.095C151.86 162.96 151.67 163.15 151.67 163.384V174.018C151.67 174.252 151.86 174.442 152.095 174.442H155.955C156.19 174.442 156.381 174.252 156.381 174.018V163.384C156.381 163.15 156.19 162.96 155.955 162.96Z" fill="white"/>
<path d="M97.3643 130.648H42.0361C39.7835 130.648 37.9574 132.469 37.9574 134.715V164.634C37.9574 166.881 39.7835 168.702 42.0361 168.702H97.3643C99.6169 168.702 101.443 166.881 101.443 164.634V134.715C101.443 132.469 99.6169 130.648 97.3643 130.648Z" fill="white"/>
<path opacity="0.1" d="M97.3643 130.648H42.0361C39.7835 130.648 37.9574 132.469 37.9574 134.715V164.634C37.9574 166.881 39.7835 168.702 42.0361 168.702H97.3643C99.6169 168.702 101.443 166.881 101.443 164.634V134.715C101.443 132.469 99.6169 130.648 97.3643 130.648Z" fill="#367CFF"/>
<path d="M83.9557 151.052H79.0565C78.7583 151.052 78.5165 151.293 78.5165 151.591V162.419C78.5165 162.716 78.7583 162.957 79.0565 162.957H83.9557C84.2539 162.957 84.4957 162.716 84.4957 162.419V151.591C84.4957 151.293 84.2539 151.052 83.9557 151.052Z" fill="white"/>
<path d="M95.7616 141.794H90.8624C90.5642 141.794 90.3224 142.035 90.3224 142.332V162.419C90.3224 162.716 90.5642 162.958 90.8624 162.958H95.7616C96.0598 162.958 96.3016 162.716 96.3016 162.419V142.332C96.3016 142.035 96.0598 141.794 95.7616 141.794Z" fill="white"/>
<path d="M48.5378 151.052H43.6387C43.3405 151.052 43.0987 151.293 43.0987 151.591V162.419C43.0987 162.716 43.3405 162.957 43.6387 162.957H48.5378C48.8361 162.957 49.0778 162.716 49.0778 162.419V151.591C49.0778 151.293 48.8361 151.052 48.5378 151.052Z" fill="white"/>
<path d="M60.3437 137.584H55.4446C55.1464 137.584 54.9046 137.825 54.9046 138.122V162.419C54.9046 162.716 55.1464 162.957 55.4446 162.957H60.3437C60.642 162.957 60.8837 162.716 60.8837 162.419V138.122C60.8837 137.825 60.642 137.584 60.3437 137.584Z" fill="white"/>
<path d="M72.1498 148.384H67.2507C66.9525 148.384 66.7107 148.625 66.7107 148.922V162.419C66.7107 162.716 66.9525 162.957 67.2507 162.957H72.1498C72.4481 162.957 72.6898 162.716 72.6898 162.419V148.922C72.6898 148.625 72.4481 148.384 72.1498 148.384Z" fill="white"/>
<path d="M202.263 31H138.719C136.132 31 134.035 33.0913 134.035 35.6711V70.0333C134.035 72.6131 136.132 74.7045 138.719 74.7045H202.263C204.85 74.7045 206.947 72.6131 206.947 70.0333V35.6711C206.947 33.0913 204.85 31 202.263 31Z" fill="white"/>
<path opacity="0.1" d="M202.263 31H138.719C136.132 31 134.035 33.0913 134.035 35.6711V70.0333C134.035 72.6131 136.132 74.7045 138.719 74.7045H202.263C204.85 74.7045 206.947 72.6131 206.947 70.0333V35.6711C206.947 33.0913 204.85 31 202.263 31Z" fill="#367CFF"/>
<path d="M186.863 54.4341H181.237C180.894 54.4341 180.617 54.7109 180.617 55.0525V67.4884C180.617 67.8299 180.894 68.1068 181.237 68.1068H186.863C187.206 68.1068 187.484 67.8299 187.484 67.4884V55.0525C187.484 54.7109 187.206 54.4341 186.863 54.4341Z" fill="white"/>
<path d="M200.422 43.8008H194.796C194.453 43.8008 194.176 44.0776 194.176 44.4192V67.4887C194.176 67.8302 194.453 68.1071 194.796 68.1071H200.422C200.765 68.1071 201.043 67.8302 201.043 67.4887V44.4192C201.043 44.0776 200.765 43.8008 200.422 43.8008Z" fill="white"/>
<path d="M146.186 54.4341H140.56C140.217 54.4341 139.94 54.7109 139.94 55.0525V67.4884C139.94 67.8299 140.217 68.1068 140.56 68.1068H146.186C146.529 68.1068 146.806 67.8299 146.806 67.4884V55.0525C146.806 54.7109 146.529 54.4341 146.186 54.4341Z" fill="white"/>
<path d="M159.745 38.9658H154.119C153.776 38.9658 153.499 39.2427 153.499 39.5842V67.4886C153.499 67.8301 153.776 68.107 154.119 68.107H159.745C160.088 68.107 160.366 67.8301 160.366 67.4886V39.5842C160.366 39.2427 160.088 38.9658 159.745 38.9658Z" fill="white"/>
<path d="M173.304 51.3696H167.678C167.335 51.3696 167.058 51.6465 167.058 51.988V67.4885C167.058 67.8301 167.335 68.1069 167.678 68.1069H173.304C173.647 68.1069 173.924 67.8301 173.924 67.4885V51.988C173.924 51.6465 173.647 51.3696 173.304 51.3696Z" fill="white"/>
<path d="M64.2835 67.0728H33.2851C32.0231 67.0728 31 68.0929 31 69.3513V86.1142C31 87.3726 32.0231 88.3927 33.2851 88.3927H64.2835C65.5455 88.3927 66.5685 87.3726 66.5685 86.1142V69.3513C66.5685 68.0929 65.5455 67.0728 64.2835 67.0728Z" fill="white"/>
<path opacity="0.3" d="M64.2835 67.0728H33.2851C32.0231 67.0728 31 68.0929 31 69.3513V86.1142C31 87.3726 32.0231 88.3927 33.2851 88.3927H64.2835C65.5455 88.3927 66.5685 87.3726 66.5685 86.1142V69.3513C66.5685 68.0929 65.5455 67.0728 64.2835 67.0728Z" fill="#367CFF"/>
<path d="M56.7712 78.5044H54.0263C53.8593 78.5044 53.7239 78.6394 53.7239 78.806V84.8727C53.7239 85.0393 53.8593 85.1743 54.0263 85.1743H56.7712C56.9383 85.1743 57.0737 85.0393 57.0737 84.8727V78.806C57.0737 78.6394 56.9383 78.5044 56.7712 78.5044Z" fill="white"/>
<path d="M63.3856 73.3169H60.6407C60.4736 73.3169 60.3382 73.4519 60.3382 73.6185V84.8724C60.3382 85.0389 60.4736 85.174 60.6407 85.174H63.3856C63.5526 85.174 63.688 85.0389 63.688 84.8724V73.6185C63.688 73.4519 63.5526 73.3169 63.3856 73.3169Z" fill="white"/>
<path d="M36.9279 78.5044H34.183C34.016 78.5044 33.8806 78.6394 33.8806 78.806V84.8727C33.8806 85.0393 34.016 85.1743 34.183 85.1743H36.9279C37.095 85.1743 37.2304 85.0393 37.2304 84.8727V78.806C37.2304 78.6394 37.095 78.5044 36.9279 78.5044Z" fill="white"/>
<path d="M43.5424 70.9585H40.7975C40.6305 70.9585 40.4951 71.0935 40.4951 71.2601V84.8727C40.4951 85.0392 40.6305 85.1743 40.7975 85.1743H43.5424C43.7095 85.1743 43.8449 85.0392 43.8449 84.8727V71.2601C43.8449 71.0935 43.7095 70.9585 43.5424 70.9585Z" fill="white"/>
<path d="M50.1567 77.0093H47.4118C47.2448 77.0093 47.1094 77.1443 47.1094 77.3109V84.8725C47.1094 85.0391 47.2448 85.1741 47.4118 85.1741H50.1567C50.3238 85.1741 50.4592 85.0391 50.4592 84.8725V77.3109C50.4592 77.1443 50.3238 77.0093 50.1567 77.0093Z" fill="white"/>
<path d="M60.553 142.641L185.752 142.641C188.827 142.641 191.319 140.155 191.319 137.089V45.685C191.319 42.6192 188.827 40.1339 185.752 40.1339L60.553 40.1339C57.4785 40.1339 54.986 42.6192 54.986 45.685V137.089C54.986 140.155 57.4785 142.641 60.553 142.641Z" fill="white"/>
<path d="M54.8003 137.089V45.6849C54.802 44.1641 55.4086 42.7061 56.4871 41.6307C57.5655 40.5553 59.0277 39.9504 60.5528 39.9487H185.752C187.277 39.9504 188.739 40.5553 189.818 41.6307C190.896 42.7061 191.503 44.1641 191.505 45.6849V137.089C191.503 138.61 190.896 140.068 189.818 141.144C188.739 142.219 187.277 142.824 185.752 142.826H60.5528C59.0277 142.824 57.5655 142.219 56.4871 141.144C55.4086 140.068 54.802 138.61 54.8003 137.089ZM60.5528 40.3188C59.1261 40.3205 57.7583 40.8864 56.7494 41.8923C55.7406 42.8983 55.1731 44.2623 55.1714 45.6849V137.089C55.173 138.512 55.7405 139.876 56.7494 140.882C57.7583 141.888 59.1261 142.454 60.5528 142.456H185.752C187.179 142.454 188.547 141.888 189.555 140.882C190.564 139.876 191.132 138.512 191.133 137.089V45.6849C191.132 44.2622 190.564 42.8983 189.555 41.8923C188.547 40.8863 187.179 40.3204 185.752 40.3188H60.5528Z" fill="#292A2E"/>
<path d="M54.986 45.6845V51.2702H191.318V45.6845C191.318 44.2122 190.732 42.8002 189.688 41.7592C188.644 40.7182 187.228 40.1333 185.751 40.1333H60.553C59.0765 40.1333 57.6606 40.7182 56.6166 41.7592C55.5725 42.8002 54.986 44.2122 54.986 45.6845Z" fill="#292A2E"/>
<path d="M183.953 56.5781H130.831C129.527 56.5781 128.47 57.6322 128.47 58.9324V96.4042C128.47 97.7044 129.527 98.7584 130.831 98.7584H183.953C185.257 98.7584 186.314 97.7044 186.314 96.4042V58.9324C186.314 57.6322 185.257 56.5781 183.953 56.5781Z" fill="white"/>
<path opacity="0.15" d="M183.953 56.5781H130.831C129.527 56.5781 128.47 57.6322 128.47 58.9324V96.4042C128.47 97.7044 129.527 98.7584 130.831 98.7584H183.953C185.257 98.7584 186.314 97.7044 186.314 96.4042V58.9324C186.314 57.6322 185.257 56.5781 183.953 56.5781Z" fill="#367CFF"/>
<path d="M138.853 61.8413H134.262C134.048 61.8413 133.875 62.0137 133.875 62.2264V93.1097C133.875 93.3224 134.048 93.4948 134.262 93.4948H138.853C139.066 93.4948 139.239 93.3224 139.239 93.1097V62.2264C139.239 62.0137 139.066 61.8413 138.853 61.8413Z" fill="#FAFAFA"/>
<path opacity="0.6" d="M133.875 77.3574H139.238V93.1098C139.238 93.2119 139.198 93.3098 139.125 93.382C139.053 93.4543 138.955 93.4948 138.852 93.4948H134.262C134.159 93.4948 134.061 93.4543 133.989 93.382C133.916 93.3098 133.875 93.2119 133.875 93.1098V77.3574Z" fill="#367CFF"/>
<path d="M149.27 61.8413H144.679C144.466 61.8413 144.293 62.0137 144.293 62.2264V93.1097C144.293 93.3224 144.466 93.4948 144.679 93.4948H149.27C149.483 93.4948 149.656 93.3224 149.656 93.1097V62.2264C149.656 62.0137 149.483 61.8413 149.27 61.8413Z" fill="#FAFAFA"/>
<path opacity="0.6" d="M144.293 72.9702H149.656V93.1094C149.656 93.2116 149.615 93.3095 149.543 93.3817C149.47 93.4539 149.372 93.4945 149.269 93.4945H144.679C144.577 93.4945 144.478 93.4539 144.406 93.3817C144.333 93.3095 144.293 93.2116 144.293 93.1094V72.9702Z" fill="#367CFF"/>
<path d="M180.522 61.8413H175.931C175.718 61.8413 175.545 62.0137 175.545 62.2264V93.1097C175.545 93.3224 175.718 93.4948 175.931 93.4948H180.522C180.735 93.4948 180.908 93.3224 180.908 93.1097V62.2264C180.908 62.0137 180.735 61.8413 180.522 61.8413Z" fill="#FAFAFA"/>
<path opacity="0.6" d="M175.545 68.5439H180.908V93.1097C180.908 93.2118 180.867 93.3097 180.795 93.382C180.722 93.4542 180.624 93.4947 180.522 93.4947H175.931C175.829 93.4947 175.731 93.4542 175.658 93.382C175.586 93.3097 175.545 93.2118 175.545 93.1097V68.5439H175.545Z" fill="#367CFF"/>
<path d="M159.688 61.8413H155.096C154.883 61.8413 154.71 62.0137 154.71 62.2264V93.1097C154.71 93.3224 154.883 93.4948 155.096 93.4948H159.688C159.901 93.4948 160.074 93.3224 160.074 93.1097V62.2264C160.074 62.0137 159.901 61.8413 159.688 61.8413Z" fill="#FAFAFA"/>
<path opacity="0.6" d="M154.71 84.4531H160.073V93.1098C160.073 93.2119 160.033 93.3099 159.96 93.3821C159.888 93.4543 159.789 93.4949 159.687 93.4949H155.096C154.994 93.4949 154.896 93.4543 154.823 93.3821C154.751 93.3099 154.71 93.2119 154.71 93.1098V84.4531Z" fill="#367CFF"/>
<path d="M170.105 61.8413H165.514C165.301 61.8413 165.128 62.0137 165.128 62.2264V93.1097C165.128 93.3224 165.301 93.4948 165.514 93.4948H170.105C170.318 93.4948 170.491 93.3224 170.491 93.1097V62.2264C170.491 62.0137 170.318 61.8413 170.105 61.8413Z" fill="#FAFAFA"/>
<path opacity="0.6" d="M165.127 78.9219H170.49V93.1095C170.49 93.2116 170.449 93.3096 170.377 93.3818C170.304 93.454 170.206 93.4946 170.104 93.4946H165.514C165.463 93.4946 165.413 93.4846 165.366 93.4653C165.319 93.4459 165.277 93.4176 165.241 93.3818C165.205 93.3461 165.176 93.3036 165.157 93.2569C165.138 93.2102 165.128 93.1601 165.128 93.1095V78.9219H165.127Z" fill="#367CFF"/>
<path opacity="0.15" d="M182.934 102.887H131.211C129.344 102.887 127.831 104.396 127.831 106.257V134.185C127.831 136.047 129.344 137.555 131.211 137.555H182.934C184.801 137.555 186.314 136.047 186.314 134.185V106.257C186.314 104.396 184.801 102.887 182.934 102.887Z" fill="#367CFF"/>
<path d="M162.815 111.547C163.508 111.547 164.071 110.986 164.071 110.294C164.071 109.602 163.508 109.042 162.815 109.042C162.121 109.042 161.558 109.602 161.558 110.294C161.558 110.986 162.121 111.547 162.815 111.547Z" fill="#367CFF"/>
<path d="M162.815 117.933C163.508 117.933 164.071 117.372 164.071 116.68C164.071 115.988 163.508 115.427 162.815 115.427C162.121 115.427 161.558 115.988 161.558 116.68C161.558 117.372 162.121 117.933 162.815 117.933Z" fill="#262626"/>
<path d="M162.815 124.319C163.508 124.319 164.071 123.758 164.071 123.066C164.071 122.374 163.508 121.813 162.815 121.813C162.121 121.813 161.558 122.374 161.558 123.066C161.558 123.758 162.121 124.319 162.815 124.319Z" fill="white"/>
<path opacity="0.5" d="M162.815 130.705C163.508 130.705 164.071 130.144 164.071 129.452C164.071 128.76 163.508 128.199 162.815 128.199C162.121 128.199 161.558 128.76 161.558 129.452C161.558 130.144 162.121 130.705 162.815 130.705Z" fill="#367CFF"/>
<path d="M180.249 110.294C180.249 110.482 180.174 110.662 180.041 110.795C179.907 110.928 179.726 111.002 179.538 111.002H167.462C167.294 111.005 167.131 110.951 166.998 110.848C166.866 110.745 166.773 110.599 166.735 110.436C166.714 110.333 166.716 110.227 166.741 110.124C166.767 110.022 166.814 109.927 166.881 109.846C166.948 109.764 167.032 109.698 167.127 109.653C167.223 109.608 167.327 109.585 167.432 109.585H179.538C179.631 109.585 179.724 109.603 179.81 109.639C179.896 109.674 179.975 109.727 180.041 109.792C180.107 109.858 180.159 109.936 180.195 110.022C180.23 110.108 180.249 110.201 180.249 110.294Z" fill="white"/>
<path d="M180.249 116.68C180.249 116.868 180.174 117.048 180.041 117.181C179.907 117.314 179.726 117.388 179.538 117.388H167.47C167.371 117.39 167.273 117.372 167.182 117.335C167.091 117.298 167.008 117.243 166.938 117.174C166.868 117.104 166.813 117.021 166.776 116.93C166.739 116.839 166.72 116.742 166.722 116.643C166.731 116.462 166.81 116.291 166.942 116.166C167.075 116.041 167.25 115.971 167.432 115.971H179.538C179.631 115.971 179.724 115.989 179.81 116.025C179.896 116.061 179.975 116.113 180.041 116.179C180.107 116.244 180.159 116.323 180.195 116.409C180.23 116.494 180.249 116.587 180.249 116.68Z" fill="white"/>
<path d="M180.249 123.066C180.249 123.254 180.174 123.434 180.041 123.567C179.907 123.7 179.726 123.775 179.538 123.775H167.359C167.19 123.775 167.027 123.708 166.908 123.588C166.788 123.469 166.721 123.307 166.721 123.138V122.994C166.721 122.825 166.788 122.663 166.908 122.544C167.027 122.424 167.19 122.357 167.359 122.357H179.538C179.631 122.357 179.724 122.376 179.81 122.411C179.896 122.447 179.975 122.499 180.041 122.565C180.107 122.631 180.159 122.709 180.195 122.795C180.23 122.881 180.249 122.973 180.249 123.066Z" fill="white"/>
<path d="M180.249 129.452C180.249 129.64 180.174 129.821 180.041 129.953C179.907 130.086 179.726 130.161 179.538 130.161H167.465C167.297 130.164 167.133 130.11 167 130.007C166.867 129.904 166.773 129.759 166.735 129.595C166.714 129.492 166.716 129.386 166.741 129.284C166.766 129.182 166.814 129.086 166.881 129.005C166.948 128.923 167.032 128.858 167.127 128.813C167.222 128.768 167.326 128.744 167.432 128.744H179.538C179.631 128.744 179.723 128.762 179.81 128.798C179.896 128.833 179.974 128.886 180.04 128.951C180.106 129.017 180.159 129.095 180.194 129.181C180.23 129.267 180.249 129.359 180.249 129.452Z" fill="white"/>
<path d="M139.243 119.873C139.243 121.4 139.718 122.89 140.603 124.136C141.488 125.383 142.738 126.325 144.182 126.833L142.151 131.772C139.358 130.723 137.023 128.729 135.552 126.139C134.082 123.549 133.569 120.527 134.104 117.598C134.638 114.67 136.186 112.022 138.478 110.115C140.77 108.208 143.66 107.163 146.645 107.162V112.494C144.682 112.494 142.799 113.271 141.411 114.655C140.023 116.039 139.243 117.916 139.243 119.873Z" fill="#367CFF"/>
<path d="M159.393 119.873H154.046C154.046 117.915 153.266 116.038 151.878 114.654C150.49 113.27 148.608 112.492 146.645 112.492V107.161C150.026 107.161 153.268 108.5 155.659 110.884C158.05 113.268 159.393 116.501 159.393 119.873Z" fill="#262626"/>
<path d="M159.393 119.873C159.393 122.753 158.412 125.548 156.611 127.8C154.81 130.052 152.295 131.628 149.479 132.269L148.574 126.999C150.144 126.576 151.531 125.648 152.521 124.36C153.51 123.072 154.046 121.495 154.046 119.873H159.393Z" fill="white"/>
<path opacity="0.5" d="M149.479 132.269C147.04 132.82 144.493 132.647 142.151 131.771L144.182 126.833C145.596 127.328 147.126 127.386 148.573 127L149.479 132.269Z" fill="#367CFF"/>
<path opacity="0.15" d="M120.41 56.5781H63.3246C61.4799 56.5781 59.9844 58.0693 59.9844 59.9088V134.225C59.9844 136.064 61.4799 137.555 63.3246 137.555H120.41C122.255 137.555 123.75 136.064 123.75 134.225V59.9088C123.75 58.0693 122.255 56.5781 120.41 56.5781Z" fill="#367CFF"/>
<path d="M109.12 88.1818C109.12 91.8768 108.021 95.4889 105.962 98.5612C103.904 101.634 100.978 104.028 97.554 105.442C94.1305 106.856 90.3634 107.226 86.729 106.505C83.0946 105.785 79.7563 104.005 77.136 101.392C74.5158 98.7797 72.7313 95.4508 72.0084 91.8268C71.2855 88.2027 71.6565 84.4463 73.0745 81.0325C74.4926 77.6187 76.894 74.7009 79.9751 72.6481C83.0561 70.5952 86.6785 69.4995 90.3841 69.4995V88.1818H109.12Z" fill="#FAFAFA"/>
<path opacity="0.6" d="M111.417 85.755H92.6821V67.0728C97.6509 67.073 102.416 69.0413 105.93 72.5449C109.443 76.0485 111.417 80.8003 111.417 85.755Z" fill="#367CFF"/>
<path opacity="0.6" d="M70.9564 117.462C71.6502 117.462 72.2127 116.902 72.2127 116.21C72.2127 115.518 71.6502 114.957 70.9564 114.957C70.2626 114.957 69.7001 115.518 69.7001 116.21C69.7001 116.902 70.2626 117.462 70.9564 117.462Z" fill="#367CFF"/>
<path d="M70.9564 123.849C71.6502 123.849 72.2127 123.288 72.2127 122.596C72.2127 121.904 71.6502 121.343 70.9564 121.343C70.2626 121.343 69.7001 121.904 69.7001 122.596C69.7001 123.288 70.2626 123.849 70.9564 123.849Z" fill="#FAFAFA"/>
<path opacity="0.6" d="M113.998 116.21C113.998 116.398 113.924 116.579 113.79 116.711C113.657 116.844 113.476 116.919 113.288 116.919H75.6043C75.4362 116.922 75.2722 116.868 75.1397 116.764C75.0073 116.661 74.9143 116.516 74.8765 116.353C74.8554 116.25 74.8576 116.143 74.8829 116.041C74.9082 115.939 74.956 115.844 75.0228 115.762C75.0895 115.681 75.1736 115.615 75.269 115.57C75.3643 115.525 75.4685 115.501 75.574 115.501H113.288C113.381 115.501 113.473 115.52 113.56 115.555C113.646 115.591 113.724 115.643 113.79 115.709C113.856 115.775 113.909 115.853 113.944 115.939C113.98 116.025 113.998 116.117 113.998 116.21Z" fill="#367CFF"/>
<path d="M113.998 122.595C113.998 122.783 113.924 122.964 113.79 123.097C113.657 123.229 113.476 123.304 113.288 123.304H75.6115C75.5129 123.306 75.4151 123.287 75.3237 123.25C75.2323 123.214 75.1493 123.159 75.0795 123.089C75.0098 123.02 74.9547 122.937 74.9176 122.846C74.8804 122.755 74.862 122.657 74.8633 122.559C74.8728 122.378 74.9519 122.207 75.0841 122.082C75.2164 121.956 75.3917 121.887 75.574 121.887H113.288C113.381 121.887 113.473 121.905 113.56 121.941C113.646 121.976 113.724 122.028 113.79 122.094C113.856 122.16 113.909 122.238 113.944 122.324C113.98 122.41 113.998 122.502 113.998 122.595Z" fill="white"/>
<path d="M54.54 189.589C54.5199 189.589 54.5001 189.585 54.4816 189.577C54.4631 189.57 54.4463 189.559 54.4322 189.544C54.2171 189.33 53.8669 185.398 52.9233 173.691C52.5372 168.901 52.1723 164.376 51.9062 161.627C51.8877 161.43 51.8109 161.408 51.7858 161.4C51.4215 161.291 50.3135 162.162 49.695 162.925C49.6824 162.94 49.6669 162.953 49.6493 162.963C49.6317 162.972 49.6124 162.978 49.5924 162.98C49.5725 162.982 49.5524 162.981 49.5331 162.975C49.5139 162.969 49.496 162.96 49.4804 162.947C49.4648 162.935 49.4519 162.919 49.4423 162.902C49.4327 162.884 49.4267 162.865 49.4246 162.845C49.4225 162.825 49.4243 162.805 49.43 162.786C49.4357 162.767 49.4451 162.749 49.4577 162.733C49.8659 162.229 51.2 160.907 51.8736 161.109C51.9749 161.143 52.0623 161.21 52.1229 161.298C52.1835 161.386 52.214 161.491 52.21 161.598C52.4763 164.35 52.8409 168.876 53.2275 173.667C53.8009 180.781 54.4503 188.84 54.6639 189.348C54.6802 189.371 54.6898 189.398 54.6918 189.425C54.6938 189.453 54.6881 189.481 54.6753 189.506C54.6625 189.531 54.6431 189.552 54.6193 189.566C54.5954 189.581 54.568 189.588 54.54 189.589V189.589Z" fill="#494949"/>
<path d="M51.5147 166.673C54.046 164.649 54.8849 161.5 53.3886 159.639C51.8923 157.777 48.6273 157.909 46.096 159.932C43.5648 161.955 42.7258 165.104 44.2222 166.966C45.7185 168.827 48.9835 168.696 51.5147 166.673Z" fill="#0CBC8B"/>
<path opacity="0.2" d="M51.5147 166.673C54.046 164.649 54.8849 161.5 53.3886 159.639C51.8923 157.777 48.6273 157.909 46.096 159.932C43.5648 161.955 42.7258 165.104 44.2222 166.966C45.7185 168.827 48.9835 168.696 51.5147 166.673Z" fill="white"/>
<path d="M44.9314 167.439C44.9169 167.439 44.9027 167.435 44.8905 167.427C44.8783 167.419 44.8686 167.408 44.8625 167.395C44.8563 167.382 44.854 167.368 44.8558 167.353C44.8576 167.339 44.8635 167.326 44.8727 167.314L52.0866 158.64C52.0995 158.624 52.1181 158.615 52.1383 158.613C52.1584 158.611 52.1785 158.617 52.1941 158.63C52.2096 158.643 52.2194 158.661 52.2213 158.681C52.2232 158.701 52.217 158.721 52.2041 158.737L44.9902 167.412C44.983 167.42 44.974 167.427 44.9639 167.432C44.9537 167.437 44.9426 167.439 44.9314 167.439Z" fill="white"/>
<path d="M56.1134 187.729C56.0891 187.729 56.0651 187.723 56.0435 187.712C56.0219 187.701 56.0033 187.685 55.9892 187.665C55.9751 187.645 55.966 187.623 55.9625 187.599C55.9591 187.575 55.9614 187.55 55.9694 187.527L58.6787 179.757C58.7583 179.528 58.8942 179.323 59.0739 179.161C59.2536 178.999 59.4713 178.884 59.707 178.827C59.9428 178.77 60.189 178.773 60.4232 178.836C60.6574 178.899 60.872 179.019 61.0474 179.186L62.48 180.551C62.5084 180.579 62.5246 180.617 62.5251 180.657C62.5256 180.697 62.5104 180.735 62.4828 180.764C62.4552 180.793 62.4173 180.81 62.3774 180.811C62.3374 180.812 62.2986 180.798 62.2692 180.771L60.8366 179.406C60.6982 179.275 60.5287 179.179 60.3439 179.13C60.159 179.08 59.9646 179.078 59.7784 179.122C59.5923 179.167 59.4205 179.258 59.2786 179.386C59.1368 179.514 59.0295 179.676 58.9666 179.856L56.2574 187.628C56.2468 187.658 56.2273 187.683 56.2015 187.702C56.1757 187.72 56.1449 187.729 56.1134 187.729Z" fill="#494949"/>
<path d="M66.4822 184.853C68.3581 183.372 68.2466 180.116 66.2332 177.579C64.2198 175.043 61.0669 174.187 59.191 175.668C57.3151 177.148 57.4266 180.405 59.44 182.941C61.4534 185.478 64.6063 186.334 66.4822 184.853Z" fill="#0CBC8B"/>
<path d="M53.3089 189.093C53.2746 189.093 53.2413 189.082 53.2144 189.061C53.1875 189.04 53.1685 189.01 53.1605 188.977L48.6141 170.017C48.5831 169.888 48.5169 169.77 48.4229 169.676C48.3289 169.581 48.2106 169.515 48.0811 169.483C47.9516 169.452 47.8159 169.457 47.6889 169.497C47.5619 169.537 47.4486 169.612 47.3614 169.712L45.9596 171.328C45.9467 171.343 45.9307 171.356 45.9127 171.366C45.8947 171.375 45.8749 171.381 45.8546 171.383C45.8343 171.385 45.8139 171.382 45.7945 171.376C45.7751 171.37 45.7571 171.36 45.7417 171.346C45.7263 171.333 45.7137 171.317 45.7047 171.299C45.6957 171.28 45.6904 171.261 45.6892 171.24C45.688 171.22 45.6909 171.2 45.6978 171.181C45.7046 171.161 45.7152 171.144 45.7289 171.129L47.1307 169.513C47.2547 169.371 47.4157 169.265 47.5962 169.207C47.7766 169.15 47.9694 169.143 48.1534 169.188C48.3374 169.233 48.5054 169.327 48.6391 169.461C48.7727 169.595 48.8667 169.763 48.9108 169.947L53.4572 188.906C53.4619 188.925 53.4626 188.946 53.4595 188.965C53.4564 188.985 53.4493 189.004 53.4389 189.021C53.4284 189.038 53.4146 189.053 53.3984 189.064C53.3822 189.076 53.3638 189.085 53.3444 189.089C53.3328 189.092 53.3209 189.093 53.3089 189.093Z" fill="#494949"/>
<path d="M51.631 175.54C52.1838 172.353 50.7209 169.439 48.3635 169.033C46.006 168.626 43.6468 170.881 43.094 174.068C42.5413 177.256 44.0042 180.169 46.3616 180.576C48.7191 180.982 51.0783 178.728 51.631 175.54Z" fill="#0CBC8B"/>
<path d="M54.5402 189.589C54.534 189.589 54.5278 189.589 54.5216 189.588C54.4815 189.583 54.4449 189.562 54.42 189.531C54.3951 189.499 54.3839 189.459 54.3887 189.419L57.2925 165.909C57.3241 165.653 57.4292 165.412 57.5952 165.214C57.7612 165.016 57.981 164.87 58.2282 164.793C58.4754 164.717 58.7394 164.713 58.9886 164.783C59.2377 164.853 59.4614 164.993 59.6327 165.186L62.9517 168.935C62.965 168.95 62.9751 168.967 62.9817 168.986C62.9882 169.005 62.9909 169.025 62.9897 169.045C62.9884 169.065 62.9833 169.084 62.9745 169.102C62.9657 169.12 62.9534 169.136 62.9384 169.149C62.9234 169.163 62.9059 169.173 62.887 169.179C62.868 169.186 62.848 169.188 62.828 169.187C62.808 169.186 62.7884 169.181 62.7704 169.172C62.7524 169.163 62.7363 169.151 62.7231 169.136L59.404 165.388C59.2717 165.238 59.0988 165.13 58.9063 165.076C58.7138 165.022 58.5097 165.025 58.3187 165.084C58.1276 165.143 57.9577 165.256 57.8294 165.409C57.7011 165.562 57.6198 165.748 57.5953 165.946L54.6914 189.456C54.6869 189.492 54.669 189.526 54.6412 189.551C54.6133 189.576 54.5774 189.589 54.5402 189.589Z" fill="#494949"/>
<path d="M66.3554 171.017C67.5134 168.93 66.1509 165.968 63.3122 164.402C60.4734 162.837 57.2335 163.26 56.0754 165.347C54.9174 167.435 56.2799 170.396 59.1187 171.962C61.9574 173.528 65.1974 173.105 66.3554 171.017Z" fill="#0CBC8B"/>
<path opacity="0.2" d="M66.4822 184.853C68.3581 183.372 68.2466 180.116 66.2332 177.579C64.2198 175.043 61.0669 174.187 59.191 175.668C57.3151 177.148 57.4266 180.405 59.44 182.941C61.4534 185.478 64.6063 186.334 66.4822 184.853Z" fill="white"/>
<path opacity="0.5" d="M51.631 175.54C52.1838 172.353 50.7209 169.439 48.3635 169.033C46.006 168.626 43.6468 170.881 43.094 174.068C42.5413 177.256 44.0042 180.169 46.3616 180.576C48.7191 180.982 51.0783 178.728 51.631 175.54Z" fill="white"/>
<path opacity="0.5" d="M66.3554 171.017C67.5134 168.93 66.1509 165.968 63.3122 164.402C60.4734 162.837 57.2335 163.26 56.0754 165.347C54.9174 167.435 56.2799 170.396 59.1187 171.962C61.9574 173.528 65.1974 173.105 66.3554 171.017Z" fill="white"/>
<path d="M58.254 209.537H50.8258L49.595 185.838H59.4849L58.254 209.537Z" fill="#292A2E"/>
<path opacity="0.3" d="M58.254 209.537H50.8258L49.595 185.838H59.4849L58.254 209.537Z" fill="white"/>
<path d="M66.483 184.929C66.4715 184.929 66.4601 184.926 66.4497 184.921C66.4393 184.916 66.4302 184.909 66.4231 184.9L59.1318 175.715C59.1256 175.707 59.121 175.698 59.1182 175.688C59.1155 175.679 59.1147 175.669 59.1158 175.659C59.1169 175.649 59.12 175.639 59.1249 175.63C59.1298 175.622 59.1363 175.614 59.1442 175.608C59.152 175.602 59.161 175.597 59.1706 175.594C59.1803 175.591 59.1903 175.591 59.2003 175.592C59.2103 175.593 59.2199 175.596 59.2286 175.601C59.2374 175.606 59.2451 175.612 59.2513 175.62L66.5428 184.805C66.5553 184.821 66.561 184.841 66.5586 184.861C66.5563 184.881 66.546 184.9 66.5302 184.912C66.5168 184.923 66.5001 184.929 66.483 184.929Z" fill="white"/>
<path d="M65.8706 171.754C65.8545 171.753 65.8387 171.748 65.8257 171.739L56.4954 164.945C56.487 164.94 56.4799 164.932 56.4744 164.924C56.4689 164.915 56.4652 164.906 56.4634 164.896C56.4617 164.886 56.462 164.875 56.4644 164.865C56.4667 164.855 56.471 164.846 56.477 164.838C56.483 164.83 56.4906 164.823 56.4993 164.818C56.5081 164.812 56.5178 164.809 56.5279 164.807C56.5379 164.806 56.5482 164.807 56.5581 164.809C56.5679 164.812 56.5772 164.816 56.5852 164.823L65.9157 171.616C65.9287 171.625 65.9384 171.639 65.9433 171.654C65.9483 171.669 65.9482 171.686 65.9432 171.701C65.9382 171.716 65.9285 171.73 65.9154 171.739C65.9024 171.748 65.8867 171.754 65.8706 171.754Z" fill="white"/>
<path d="M45.9833 180.477C45.9766 180.477 45.97 180.476 45.9635 180.474C45.9441 180.469 45.9275 180.456 45.9174 180.439C45.9073 180.421 45.9044 180.401 45.9095 180.381L48.8797 169.285C48.885 169.265 48.8978 169.249 48.9151 169.239C48.9324 169.229 48.953 169.226 48.9724 169.231C48.9919 169.236 49.0085 169.249 49.0186 169.266C49.0287 169.283 49.0315 169.304 49.0264 169.323L46.0568 180.42C46.0525 180.436 46.043 180.451 46.0297 180.461C46.0164 180.471 46.0001 180.476 45.9833 180.477Z" fill="white"/>
<path d="M197.54 209.536H45.2977C45.2632 209.536 45.2302 209.523 45.2058 209.498C45.1815 209.474 45.1678 209.441 45.1678 209.407C45.1678 209.373 45.1815 209.34 45.2058 209.315C45.2302 209.291 45.2632 209.277 45.2977 209.277H197.54C197.574 209.277 197.607 209.291 197.631 209.315C197.656 209.34 197.669 209.373 197.669 209.407C197.669 209.441 197.656 209.474 197.631 209.498C197.607 209.523 197.574 209.536 197.54 209.536Z" fill="#292A2E"/>
<path d="M84.0301 201.233C84.0301 201.233 84.868 205.564 88.9337 205.806C92.9995 206.048 92.1182 209.278 92.1182 209.278H76.5797V201.536L84.0301 201.233Z" fill="#367CFF"/>
<path d="M75.5258 122.235C75.5258 122.235 76.6878 120.933 76.6776 123.886C76.6392 134.901 75.8938 203.997 75.8938 203.997L86.1047 203.912L92.2902 121.787L75.5258 122.235Z" fill="#262626"/>
<path d="M101.466 201.233C101.466 201.233 102.304 205.564 106.37 205.806C110.437 206.047 109.555 209.277 109.555 209.277H94.0156V201.536L101.466 201.233Z" fill="#367CFF"/>
<path d="M103.441 123.09C103.441 123.09 104.717 160.737 104.584 162.577L103.385 203.712L93.3424 203.897L91.7232 161.089C91.7232 161.089 90.6617 149.281 87.8005 138.316C86.3366 132.688 85.4556 126.926 85.1714 121.119L103.441 123.09Z" fill="#262626"/>
<path d="M90.1932 149.782L91.0304 137.013C91.0304 137.013 91.8905 142.321 91.8905 146.897C91.8905 149.133 91.4287 157.988 91.4287 157.988L90.1932 149.782Z" fill="#0A0A0A"/>
<path d="M75.4149 122.234L75.3815 122.236C75.3815 122.236 75.406 121.594 75.4149 122.234Z" fill="#333333"/>
<path d="M75.4568 122.234L75.4234 122.236C75.4234 122.236 75.4475 121.594 75.4568 122.234Z" fill="#333333"/>
<path d="M131.41 91.6766C131.348 91.5552 131.25 91.4557 131.13 91.3921C131.009 91.3284 130.872 91.3036 130.737 91.3212C130.738 91.3092 130.735 91.2972 130.729 91.2868C130.723 91.2787 130.714 91.2724 130.705 91.2685C130.695 91.2647 130.685 91.2634 130.675 91.2647L131.132 90.9383C131.268 90.8451 131.367 90.7056 131.408 90.5458C131.45 90.3859 131.432 90.2164 131.358 90.0687C131.28 89.9251 131.151 89.8154 130.997 89.761C130.843 89.7066 130.674 89.7113 130.523 89.7743C130.524 89.7678 130.519 89.7617 130.519 89.7558L130.706 89.6218C130.834 89.5334 130.928 89.4034 130.972 89.254C131.015 89.1046 131.005 88.9448 130.944 88.8017C130.904 88.7128 130.844 88.6339 130.77 88.5708C130.695 88.5076 130.608 88.4617 130.513 88.4363C130.419 88.411 130.32 88.4069 130.223 88.4243C130.127 88.4417 130.036 88.4801 129.956 88.5369L129.524 88.8465C129.522 88.8439 129.524 88.8409 129.522 88.8385C129.52 88.8361 129.515 88.8352 129.513 88.8326C129.612 88.7211 129.671 88.5791 129.679 88.4301C129.687 88.2811 129.643 88.1339 129.556 88.0125C129.352 87.6846 128.88 87.7518 128.6 87.9518L126.052 89.7069L126.508 88.9423C126.599 88.7951 126.631 88.6188 126.598 88.4489C126.564 88.2789 126.467 88.128 126.326 88.0266C126.252 87.9768 126.168 87.9427 126.079 87.9264C125.991 87.9101 125.901 87.9119 125.813 87.9316C125.726 87.9514 125.643 87.9887 125.57 88.0413C125.498 88.094 125.437 88.1608 125.391 88.2377L122.904 92.4125C122.613 92.9023 122.524 93.4862 122.657 94.0402C122.79 94.5942 123.134 95.0747 123.617 95.3794C124.177 95.7329 124.83 95.9116 125.492 95.8927C126.154 95.8737 126.796 95.658 127.335 95.273L131.183 92.5225C131.311 92.4276 131.403 92.2925 131.444 92.139C131.485 91.9854 131.473 91.8225 131.41 91.6766Z" fill="#E98862"/>
<g opacity="0.25">
<path d="M127.002 90.5807C127.011 90.5936 127.025 90.6023 127.041 90.6049C127.057 90.6076 127.073 90.604 127.086 90.5949L129.507 88.9227C129.514 88.9182 129.519 88.9124 129.524 88.9057C129.528 88.899 129.531 88.8915 129.532 88.8836C129.534 88.8758 129.534 88.8677 129.532 88.8599C129.53 88.8521 129.527 88.8447 129.522 88.8382C129.518 88.8316 129.512 88.826 129.505 88.8217C129.499 88.8174 129.491 88.8144 129.483 88.813C129.475 88.8116 129.467 88.8117 129.459 88.8134C129.452 88.8151 129.444 88.8183 129.438 88.8228L127.016 90.495C127.003 90.5042 126.994 90.5183 126.991 90.5341C126.988 90.55 126.992 90.5663 127.001 90.5796L127.002 90.5807Z" fill="#0C0C0C"/>
</g>
<g opacity="0.25">
<path d="M127.712 91.6661C127.721 91.6789 127.735 91.6876 127.751 91.6902C127.767 91.6929 127.783 91.6892 127.796 91.6802L130.498 89.814C130.511 89.8048 130.52 89.7907 130.523 89.7749C130.526 89.7591 130.522 89.7427 130.513 89.7295C130.504 89.7167 130.49 89.708 130.474 89.7051C130.458 89.7023 130.442 89.7055 130.429 89.7141L127.726 91.5802C127.713 91.5895 127.704 91.6036 127.701 91.6194C127.698 91.6353 127.702 91.6517 127.711 91.665L127.712 91.6661Z" fill="#0C0C0C"/>
</g>
<g opacity="0.25">
<path d="M128.474 92.8459C128.484 92.8587 128.498 92.8674 128.513 92.87C128.529 92.8727 128.545 92.8691 128.558 92.8601L130.714 91.3715C130.727 91.3623 130.736 91.3482 130.739 91.3324C130.742 91.3165 130.738 91.3002 130.729 91.2869C130.72 91.2737 130.706 91.2646 130.69 91.2617C130.674 91.2588 130.658 91.2624 130.644 91.2716L128.489 92.7602C128.476 92.7694 128.466 92.7834 128.464 92.7993C128.461 92.8151 128.464 92.8315 128.473 92.8448L128.474 92.8459Z" fill="#0C0C0C"/>
</g>
<path d="M121.437 91.4619L114.134 103.865L105.222 92.2095L97.8205 98.8629L110.459 115.185L110.542 115.302C111.048 115.992 111.722 116.544 112.501 116.903C113.279 117.262 114.137 117.418 114.992 117.356C115.848 117.293 116.674 117.015 117.391 116.546C118.109 116.077 118.696 115.434 119.095 114.677L129.481 95.9228L121.437 91.4619Z" fill="#367CFF"/>
<path d="M113.417 105.357C113.401 105.357 113.386 105.353 113.372 105.345C113.358 105.337 113.346 105.326 113.338 105.312C113.33 105.299 113.325 105.283 113.324 105.268C113.324 105.252 113.327 105.236 113.335 105.222L114.051 103.823C114.062 103.801 114.081 103.784 114.105 103.777C114.128 103.769 114.154 103.771 114.176 103.783C114.197 103.794 114.214 103.813 114.222 103.837C114.229 103.86 114.227 103.885 114.216 103.907L113.5 105.306C113.492 105.321 113.48 105.334 113.466 105.343C113.451 105.352 113.434 105.357 113.417 105.357Z" fill="#0C0C0C"/>
<path d="M104.707 103.794L104.484 107.712L104.67 107.722L104.893 103.805L104.707 103.794Z" fill="#0C0C0C"/>
<path d="M81.1734 75.4421C81.1734 75.4421 80.8312 79.8027 79.8282 81.3746C76.9406 85.8999 76.0599 91.0183 78.8673 93.7299C81.6748 96.4414 99.7799 96.6888 101.223 90.5418C102.438 85.3676 99.9664 84.7814 99.413 80.4942C99.1627 78.5547 98.4594 74.4858 98.4594 74.4858" fill="#0A0A0A"/>
<path d="M96.6139 89.5597C96.5828 89.5556 96.2357 95.2942 89.5502 94.794C84.9218 94.4482 83.2714 89.5515 83.1654 89.5515C83.6644 89.4459 84.5048 89.2925 84.7264 89.174C85.4551 88.7836 86.357 88.3773 86.5919 86.966C86.7273 86.1518 86.4976 81.991 86.5683 81.168L93.6729 82.7493C93.5736 84.4874 92.8789 88.517 95.314 89.2303C95.7193 89.3482 96.1558 89.4566 96.6139 89.5597Z" fill="#E98862"/>
<path opacity="0.52" d="M93.7726 87.5833C93.6612 87.2257 93.5895 86.857 93.5588 86.4839C93.4806 85.6322 93.4962 84.7747 93.6052 83.9264C92.1612 83.732 90.8008 83.1377 89.6786 82.2109C89.5467 82.6968 88.8211 84.82 89.0221 85.2813C89.4017 86.1541 91.1861 87.5833 93.7726 87.5833Z" fill="#0C0C0C"/>
<path d="M92.8306 85.777C90.0267 86.0148 86.4156 84.8559 85.7082 81.1279L85.0697 77.7641C84.3622 74.0361 85.7522 70.6434 89.2724 69.9792C92.7924 69.3149 95.9971 71.8405 96.7047 75.5684L96.9873 77.0576C97.259 78.488 97.8339 85.3525 92.8306 85.777Z" fill="#E98862"/>
<path d="M95.9841 77.2199C96.2278 77.2199 96.4254 77.0229 96.4254 76.7799C96.4254 76.5368 96.2278 76.3398 95.9841 76.3398C95.7404 76.3398 95.5428 76.5368 95.5428 76.7799C95.5428 77.0229 95.7404 77.2199 95.9841 77.2199Z" fill="#0C0C0C"/>
<path d="M91.4636 77.8224C91.7073 77.8224 91.9048 77.6254 91.9048 77.3824C91.9048 77.1394 91.7073 76.9424 91.4636 76.9424C91.2198 76.9424 91.0223 77.1394 91.0223 77.3824C91.0223 77.6254 91.2198 77.8224 91.4636 77.8224Z" fill="#0C0C0C"/>
<path opacity="0.52" d="M93.944 80.6092L93.9509 80.6081C94.0935 80.5802 94.2344 80.5444 94.3731 80.501C94.58 80.4345 94.8511 80.3248 94.8158 80.1383C94.7755 79.9259 93.757 77.7441 93.641 77.4961C93.6361 77.4853 93.629 77.4756 93.6203 77.4675C93.6115 77.4594 93.6013 77.4531 93.5901 77.4489C93.5789 77.4448 93.567 77.4429 93.5551 77.4434C93.5431 77.4439 93.5314 77.4468 93.5206 77.4518C93.5098 77.4568 93.5001 77.4639 93.492 77.4727C93.484 77.4815 93.4778 77.4918 93.4737 77.5029C93.4697 77.5141 93.4679 77.526 93.4685 77.5379C93.4691 77.5498 93.472 77.5614 93.4771 77.5722C93.9116 78.5014 94.611 80.0288 94.638 80.1718C94.6148 80.2382 94.2712 80.364 93.9173 80.4308C93.8941 80.4349 93.8733 80.4478 93.8596 80.4669C93.8458 80.486 93.84 80.5097 93.8435 80.5329C93.847 80.5562 93.8594 80.5772 93.8782 80.5914C93.897 80.6056 93.9206 80.6119 93.944 80.609V80.6092Z" fill="#0C0C0C"/>
<path opacity="0.52" d="M93.4232 82.2177C93.9973 82.1434 94.546 81.9355 95.0248 81.6109C95.0448 81.5979 95.0589 81.5774 95.0638 81.554C95.0688 81.5306 95.0642 81.5062 95.0511 81.4862C95.038 81.4662 95.0175 81.4522 94.994 81.4472C94.9706 81.4423 94.9461 81.4469 94.9261 81.4599C93.8899 82.1331 92.8601 82.2421 91.9485 81.7745C91.93 81.7645 91.9111 81.7555 91.8917 81.7475C91.8691 81.7394 91.8442 81.7405 91.8225 81.7507C91.8008 81.7608 91.784 81.7792 91.7759 81.8017C91.7677 81.8242 91.7689 81.849 91.7791 81.8707C91.7893 81.8923 91.8077 81.909 91.8303 81.9172C91.8373 81.9201 91.8488 81.9264 91.8657 81.9357C92.3451 82.1821 92.8874 82.2803 93.4232 82.2177Z" fill="#0C0C0C"/>
<path d="M82.2534 78.9364L85.4091 78.3597C87.7988 77.3953 88.5216 73.27 88.5216 73.27C88.5216 73.27 91.4244 76.0913 98.459 74.4866C98.459 74.4866 97.0487 64.704 86.6559 67.5477C83.3048 68.4649 80.8997 71.8323 81.1993 76.3326C81.4096 79.4873 82.2534 78.9364 82.2534 78.9364Z" fill="#0A0A0A"/>
<path d="M86.1425 82.2227C85.0728 82.4246 83.989 81.447 83.7858 80.3803C83.5826 79.3136 84.3389 78.5617 85.4087 78.3599L86.0953 78.9705L87.0614 82.0492L86.1425 82.2227Z" fill="#E98862"/>
<path d="M94.286 75.7123C94.5979 75.5113 94.9585 75.3977 95.3296 75.3837C95.5123 75.3755 95.6953 75.3947 95.8722 75.4409C96.0475 75.4857 96.2164 75.5524 96.3749 75.6394C96.3973 75.6504 96.4144 75.6697 96.4225 75.6932C96.4306 75.7167 96.4291 75.7424 96.4183 75.7648C96.4075 75.7872 96.3882 75.8044 96.3647 75.8127C96.3413 75.821 96.3154 75.8197 96.2929 75.8091L96.2862 75.8059C96.1396 75.7341 95.9846 75.681 95.8247 75.6477C95.6668 75.6139 95.5046 75.6042 95.3437 75.6189C95.0246 75.6455 94.7181 75.7559 94.4556 75.9388L94.4471 75.9451C94.432 75.956 94.4149 75.9639 94.3968 75.9682C94.3786 75.9726 94.3598 75.9733 94.3414 75.9704C94.323 75.9675 94.3053 75.961 94.2894 75.9513C94.2735 75.9416 94.2597 75.9289 94.2487 75.9138C94.2377 75.8988 94.2298 75.8817 94.2255 75.8636C94.2211 75.8456 94.2204 75.8268 94.2233 75.8084C94.2262 75.7901 94.2327 75.7725 94.2425 75.7566C94.2522 75.7407 94.265 75.7269 94.2801 75.716L94.286 75.7123Z" fill="#0C0C0C"/>
<path d="M91.4717 76.3726C91.1607 76.2965 90.835 76.304 90.5277 76.3942C90.3724 76.4385 90.2246 76.506 90.0894 76.5942C89.9525 76.6831 89.8272 76.7888 89.7166 76.9088L89.7116 76.9138C89.6943 76.9311 89.671 76.941 89.6465 76.9415C89.622 76.9419 89.5982 76.9328 89.5803 76.9162C89.5624 76.8995 89.5517 76.8766 89.5504 76.8521C89.5492 76.8277 89.5575 76.8038 89.5736 76.7854C89.6899 76.6471 89.8232 76.5241 89.9705 76.4192C90.1187 76.3124 90.2822 76.2285 90.4556 76.1703C90.8069 76.0499 91.1842 76.0259 91.548 76.1007C91.5849 76.1087 91.6172 76.1308 91.6377 76.1625C91.6581 76.1941 91.6652 76.2325 91.6573 76.2693C91.6494 76.3061 91.6271 76.3383 91.5954 76.3587C91.5637 76.3792 91.5251 76.3862 91.4882 76.3783L91.4825 76.3768L91.4717 76.3726Z" fill="#0C0C0C"/>
<path opacity="0.52" d="M93.5452 83.0642C93.6492 83.0523 93.752 83.0317 93.8525 83.0025C93.8756 82.9959 93.8951 82.9805 93.9067 82.9595C93.9183 82.9386 93.9211 82.914 93.9145 82.891C93.9079 82.868 93.8924 82.8485 93.8714 82.8369C93.8504 82.8254 93.8257 82.8226 93.8026 82.8292C93.1975 83.0029 92.8534 82.7736 92.8392 82.7629C92.8195 82.7492 92.7951 82.7438 92.7715 82.748C92.7478 82.7521 92.7268 82.7655 92.713 82.7851C92.6992 82.8047 92.6938 82.829 92.698 82.8526C92.7021 82.8762 92.7156 82.8972 92.7352 82.9109C92.9794 83.0538 93.2656 83.108 93.5452 83.0642Z" fill="#0C0C0C"/>
<path d="M85.4163 78.3196L85.3849 78.2324C89.383 76.8014 88.4052 72.8891 88.395 72.8497L88.4846 72.8262C88.4952 72.8663 89.4952 76.8595 85.4163 78.3196Z" fill="#0C0C0C"/>
<path opacity="0.1" d="M91.0927 80.868C91.5542 80.8185 91.8987 80.5047 91.8623 80.1672C91.8259 79.8296 91.4222 79.5961 90.9608 79.6457C90.4993 79.6952 90.1547 80.009 90.1912 80.3465C90.2276 80.6841 90.6312 80.9176 91.0927 80.868Z" fill="#0C0C0C"/>
<path opacity="0.1" d="M95.9932 79.5911C96.0304 79.9282 96.4341 80.1614 96.8958 80.1125C96.9756 80.1038 97.0543 80.087 97.1306 80.0622C97.1566 79.661 97.1623 79.275 97.1547 78.9173C97.0271 78.884 96.8944 78.8747 96.7633 78.89C96.3017 78.9386 95.9572 79.2524 95.9932 79.5911Z" fill="#0C0C0C"/>
<path d="M104.92 102.193C104.71 104.66 103.686 120.051 103.483 123.09H76.6925C76.5348 120.349 74.7137 108.365 74.1159 103.006C73.5453 97.892 72.4258 95.3316 73.2464 93.8197C74.5873 91.3487 78.2515 89.9207 80.7499 89.5834C82.2757 89.3776 84.5702 89.23 84.5702 89.23C84.5702 89.23 84.7645 93.1491 89.3973 93.3673C95.7038 93.6633 95.2827 89.23 95.3139 89.23C96.3356 89.23 102.172 89.8748 103.6 90.7188C107.49 93.0164 105.367 96.9663 104.92 102.193Z" fill="#367CFF"/>
<path d="M122.31 103.917L119.728 116.432C119.675 116.687 119.537 116.915 119.337 117.08C119.136 117.245 118.884 117.337 118.624 117.339L100.842 117.49C100.673 117.492 100.505 117.455 100.351 117.384C100.197 117.312 100.062 117.207 99.954 117.076C99.8463 116.946 99.7692 116.793 99.7285 116.628C99.6877 116.464 99.6843 116.293 99.7185 116.127L102.301 103.611C102.353 103.357 102.492 103.129 102.693 102.964C102.894 102.799 103.145 102.708 103.405 102.706L121.187 102.555C121.357 102.553 121.524 102.59 121.678 102.662C121.831 102.733 121.967 102.838 122.075 102.969C122.182 103.099 122.259 103.252 122.3 103.416C122.341 103.58 122.344 103.751 122.31 103.917Z" fill="#292A2E"/>
<path d="M105.729 112.807C105.738 112.972 105.688 113.135 105.586 113.265C105.485 113.396 105.34 113.485 105.178 113.518L104.63 113.638C104.64 113.641 104.649 113.647 104.656 113.654C104.663 113.662 104.668 113.671 104.671 113.681C104.672 113.692 104.67 113.704 104.664 113.714C104.795 113.751 104.912 113.828 104.998 113.934C105.084 114.04 105.134 114.17 105.142 114.306C105.143 114.465 105.09 114.619 104.992 114.744C104.894 114.869 104.757 114.957 104.602 114.994L99.9799 116.018C99.7436 116.071 99.5021 116.097 99.2599 116.097C98.7204 116.097 98.189 115.966 97.7115 115.716C97.234 115.465 96.8248 115.103 96.5191 114.659C96.195 114.19 96.0671 113.614 96.1627 113.052C96.2584 112.491 96.57 111.989 97.0313 111.653L100.963 108.786C101.05 108.723 101.151 108.682 101.257 108.666L100.895 110.418L100.991 110.396L101.012 110.392L104.027 109.78C104.363 109.706 104.823 109.828 104.883 110.209C104.914 110.355 104.896 110.508 104.83 110.642C104.764 110.776 104.654 110.883 104.519 110.948C104.521 110.949 104.524 110.951 104.524 110.955C104.524 110.959 104.523 110.96 104.523 110.964L105.044 110.849C105.139 110.828 105.238 110.829 105.334 110.85C105.429 110.872 105.518 110.914 105.595 110.974C105.672 111.035 105.734 111.111 105.778 111.198C105.822 111.285 105.845 111.381 105.848 111.479C105.847 111.634 105.794 111.785 105.695 111.905C105.596 112.026 105.459 112.108 105.306 112.139L105.081 112.189C105.079 112.197 105.081 112.204 105.077 112.21C105.241 112.211 105.398 112.273 105.519 112.383C105.639 112.494 105.714 112.645 105.729 112.807Z" fill="#E98862"/>
<g opacity="0.25">
<path d="M101.521 111.572C101.524 111.587 101.534 111.601 101.547 111.609C101.561 111.618 101.577 111.621 101.593 111.618L104.478 111.027C104.486 111.026 104.493 111.023 104.5 111.018C104.506 111.014 104.512 111.008 104.516 111.001C104.521 110.995 104.524 110.987 104.525 110.979C104.527 110.972 104.527 110.964 104.525 110.956C104.524 110.948 104.52 110.941 104.516 110.934C104.511 110.927 104.506 110.922 104.499 110.917C104.492 110.913 104.485 110.91 104.477 110.908C104.469 110.907 104.461 110.907 104.453 110.908L101.568 111.498C101.552 111.502 101.538 111.511 101.529 111.524C101.52 111.538 101.517 111.554 101.521 111.57L101.521 111.572Z" fill="#0C0C0C"/>
</g>
<g opacity="0.25">
<path d="M101.747 112.848C101.75 112.863 101.76 112.877 101.773 112.885C101.787 112.894 101.803 112.897 101.818 112.894L105.038 112.235C105.054 112.232 105.068 112.223 105.077 112.209C105.086 112.196 105.089 112.179 105.086 112.163C105.082 112.148 105.073 112.134 105.059 112.126C105.046 112.117 105.03 112.113 105.014 112.116L101.793 112.775C101.786 112.776 101.778 112.779 101.772 112.784C101.765 112.788 101.759 112.794 101.755 112.801C101.75 112.807 101.747 112.815 101.746 112.823C101.744 112.83 101.744 112.838 101.746 112.846L101.747 112.848Z" fill="#0C0C0C"/>
</g>
<g opacity="0.25">
<path d="M101.983 114.231C101.987 114.246 101.996 114.259 102.01 114.268C102.023 114.277 102.039 114.28 102.055 114.276L104.623 113.751C104.631 113.749 104.639 113.746 104.645 113.742C104.652 113.737 104.658 113.732 104.662 113.725C104.666 113.718 104.669 113.711 104.671 113.703C104.672 113.695 104.672 113.687 104.671 113.679C104.669 113.672 104.666 113.664 104.662 113.658C104.657 113.651 104.651 113.645 104.645 113.641C104.638 113.636 104.63 113.633 104.623 113.632C104.615 113.63 104.607 113.63 104.599 113.632L102.03 114.157C102.015 114.16 102.001 114.17 101.992 114.183C101.983 114.197 101.98 114.213 101.983 114.229L101.983 114.231Z" fill="#0C0C0C"/>
</g>
<path d="M99.6938 117.841L74.6155 122.36C73.833 122.445 73.0414 122.348 72.3029 122.077C71.5644 121.805 70.899 121.367 70.359 120.796C69.8189 120.225 69.4188 119.537 69.1902 118.786C68.9615 118.035 68.9105 117.241 69.0411 116.467L72.5508 95.6582C72.6614 94.9999 72.901 94.3698 73.2558 93.8038C73.6107 93.2379 74.074 92.7472 74.6191 92.3599C75.1643 91.9726 75.7806 91.6961 76.4329 91.5464C77.0852 91.3967 77.7608 91.3767 78.4209 91.4874C79.081 91.5981 79.7127 91.8375 80.28 92.1918C80.8473 92.5461 81.339 93.0084 81.727 93.5523C82.115 94.0962 82.3918 94.711 82.5414 95.3616C82.691 96.0122 82.7106 96.6858 82.5991 97.344L80.2053 111.669L98.5913 109.366L99.6938 117.841Z" fill="#367CFF"/>
<path d="M74.6153 122.453C74.5921 122.453 74.5698 122.444 74.5528 122.429C74.5357 122.413 74.5251 122.392 74.5231 122.369C74.521 122.346 74.5277 122.323 74.5417 122.304C74.5558 122.286 74.5762 122.274 74.599 122.27L99.5904 117.766L98.5112 109.47L80.2168 111.761C80.2024 111.763 80.1879 111.761 80.1742 111.756C80.1606 111.751 80.1483 111.744 80.1383 111.733C80.1283 111.723 80.1208 111.71 80.1165 111.696C80.1122 111.683 80.1112 111.668 80.1136 111.654L81.6352 102.498C81.6371 102.486 81.6414 102.475 81.6478 102.464C81.6542 102.454 81.6626 102.445 81.6725 102.438C81.6825 102.431 81.6937 102.426 81.7057 102.423C81.7176 102.42 81.7299 102.42 81.7419 102.422C81.754 102.424 81.7655 102.429 81.7758 102.435C81.7862 102.441 81.7952 102.45 81.8023 102.46C81.8094 102.47 81.8145 102.481 81.8172 102.493C81.82 102.504 81.8204 102.517 81.8184 102.529L80.3168 111.562L98.5795 109.274C98.6038 109.271 98.6284 109.278 98.6478 109.293C98.6672 109.308 98.6799 109.33 98.683 109.354L99.7856 117.829C99.7887 117.853 99.7825 117.877 99.7685 117.896C99.7544 117.915 99.7335 117.928 99.7101 117.932L74.632 122.452C74.6265 122.453 74.6209 122.453 74.6153 122.453Z" fill="#0C0C0C"/>
<path d="M80.191 111.577L78.5778 111.835L78.6072 112.018L80.2204 111.76L80.191 111.577Z" fill="#0C0C0C"/>
<path d="M205.223 133.373H150.341C148.062 133.373 146.214 135.215 146.214 137.489V156.226C146.214 158.5 148.062 160.342 150.341 160.342H205.223C207.503 160.342 209.351 158.5 209.351 156.226V137.489C209.351 135.215 207.503 133.373 205.223 133.373Z" fill="white"/>
<path opacity="0.4" d="M205.223 133.373H150.341C148.062 133.373 146.214 135.215 146.214 137.489V156.226C146.214 158.5 148.062 160.342 150.341 160.342H205.223C207.503 160.342 209.351 158.5 209.351 156.226V137.489C209.351 135.215 207.503 133.373 205.223 133.373Z" fill="#367CFF"/>
<path d="M205.223 160.527H150.341C149.198 160.526 148.101 160.072 147.293 159.266C146.484 158.459 146.029 157.366 146.028 156.226V137.49C146.029 136.349 146.484 135.256 147.293 134.45C148.101 133.643 149.198 133.19 150.341 133.188H205.223C206.367 133.19 207.463 133.643 208.272 134.45C209.08 135.256 209.535 136.349 209.537 137.49V156.227C209.535 157.367 209.08 158.46 208.271 159.266C207.463 160.072 206.367 160.526 205.223 160.527ZM150.341 133.558C149.296 133.559 148.294 133.974 147.555 134.711C146.816 135.448 146.4 136.447 146.399 137.49V156.227C146.401 157.269 146.816 158.268 147.555 159.004C148.294 159.741 149.296 160.156 150.341 160.157H205.223C206.268 160.156 207.27 159.741 208.009 159.004C208.749 158.267 209.164 157.268 209.165 156.226V137.49C209.164 136.447 208.749 135.448 208.009 134.711C207.27 133.974 206.268 133.56 205.223 133.559L150.341 133.558Z" fill="#292A2E"/>
<path d="M151.875 154.596C151.825 154.596 151.776 154.583 151.733 154.557C151.69 154.532 151.655 154.495 151.631 154.452C151.607 154.408 151.595 154.358 151.597 154.309C151.599 154.259 151.614 154.21 151.641 154.169C151.701 154.076 157.767 144.828 167.406 144.828C172.442 144.828 175.494 146.766 178.446 148.64C181.177 150.375 183.758 152.013 187.751 152.013C195.914 152.013 202.491 140.191 202.556 140.072C202.591 140.007 202.651 139.959 202.722 139.938C202.793 139.918 202.869 139.926 202.934 139.961C202.999 139.997 203.047 140.056 203.067 140.127C203.088 140.197 203.08 140.273 203.044 140.338C202.771 140.838 196.241 152.569 187.751 152.569C183.596 152.569 180.949 150.888 178.146 149.109C175.262 147.277 172.28 145.383 167.406 145.383C158.075 145.383 152.168 154.378 152.11 154.469C152.084 154.508 152.05 154.54 152.009 154.562C151.968 154.585 151.922 154.596 151.875 154.596Z" fill="white"/>
<path d="M202.878 141.291C203.48 141.291 203.967 140.805 203.967 140.205C203.967 139.605 203.48 139.119 202.878 139.119C202.277 139.119 201.789 139.605 201.789 140.205C201.789 140.805 202.277 141.291 202.878 141.291Z" fill="white"/>
</g>
<defs>
<clipPath id="clip0_452_2732">
<rect width="178.537" height="178.537" fill="white" transform="translate(31 31)"/>
</clipPath>
</defs>
</svg>
