<svg width="221" height="144" viewBox="0 0 221 144" fill="none" xmlns="http://www.w3.org/2000/svg">
<path d="M189.899 7.74707H157.172V46.3696H189.899V7.74707Z" fill="#F4F4F4"/>
<path d="M189.899 46.3696H190.961V7.74711H189.899V46.3696Z" fill="#F4F4F4"/>
<path opacity="0.05" d="M189.899 46.3696H190.961V7.74711H189.899V46.3696Z" fill="#292A2E"/>
<path opacity="0.05" d="M183.937 14.7825H163.133V39.3339H183.937V14.7825Z" fill="#292A2E"/>
<path opacity="0.03" d="M183.938 14.7825H182.853V39.3339H183.938V14.7825Z" fill="#292A2E"/>
<path d="M216.665 55.8676H189.899V80.358H216.665V55.8676Z" fill="#F4F4F4"/>
<path opacity="0.05" d="M211.789 60.3289H194.775V75.8967H211.789V60.3289Z" fill="#292A2E"/>
<path d="M216.665 80.3577H217.727V55.8673H216.665V80.3577Z" fill="#F4F4F4"/>
<path opacity="0.05" d="M216.665 80.3577H217.727V55.8673H216.665V80.3577Z" fill="#292A2E"/>
<path opacity="0.03" d="M211.789 60.3289H210.705V75.8967H211.789V60.3289Z" fill="#292A2E"/>
<path d="M127.905 97.351C127.869 97.351 127.834 97.3436 127.803 97.3294L75.1052 73.7143C75.0707 73.6989 75.0411 73.676 75.019 73.6475C74.9969 73.619 74.9831 73.586 74.9787 73.5514C74.9744 73.5169 74.9796 73.4819 74.9941 73.4496C75.0086 73.4174 75.0317 73.389 75.0614 73.3669L127.743 34.1773C127.784 34.1467 127.835 34.13 127.888 34.13C127.941 34.13 127.993 34.1467 128.034 34.1773L180.748 73.3669C180.778 73.389 180.801 73.4175 180.815 73.4497C180.829 73.4819 180.835 73.5169 180.83 73.5514C180.826 73.5859 180.812 73.6189 180.79 73.6474C180.768 73.6758 180.739 73.6988 180.704 73.7143L128.006 97.3305C127.975 97.3443 127.94 97.3514 127.905 97.351ZM75.6272 73.4843L127.905 96.9118L180.182 73.4843L127.888 34.6065L75.6272 73.4843Z" fill="#292A2E"/>
<path d="M184.691 0.26001L174.202 13.0054V121.461C174.202 122.486 173.753 123.469 172.953 124.194C172.154 124.919 171.07 125.326 169.939 125.326H85.8368C85.277 125.326 84.7227 125.226 84.2055 125.032C83.6883 124.837 83.2184 124.553 82.8226 124.194C82.4267 123.835 82.1127 123.409 81.8985 122.94C81.6843 122.471 81.5741 121.968 81.5742 121.461V10.7024C81.5742 7.93295 82.7876 5.27693 84.9474 3.31861C87.1073 1.36029 90.0367 0.260083 93.0913 0.26001H184.691Z" fill="white"/>
<path d="M169.939 125.533H85.8368C84.6461 125.531 83.5045 125.102 82.6624 124.338C81.8203 123.575 81.3463 122.54 81.3444 121.461V10.7023C81.3479 7.87866 82.5867 5.17155 84.7889 3.1749C86.9911 1.17825 89.9769 0.0551108 93.0913 0.0518799L184.691 0.0518799C184.733 0.0519824 184.775 0.0628059 184.811 0.0831431C184.848 0.10348 184.877 0.132532 184.896 0.167057C184.915 0.201583 184.923 0.240225 184.919 0.278675C184.915 0.317124 184.9 0.353869 184.874 0.384811L174.431 13.0745V121.461C174.429 122.54 173.955 123.575 173.113 124.338C172.271 125.102 171.13 125.531 169.939 125.533ZM93.0913 0.468044C90.0986 0.471128 87.2295 1.55037 85.1133 3.46901C82.9971 5.38765 81.8068 7.98899 81.8034 10.7023V121.461C81.8049 122.43 82.2304 123.36 82.9864 124.045C83.7425 124.731 84.7676 125.116 85.8368 125.118H169.939C171.008 125.116 172.033 124.731 172.789 124.045C173.545 123.36 173.971 122.43 173.972 121.461V13.0054C173.972 12.9605 173.988 12.9168 174.018 12.8808L184.233 0.468044H93.0913Z" fill="#292A2E"/>
<path opacity="0.3" d="M157.069 14.0961H98.7401C98.5513 14.0961 98.3983 14.2348 98.3983 14.406V14.9126C98.3983 15.0837 98.5513 15.2225 98.7401 15.2225H157.069C157.258 15.2225 157.411 15.0837 157.411 14.9126V14.406C157.411 14.2348 157.258 14.0961 157.069 14.0961Z" fill="#262626"/>
<path d="M174.202 9.76991C174.202 7.24773 175.307 4.82885 177.274 3.0454C179.241 1.26194 181.909 0.26001 184.691 0.26001C187.473 0.26001 190.141 1.26194 192.108 3.0454C194.075 4.82885 195.18 7.24773 195.18 9.76991V17.7988H174.202V9.76991Z" fill="white"/>
<path d="M195.18 18.0069H174.202C174.141 18.0069 174.083 17.985 174.04 17.946C173.997 17.9069 173.972 17.854 173.972 17.7988V9.76991C173.965 8.48937 174.236 7.22011 174.772 6.03508C175.307 4.85005 176.095 3.77262 177.091 2.86471C178.087 1.95681 179.272 1.23634 180.576 0.744713C181.88 0.253087 183.278 0 184.691 0C186.103 0 187.502 0.253087 188.806 0.744713C190.11 1.23634 191.294 1.95681 192.29 2.86471C193.286 3.77262 194.074 4.85005 194.61 6.03508C195.145 7.22011 195.417 8.48937 195.409 9.76991V17.7988C195.409 17.854 195.385 17.9069 195.342 17.946C195.299 17.985 195.24 18.0069 195.18 18.0069ZM174.432 17.5907H194.951V9.76991C194.958 8.54412 194.698 7.3291 194.186 6.19469C193.674 5.06028 192.919 4.02885 191.966 3.15971C191.013 2.29057 189.879 1.60086 188.631 1.13022C187.382 0.659573 186.044 0.417288 184.692 0.417288C183.34 0.417288 182.001 0.659573 180.753 1.13022C179.504 1.60086 178.371 2.29057 177.417 3.15971C176.464 4.02885 175.709 5.06028 175.197 6.19469C174.685 7.3291 174.425 8.54412 174.432 9.76991V17.5907Z" fill="#292A2E"/>
<path opacity="0.3" d="M166.404 37.7437H126.847C126.689 37.7437 126.561 37.8594 126.561 38.0022V38.0025C126.561 38.1453 126.689 38.2611 126.847 38.2611H166.404C166.562 38.2611 166.689 38.1453 166.689 38.0025V38.0022C166.689 37.8594 166.562 37.7437 166.404 37.7437Z" fill="#262626"/>
<path opacity="0.3" d="M166.404 34.0697H126.847C126.689 34.0697 126.561 34.1855 126.561 34.3283V34.3286C126.561 34.4714 126.689 34.5871 126.847 34.5871H166.404C166.562 34.5871 166.689 34.4714 166.689 34.3286V34.3283C166.689 34.1855 166.562 34.0697 166.404 34.0697Z" fill="#262626"/>
<path opacity="0.3" d="M166.404 30.3955H126.847C126.689 30.3955 126.561 30.5113 126.561 30.6541V30.6544C126.561 30.7972 126.689 30.9129 126.847 30.9129H166.404C166.562 30.9129 166.689 30.7972 166.689 30.6544V30.6541C166.689 30.5113 166.562 30.3955 166.404 30.3955Z" fill="#262626"/>
<path opacity="0.3" d="M166.404 26.7217H126.847C126.689 26.7217 126.561 26.8374 126.561 26.9803V26.9805C126.561 27.1233 126.689 27.2391 126.847 27.2391H166.404C166.562 27.2391 166.689 27.1233 166.689 26.9805V26.9803C166.689 26.8374 166.562 26.7217 166.404 26.7217Z" fill="#262626"/>
<path opacity="0.3" d="M166.404 23.0314H126.847C126.689 23.0314 126.561 23.1471 126.561 23.29V23.2902C126.561 23.433 126.689 23.5488 126.847 23.5488H166.404C166.562 23.5488 166.689 23.433 166.689 23.2902V23.29C166.689 23.1471 166.562 23.0314 166.404 23.0314Z" fill="#262626"/>
<path opacity="0.3" d="M150.049 41.4175H126.847C126.689 41.4175 126.561 41.5333 126.561 41.6761V41.6763C126.561 41.8191 126.689 41.9349 126.847 41.9349H150.049C150.207 41.9349 150.334 41.8191 150.334 41.6763V41.6761C150.334 41.5333 150.207 41.4175 150.049 41.4175Z" fill="#262626"/>
<path opacity="0.9" d="M120.411 20.0786H90.056C89.539 20.0786 89.1199 20.4586 89.1199 20.9273V43.4867C89.1199 43.9555 89.539 44.3354 90.056 44.3354H120.411C120.928 44.3354 121.347 43.9555 121.347 43.4867V20.9273C121.347 20.4586 120.928 20.0786 120.411 20.0786Z" fill="#0CBC8B"/>
<path opacity="0.8" d="M100.36 29.7067C101.647 29.7067 102.691 28.7602 102.691 27.5926C102.691 26.425 101.647 25.4785 100.36 25.4785C99.0718 25.4785 98.0278 26.425 98.0278 27.5926C98.0278 28.7602 99.0718 29.7067 100.36 29.7067Z" fill="white"/>
<path opacity="0.5" d="M103.57 37.4773L110.33 30.64C110.753 30.2133 111.343 29.9546 111.974 29.92C112.605 29.8854 113.226 30.0777 113.702 30.4552L121.347 36.524V44.3351H112.105" fill="white"/>
<path opacity="0.8" d="M112.106 44.3352L97.4479 32.5577C97.0146 32.2097 96.4574 32.0153 95.8786 32.0102C95.2998 32.0051 94.7385 32.1897 94.2979 32.53L89.1202 36.5251V44.3363" fill="white"/>
<path opacity="0.3" d="M166.377 62.0179H89.4327C89.2752 62.0179 89.1475 62.1337 89.1475 62.2765V62.2768C89.1475 62.4196 89.2752 62.5354 89.4327 62.5354H166.377C166.534 62.5354 166.662 62.4196 166.662 62.2768V62.2765C166.662 62.1337 166.534 62.0179 166.377 62.0179Z" fill="#262626"/>
<path opacity="0.3" d="M166.377 58.344H89.4327C89.2752 58.344 89.1475 58.4598 89.1475 58.6026V58.6028C89.1475 58.7457 89.2752 58.8614 89.4327 58.8614H166.377C166.534 58.8614 166.662 58.7457 166.662 58.6028V58.6026C166.662 58.4598 166.534 58.344 166.377 58.344Z" fill="#262626"/>
<path opacity="0.3" d="M166.377 54.6698H89.4327C89.2752 54.6698 89.1475 54.7856 89.1475 54.9284V54.9287C89.1475 55.0715 89.2752 55.1872 89.4327 55.1872H166.377C166.534 55.1872 166.662 55.0715 166.662 54.9287V54.9284C166.662 54.7856 166.534 54.6698 166.377 54.6698Z" fill="#262626"/>
<path opacity="0.3" d="M166.377 50.996H89.4327C89.2752 50.996 89.1475 51.1117 89.1475 51.2546V51.2548C89.1475 51.3976 89.2752 51.5134 89.4327 51.5134H166.377C166.534 51.5134 166.662 51.3976 166.662 51.2548V51.2546C166.662 51.1117 166.534 50.996 166.377 50.996Z" fill="#262626"/>
<path opacity="0.3" d="M112.635 65.6921H89.4327C89.2752 65.6921 89.1475 65.8079 89.1475 65.9507V65.951C89.1475 66.0938 89.2752 66.2096 89.4327 66.2096H112.635C112.793 66.2096 112.92 66.0938 112.92 65.951V65.9507C112.92 65.8079 112.793 65.6921 112.635 65.6921Z" fill="#262626"/>
<path opacity="0.3" d="M166.377 83.2048H89.4327C89.2752 83.2048 89.1475 83.3206 89.1475 83.4634V83.4637C89.1475 83.6065 89.2752 83.7223 89.4327 83.7223H166.377C166.534 83.7223 166.662 83.6065 166.662 83.4637V83.4634C166.662 83.3206 166.534 83.2048 166.377 83.2048Z" fill="#262626"/>
<path opacity="0.3" d="M166.377 79.5309H89.4327C89.2752 79.5309 89.1475 79.6467 89.1475 79.7895V79.7897C89.1475 79.9325 89.2752 80.0483 89.4327 80.0483H166.377C166.534 80.0483 166.662 79.9325 166.662 79.7897V79.7895C166.662 79.6467 166.534 79.5309 166.377 79.5309Z" fill="#262626"/>
<path opacity="0.3" d="M166.377 75.8568H89.4327C89.2752 75.8568 89.1475 75.9726 89.1475 76.1154V76.1157C89.1475 76.2585 89.2752 76.3742 89.4327 76.3742H166.377C166.534 76.3742 166.662 76.2585 166.662 76.1157V76.1154C166.662 75.9726 166.534 75.8568 166.377 75.8568Z" fill="#262626"/>
<path opacity="0.3" d="M166.377 72.1829H89.4327C89.2752 72.1829 89.1475 72.2986 89.1475 72.4414V72.4417C89.1475 72.5845 89.2752 72.7003 89.4327 72.7003H166.377C166.534 72.7003 166.662 72.5845 166.662 72.4417V72.4414C166.662 72.2986 166.534 72.1829 166.377 72.1829Z" fill="#262626"/>
<path opacity="0.3" d="M112.635 86.8787H89.4327C89.2752 86.8787 89.1475 86.9944 89.1475 87.1372V87.1375C89.1475 87.2803 89.2752 87.3961 89.4327 87.3961H112.635C112.793 87.3961 112.92 87.2803 112.92 87.1375V87.1372C112.92 86.9944 112.793 86.8787 112.635 86.8787Z" fill="#262626"/>
<path d="M175.457 128.777H80.3523C78.9876 128.777 77.6788 128.285 76.7139 127.41C75.7489 126.535 75.2068 125.349 75.2068 124.111V73.528L127.905 97.1442L180.602 73.528V124.111C180.602 124.724 180.469 125.331 180.211 125.897C179.952 126.463 179.573 126.977 179.095 127.41C178.617 127.843 178.05 128.187 177.426 128.421C176.802 128.656 176.133 128.777 175.457 128.777Z" fill="#367CFF"/>
<path opacity="0.78" d="M175.457 128.777H80.3523C78.9876 128.777 77.6788 128.285 76.7139 127.41C75.7489 126.535 75.2068 125.349 75.2068 124.111V73.528L127.905 97.1442L180.602 73.528V124.111C180.602 124.724 180.469 125.331 180.211 125.897C179.952 126.463 179.573 126.977 179.095 127.41C178.617 127.843 178.05 128.187 177.426 128.421C176.802 128.656 176.133 128.777 175.457 128.777Z" fill="white"/>
<path d="M175.457 128.985H80.3523C78.9273 128.983 77.561 128.469 76.5534 127.556C75.5457 126.642 74.9789 125.403 74.9773 124.111V73.5279C74.9773 73.4925 74.9873 73.4577 75.0062 73.4268C75.0252 73.3958 75.0526 73.3698 75.0858 73.3511C75.119 73.3325 75.1569 73.3218 75.1959 73.3201C75.2349 73.3184 75.2737 73.3258 75.3087 73.3415L127.905 96.9119L180.501 73.3415C180.536 73.3258 180.575 73.3184 180.614 73.3201C180.653 73.3217 180.69 73.3324 180.724 73.3511C180.757 73.3698 180.784 73.3958 180.803 73.4268C180.822 73.4577 180.832 73.4925 180.832 73.5279V124.111C180.83 125.403 180.263 126.642 179.256 127.556C178.248 128.469 176.882 128.983 175.457 128.985ZM75.4363 73.8631V124.111C75.4378 125.293 75.9563 126.426 76.8779 127.261C77.7995 128.097 79.049 128.567 80.3523 128.568H175.457C176.76 128.567 178.01 128.097 178.931 127.261C179.853 126.426 180.371 125.293 180.373 124.111V73.8631L128.006 97.3306C127.975 97.3447 127.94 97.352 127.905 97.352C127.869 97.352 127.834 97.3447 127.803 97.3306L75.4363 73.8631Z" fill="#292A2E"/>
<path d="M204.649 140.292C204.686 140.292 204.722 140.283 204.754 140.265C204.785 140.247 204.811 140.221 204.827 140.191L210.06 130.458C210.081 130.415 210.083 130.367 210.066 130.323C210.048 130.279 210.013 130.242 209.966 130.222C209.92 130.201 209.866 130.198 209.817 130.213C209.768 130.227 209.727 130.258 209.703 130.3L204.471 140.033C204.456 140.061 204.449 140.091 204.451 140.121C204.453 140.152 204.463 140.181 204.481 140.207C204.498 140.233 204.523 140.254 204.553 140.269C204.582 140.284 204.615 140.292 204.649 140.292Z" fill="#292A2E"/>
<path d="M195.801 139.727C195.845 139.727 195.887 139.714 195.922 139.69C195.957 139.665 195.982 139.631 195.993 139.593L202.049 118.628C202.056 118.605 202.058 118.581 202.054 118.558C202.05 118.535 202.042 118.512 202.029 118.492C202.016 118.471 201.998 118.453 201.977 118.439C201.957 118.425 201.933 118.414 201.908 118.408C201.883 118.402 201.856 118.401 201.831 118.404C201.805 118.407 201.78 118.415 201.757 118.427C201.735 118.439 201.715 118.455 201.699 118.474C201.684 118.492 201.672 118.514 201.666 118.537L195.609 139.502C195.595 139.548 195.603 139.597 195.63 139.638C195.656 139.679 195.7 139.709 195.751 139.721C195.767 139.725 195.784 139.727 195.801 139.727Z" fill="#292A2E"/>
<path d="M184.247 140.655C184.28 140.655 184.312 140.648 184.341 140.634C184.37 140.62 184.394 140.6 184.413 140.575C184.431 140.55 184.442 140.522 184.445 140.492C184.448 140.463 184.443 140.433 184.43 140.406L178.169 127.038C178.148 126.994 178.11 126.959 178.061 126.941C178.012 126.923 177.957 126.923 177.909 126.942C177.86 126.961 177.822 126.996 177.802 127.04C177.783 127.084 177.783 127.134 177.804 127.178L184.065 140.547C184.08 140.579 184.105 140.606 184.138 140.626C184.17 140.645 184.208 140.655 184.247 140.655Z" fill="#292A2E"/>
<path d="M195.576 143.753C195.593 143.753 195.609 143.751 195.625 143.747C195.676 143.736 195.72 143.706 195.747 143.665C195.774 143.624 195.782 143.575 195.769 143.529L188.494 117.141C188.488 117.119 188.476 117.097 188.461 117.078C188.445 117.059 188.426 117.043 188.403 117.031C188.381 117.019 188.356 117.011 188.331 117.007C188.305 117.004 188.279 117.005 188.253 117.011C188.228 117.016 188.204 117.027 188.183 117.041C188.162 117.055 188.145 117.072 188.131 117.093C188.118 117.113 188.109 117.135 188.105 117.159C188.101 117.182 188.103 117.206 188.109 117.229L195.384 143.616C195.395 143.655 195.419 143.69 195.454 143.715C195.489 143.739 195.532 143.753 195.576 143.753Z" fill="#292A2E"/>
<path d="M192.997 122.549C194.971 118.787 193.683 114.491 190.12 112.955C186.557 111.418 182.069 113.222 180.095 116.984C178.121 120.746 179.409 125.042 182.972 126.579C186.535 128.115 191.023 126.311 192.997 122.549Z" fill="#0CBC8B"/>
<path opacity="0.4" d="M192.997 122.549C194.971 118.787 193.683 114.491 190.12 112.955C186.557 111.418 182.069 113.222 180.095 116.984C178.121 120.746 179.409 125.042 182.972 126.579C186.535 128.115 191.023 126.311 192.997 122.549Z" fill="white"/>
<path d="M180.753 131.235C181.782 128.917 180.88 126.404 178.738 125.622C176.596 124.839 174.024 126.084 172.995 128.402C171.965 130.72 172.867 133.233 175.009 134.015C177.152 134.797 179.723 133.552 180.753 131.235Z" fill="#0CBC8B"/>
<path d="M205.995 128.26C209.177 127.385 210.796 123.806 209.612 120.265C208.427 116.724 204.887 114.563 201.705 115.438C198.523 116.313 196.904 119.893 198.088 123.434C199.273 126.974 202.813 129.135 205.995 128.26Z" fill="#0CBC8B"/>
<path d="M211.384 135.795C213.16 135.526 214.261 133.47 213.843 131.204C213.424 128.938 211.646 127.319 209.87 127.589C208.094 127.858 206.993 129.914 207.412 132.18C207.83 134.446 209.609 136.065 211.384 135.795Z" fill="#0CBC8B"/>
<path d="M178.408 144H209.312V137.018H178.408V144Z" fill="#292A2E"/>
<path opacity="0.3" d="M178.408 144H209.312V137.018H178.408V144Z" fill="white"/>
<path d="M193.056 135.263C194.312 132.436 193.202 129.367 190.576 128.408C187.951 127.449 184.805 128.964 183.549 131.792C182.293 134.619 183.403 137.689 186.028 138.647C188.653 139.606 191.8 138.091 193.056 135.263Z" fill="#0CBC8B"/>
<path d="M199.914 137.946C202.529 137.946 204.649 136.024 204.649 133.653C204.649 131.283 202.529 129.361 199.914 129.361C197.3 129.361 195.18 131.283 195.18 133.653C195.18 136.024 197.3 137.946 199.914 137.946Z" fill="#0CBC8B"/>
<path opacity="0.68" d="M180.753 131.235C181.782 128.917 180.88 126.404 178.738 125.622C176.596 124.839 174.024 126.084 172.995 128.402C171.965 130.72 172.867 133.233 175.009 134.015C177.152 134.797 179.723 133.552 180.753 131.235Z" fill="white"/>
<path opacity="0.68" d="M205.995 128.26C209.177 127.385 210.796 123.806 209.612 120.265C208.427 116.724 204.887 114.563 201.705 115.438C198.523 116.313 196.904 119.893 198.088 123.434C199.273 126.974 202.813 129.135 205.995 128.26Z" fill="white"/>
<path opacity="0.68" d="M211.384 135.795C213.16 135.526 214.261 133.47 213.843 131.204C213.424 128.938 211.646 127.319 209.87 127.589C208.094 127.858 206.993 129.914 207.412 132.18C207.83 134.446 209.609 136.065 211.384 135.795Z" fill="white"/>
<path opacity="0.68" d="M193.056 135.263C194.312 132.436 193.202 129.367 190.576 128.408C187.951 127.449 184.805 128.964 183.549 131.792C182.293 134.619 183.403 137.689 186.028 138.647C188.653 139.606 191.8 138.091 193.056 135.263Z" fill="white"/>
<path opacity="0.4" d="M199.914 137.946C202.529 137.946 204.649 136.024 204.649 133.653C204.649 131.283 202.529 129.361 199.914 129.361C197.3 129.361 195.18 131.283 195.18 133.653C195.18 136.024 197.3 137.946 199.914 137.946Z" fill="white"/>
<path d="M184.706 130.04C188.3 130.95 190.191 128.287 190.191 128.287L190.189 128.284C188.273 127.766 186.147 128.494 184.706 130.04Z" fill="#292A2E"/>
<path d="M207.406 131.13C209.175 130.516 210.641 129.344 211.535 127.83C211.05 127.596 210.495 127.51 209.952 127.588C208.455 127.814 207.439 129.309 207.406 131.13Z" fill="#292A2E"/>
<path d="M199.069 129.43C200.448 130.556 202.17 131.276 204.008 131.497C203.519 130.734 202.782 130.127 201.899 129.757C201.015 129.387 200.027 129.273 199.069 129.43Z" fill="#292A2E"/>
<path d="M220.694 143.936H8.31016C8.229 143.936 8.15116 143.906 8.09378 143.854C8.03639 143.802 8.00415 143.732 8.00415 143.658C8.00415 143.585 8.03639 143.514 8.09378 143.462C8.15116 143.41 8.229 143.381 8.31016 143.381H220.694C220.775 143.381 220.853 143.41 220.91 143.462C220.968 143.514 221 143.585 221 143.658C221 143.732 220.968 143.802 220.91 143.854C220.853 143.906 220.775 143.936 220.694 143.936Z" fill="#292A2E"/>
<path d="M121.669 55.7985L117.779 62.9205L117.843 61.8426C117.856 61.4942 117.722 61.1542 117.47 60.8915C117.217 60.6289 116.863 60.463 116.481 60.4277C116.283 60.4156 116.084 60.4402 115.897 60.5001C115.71 60.5599 115.538 60.6537 115.392 60.7757C115.246 60.8977 115.129 61.0454 115.049 61.2098C114.968 61.3741 114.925 61.5517 114.922 61.7316L114.677 75.0741L119.392 75.2531C120.856 75.3087 122.305 74.9666 123.554 74.2706C124.802 73.5745 125.793 72.5563 126.399 71.3464L129.133 65.8619C129.281 65.5794 129.317 65.2591 129.235 64.9553C129.153 64.6515 128.957 64.3829 128.681 64.1948C128.428 64.0299 128.124 63.9425 127.813 63.9455C127.501 63.9484 127.199 64.0415 126.95 64.2111C126.938 64.1924 126.921 64.1768 126.9 64.1659C126.881 64.1566 126.858 64.1519 126.836 64.1523C126.814 64.1527 126.792 64.1582 126.772 64.1681L127.279 63.1574C127.445 62.8431 127.473 62.4834 127.358 62.1509C127.242 61.8185 126.992 61.5381 126.658 61.3665C126.353 61.2227 126.002 61.181 125.666 61.2487C125.331 61.3164 125.032 61.4892 124.823 61.7366C124.818 61.7236 124.81 61.7116 124.799 61.7011L125.007 61.285C125.156 61.0025 125.191 60.6822 125.109 60.3785C125.027 60.0747 124.831 59.8061 124.555 59.6181C124.249 59.4177 123.868 59.3328 123.494 59.3813C123.12 59.4298 122.781 59.6078 122.548 59.878C122.539 59.8747 122.529 59.8723 122.519 59.8708L124.139 56.9047C124.301 56.6077 124.327 56.2644 124.21 55.9504C124.093 55.6363 123.843 55.3772 123.516 55.23C123.188 55.0829 122.809 55.0597 122.463 55.1657C122.117 55.2716 121.831 55.4979 121.669 55.7949V55.7985Z" fill="#E98862"/>
<path opacity="0.2" d="M122.636 60.0104C122.633 60.0247 122.629 60.0387 122.621 60.0517L121.012 62.916C121.003 62.9306 120.992 62.9436 120.978 62.9542C120.965 62.9648 120.949 62.9729 120.932 62.978C120.915 62.983 120.896 62.985 120.878 62.9837C120.86 62.9824 120.843 62.978 120.827 62.9706C120.811 62.9631 120.797 62.9529 120.785 62.9405C120.773 62.9281 120.764 62.9137 120.759 62.8981C120.753 62.8826 120.751 62.8662 120.752 62.8499C120.754 62.8336 120.759 62.8177 120.767 62.8031L122.377 59.9385C122.391 59.9125 122.416 59.8921 122.445 59.8808C122.475 59.8694 122.508 59.8679 122.539 59.8764C122.57 59.885 122.596 59.9031 122.614 59.9276C122.632 59.9521 122.639 59.9814 122.635 60.0104H122.636Z" fill="#0A0A0A"/>
<path opacity="0.2" d="M124.834 61.7947C124.832 61.8088 124.828 61.8225 124.821 61.8352L123.575 64.0955C123.567 64.1111 123.557 64.1251 123.543 64.1368C123.529 64.1485 123.513 64.1575 123.496 64.1633C123.478 64.1691 123.46 64.1717 123.441 64.1707C123.422 64.1698 123.404 64.1654 123.387 64.1578C123.371 64.1502 123.356 64.1396 123.344 64.1267C123.332 64.1137 123.323 64.0986 123.317 64.0824C123.312 64.0662 123.31 64.0491 123.312 64.0323C123.315 64.0155 123.321 63.9992 123.33 63.9845L124.576 61.7242C124.59 61.6979 124.614 61.677 124.644 61.6653C124.674 61.6536 124.707 61.6518 124.738 61.6603C124.769 61.6688 124.796 61.687 124.814 61.7116C124.831 61.7363 124.839 61.7658 124.835 61.795L124.834 61.7947Z" fill="#0A0A0A"/>
<path opacity="0.2" d="M126.972 64.2927C126.97 64.3077 126.965 64.3223 126.957 64.3357L126.341 65.39C126.333 65.4051 126.322 65.4186 126.308 65.4296C126.294 65.4406 126.278 65.449 126.26 65.4542C126.242 65.4595 126.224 65.4614 126.206 65.46C126.187 65.4586 126.169 65.4538 126.153 65.446C126.137 65.4381 126.122 65.4274 126.11 65.4144C126.099 65.4014 126.09 65.3864 126.085 65.3702C126.08 65.3541 126.079 65.3373 126.081 65.3206C126.083 65.304 126.089 65.288 126.098 65.2735L126.714 64.2192C126.729 64.1935 126.754 64.1735 126.784 64.1625C126.813 64.1515 126.846 64.1502 126.877 64.1589C126.907 64.1677 126.934 64.1858 126.951 64.2102C126.968 64.2347 126.976 64.2638 126.972 64.2927Z" fill="#0A0A0A"/>
<path d="M112.329 66.2092L100.796 96.2008L82.0527 73.9776L64.5149 87.2632L96.916 118.634C98.0684 119.828 99.5488 120.723 101.207 121.23C102.865 121.736 104.641 121.836 106.355 121.518C108.069 121.2 109.66 120.476 110.965 119.42C112.271 118.364 113.244 117.013 113.787 115.505L129.579 71.3419L112.329 66.2092Z" fill="#367CFF"/>
<path d="M9.97636 130.595C8.36892 130.595 6.78527 130.243 5.36024 129.568C3.93521 128.894 2.71099 127.917 1.79184 126.722C0.872682 125.526 0.285803 124.147 0.0811688 122.701C-0.123465 121.256 0.0602064 119.787 0.616546 118.42C1.18113 117.032 14.471 84.3537 16.9906 78.4656L35.5937 85.0093C34.1772 88.3198 29.0451 100.868 24.9202 110.978L31.771 110.303L33.9278 128.288L11.0559 130.542C10.6974 130.577 10.337 130.595 9.97636 130.595Z" fill="#367CFF"/>
<path d="M21.9326 129.671L18.8903 143.4H77.9807L74.5773 129.41L21.9326 129.671Z" fill="#262626"/>
<path d="M34.709 68.3133C29.7719 68.6462 24.7378 70.0998 21.0306 73.0748C15.4395 77.5621 15.9371 80.3668 18.7282 92.7932C21.1297 103.485 20.1768 108.157 21.7833 127.887C21.8308 128.47 21.9321 129.671 21.9321 129.671L74.7444 129.591C74.7444 129.591 79.6926 103.415 82.4252 91.3413C84.503 82.1627 89.96 71.0203 66.9505 68.7744C66.8899 68.7686 48.4356 67.3897 34.709 68.3133Z" fill="#367CFF"/>
<path d="M66.9504 68.7745C66.8892 68.7673 65.2129 74.4868 52.1312 73.5967C43.0734 72.9817 40.8665 67.3926 40.659 67.3926C41.6355 67.2042 43.2209 67.0089 43.6548 66.7991C45.0808 66.1055 46.1197 65.2588 46.6423 63.4437C47.0515 62.0243 47.2599 56.5604 47.2599 53.819L61.1957 56.658C61.0014 59.7507 59.6418 66.9195 64.4069 68.1886C65.1998 68.3991 66.0538 68.5922 66.9504 68.7745Z" fill="#E98862"/>
<path d="M60.7123 62.7387C55.2185 63.1318 48.1611 61.0286 46.8196 54.383L45.6099 48.3866C44.2696 41.741 47.0326 35.7152 53.9333 34.57C60.8347 33.4255 67.0799 37.9575 68.4206 44.6031L68.9561 47.258C69.4729 49.8088 70.5158 62.0376 60.7123 62.7387Z" fill="#E98862"/>
<path d="M65.8075 56.6372C64.8212 52.1448 64.3693 49.1462 64.4216 45.9853C65.8106 43.7763 65.4455 41.2411 65.1297 40.1454C66.4911 40.8188 67.0603 40.8923 68.3428 40.8923C68.3428 40.8923 66.0456 32.5338 58.2378 30.2846C56.8023 29.778 53.1367 29.1382 48.2694 29.7433C44.1294 30.2582 33.9247 33.0645 32.4669 43.4809V43.4867C32.4186 43.8321 31.4387 53.4294 29.4855 58.0338C26.8593 64.2239 23.1726 66.1474 23.2662 73.289C23.3865 82.4757 42.014 83.6987 53.2493 83.0114C64.4846 82.3242 70.7565 78.9746 70.8379 72.354C70.927 64.9363 67.7809 65.6252 65.8075 56.6372Z" fill="#0A0A0A"/>
<path d="M65.8106 52.8715C63.7135 53.2191 61.603 51.4668 61.2205 49.5652C60.838 47.6636 62.3255 46.3333 64.4229 45.9862L65.8106 52.8715Z" fill="#E98862"/>
<path d="M79.9817 103.418C79.9733 103.418 79.965 103.417 79.9569 103.415C79.9397 103.413 79.9233 103.407 79.9087 103.398C79.8941 103.389 79.8815 103.378 79.8716 103.365C79.8617 103.352 79.8548 103.337 79.8512 103.322C79.8476 103.306 79.8475 103.29 79.8507 103.275L82.0652 90.6975C82.0731 90.6672 82.0935 90.6408 82.1223 90.6238C82.151 90.6068 82.1859 90.6006 82.2197 90.6064C82.2534 90.6122 82.2834 90.6296 82.3033 90.6549C82.3232 90.6803 82.3316 90.7116 82.3266 90.7424L80.1129 103.319C80.1073 103.347 80.091 103.372 80.067 103.39C80.043 103.408 80.0128 103.418 79.9817 103.418Z" fill="#0C0C0C"/>
<path d="M21.9326 129.792C21.8982 129.792 21.8652 129.779 21.8404 129.758C21.8157 129.736 21.8011 129.707 21.7998 129.676L20.1449 90.7246C20.1435 90.6927 20.1561 90.6615 20.1801 90.638C20.204 90.6145 20.2372 90.6005 20.2725 90.5992C20.3073 90.5995 20.3408 90.6115 20.3663 90.633C20.3918 90.6544 20.4076 90.6838 20.4105 90.7152L22.0657 129.666C22.067 129.698 22.0543 129.729 22.0303 129.753C22.0063 129.776 21.9731 129.79 21.9378 129.792H21.9326Z" fill="#0C0C0C"/>
</svg>
