<svg width="221" height="125" viewBox="0 0 221 125" fill="none" xmlns="http://www.w3.org/2000/svg">
<g clip-path="url(#clip0_232_3173)">
<path d="M221 125H0C2.42161 118.843 6.89353 113.62 13.1977 112.07C22.4195 109.806 32.1789 116.03 41.3809 113.69C46.6085 112.362 50.7241 108.491 55.0486 105.277C71.3638 93.1486 93.7218 89.564 113.028 95.9834C123.119 99.3374 132.315 105.202 142.653 107.697C156.02 110.922 169.999 108.247 183.745 107.807C197.133 107.377 216.315 112.816 221 125Z" fill="#F3F5FD"/>
<path d="M193.629 94.009C192.563 97.2277 188.885 100.088 189.983 102.455C190.401 103.355 190.821 104.296 191.014 105.257C191.139 105.83 191.16 106.421 191.076 107.002C190.68 109.509 188.327 111.174 186.139 112.47C186.004 112.55 185.868 112.631 185.731 112.712C183.659 113.951 181.487 115.377 180.821 117.663C180.452 118.933 180.615 120.29 180.462 121.604C180.317 122.81 179.906 123.97 179.258 125H165.287C164.047 123.637 164.15 121.346 165.094 119.739C166.104 118.02 167.812 116.851 169.352 115.579C170.682 114.48 171.979 113.157 172.487 111.544C172.567 111.288 172.627 111.027 172.665 110.762C172.788 109.889 172.721 105.428 174.24 102.683C176.587 98.443 180.395 99.4871 181.559 97.0949C182.005 96.1786 182.39 84.9186 189.807 86.9988C190.53 87.1916 191.207 87.5292 191.795 87.9911C192.383 88.453 192.871 89.0294 193.228 89.6853C193.586 90.3412 193.806 91.0627 193.875 91.8061C193.943 92.5494 193.86 93.2989 193.629 94.009Z" fill="#DEE8F5"/>
<path d="M207.196 111.615C206.983 111.761 206.754 111.883 206.514 111.977C204.512 112.726 198.947 112.643 198.132 114.613C197.749 115.539 197.658 116.562 197.33 117.51C196.586 119.66 194.621 121.271 192.423 121.878C191.632 122.095 190.814 122.196 190.031 122.439C188.519 122.908 187.267 123.853 186.166 125H168.123C168.115 123.807 168.41 122.631 168.979 121.582C169.548 120.533 170.374 119.644 171.38 118.997C173.386 117.736 175.92 117.5 177.89 116.182C179.189 115.312 180.123 114.055 180.864 112.666C181.335 111.757 181.751 110.821 182.11 109.862C182.661 108.436 183.237 106.906 184.489 106.023C185.086 105.603 185.792 105.367 186.499 105.183C188.307 104.711 189.698 104.989 191.014 105.258C192.613 105.583 194.105 105.894 196.108 104.833C199.66 102.951 204.855 93.5633 210.046 102.483C212.128 106.059 209.256 110.241 207.196 111.615Z" fill="#8DDBE0"/>
<path d="M27.9329 94.009C28.9985 97.2277 32.6764 100.088 31.5781 102.455C31.1602 103.355 30.7406 104.296 30.5475 105.257C30.4221 105.83 30.4013 106.421 30.4859 107.002C30.8822 109.509 33.2348 111.174 35.4224 112.47C35.5573 112.55 35.6938 112.631 35.8303 112.712C37.9032 113.951 40.0742 115.377 40.7403 117.663C41.1099 118.933 40.9467 120.29 41.0999 121.604C41.2451 122.81 41.6562 123.97 42.3036 125H56.2742C57.5145 123.637 57.4113 121.346 56.4672 119.739C55.4573 118.02 53.75 116.851 52.2101 115.579C50.8796 114.48 49.5827 113.157 49.0749 111.544C48.9942 111.288 48.9347 111.027 48.8969 110.762C48.7736 109.889 48.8402 105.428 47.3219 102.683C44.9732 98.443 41.1659 99.4871 40.0024 97.0949C39.5562 96.1786 39.1716 84.9186 31.7543 86.9988C31.0311 87.1916 30.3547 87.5293 29.7666 87.9911C29.1784 88.453 28.6907 89.0294 28.3331 89.6853C27.9756 90.3412 27.7557 91.0628 27.6869 91.8061C27.6181 92.5494 27.7018 93.2989 27.9329 94.009Z" fill="#DEE8F5"/>
<path d="M14.3654 111.615C14.5784 111.761 14.8074 111.883 15.048 111.977C17.0493 112.726 22.6152 112.643 23.4293 114.613C23.8123 115.539 23.9038 116.562 24.2319 117.51C24.9761 119.66 26.9407 121.271 29.1384 121.878C29.9293 122.095 30.748 122.196 31.531 122.439C33.0427 122.908 34.2947 123.853 35.3952 125H53.4381C53.4461 123.807 53.1518 122.631 52.5825 121.582C52.0132 120.533 51.1874 119.644 50.1816 118.997C48.1753 117.736 45.6412 117.5 43.6717 116.182C42.373 115.312 41.439 114.055 40.6981 112.666C40.2268 111.757 39.8105 110.821 39.4515 109.862C38.9004 108.436 38.3243 106.906 37.0723 106.023C36.4763 105.603 35.7703 105.367 35.0627 105.183C33.2546 104.711 31.8644 104.989 30.5474 105.258C28.9485 105.583 27.4573 105.893 25.4533 104.832C21.9002 102.95 16.7056 93.5623 11.5144 102.482C9.4338 106.059 12.3059 110.241 14.3654 111.615Z" fill="#8DDBE0"/>
<path d="M169.965 25.6288C168.751 25.236 167.443 25.236 166.229 25.6288C165.531 25.861 164.908 26.2748 164.424 26.8274C163.807 27.5566 163.351 28.5664 163.397 29.5336C163.429 30.0339 163.587 30.518 163.858 30.9405C164.129 31.363 164.503 31.71 164.945 31.9491C165.728 32.3494 166.906 32.4324 167.592 31.7918C168.114 31.304 168.088 30.4662 167.75 29.8849C167.212 28.9558 166.035 28.5781 165.013 28.7074C164.431 28.7907 163.871 28.9899 163.367 29.2931C162.863 29.5964 162.426 29.9975 162.08 30.4727C161.755 30.9223 161.518 31.4302 161.385 31.9688C161.261 32.4686 161.21 33.042 161.407 33.5306C161.443 33.6459 161.521 33.7433 161.626 33.8029C161.732 33.8625 161.856 33.8797 161.973 33.8511C162.192 33.7912 162.388 33.5181 162.294 33.2868C162.238 33.1566 162.205 33.017 162.2 32.875C162.191 32.6998 162.205 32.5243 162.241 32.3525C162.323 31.9556 162.472 31.5755 162.681 31.2284C163.105 30.5367 163.761 30.0165 164.532 29.7596C165.269 29.5137 166.14 29.5161 166.732 30.0734C166.842 30.1723 166.932 30.2914 166.997 30.4242C167.006 30.4392 167.032 30.5064 167.001 30.4272C167.015 30.4631 167.028 30.4997 167.039 30.5373C167.046 30.5606 167.052 30.5845 167.057 30.6078C167.065 30.6393 167.076 30.7866 167.069 30.6524C167.071 30.689 167.103 30.9054 167.068 30.9261C167.058 30.9323 167.095 30.7957 167.074 30.8759C167.071 30.8899 167.07 30.9047 167.066 30.9184C167.058 30.9574 167.047 30.9958 167.034 31.0334C166.975 31.129 166.886 31.2027 166.781 31.2435C166.848 31.212 166.711 31.2675 166.712 31.2672C166.684 31.2759 166.655 31.283 166.626 31.2899C166.542 31.312 166.455 31.3253 166.368 31.3295C166.219 31.34 166.068 31.3361 165.919 31.3177C165.759 31.2894 165.604 31.243 165.455 31.1793C165.129 31.0212 164.851 30.7789 164.651 30.4776C164.45 30.1762 164.335 29.8269 164.315 29.4659C164.324 29.0553 164.417 28.6509 164.588 28.2772C164.656 28.1256 164.734 27.9785 164.821 27.8367C164.896 27.7101 164.982 27.5894 165.076 27.4756C165.171 27.3626 165.274 27.2559 165.383 27.1559C165.436 27.1072 165.491 27.0603 165.547 27.0151C165.656 26.9267 165.477 27.0643 165.59 26.9827C165.624 26.9578 165.659 26.9334 165.694 26.9097C165.815 26.8276 165.942 26.7529 166.072 26.6859C166.14 26.6512 166.209 26.6186 166.278 26.5876C166.292 26.581 166.359 26.5543 166.282 26.5856C166.326 26.5676 166.371 26.5504 166.416 26.5338C166.716 26.4269 167.027 26.3493 167.342 26.3024C167.474 26.2814 167.246 26.311 167.379 26.2978C167.419 26.2939 167.458 26.289 167.498 26.2852C167.577 26.2778 167.656 26.272 167.735 26.2679C167.89 26.2597 168.046 26.2577 168.201 26.2619C168.352 26.2657 168.501 26.2749 168.651 26.2896C168.683 26.2929 168.906 26.3211 168.779 26.3028C168.849 26.3128 168.918 26.3231 168.986 26.3351C169.235 26.3773 169.479 26.4366 169.719 26.5126C170.285 26.6927 170.527 25.8071 169.964 25.6277L169.965 25.6288Z" fill="#0CBC8B"/>
<path d="M82.0811 8.79834C83.2551 8.37763 84.4797 9.22834 85.032 10.2701C85.5756 11.2968 85.4489 12.7635 84.385 13.4204C83.9329 13.6995 83.2998 13.7931 82.9054 13.4348C82.4942 13.0612 82.5193 12.5956 82.9258 12.2219C83.021 12.1369 83.1247 12.0618 83.2352 11.9979C83.2996 11.9592 83.3654 11.9225 83.4326 11.8889C83.4573 11.8766 83.4822 11.8648 83.5071 11.8532C83.5753 11.8217 83.4079 11.8889 83.5316 11.8429C83.631 11.8055 83.7326 11.774 83.8358 11.7485C83.8847 11.7368 83.9341 11.7263 83.9838 11.7171C84.0126 11.7117 84.0413 11.707 84.07 11.7024C83.9753 11.7174 84.1158 11.6982 84.1229 11.6976C84.3567 11.6761 84.5921 11.68 84.8251 11.7092C84.903 11.7189 84.7629 11.6991 84.8409 11.712C84.8715 11.7172 84.9022 11.7223 84.9327 11.7278C84.9864 11.7376 85.0398 11.7488 85.093 11.7613C85.223 11.7917 85.3512 11.8291 85.4771 11.8735C85.5129 11.886 85.6212 11.9274 85.6206 11.9271C85.5822 11.9114 85.6534 11.9419 85.6521 11.9414C85.6808 11.9545 85.7096 11.9679 85.738 11.9817C85.8588 12.0402 85.9761 12.1057 86.0892 12.1779C86.2831 12.3 86.4584 12.4491 86.61 12.6206C86.7589 12.7873 86.8824 12.975 86.9764 13.1776C86.995 13.2149 87.0108 13.2536 87.0237 13.2932C87.0518 13.3707 87.0766 13.4495 87.0993 13.5292C87.1496 13.7002 87.1873 13.8745 87.2121 14.051C87.2926 14.6997 87.1888 15.358 86.9127 15.9509C86.6365 16.5438 86.199 17.0475 85.6499 17.4047C85.4309 17.5413 85.1823 17.6238 84.9249 17.6455C84.6675 17.6671 84.4086 17.6273 84.1697 17.5293C84.1036 17.4975 84.04 17.4607 83.9794 17.4192C83.9068 17.3707 84.0135 17.4532 83.9717 17.4143C83.9608 17.4042 83.9496 17.3945 83.9392 17.3838C83.9255 17.3695 83.9131 17.3545 83.9 17.3401C84.02 17.4722 83.9139 17.3646 83.9214 17.3613C83.911 17.3448 83.9016 17.3276 83.8933 17.31C83.919 17.3498 83.9133 17.3896 83.9013 17.3232C83.8983 17.3075 83.8724 17.1739 83.8808 17.2491C83.8885 17.3198 83.8825 17.2044 83.8821 17.1816C83.8816 17.1588 83.8852 17.1369 83.8859 17.1144C83.8859 17.1319 83.8627 17.214 83.884 17.1327C83.8982 17.0787 83.9084 17.0248 83.9258 16.9714C83.9346 16.9445 83.9816 16.8374 83.9452 16.9148C83.9694 16.8634 83.9957 16.8131 84.0241 16.764C84.0545 16.7118 84.0872 16.6613 84.1229 16.6121C84.1265 16.6069 84.1742 16.5454 84.1386 16.5908C84.1593 16.5649 84.1811 16.5397 84.203 16.515C84.3935 16.3017 84.6162 16.1194 84.8629 15.9744C84.9388 15.9288 85.016 15.8849 85.0951 15.8451C85.1217 15.8315 85.2456 15.779 85.1446 15.8186C85.2415 15.7805 85.3406 15.748 85.4413 15.7214C85.6449 15.6606 85.8568 15.6318 86.0693 15.636C86.1894 15.6341 86.3095 15.6386 86.4291 15.6493C86.4696 15.6502 86.5098 15.6555 86.549 15.6651C86.6218 15.6784 86.6942 15.6934 86.766 15.7123C87.0055 15.7667 87.2311 15.8698 87.4288 16.015C87.7933 16.309 88.0499 16.715 88.1588 17.1697C88.2823 17.6434 88.2936 18.1394 88.1918 18.6182C88.0968 19.0919 87.8886 19.5357 87.585 19.912C87.4311 20.0984 87.2499 20.2606 87.0475 20.3933C86.5533 20.7147 87.0141 21.5104 87.5121 21.1858C88.6524 20.444 89.2637 19.0526 89.1738 17.7117C89.1414 17.0314 88.9119 16.3751 88.513 15.8222C88.0826 15.2571 87.449 14.8807 86.7457 14.7723C85.4186 14.5554 83.9999 15.0826 83.2651 16.2441C82.9742 16.7035 82.83 17.3317 83.1271 17.8246C83.5043 18.45 84.4151 18.627 85.0859 18.5446C85.9111 18.4438 86.5904 17.9467 87.1074 17.3157C87.6814 16.6423 88.0414 15.8138 88.1416 14.9357C88.2316 14.1185 88.0756 13.2932 87.6934 12.5648C87.3719 12.008 86.8988 11.5536 86.3288 11.254C85.238 10.6695 83.827 10.557 82.7449 11.22C82.0371 11.6538 81.4825 12.4188 81.7481 13.2796C81.874 13.6669 82.1219 14.0034 82.455 14.239C82.7881 14.4746 83.1886 14.5966 83.5969 14.587C85.3485 14.5574 86.452 12.7305 86.248 11.1256C86.0357 9.46104 84.67 7.96982 82.9695 7.78133C82.5866 7.73902 82.1992 7.78383 81.8362 7.91239C81.7202 7.9474 81.6221 8.02553 81.5623 8.1306C81.5025 8.23568 81.4854 8.35966 81.5147 8.47691C81.5481 8.59368 81.6262 8.6927 81.7321 8.75264C81.838 8.81259 81.9633 8.82866 82.0809 8.7974L82.0811 8.79834Z" fill="#0CBC8B"/>
<path d="M133.218 21.0696C134.559 20.9439 135.819 20.3761 136.8 19.4561C137.364 18.9081 137.757 18.2094 137.931 17.4441C138.149 16.4982 138.063 15.3756 137.519 14.5523C137.266 14.1848 136.932 13.8793 136.543 13.6586C136.154 13.4379 135.72 13.3077 135.274 13.2779C134.421 13.2418 133.331 13.6188 132.965 14.4568C132.672 15.127 133.034 15.9223 133.614 16.3122C134.534 16.9307 135.733 16.788 136.644 16.2307C137.139 15.9126 137.564 15.4981 137.894 15.0122C138.225 14.5263 138.453 13.9789 138.566 13.4028C138.765 12.3836 138.645 11.1191 137.872 10.3558C137.695 10.1812 137.367 10.2529 137.225 10.4317C137.152 10.5283 137.119 10.6493 137.134 10.7694C137.148 10.8895 137.208 10.9996 137.301 11.0767C137.232 11.0086 137.334 11.1178 137.338 11.124C137.358 11.1487 137.376 11.1741 137.394 11.1999C137.429 11.2465 137.458 11.2967 137.482 11.3496C137.557 11.5107 137.614 11.6795 137.652 11.853C137.728 12.2218 137.744 12.6001 137.701 12.9739C137.602 13.7897 137.215 14.5437 136.608 15.1003C136.036 15.6195 135.255 15.971 134.487 15.7287C134.332 15.6856 134.189 15.6093 134.067 15.5051C134.044 15.4856 134.021 15.4653 133.998 15.4442C134.069 15.5117 133.976 15.4171 133.968 15.4074C133.951 15.3864 133.935 15.3654 133.92 15.3445C133.904 15.3224 133.824 15.1808 133.883 15.2973C133.843 15.2186 133.826 15.1177 133.782 15.0435C133.785 15.0477 133.795 15.1509 133.787 15.0568C133.779 15.0094 133.777 14.9611 133.781 14.9132C133.804 14.7614 133.773 14.9281 133.8 14.8468C133.803 14.8358 133.85 14.739 133.822 14.788C133.845 14.7525 133.87 14.7184 133.897 14.686C133.908 14.6717 133.98 14.5951 133.925 14.6479C134.038 14.5452 134.165 14.4592 134.303 14.3927C134.579 14.2446 134.89 14.174 135.204 14.1882C135.139 14.1858 135.239 14.1925 135.254 14.1942C135.294 14.1987 135.334 14.2022 135.374 14.208C135.454 14.2192 135.533 14.2349 135.612 14.2552C135.558 14.2409 135.635 14.2626 135.64 14.264C135.688 14.2798 135.735 14.2955 135.78 14.3145C135.866 14.3492 135.951 14.3882 136.033 14.4314C136.329 14.5921 136.584 14.8198 136.777 15.0963C137.191 15.7257 137.181 16.6085 137.021 17.306C137.001 17.3904 136.989 17.4318 136.976 17.4751C136.952 17.5506 136.925 17.6252 136.896 17.6988C136.839 17.842 136.773 17.9813 136.698 18.1159C136.626 18.2452 136.745 18.0451 136.666 18.1696C136.65 18.1949 136.634 18.2201 136.617 18.2451C136.576 18.3071 136.533 18.3678 136.488 18.4273C136.39 18.5564 136.284 18.6794 136.17 18.7953C136.15 18.8162 136.129 18.837 136.108 18.8573C136.177 18.7902 136.067 18.8939 136.053 18.9064C135.993 18.9595 135.932 19.0111 135.87 19.061C135.735 19.169 135.594 19.2696 135.447 19.3623C135.381 19.4046 135.313 19.4441 135.246 19.4843C135.226 19.496 135.143 19.542 135.224 19.4978C135.187 19.5181 135.149 19.5376 135.112 19.5569C134.963 19.6327 134.812 19.702 134.658 19.7649C134.385 19.8749 134.105 19.9669 133.82 20.0403C133.795 20.0469 133.711 20.0653 133.811 20.0428C133.776 20.0507 133.741 20.0585 133.706 20.0661C133.638 20.0805 133.57 20.0936 133.501 20.1056C133.375 20.1276 133.248 20.1448 133.12 20.1573C132.529 20.2157 132.627 21.1284 133.216 21.0699L133.218 21.0696Z" fill="#0CBC8B"/>
<path d="M95.1825 -0.000454473L93.7224 0.935547L95.9458 4.38326L97.4058 3.44726L95.1825 -0.000454473Z" fill="#0CBC8B"/>
<path d="M124.03 30.1473L121.519 33.9272L122.966 34.8829L125.477 31.1029L124.03 30.1473Z" fill="#0CBC8B"/>
<path d="M42.7411 11.0768L40.5405 14.4355L41.9938 15.382L44.1943 12.0233L42.7411 11.0768Z" fill="#0CBC8B"/>
<path d="M180.734 45.6062L179.049 46.021L180.126 50.3716L181.811 49.9568L180.734 45.6062Z" fill="#0CBC8B"/>
<path d="M184.209 11.0596L182.78 12.0417L185.428 15.8724L186.857 14.8903L184.209 11.0596Z" fill="#0CBC8B"/>
<path d="M57.1835 28.2961L53.9384 32.127L55.2645 33.2437L58.5096 29.4128L57.1835 28.2961Z" fill="#0CBC8B"/>
<path d="M83.8258 56.0044L80.6897 59.2144L81.9331 60.422L85.0692 57.212L83.8258 56.0044Z" fill="#0CBC8B"/>
<path d="M151.399 51.9092L149.939 52.8452L152.163 56.2929L153.623 55.3569L151.399 51.9092Z" fill="#0CBC8B"/>
<path d="M191.284 28.3166C191.642 26.0046 190.932 24.4379 189.802 23.4707C188.686 22.5168 184.933 21.2868 183.065 23.8988C181.846 25.6032 182.127 26.3157 181.431 29.2262C180.735 32.1367 179.653 32.2971 178.086 35.7208C176.855 38.4064 181.259 40.559 185.279 41.0055C189.298 41.4521 191.962 40.9335 192.561 38.43C193.419 34.8374 190.58 32.8474 191.284 28.3166Z" fill="#0F1011"/>
<path d="M187.974 34.3757C187.974 34.3757 186.866 33.5535 187.64 30.3202L185.219 29.478C185.219 29.478 185.047 32.4567 183.643 33.1958L187.974 34.3757Z" fill="#E98862"/>
<g opacity="0.15">
<path d="M184.248 32.6603L186.562 31.3983L184.938 31.1326C184.806 31.6802 184.572 32.1983 184.248 32.6603Z" fill="black"/>
</g>
<path d="M189.25 29.267C188.924 30.2341 188.235 31.0921 187.307 31.2779C186.291 31.5103 185.233 31.4913 184.225 31.2225C181.531 30.5818 183.023 24.4799 184.504 23.477C185.984 22.4742 189.668 23.8167 189.821 25.8967C189.9 26.9724 189.559 28.3466 189.25 29.267Z" fill="#E98862"/>
<path d="M185.5 27.9069C185.626 27.9069 185.729 27.8048 185.729 27.6789C185.729 27.553 185.626 27.4509 185.5 27.4509C185.374 27.4509 185.271 27.553 185.271 27.6789C185.271 27.8048 185.374 27.9069 185.5 27.9069Z" fill="#0F1011"/>
<path d="M183.739 27.4879C183.866 27.4879 183.968 27.3859 183.968 27.26C183.968 27.1341 183.866 27.032 183.739 27.032C183.613 27.032 183.511 27.1341 183.511 27.26C183.511 27.3859 183.613 27.4879 183.739 27.4879Z" fill="#0F1011"/>
<path d="M184.038 26.8053C184.033 26.8054 184.028 26.805 184.022 26.8042L183.423 26.7201C183.408 26.7185 183.394 26.7142 183.382 26.7072C183.369 26.7002 183.358 26.6908 183.349 26.6795C183.34 26.6681 183.334 26.6551 183.33 26.6412C183.326 26.6274 183.325 26.6129 183.327 26.5986C183.329 26.5844 183.334 26.5707 183.342 26.5583C183.349 26.546 183.359 26.5353 183.371 26.5268C183.382 26.5184 183.396 26.5124 183.41 26.5091C183.424 26.5059 183.438 26.5055 183.452 26.508L184.052 26.5921C184.079 26.596 184.103 26.6098 184.12 26.6309C184.137 26.6519 184.146 26.6786 184.144 26.7056C184.142 26.7326 184.13 26.7578 184.11 26.7763C184.09 26.7948 184.064 26.8052 184.037 26.8053H184.038Z" fill="#0F1011"/>
<path d="M186.067 27.3464C186.053 27.3464 186.039 27.3437 186.026 27.3384L185.458 27.1065C185.445 27.1014 185.433 27.0937 185.422 27.0838C185.412 27.0739 185.403 27.0621 185.398 27.049C185.392 27.0358 185.389 27.0217 185.389 27.0074C185.389 26.9931 185.392 26.9789 185.397 26.9657C185.402 26.9525 185.41 26.9405 185.421 26.9304C185.431 26.9203 185.443 26.9123 185.456 26.907C185.469 26.9016 185.484 26.899 185.498 26.8992C185.512 26.8994 185.526 26.9025 185.54 26.9082L186.108 27.1403C186.131 27.1496 186.15 27.1667 186.162 27.1886C186.174 27.2104 186.177 27.2357 186.173 27.2601C186.168 27.2845 186.155 27.3064 186.135 27.3222C186.116 27.3379 186.092 27.3465 186.067 27.3464Z" fill="#0F1011"/>
<path d="M185.122 29.4372C185.122 29.4372 184.274 29.3973 183.721 29.104C183.721 29.104 183.641 29.6526 184.293 29.8076C184.945 29.9626 185.122 29.4372 185.122 29.4372Z" fill="white"/>
<path d="M187.81 26.4119C187.286 28.715 187.181 31.0934 187.5 33.4336C187.5 33.4336 189.907 30.4573 190.624 27.7806C191.295 25.2714 189.641 23.476 188.411 22.9976C183.735 21.1766 182.89 24.6472 182.89 24.6472C183.029 25.8927 188.204 27.3968 188.204 27.3968" fill="#0F1011"/>
<path d="M186.492 28.8247C186.46 28.9487 186.454 29.0777 186.473 29.2042C186.492 29.3306 186.537 29.452 186.603 29.5613C186.67 29.6707 186.757 29.7657 186.861 29.8411C186.965 29.9164 187.082 29.9704 187.207 30.0001C187.332 30.0298 187.461 30.0344 187.588 30.0139C187.714 29.9933 187.835 29.9479 187.944 29.8803C188.053 29.8127 188.148 29.7242 188.222 29.62C188.296 29.5157 188.349 29.3978 188.377 29.2731C188.409 29.1496 188.416 29.0209 188.396 28.8948C188.377 28.7688 188.333 28.6478 188.266 28.5391C188.199 28.4305 188.111 28.3364 188.006 28.2625C187.902 28.1886 187.784 28.1363 187.659 28.1088C186.98 27.982 186.615 28.3055 186.492 28.8247Z" fill="#E98862"/>
<g opacity="0.15">
<path d="M184.316 28.7765C184.304 28.7765 184.292 28.7738 184.282 28.7686L183.763 28.5188C183.753 28.5139 183.744 28.5069 183.737 28.4984C183.73 28.4898 183.725 28.4798 183.722 28.4691C183.719 28.4584 183.718 28.4472 183.72 28.4362C183.722 28.4252 183.726 28.4147 183.732 28.4053L184.212 27.6659C184.223 27.6483 184.241 27.636 184.261 27.6316C184.282 27.6273 184.303 27.6312 184.321 27.6425C184.338 27.6538 184.351 27.6716 184.355 27.692C184.36 27.7125 184.356 27.7338 184.344 27.7513L183.913 28.416L184.351 28.6272C184.367 28.6349 184.38 28.6479 184.387 28.664C184.395 28.68 184.397 28.6982 184.393 28.7156C184.389 28.7329 184.379 28.7484 184.365 28.7595C184.352 28.7706 184.334 28.7766 184.316 28.7766L184.316 28.7765Z" fill="black"/>
</g>
<path d="M207.159 69.5785L193.761 72.013C193.364 72.0852 192.955 72.0433 192.581 71.8922C192.207 71.7411 191.884 71.4871 191.65 71.1597L191.549 71.0181L185.625 62.7285L190.912 59.6858L194.603 67.752L206.669 66.3112L207.159 69.5785Z" fill="#E98862"/>
<path d="M209.642 73.2266C209.663 73.313 209.666 73.4028 209.65 73.4903C209.635 73.5778 209.601 73.6612 209.552 73.7353C209.503 73.8094 209.439 73.8726 209.364 73.9209C209.29 73.9692 209.206 74.0016 209.118 74.0162C208.996 74.0362 208.871 74.0211 208.757 73.9727C208.644 73.9243 208.546 73.8445 208.477 73.7429L206.299 70.3172C206.257 70.2508 206.23 70.1761 206.22 70.0983C206.209 70.0205 206.216 69.9414 206.239 69.8664C206.47 69.2653 206.501 68.6064 206.327 67.9865C206.172 67.5085 205.886 67.0837 205.5 66.7603C205.463 66.7327 205.435 66.6951 205.419 66.652C205.402 66.6088 205.398 66.5619 205.408 66.5166C205.417 66.4714 205.439 66.4298 205.471 66.3966C205.503 66.3633 205.544 66.3399 205.589 66.3291L207.42 65.8789C207.474 65.8657 207.531 65.8632 207.586 65.8716C207.641 65.88 207.693 65.8991 207.741 65.9279C207.788 65.9567 207.83 65.9946 207.863 66.0394C207.896 66.0842 207.919 66.135 207.932 66.1889L209.642 73.2266Z" fill="#C1D8ED"/>
<path d="M178.063 73.3774L182.918 92.0433L179.738 92.9743L173.702 74.6723L178.063 73.3774Z" fill="#E98862"/>
<path d="M176.297 95.691C176.212 95.7197 176.123 95.7307 176.034 95.7233C175.945 95.7159 175.858 95.6903 175.78 95.6481C175.701 95.6059 175.633 95.5479 175.578 95.4779C175.523 95.4079 175.483 95.3273 175.46 95.2412C175.429 95.122 175.433 94.9965 175.471 94.8795C175.509 94.7624 175.58 94.6586 175.676 94.5804L178.902 92.1102C178.965 92.0626 179.037 92.0291 179.114 92.0119C179.191 91.9947 179.27 91.9943 179.347 92.0106C179.968 92.1856 180.629 92.1571 181.233 91.9294C181.697 91.7328 182.095 91.4102 182.384 90.9985C182.408 90.9592 182.443 90.9276 182.485 90.9074C182.526 90.8872 182.573 90.8792 182.619 90.8843C182.665 90.8895 182.708 90.9076 182.744 90.9365C182.78 90.9655 182.808 91.004 182.822 91.0477L183.436 92.8256C183.454 92.8781 183.462 92.9336 183.459 92.9889C183.455 93.0443 183.441 93.0985 183.416 93.1483C183.392 93.1981 183.358 93.2426 183.316 93.2792C183.274 93.3158 183.225 93.3438 183.173 93.3617L176.297 95.691Z" fill="#C1D8ED"/>
<path d="M176.771 49.345C176.771 49.345 172.602 62.7351 171.463 66.5574C168.885 75.2036 173.702 81.6592 173.702 81.6592C173.702 81.6592 180.22 82.586 183.46 78.2809C189.454 70.3183 197.124 75.8601 197.453 67.0348C193.09 66.2139 188.196 50.4414 188.196 50.4414L176.771 49.345Z" fill="#262626"/>
<path d="M32.9962 35.6716C32.9962 35.6716 34.183 34.9675 33.7475 31.672L36.2425 31.0828C36.2425 31.0828 36.1062 34.0633 37.426 34.9427L32.9962 35.6716Z" fill="#E98862"/>
<g opacity="0.15">
<path d="M36.8803 34.3476L34.7096 32.8548L36.3517 32.7571C36.4269 33.3155 36.6062 33.8549 36.8803 34.3476Z" fill="black"/>
</g>
<path d="M32.2558 30.4589C32.4797 31.4542 33.0763 32.3784 33.9802 32.6586C35.0533 32.9917 35.8358 32.9794 37.0515 32.9198C38.7103 32.8383 38.5703 31.1161 38.531 29.3755C38.4916 27.628 38.2599 25.7629 37.5743 25.1869C36.2057 24.0373 32.4027 24.9947 32.0355 27.0479C31.846 28.1097 32.0426 29.5114 32.2558 30.4589Z" fill="#E98862"/>
<path d="M39.2608 26.1154C39.2608 26.1154 39.9328 25.9309 39.7133 25.2646C39.5679 24.8226 38.9972 24.9499 38.9972 24.9499C38.9972 24.9499 39.5373 24.824 39.5138 24.3493C39.4991 24.0504 39.2438 23.5553 38.5631 23.8789C37.7644 24.2586 36.8323 24.2606 36.1194 24.1767C35.715 24.1091 35.3061 24.0719 34.8961 24.0654H34.894C34.4238 24.0802 33.9586 24.1656 33.5139 24.3188C32.2685 24.7579 30.4114 25.9819 30.9446 28.5238C31.5397 31.3607 32.9393 32.3881 33.5483 32.7089C33.5844 32.7282 33.6244 32.7391 33.6653 32.7407C33.7062 32.7424 33.7469 32.7347 33.7844 32.7184C33.8219 32.702 33.8552 32.6773 33.8817 32.6462C33.9083 32.6152 33.9274 32.5785 33.9376 32.5389C34.0796 31.9949 34.3021 30.6324 34.0836 27.8562C37.9596 27.4754 39.0746 27.3629 39.0746 27.3629C39.0746 27.3629 39.991 27.3521 39.9583 26.6864C39.9257 26.0207 39.2608 26.1154 39.2608 26.1154Z" fill="#0F1011"/>
<path d="M36.1494 29.4923C36.2757 29.4923 36.3781 29.3903 36.3781 29.2644C36.3781 29.1384 36.2757 29.0364 36.1494 29.0364C36.0231 29.0364 35.9208 29.1384 35.9208 29.2644C35.9208 29.3903 36.0231 29.4923 36.1494 29.4923Z" fill="#0F1011"/>
<path d="M37.9439 29.2567C38.0701 29.2567 38.1725 29.1547 38.1725 29.0288C38.1725 28.9029 38.0701 28.8008 37.9439 28.8008C37.8176 28.8008 37.7152 28.9029 37.7152 29.0288C37.7152 29.1547 37.8176 29.2567 37.9439 29.2567Z" fill="#0F1011"/>
<path d="M37.7049 28.5462C37.6771 28.5457 37.6505 28.5345 37.6307 28.5149C37.611 28.4953 37.5997 28.4688 37.5991 28.441C37.5986 28.4132 37.609 28.3863 37.628 28.366C37.647 28.3457 37.6732 28.3335 37.701 28.332L38.3063 28.3099C38.3346 28.3091 38.362 28.3195 38.3827 28.3389C38.4033 28.3582 38.4154 28.3848 38.4165 28.413C38.4175 28.4412 38.4074 28.4687 38.3882 28.4895C38.3691 28.5102 38.3425 28.5226 38.3142 28.524L37.7089 28.5462H37.7049Z" fill="#0F1011"/>
<path d="M35.6314 28.8761C35.6056 28.876 35.5807 28.8667 35.5612 28.8498C35.5418 28.8329 35.529 28.8096 35.5254 28.7842C35.5217 28.7587 35.5274 28.7328 35.5413 28.7111C35.5552 28.6895 35.5765 28.6735 35.6013 28.6662L36.1908 28.4932C36.2179 28.4859 36.2468 28.4895 36.2713 28.5032C36.2958 28.517 36.314 28.5397 36.3219 28.5666C36.3297 28.5935 36.3267 28.6224 36.3135 28.6471C36.3003 28.6718 36.2779 28.6904 36.2511 28.6988L35.6617 28.8711C35.6519 28.8742 35.6417 28.8759 35.6314 28.8761Z" fill="#0F1011"/>
<path d="M34.9889 29.8799C35.0075 30.0067 35.0007 30.1359 34.9688 30.26C34.9369 30.3842 34.8805 30.5007 34.803 30.6029C34.7255 30.7051 34.6284 30.791 34.5174 30.8554C34.4063 30.9199 34.2835 30.9616 34.156 30.9783C34.0286 30.995 33.8992 30.9863 33.7752 30.9526C33.6512 30.919 33.5351 30.8611 33.4338 30.7823C33.3324 30.7035 33.2478 30.6054 33.1848 30.4937C33.1218 30.382 33.0817 30.2589 33.0669 30.1317C33.0481 30.0055 33.0549 29.8769 33.087 29.7534C33.119 29.63 33.1757 29.5142 33.2535 29.413C33.3314 29.3118 33.4288 29.2273 33.5401 29.1644C33.6514 29.1016 33.7743 29.0617 33.9014 29.0472C34.59 28.9916 34.919 29.3508 34.9889 29.8799Z" fill="#E98862"/>
<g opacity="0.15">
<path d="M37.2217 30.4775C37.2032 30.4774 37.1854 30.4708 37.1713 30.4589C37.1572 30.447 37.1477 30.4306 37.1445 30.4124C37.1413 30.3943 37.1446 30.3756 37.1538 30.3596C37.163 30.3437 37.1775 30.3314 37.1949 30.325L37.6525 30.16L37.2921 29.4545C37.2868 29.4453 37.2835 29.4351 37.2824 29.4245C37.2812 29.414 37.2822 29.4033 37.2852 29.3931C37.2883 29.383 37.2934 29.3735 37.3002 29.3654C37.307 29.3573 37.3154 29.3506 37.3249 29.3457C37.3344 29.3409 37.3448 29.3381 37.3554 29.3373C37.366 29.3366 37.3767 29.338 37.3867 29.3415C37.3968 29.345 37.406 29.3505 37.4139 29.3576C37.4217 29.3648 37.4281 29.3734 37.4325 29.3831L37.8336 30.168C37.8388 30.178 37.8418 30.1889 37.8423 30.2001C37.8429 30.2113 37.8411 30.2225 37.837 30.2329C37.8329 30.2433 37.8266 30.2527 37.8185 30.2606C37.8105 30.2684 37.8008 30.2744 37.7902 30.2781L37.2488 30.4734C37.2401 30.4764 37.2309 30.4778 37.2217 30.4775Z" fill="black"/>
</g>
<path d="M36.3436 31.0524C36.3436 31.0524 37.191 31.0996 37.7717 30.8647C37.7717 30.8647 37.7944 31.4186 37.1301 31.5059C36.4658 31.5932 36.3436 31.0524 36.3436 31.0524Z" fill="white"/>
<path d="M42.7527 20.6491L44.4295 19.8265C44.4295 19.8265 44.4019 17.4162 42.2604 16.3609C41.5503 16.0112 41.1414 16.8049 41.2886 17.0352C41.7753 17.7966 42.3301 18.486 42.4008 19.2585C42.1184 19.0452 41.7149 18.7766 41.6169 18.8998C41.3595 19.2239 42.7527 20.6491 42.7527 20.6491Z" fill="#E98862"/>
<path d="M14.9413 70.0443C14.8449 70.0204 14.5514 69.9472 11.7853 68.8989L12.9628 65.8105C14.1351 66.2547 15.546 66.778 15.7811 66.849C15.7661 66.8444 15.7535 66.8414 15.7437 66.8389L14.9413 70.0443Z" fill="#E98862"/>
<path d="M9.40945 72.5082C9.38462 72.5936 9.37771 72.6831 9.38915 72.7712C9.40059 72.8594 9.43014 72.9442 9.47595 73.0204C9.52175 73.0966 9.58283 73.1626 9.65537 73.2142C9.72791 73.2658 9.81034 73.302 9.89753 73.3204C10.0184 73.346 10.144 73.3366 10.2597 73.2934C10.3753 73.2501 10.4762 73.1749 10.5503 73.0764L12.8809 69.7525C12.9258 69.688 12.9561 69.6146 12.97 69.5374C12.9838 69.4601 12.9807 69.3807 12.9609 69.3048C12.758 68.6939 12.757 68.0343 12.9582 67.4229C13.1346 66.9524 13.4401 66.5409 13.8399 66.2353C13.8781 66.2093 13.9082 66.1731 13.9266 66.1307C13.945 66.0884 13.9509 66.0417 13.9436 65.9961C13.9364 65.9505 13.9163 65.9079 13.8858 65.8733C13.8552 65.8386 13.8153 65.8134 13.7709 65.8004L11.9612 65.2682C11.9079 65.2525 11.8519 65.2475 11.7966 65.2534C11.7413 65.2593 11.6877 65.2761 11.6389 65.3027C11.5901 65.3293 11.547 65.3653 11.5122 65.4086C11.4774 65.4519 11.4514 65.5016 11.4359 65.5548L9.40945 72.5082Z" fill="#C1D8ED"/>
<path d="M28.4909 80.4262L27.9266 77.1704C29.1627 76.9574 30.6443 76.6913 30.8827 76.6328C30.8669 76.6364 30.8551 76.6402 30.8455 76.643L31.7912 79.8097C31.696 79.838 31.4063 79.9241 28.4909 80.4262Z" fill="#E98862"/>
<path d="M28.2892 84.739C28.3114 84.825 28.3512 84.9056 28.4061 84.9756C28.4609 85.0456 28.5297 85.1036 28.6081 85.146C28.6864 85.1883 28.7727 85.2141 28.8615 85.2217C28.9503 85.2293 29.0397 85.2186 29.1241 85.1902C29.2412 85.1508 29.3445 85.079 29.4219 84.983C29.4994 84.8871 29.5477 84.7711 29.5612 84.6486L29.8693 80.6051C29.875 80.5269 29.8637 80.4483 29.8361 80.3748C29.8085 80.3012 29.7653 80.2345 29.7094 80.1792C29.2232 79.7564 28.8858 79.1891 28.7468 78.5609C28.6584 78.0665 28.7111 77.5573 28.899 77.0914C28.9187 77.0496 28.926 77.0031 28.9202 76.9573C28.9144 76.9115 28.8957 76.8682 28.8662 76.8327C28.8366 76.7971 28.7976 76.7706 28.7535 76.7563C28.7095 76.742 28.6623 76.7405 28.6174 76.752L26.7888 77.2125C26.7349 77.2261 26.6842 77.2502 26.6396 77.2834C26.595 77.3165 26.5574 77.3582 26.529 77.4059C26.5006 77.4536 26.4819 77.5064 26.474 77.5613C26.4661 77.6162 26.4692 77.6722 26.483 77.7259L28.2892 84.739Z" fill="#C1D8ED"/>
<path d="M46.4266 74.4392L46.4108 74.3061C45.996 70.868 43.6855 54.1078 43.4126 52.3362H31.4654C31.4654 52.3362 26.8166 67.4852 26.6367 67.9049L15.2152 65.4769L13.7817 71.1202L27.8434 75.2435C28.5897 75.462 29.3893 75.4122 30.1025 75.1029C30.8158 74.7935 31.3974 74.2442 31.7459 73.5509C31.7459 73.5509 36.851 60.5486 36.9534 60.3091L40.105 72.7288L29.4436 75.7542L31.042 81.3533L44.3301 77.5824C44.9974 77.3927 45.575 76.9721 45.9592 76.396C46.3435 75.8199 46.5092 75.1261 46.4266 74.4392Z" fill="#262626"/>
<path d="M20.6466 23.5065L18.859 24.0498C18.859 24.0498 17.3481 21.9426 18.1865 19.7124C18.4643 18.9729 19.3068 19.2733 19.358 19.5417C19.5251 20.4289 19.4708 21.6405 19.9494 22.2521C20.0092 21.9038 20.1192 21.4327 20.2753 21.4557C20.6856 21.5164 20.6466 23.5065 20.6466 23.5065Z" fill="#E98862"/>
<path d="M178.267 17.2214L176.515 16.5749C176.515 16.5749 176.294 14.1746 178.315 12.9055C178.985 12.4848 179.474 13.2325 179.351 13.4768C178.946 14.2838 178.465 15.0265 178.474 15.8022C178.733 15.561 179.107 15.2525 179.217 15.365C179.506 15.6609 178.267 17.2214 178.267 17.2214Z" fill="#E98862"/>
<path d="M199.534 21.9714L201.399 22.0861C201.399 22.0861 202.378 19.6867 201.043 17.7114C200.601 17.0569 199.851 17.5438 199.864 17.8167C199.908 18.7184 200.243 19.8842 199.92 20.59C199.781 20.265 199.564 19.8323 199.417 19.8908C199.032 20.0444 199.534 21.9714 199.534 21.9714Z" fill="#E98862"/>
<path d="M202.495 21.5954L200.559 31.7246C200.513 31.9672 200.415 32.1969 200.271 32.3981C200.128 32.5993 199.942 32.7672 199.728 32.8903L192.379 37.1118C192.473 39.6258 189.969 42.4941 189.512 45.1138C188.943 48.3707 190.166 50.0856 189.767 51.7376C189.138 54.3354 176.446 51.4953 176.054 49.889C175.65 48.2355 177.179 47.5226 177.997 42.4802C178.387 40.0793 178.174 37.0789 178.806 35.0068L172.911 27.5334C172.738 27.3133 172.621 27.0544 172.571 26.7791C172.521 26.5038 172.539 26.2205 172.624 25.9538L175.904 15.6641L179.183 16.7025L176.179 26.1268L181.282 32.5964C181.735 32.5328 182.195 32.5339 182.647 32.5996C182.745 32.6122 182.903 32.6358 183.106 32.6672C182.999 33.5279 188.293 34.4435 188.558 33.5924C189.231 33.7018 189.881 33.9214 190.482 34.2422L197.327 30.3104L199.115 20.9537L202.495 21.5954Z" fill="#367CFF"/>
<path d="M124.325 110.414C112.474 105.11 111.353 83.6942 111.908 81.6596C112.113 80.907 111.752 80.7119 111.216 80.764C110.501 80.6811 109.174 81.3512 108.741 81.5821C108.309 81.3509 106.982 80.6808 106.267 80.764C105.73 80.7119 105.37 80.907 105.575 81.6596C106.13 83.6942 105.008 105.11 93.1578 110.414C90.6679 111.528 91.5255 112.855 91.5255 112.855H125.958C125.958 112.855 126.815 111.528 124.325 110.414Z" fill="#0CBC8B"/>
<g opacity="0.09">
<path d="M125.957 112.856H123.747C123.747 112.856 124.606 111.528 122.116 110.415C110.265 105.111 110.721 83.6945 111.276 81.6602C111.437 81.0686 111.248 80.8216 110.898 80.7681C111.003 80.7553 111.109 80.7543 111.215 80.7649C111.751 80.713 112.113 80.9081 111.908 81.6602C111.352 83.6945 112.474 105.111 124.325 110.415C126.816 111.528 125.957 112.856 125.957 112.856Z" fill="black"/>
</g>
<path d="M156.098 55.2323C152.647 60.5833 148.472 62.078 143.812 63.3964C139.231 64.6929 135.275 65.8115 132.771 70.0139C132.158 71.0116 131.704 72.0981 131.426 73.2346V73.2377C131.362 73.5094 131.311 73.7841 131.275 74.0609C131.234 74.423 131.105 74.7698 130.9 75.0716C130.725 75.3265 130.488 75.5327 130.212 75.6708C129.935 75.8088 129.627 75.8741 129.318 75.8605C128.387 75.8605 127.843 75.4849 127.526 75.018C127.245 74.588 127.13 74.07 127.205 73.5617C127.22 73.453 127.236 73.344 127.254 73.2346C127.574 71.3549 128.249 69.553 129.244 67.9245C132.581 62.3218 137.953 60.802 142.691 59.4599C147.037 58.2311 150.036 57.07 152.647 53.0202C153.946 51.0032 155.33 46.3728 153.675 42.6928C152.385 39.8293 150.275 38.1505 147.405 37.7005C139.569 36.4733 135.887 44.0852 135.734 44.4093C135.499 44.8906 135.084 45.2608 134.578 45.4404C134.072 45.6199 133.516 45.5945 133.028 45.3696C132.541 45.1446 132.161 44.7381 131.971 44.2374C131.781 43.7366 131.796 43.1814 132.012 42.6912C132.974 40.7786 134.26 39.0465 135.815 37.5715C139.266 34.2989 143.495 32.9474 148.041 33.6602C152.248 34.3178 155.578 36.9312 157.418 41.0187C159.515 45.679 158.319 51.7899 156.098 55.2323Z" fill="#0CBC8B"/>
<path d="M61.3919 55.2323C64.843 60.5833 69.334 62.078 73.9939 63.3964C78.5748 64.6929 82.5309 65.8115 85.0352 70.0139C85.648 71.0116 86.1015 72.0981 86.3796 73.2346V73.2377C86.4442 73.5093 86.4945 73.7841 86.5305 74.0609C86.5722 74.423 86.701 74.7698 86.9059 75.0716C87.0804 75.3265 87.3173 75.5327 87.5942 75.6708C87.871 75.8089 88.1786 75.8741 88.4879 75.8605C89.4189 75.8605 89.9631 75.4849 90.2794 75.018C90.5613 74.588 90.6755 74.0699 90.6005 73.5617C90.5859 73.453 90.5697 73.344 90.5519 73.2346C90.2317 71.3549 89.5565 69.553 88.562 67.9245C85.2245 62.3218 79.853 60.802 75.1142 59.4599C70.7684 58.2311 67.4546 57.07 64.843 53.0202C63.5443 51.0032 62.476 46.3728 64.1313 42.6928C65.4205 39.8293 67.5303 38.1505 70.4007 37.7005C78.2371 36.4733 81.9186 44.0852 82.0717 44.4093C82.3069 44.8906 82.722 45.2608 83.228 45.4404C83.7339 45.6199 84.2903 45.5945 84.7776 45.3696C85.265 45.1446 85.6444 44.7381 85.8345 44.2374C86.0246 43.7366 86.0101 43.1814 85.7942 42.6912C84.8323 40.7786 83.5456 39.0465 81.9912 37.5715C78.5401 34.2989 74.311 32.9474 69.7648 33.6602C65.5578 34.3178 62.2282 36.9312 60.3883 41.0187C58.2916 45.679 59.1716 51.7899 61.3919 55.2323Z" fill="#0CBC8B"/>
<path d="M134.995 31.1937C134.914 30.4872 134.575 29.835 134.043 29.3617C133.511 28.8883 132.823 28.6267 132.11 28.627H85.6542C84.941 28.6267 84.2526 28.8883 83.7204 29.3617C83.1882 29.835 82.8494 30.4872 82.7685 31.1937C82.0212 37.7793 80.6855 55.439 86.3649 65.1828C93.4388 77.3193 104.175 81.6595 106.487 81.6595H111.276C113.588 81.6595 124.324 77.3193 131.398 65.1828C137.078 55.4393 135.743 37.7793 134.995 31.1937Z" fill="#0CBC8B"/>
<g opacity="0.09">
<path d="M134.995 31.1937C134.914 30.4872 134.576 29.835 134.043 29.3617C133.511 28.8883 132.823 28.6267 132.11 28.627H122.804C122.804 28.627 124.386 52.8457 121.425 64.982C118.463 77.1183 111.194 81.6595 111.277 81.6595C113.589 81.6595 124.325 77.3193 131.399 65.1828C137.078 55.4393 135.743 37.7793 134.995 31.1937Z" fill="black"/>
</g>
<path d="M125.958 112.855H91.5405V121.056H125.958V112.855Z" fill="#0F1011"/>
<path d="M128.054 121.055H89.4436V123.028H128.054V121.055Z" fill="#0F1011"/>
<path d="M130.039 123.028H87.4595V125H130.039V123.028Z" fill="#0F1011"/>
<path d="M116.072 59.6059L108.855 55.8219L101.633 59.6059L103.015 51.5948L97.1741 45.9192L105.244 44.7527L108.855 37.4622L112.458 44.7527L120.53 45.9192L114.69 51.5948L116.072 59.6059Z" fill="white"/>
<path d="M48.771 27.8422L44.9487 18.8711L41.782 20.2124L45.1856 28.201L39.8993 34.3132C39.4493 34.2296 38.9898 34.2099 38.5343 34.2547C38.4365 34.2625 38.2787 34.2798 38.0735 34.3019C37.9597 34.3146 37.8281 34.3299 37.6872 34.3462L37.4926 33.3174L32.2977 34.0158L32.4411 35.0033C31.3282 35.1689 30.4044 35.5667 29.7647 36.0993L22.3578 32.1105L21.1533 22.7829L17.7407 23.2211L19.0579 33.4209C19.0928 33.6909 19.1916 33.9486 19.3462 34.173C19.5008 34.3973 19.7066 34.5817 19.9468 34.7111L28.6596 39.4023C29.0243 41.6587 30.8189 44.1795 31.1094 46.448C31.5292 49.7268 30.2305 51.3851 30.554 53.0529C31.0653 55.6755 43.8724 53.4116 44.3363 51.8257C44.8144 50.1894 43.3201 49.4104 42.7315 44.3349C42.4511 41.9199 42.8006 38.9314 42.2623 36.8334L48.4903 29.633C48.7001 29.3904 48.8377 29.0941 48.8873 28.7776C48.9369 28.4611 48.8966 28.137 48.771 27.8422Z" fill="#367CFF"/>
<path d="M188.558 33.5921C188.293 34.4433 186.553 35.6611 184.662 35.2032C183.245 34.8618 182.999 33.5276 183.106 32.667C184.206 32.8401 186.67 33.2633 188.554 33.5905C188.555 33.5904 188.555 33.5905 188.556 33.5908C188.557 33.5911 188.558 33.5915 188.558 33.5921Z" fill="#E98862"/>
</g>
<defs>
<clipPath id="clip0_232_3173">
<rect width="221" height="125" fill="white"/>
</clipPath>
</defs>
</svg>
