<svg width="220" height="208" viewBox="0 0 220 208" fill="none" xmlns="http://www.w3.org/2000/svg">
<path d="M67.0853 144.71L180.45 144.71C182.87 144.71 184.832 142.748 184.832 140.328L184.832 6.85289C184.832 4.43274 182.87 2.47083 180.45 2.47083L67.0853 2.47083C64.6651 2.47083 62.7032 4.43274 62.7032 6.85289L62.7032 140.328C62.7032 142.748 64.6651 144.71 67.0853 144.71Z" fill="white"/>
<path d="M62.4338 140.329V6.85295C62.4352 5.61974 62.9257 4.43746 63.7978 3.56547C64.6698 2.69349 65.8521 2.20302 67.0853 2.20166H180.45C181.683 2.20302 182.866 2.69349 183.738 3.56547C184.61 4.43746 185.1 5.61974 185.102 6.85295V140.329C185.1 141.562 184.61 142.744 183.738 143.616C182.866 144.488 181.684 144.979 180.45 144.98H67.0853C65.8521 144.979 64.6698 144.488 63.7978 143.616C62.9257 142.744 62.4352 141.562 62.4338 140.329ZM67.0853 2.74093C65.995 2.74214 64.9497 3.17578 64.1788 3.94671C63.4078 4.71765 62.9741 5.76292 62.9728 6.85322V140.329C62.9741 141.419 63.4078 142.464 64.1787 143.235C64.9497 144.006 65.995 144.44 67.0853 144.441H180.45C181.541 144.44 182.586 144.006 183.357 143.235C184.128 142.464 184.562 141.419 184.563 140.329V6.85295C184.562 5.76265 184.128 4.71738 183.357 3.94644C182.586 3.17551 181.541 2.74187 180.45 2.74066L67.0853 2.74093Z" fill="#292A2E"/>
<path d="M90.2822 207.445C90.2436 207.445 90.2054 207.437 90.1702 207.421C90.135 207.405 90.1037 207.382 90.0784 207.352C90.0531 207.323 90.0344 207.289 90.0235 207.252C90.0126 207.215 90.0099 207.176 90.0154 207.137L99.028 144.941C99.0325 144.906 99.0441 144.872 99.062 144.841C99.0799 144.81 99.1038 144.782 99.1322 144.761C99.1607 144.739 99.1932 144.723 99.2279 144.714C99.2625 144.705 99.2986 144.703 99.334 144.709C99.3694 144.714 99.4035 144.726 99.4341 144.744C99.4648 144.763 99.4915 144.787 99.5127 144.816C99.5338 144.845 99.549 144.878 99.5574 144.912C99.5657 144.947 99.5671 144.983 99.5613 145.019L90.5474 207.215C90.5381 207.279 90.5062 207.337 90.4576 207.379C90.4089 207.422 90.3467 207.445 90.2822 207.445Z" fill="#292A2E"/>
<path d="M157.254 207.445C157.19 207.445 157.127 207.422 157.078 207.38C157.029 207.337 156.997 207.279 156.988 207.215L147.975 145.018C147.966 144.948 147.985 144.877 148.028 144.821C148.071 144.765 148.134 144.727 148.204 144.717C148.274 144.707 148.345 144.725 148.402 144.767C148.459 144.808 148.497 144.871 148.508 144.941L157.522 207.138C157.528 207.176 157.525 207.215 157.514 207.252C157.503 207.289 157.485 207.323 157.459 207.353C157.434 207.382 157.403 207.405 157.368 207.421C157.332 207.437 157.294 207.446 157.256 207.446L157.254 207.445Z" fill="#292A2E"/>
<g opacity="0.1">
<path d="M75.0337 71.0304L172.502 71.0304C174.216 71.0304 175.605 69.6414 175.605 67.9279V15.8523C175.605 14.1388 174.216 12.7498 172.502 12.7498L75.0337 12.7498C73.3202 12.7498 71.9312 14.1388 71.9312 15.8523V67.9279C71.9312 69.6414 73.3202 71.0304 75.0337 71.0304Z" fill="#367CFF"/>
</g>
<g opacity="0.1">
<path d="M71.8215 131.249V81.0847C71.8225 80.2239 72.1649 79.3986 72.7736 78.7899C73.3823 78.1813 74.2076 77.8389 75.0684 77.838H172.198C173.058 77.8391 173.883 78.1815 174.492 78.7901C175.101 79.3988 175.443 80.224 175.444 81.0847V131.249C175.443 132.11 175.101 132.935 174.492 133.544C173.883 134.153 173.058 134.495 172.197 134.496H75.0684C74.2075 134.495 73.3822 134.153 72.7735 133.544C72.1648 132.935 71.8224 132.11 71.8215 131.249Z" fill="#367CFF"/>
</g>
<path d="M163.025 127.092H164.953C165.243 127.092 165.478 126.857 165.478 126.567V89.7421C165.478 89.452 165.243 89.2169 164.953 89.2169H163.025C162.735 89.2169 162.5 89.452 162.5 89.7421V126.567C162.5 126.857 162.735 127.092 163.025 127.092Z" fill="white"/>
<path opacity="0.3" d="M166.004 127.092H167.931C168.222 127.092 168.457 126.857 168.457 126.567V101.638C168.457 101.348 168.222 101.113 167.931 101.113H166.004C165.714 101.113 165.478 101.348 165.478 101.638V126.567C165.478 126.857 165.714 127.092 166.004 127.092Z" fill="#367CFF"/>
<path d="M139.191 127.092H141.118C141.408 127.092 141.644 126.857 141.644 126.567V122.825C141.644 122.535 141.408 122.3 141.118 122.3H139.191C138.901 122.3 138.665 122.535 138.665 122.825V126.567C138.665 126.857 138.901 127.092 139.191 127.092Z" fill="white"/>
<path opacity="0.3" d="M142.169 127.092H144.097C144.387 127.092 144.622 126.857 144.622 126.567V99.4991C144.622 99.209 144.387 98.9738 144.097 98.9738H142.169C141.879 98.9738 141.644 99.209 141.644 99.4991V126.567C141.644 126.857 141.879 127.092 142.169 127.092Z" fill="#367CFF"/>
<path d="M151.108 127.092H153.036C153.326 127.092 153.561 126.857 153.561 126.567V104.946C153.561 104.656 153.326 104.421 153.036 104.421H151.108C150.818 104.421 150.583 104.656 150.583 104.946V126.567C150.583 126.857 150.818 127.092 151.108 127.092Z" fill="white"/>
<path opacity="0.3" d="M154.086 127.092H156.014C156.304 127.092 156.539 126.857 156.539 126.567V112.78C156.539 112.49 156.304 112.254 156.014 112.254H154.086C153.796 112.254 153.561 112.49 153.561 112.78V126.567C153.561 126.857 153.796 127.092 154.086 127.092Z" fill="#367CFF"/>
<path d="M103.439 127.092H105.366C105.656 127.092 105.892 126.857 105.892 126.567V97.0671C105.892 96.777 105.656 96.5419 105.366 96.5419H103.439C103.149 96.5419 102.913 96.777 102.913 97.0671V126.567C102.913 126.857 103.149 127.092 103.439 127.092Z" fill="white"/>
<path opacity="0.3" d="M106.417 127.092H108.345C108.635 127.092 108.87 126.857 108.87 126.567V108.315C108.87 108.025 108.635 107.79 108.345 107.79H106.417C106.127 107.79 105.892 108.025 105.892 108.315V126.567C105.892 126.857 106.127 127.092 106.417 127.092Z" fill="#367CFF"/>
<path d="M127.273 127.092H129.201C129.491 127.092 129.726 126.857 129.726 126.567V101.833C129.726 101.543 129.491 101.307 129.201 101.307H127.273C126.983 101.307 126.748 101.543 126.748 101.833V126.567C126.748 126.857 126.983 127.092 127.273 127.092Z" fill="white"/>
<path opacity="0.3" d="M130.252 127.092H132.179C132.469 127.092 132.705 126.857 132.705 126.567V104.752C132.705 104.462 132.469 104.227 132.179 104.227H130.252C129.962 104.227 129.726 104.462 129.726 104.752V126.567C129.726 126.857 129.962 127.092 130.252 127.092Z" fill="#367CFF"/>
<path d="M115.356 127.092H117.284C117.574 127.092 117.809 126.857 117.809 126.567V89.7421C117.809 89.452 117.574 89.2169 117.284 89.2169H115.356C115.066 89.2169 114.831 89.452 114.831 89.7421V126.567C114.831 126.857 115.066 127.092 115.356 127.092Z" fill="white"/>
<path opacity="0.3" d="M118.334 127.092H120.262C120.552 127.092 120.787 126.857 120.787 126.567V91.5666C120.787 91.2765 120.552 91.0414 120.262 91.0414H118.334C118.044 91.0414 117.809 91.2765 117.809 91.5666V126.567C117.809 126.857 118.044 127.092 118.334 127.092Z" fill="#367CFF"/>
<path d="M91.5216 127.092H93.4494C93.7394 127.092 93.9746 126.857 93.9746 126.567V89.7421C93.9746 89.452 93.7394 89.2169 93.4494 89.2169H91.5216C91.2315 89.2169 90.9964 89.452 90.9964 89.7421V126.567C90.9964 126.857 91.2315 127.092 91.5216 127.092Z" fill="white"/>
<path opacity="0.3" d="M94.4999 127.092H96.4276C96.7177 127.092 96.9529 126.857 96.9529 126.567V101.638C96.9529 101.348 96.7177 101.113 96.4276 101.113H94.4999C94.2098 101.113 93.9746 101.348 93.9746 101.638V126.567C93.9746 126.857 94.2098 127.092 94.4999 127.092Z" fill="#367CFF"/>
<path d="M79.6044 127.092H81.5321C81.8222 127.092 82.0574 126.857 82.0574 126.567V104.946C82.0574 104.656 81.8222 104.421 81.5321 104.421H79.6044C79.3143 104.421 79.0791 104.656 79.0791 104.946V126.567C79.0791 126.857 79.3143 127.092 79.6044 127.092Z" fill="white"/>
<path opacity="0.3" d="M82.5827 127.092H84.5104C84.8005 127.092 85.0356 126.857 85.0356 126.567V112.78C85.0356 112.49 84.8005 112.254 84.5104 112.254H82.5827C82.2926 112.254 82.0574 112.49 82.0574 112.78V126.567C82.0574 126.857 82.2926 127.092 82.5827 127.092Z" fill="#367CFF"/>
<path opacity="0.2" d="M168.483 31.4533V63.693C168.483 63.8301 168.429 63.9616 168.332 64.0586C168.235 64.1556 168.104 64.2101 167.966 64.2102H79.569C79.4318 64.2101 79.3004 64.1556 79.2035 64.0586C79.1065 63.9616 79.0521 63.8301 79.0521 63.693V46.5776C79.052 46.4869 79.0759 46.3977 79.1213 46.319C79.1666 46.2404 79.2319 46.1751 79.3105 46.1297L94.9614 37.0934C95.0412 37.0474 95.1318 37.0235 95.2239 37.0242C95.316 37.0249 95.4063 37.0502 95.4853 37.0975L102.531 41.3081C102.619 41.3609 102.721 41.3862 102.823 41.3808C102.926 41.3754 103.024 41.3396 103.107 41.2779L110.505 35.7246C110.58 35.6679 110.669 35.6329 110.763 35.6234C110.857 35.6139 110.952 35.6303 111.037 35.6707L120.167 40.0129C120.264 40.0593 120.374 40.0741 120.48 40.055C120.586 40.036 120.684 39.9841 120.76 39.9067L130.896 29.4995C130.983 29.4094 131.1 29.3542 131.226 29.3443C131.351 29.3344 131.475 29.3704 131.576 29.4456L138.158 34.3739C138.253 34.4454 138.37 34.4817 138.489 34.4768C138.608 34.4719 138.722 34.426 138.811 34.3469L143.117 30.5201C143.204 30.4428 143.314 30.397 143.43 30.3902C143.547 30.3834 143.661 30.416 143.757 30.4826L149.868 34.7488C149.956 34.81 150.061 34.8425 150.168 34.8417C150.275 34.8409 150.379 34.807 150.466 34.7445L161.034 27.1389C161.115 27.0804 161.212 27.0466 161.312 27.0419C161.412 27.0371 161.511 27.0614 161.598 27.112L168.228 31.006C168.306 31.0516 168.37 31.117 168.415 31.1955C168.46 31.274 168.484 31.3629 168.483 31.4533Z" fill="#367CFF"/>
<path opacity="0.61" d="M79.3494 46.1333C79.3947 46.1334 79.4393 46.1214 79.4784 46.0986L95.1776 37.0342L102.652 41.5012C102.696 41.5274 102.747 41.54 102.798 41.5374C102.85 41.5347 102.899 41.5168 102.94 41.4861L110.74 35.6304L120.346 40.1987C120.394 40.2217 120.449 40.2289 120.502 40.2193C120.556 40.2096 120.604 40.1836 120.642 40.1448L131.194 29.3093L138.295 34.6265C138.343 34.6622 138.401 34.6804 138.461 34.678C138.52 34.6755 138.577 34.6526 138.622 34.613L143.396 30.369L149.976 34.9634C150.02 34.994 150.073 35.0102 150.126 35.0098C150.18 35.0094 150.232 34.9925 150.275 34.9612L161.277 27.0444L168.055 31.0249C168.085 31.0421 168.117 31.0534 168.151 31.0581C168.184 31.0628 168.218 31.0609 168.251 31.0523C168.284 31.0438 168.315 31.0289 168.342 31.0085C168.369 30.988 168.392 30.9624 168.409 30.9331C168.427 30.9039 168.438 30.8715 168.443 30.8379C168.447 30.8042 168.445 30.77 168.437 30.7371C168.428 30.7043 168.413 30.6734 168.393 30.6463C168.372 30.6192 168.347 30.5964 168.318 30.5792L161.394 26.513C161.351 26.4876 161.301 26.4754 161.251 26.4777C161.201 26.48 161.153 26.4969 161.112 26.5262L150.122 34.4343L143.525 29.8294C143.477 29.7961 143.42 29.7797 143.362 29.7831C143.304 29.7865 143.248 29.8094 143.205 29.848L138.435 34.0872L131.32 28.7603C131.27 28.7227 131.208 28.7046 131.145 28.7096C131.082 28.7146 131.024 28.7422 130.98 28.7873L120.399 39.6529L110.82 35.0968C110.777 35.0765 110.73 35.0683 110.683 35.0731C110.636 35.0778 110.591 35.0953 110.553 35.1237L102.766 40.9692L95.311 36.5133C95.2714 36.4897 95.2263 36.4771 95.1803 36.4768C95.1342 36.4764 95.0889 36.4884 95.049 36.5114L79.2181 45.6515C79.1688 45.68 79.1303 45.7239 79.1086 45.7766C79.0868 45.8292 79.083 45.8875 79.0978 45.9425C79.1126 45.9975 79.1451 46.0461 79.1902 46.0807C79.2354 46.1154 79.2908 46.1341 79.3477 46.1341L79.3494 46.1333Z" fill="#367CFF"/>
<path d="M21.8728 195.461C21.8728 195.461 23.0896 201.767 28.9951 202.12C34.9006 202.472 33.62 207.176 33.62 207.176H11.0524V195.901L21.8728 195.461Z" fill="#367CFF"/>
<path d="M9.52185 80.4036C9.52185 80.4036 11.2095 78.5074 11.1946 82.8084C11.1388 98.8514 10.0563 199.486 10.0563 199.486L24.8857 199.362L33.869 79.7517L9.52185 80.4036Z" fill="#262626"/>
<path d="M47.1952 195.461C47.1952 195.461 48.412 201.767 54.3176 202.12C60.2231 202.472 58.9424 207.176 58.9424 207.176H36.3748V195.901L47.1952 195.461Z" fill="#367CFF"/>
<path d="M50.0635 81.6492C50.0635 81.6492 51.916 136.48 51.7236 139.16L49.9815 199.07L35.3973 199.34L33.0454 136.993C33.0454 136.993 31.5038 119.794 27.3484 103.824C25.2224 95.6281 23.943 87.2354 23.5302 78.778L50.0635 81.6492Z" fill="#262626"/>
<path d="M30.8234 120.525L32.0393 101.927C32.0393 101.927 33.2885 109.658 33.2885 116.322C33.2885 119.58 32.6177 132.477 32.6177 132.477L30.8234 120.525Z" fill="#0A0A0A"/>
<path d="M9.3607 80.4018L9.31219 80.4045C9.31219 80.4045 9.34723 79.4693 9.3607 80.4018Z" fill="#333333"/>
<path d="M9.42162 80.4018L9.37311 80.4045C9.37311 80.4045 9.40814 79.4693 9.42162 80.4018Z" fill="#333333"/>
<path d="M90.6827 35.8977C90.5935 35.7208 90.4514 35.576 90.2763 35.4833C90.1011 35.3906 89.9015 35.3546 89.705 35.3802C89.7067 35.3684 89.7056 35.3563 89.7016 35.345C89.6976 35.3337 89.691 35.3236 89.6822 35.3155C89.6734 35.3073 89.6627 35.3015 89.6512 35.2984C89.6396 35.2953 89.6275 35.2951 89.6158 35.2978L90.2788 34.8226C90.4773 34.6868 90.62 34.4837 90.6803 34.2508C90.7406 34.018 90.7146 33.7711 90.607 33.556C90.494 33.3468 90.3074 33.1871 90.0833 33.1079C89.8592 33.0287 89.6136 33.0356 89.3943 33.1272C89.3959 33.1181 89.3894 33.1089 89.3881 33.1003L89.6605 32.9049C89.8469 32.7761 89.9831 32.587 90.0461 32.3694C90.109 32.1518 90.0949 31.9191 90.006 31.7107C89.9476 31.5812 89.8612 31.4663 89.753 31.3742C89.6447 31.2821 89.5174 31.2152 89.3802 31.1783C89.243 31.1414 89.0993 31.1354 88.9595 31.1607C88.8197 31.186 88.6873 31.2421 88.5718 31.3248L87.943 31.7757C87.9411 31.7719 87.943 31.7676 87.9406 31.7641C87.9382 31.7606 87.9312 31.7592 87.9277 31.7555C88.0721 31.5931 88.157 31.3864 88.1684 31.1694C88.1799 30.9524 88.1172 30.738 87.9907 30.5613C87.6943 30.0838 87.0089 30.1813 86.6023 30.4726L82.9015 33.0291L83.5628 31.9153C83.6962 31.701 83.7432 31.4442 83.6943 31.1966C83.6454 30.949 83.5043 30.7293 83.2995 30.5818C83.1912 30.5093 83.0693 30.4596 82.9412 30.4358C82.8131 30.412 82.6814 30.4145 82.5543 30.4433C82.4272 30.472 82.3073 30.5264 82.2019 30.603C82.0965 30.6797 82.0078 30.777 81.9413 30.889L78.33 36.9697C77.9062 37.6831 77.7774 38.5335 77.9707 39.3403C78.164 40.1472 78.6644 40.8468 79.3654 41.2906C80.1783 41.8054 81.1265 42.0657 82.0884 42.0381C83.0502 42.0105 83.9819 41.6963 84.764 41.1357L90.3529 37.1298C90.5387 36.9917 90.6723 36.7948 90.7322 36.5711C90.7921 36.3475 90.7746 36.1102 90.6827 35.8977Z" fill="#E98862"/>
<g opacity="0.25">
<path d="M84.281 34.3015C84.2946 34.3201 84.315 34.3327 84.3378 34.3365C84.3605 34.3404 84.3839 34.3351 84.4028 34.322L87.9193 31.8865C87.9288 31.8799 87.937 31.8714 87.9433 31.8617C87.9496 31.8519 87.9539 31.841 87.9559 31.8295C87.958 31.8181 87.9578 31.8064 87.9554 31.795C87.9529 31.7837 87.9482 31.7729 87.9416 31.7633C87.935 31.7538 87.9266 31.7456 87.9168 31.7393C87.907 31.733 87.8961 31.7287 87.8847 31.7266C87.8732 31.7246 87.8615 31.7248 87.8501 31.7272C87.8388 31.7297 87.828 31.7343 87.8185 31.741L84.302 34.1764C84.2828 34.1898 84.2696 34.2103 84.2654 34.2334C84.2612 34.2565 84.2663 34.2803 84.2797 34.2996L84.281 34.3015Z" fill="#0C0C0C"/>
</g>
<g opacity="0.25">
<path d="M85.3124 35.8818C85.3259 35.9006 85.3463 35.9133 85.3691 35.9171C85.3918 35.921 85.4152 35.9158 85.4342 35.9026L89.3587 33.1844C89.3779 33.171 89.391 33.1505 89.3951 33.1274C89.3993 33.1043 89.3941 33.0805 89.3808 33.0613C89.3669 33.0426 89.3465 33.0299 89.3236 33.0258C89.3007 33.0216 89.2771 33.0263 89.2576 33.0389L85.3334 35.7571C85.3141 35.7705 85.301 35.7909 85.2968 35.814C85.2926 35.8371 85.2977 35.8609 85.311 35.8802L85.3124 35.8818Z" fill="#0C0C0C"/>
</g>
<g opacity="0.25">
<path d="M86.4195 37.6001C86.4332 37.6187 86.4536 37.6313 86.4764 37.6351C86.4992 37.639 86.5226 37.6337 86.5416 37.6205L89.6718 35.4524C89.6911 35.4391 89.7043 35.4186 89.7085 35.3955C89.7127 35.3724 89.7076 35.3486 89.6942 35.3293C89.6808 35.31 89.6603 35.2968 89.6372 35.2926C89.6141 35.2884 89.5903 35.2935 89.571 35.3069L86.4405 37.475C86.4213 37.4884 86.4081 37.5089 86.4039 37.532C86.3997 37.5551 86.4048 37.5789 86.4182 37.5982L86.4195 37.6001Z" fill="#0C0C0C"/>
</g>
<path d="M76.199 35.584L65.5918 53.6491L52.6491 36.6728L41.9006 46.3632L60.2565 70.136L60.3767 70.3052C61.1115 71.3115 62.0904 72.1141 63.2211 72.6374C64.3518 73.1608 65.5971 73.3877 66.8398 73.2968C68.0824 73.2059 69.2815 72.8001 70.3239 72.1177C71.3664 71.4352 72.218 70.4987 72.7985 69.3962L87.8818 42.0811L76.199 35.584Z" fill="#367CFF"/>
<path d="M64.5521 55.8215C64.5307 55.8214 64.5097 55.8164 64.4906 55.8067C64.4749 55.7986 64.4608 55.7876 64.4493 55.7741C64.4379 55.7606 64.4291 55.745 64.4237 55.7282C64.4182 55.7113 64.4161 55.6936 64.4175 55.6759C64.419 55.6583 64.4238 55.6411 64.4319 55.6253L65.4719 53.5879C65.4799 53.5721 65.491 53.5581 65.5045 53.5466C65.518 53.5351 65.5336 53.5264 65.5504 53.521C65.5672 53.5155 65.585 53.5134 65.6026 53.5148C65.6203 53.5162 65.6375 53.5211 65.6533 53.5292C65.669 53.5372 65.683 53.5483 65.6945 53.5618C65.706 53.5752 65.7147 53.5908 65.7202 53.6077C65.7257 53.6245 65.7277 53.6423 65.7263 53.6599C65.7249 53.6776 65.7201 53.6948 65.712 53.7105L64.672 55.7479C64.6607 55.7701 64.6436 55.7886 64.6224 55.8016C64.6012 55.8146 64.5769 55.8215 64.5521 55.8215Z" fill="#0C0C0C"/>
<path d="M51.9024 53.5462L51.5786 59.2521L51.8476 59.2673L52.1714 53.5615L51.9024 53.5462Z" fill="#0C0C0C"/>
<path d="M17.7238 12.2524C17.7238 12.2524 17.2269 18.6034 15.7702 20.8928C11.5768 27.4839 10.2975 34.9383 14.375 38.8878C18.4525 42.8373 44.7476 43.1958 46.8421 34.2446C48.6066 26.7086 45.0171 25.8545 44.2134 19.6108C43.8499 16.7862 42.8285 10.8599 42.8285 10.8599" fill="#0A0A0A"/>
<path d="M40.1483 32.8135C40.103 32.8075 39.5993 41.1658 29.8895 40.4371C23.1677 39.9334 20.771 32.8016 20.6169 32.8016C21.3416 32.6477 22.5621 32.4243 22.8839 32.2518C23.9422 31.6832 25.252 31.0914 25.5932 29.0359C25.7899 27.8501 25.4563 21.7901 25.559 20.5917L35.877 22.8945C35.7328 25.4262 34.7238 31.2951 38.2605 32.3338C38.8491 32.5054 39.4829 32.6636 40.1483 32.8135Z" fill="#E98862"/>
<path opacity="0.52" d="M36.0218 29.9352C35.8602 29.4144 35.7561 28.8774 35.7113 28.3339C35.5978 27.0936 35.6204 25.8445 35.7787 24.6091C33.6815 24.3261 31.7058 23.4605 30.0761 22.1106C29.8845 22.8183 28.8307 25.9105 29.1226 26.5827C29.674 27.8536 32.2655 29.9352 36.0218 29.9352Z" fill="#0C0C0C"/>
<path d="M34.6541 27.3047C30.5819 27.6513 25.3375 25.9631 24.3101 20.5335L23.3828 15.6343C22.3552 10.2047 24.374 5.26341 29.4864 4.29591C34.5985 3.3284 39.2528 7.0068 40.2804 12.4364L40.6909 14.6053C41.0851 16.6888 41.92 26.6865 34.6541 27.3047Z" fill="#E98862"/>
<path d="M39.2336 14.8419C39.5876 14.8419 39.8745 14.555 39.8745 14.2011C39.8745 13.8471 39.5876 13.5602 39.2336 13.5602C38.8797 13.5602 38.5928 13.8471 38.5928 14.2011C38.5928 14.555 38.8797 14.8419 39.2336 14.8419Z" fill="#0C0C0C"/>
<path d="M32.6684 15.7189C33.0223 15.7189 33.3093 15.4319 33.3093 15.078C33.3093 14.7241 33.0223 14.4371 32.6684 14.4371C32.3145 14.4371 32.0275 14.7241 32.0275 15.078C32.0275 15.4319 32.3145 15.7189 32.6684 15.7189Z" fill="#0C0C0C"/>
<path d="M36.2714 19.7762H36.2813C36.4884 19.7355 36.6931 19.6833 36.8944 19.6199C37.1949 19.5232 37.5889 19.3633 37.5375 19.0917C37.479 18.7823 36 15.6049 35.8313 15.2435C35.8166 15.212 35.7899 15.1875 35.7572 15.1756C35.7244 15.1637 35.6883 15.1653 35.6568 15.18C35.6252 15.1948 35.6008 15.2214 35.5889 15.2541C35.577 15.2869 35.5786 15.323 35.5933 15.3545C36.2242 16.7077 37.2402 18.9324 37.2793 19.1407C37.2456 19.2372 36.7465 19.4207 36.2326 19.518C36.1988 19.5239 36.1687 19.5428 36.1487 19.5706C36.1287 19.5983 36.1203 19.6329 36.1253 19.6667C36.1304 19.7006 36.1485 19.7312 36.1758 19.7519C36.2031 19.7726 36.2374 19.7818 36.2714 19.7776V19.7762Z" fill="#0C0C0C"/>
<path d="M35.5143 22.1206C36.3481 22.0122 37.1449 21.7095 37.8403 21.2369C37.8695 21.2179 37.89 21.1881 37.8972 21.154C37.9045 21.12 37.8979 21.0844 37.8789 21.0552C37.8599 21.026 37.8301 21.0056 37.796 20.9983C37.762 20.9911 37.7264 20.9977 37.6972 21.0167C36.1921 21.9974 34.6966 22.1559 33.3726 21.4748C33.3458 21.4604 33.3183 21.4473 33.2901 21.4358C33.2575 21.4243 33.2216 21.4261 33.1903 21.4409C33.159 21.4558 33.1348 21.4824 33.123 21.5149C33.1113 21.5475 33.1129 21.5834 33.1274 21.6148C33.142 21.6462 33.1684 21.6706 33.2009 21.6826C33.2114 21.6869 33.2279 21.6961 33.2526 21.7096C33.9488 22.0686 34.7363 22.2117 35.5143 22.1206Z" fill="#0C0C0C"/>
<path d="M19.2931 17.3418L23.8746 16.5015C27.3452 15.0972 28.3949 9.08867 28.3949 9.08867C28.3949 9.08867 32.6121 13.1977 42.8285 10.8612C42.8285 10.8612 40.7803 -3.38646 25.6867 0.754936C20.8198 2.09084 17.3269 6.9952 17.7635 13.5497C18.0669 18.1438 19.2931 17.3418 19.2931 17.3418Z" fill="#0A0A0A"/>
<path d="M24.9405 22.1275C23.3871 22.4216 21.8129 20.9978 21.5178 19.4441C21.2227 17.8905 22.3212 16.7955 23.8749 16.5015L24.872 17.3908L26.2761 21.8747L24.9405 22.1275Z" fill="#E98862"/>
<path d="M36.7675 12.6455C37.2207 12.353 37.7442 12.1877 38.2831 12.1669C38.5485 12.1552 38.8141 12.1833 39.0712 12.2502C39.3257 12.3156 39.571 12.4127 39.8012 12.5393C39.8337 12.5553 39.8585 12.5835 39.8703 12.6177C39.8821 12.6519 39.8799 12.6894 39.8642 12.722C39.8485 12.7546 39.8206 12.7796 39.7865 12.7917C39.7523 12.8038 39.7148 12.8019 39.6821 12.7865L39.6724 12.7819C39.4596 12.6774 39.2345 12.5999 39.0024 12.5515C38.7729 12.5024 38.5373 12.4883 38.3036 12.5097C37.8401 12.5485 37.3951 12.7092 37.0138 12.9757L37.0014 12.9846C36.9795 13.0005 36.9547 13.0119 36.9283 13.0183C36.902 13.0246 36.8747 13.0257 36.8479 13.0214C36.8212 13.0172 36.7955 13.0078 36.7724 12.9936C36.7493 12.9795 36.7292 12.9609 36.7133 12.939C36.6974 12.9171 36.6859 12.8923 36.6796 12.8659C36.6733 12.8396 36.6722 12.8123 36.6764 12.7855C36.6806 12.7588 36.6901 12.7331 36.7042 12.71C36.7184 12.6869 36.737 12.6668 36.7589 12.6509L36.7675 12.6455Z" fill="#0C0C0C"/>
<path d="M32.6802 13.6076C32.2284 13.4973 31.7555 13.5081 31.3093 13.6392C31.0836 13.7038 30.869 13.8021 30.6727 13.9308C30.4737 14.0601 30.2918 14.2141 30.1313 14.3889L30.124 14.3962C30.0989 14.4214 30.0649 14.4358 30.0294 14.4365C29.9938 14.4371 29.9593 14.4239 29.9333 14.3996C29.9073 14.3754 29.8917 14.3419 29.8899 14.3064C29.8881 14.2708 29.9001 14.236 29.9235 14.2092C30.0925 14.0079 30.2862 13.8287 30.5 13.6758C30.7152 13.5203 30.9527 13.3981 31.2044 13.3133C31.7146 13.138 32.2626 13.103 32.791 13.212C32.8446 13.2235 32.8914 13.2559 32.9212 13.3019C32.951 13.3479 32.9612 13.4039 32.9497 13.4575C32.9382 13.5111 32.9059 13.558 32.8598 13.5877C32.8138 13.6175 32.7578 13.6278 32.7042 13.6163L32.6959 13.6144L32.6802 13.6076Z" fill="#0C0C0C"/>
<path d="M35.6917 23.3533C35.8427 23.336 35.992 23.306 36.138 23.2635C36.1547 23.259 36.1705 23.2511 36.1842 23.2404C36.1979 23.2298 36.2094 23.2165 36.218 23.2013C36.2265 23.1861 36.2319 23.1694 36.234 23.1521C36.236 23.1348 36.2346 23.1173 36.2298 23.1006C36.225 23.0839 36.2169 23.0683 36.206 23.0547C36.1951 23.0411 36.1816 23.0299 36.1663 23.0216C36.151 23.0132 36.1342 23.0081 36.1169 23.0063C36.0996 23.0045 36.0821 23.0062 36.0655 23.0113C35.1866 23.2641 34.687 22.9291 34.6662 22.9145C34.6376 22.8945 34.6023 22.8867 34.5679 22.8927C34.5335 22.8988 34.503 22.9183 34.483 22.9469C34.4629 22.9755 34.4551 23.0108 34.4612 23.0452C34.4672 23.0796 34.4867 23.1101 34.5153 23.1301C34.8699 23.338 35.2855 23.4169 35.6917 23.3533Z" fill="#0C0C0C"/>
<path d="M23.8859 16.4435L23.8404 16.3166C29.6468 14.232 28.2268 8.53399 28.2119 8.47658L28.3421 8.44263C28.3575 8.50084 29.8098 14.3166 23.8859 16.4435Z" fill="#0C0C0C"/>
<path opacity="0.1" d="M32.151 20.1762C32.8214 20.1041 33.3219 19.647 33.269 19.1552C33.2161 18.6635 32.6297 18.3233 31.9594 18.3954C31.289 18.4675 30.7884 18.9246 30.8413 19.4164C30.8943 19.9082 31.4806 20.2483 32.151 20.1762Z" fill="#0C0C0C"/>
<path opacity="0.1" d="M39.2469 18.295C39.3008 18.786 39.8872 19.1256 40.5577 19.0545C40.6735 19.0419 40.7878 19.0174 40.8986 18.9814C40.9363 18.3971 40.9447 17.8347 40.9337 17.3138C40.7483 17.2653 40.5556 17.2517 40.3653 17.2739C39.6948 17.345 39.1946 17.8021 39.2469 18.295Z" fill="#0C0C0C"/>
<path d="M52.212 51.2145C51.9061 54.8074 50.4184 77.2236 50.1244 81.6493H11.2162C10.9872 77.6577 8.3423 60.2036 7.47425 52.3981C6.64553 44.9497 5.01964 41.2206 6.21137 39.0185C8.15877 35.4196 13.4803 33.3402 17.1089 32.8489C19.3247 32.5489 22.657 32.3339 22.657 32.3339C22.657 32.3339 22.9392 38.0419 29.6675 38.3596C38.8265 38.7908 38.215 32.3339 38.2602 32.3339C39.7441 32.3339 48.2204 33.2731 50.2942 34.5023C55.9451 37.8486 52.8612 43.6003 52.212 51.2145Z" fill="#367CFF"/>
<path d="M77.4673 53.7243L73.7169 71.9532C73.6407 72.3234 73.4399 72.6562 73.148 72.8962C72.8561 73.1362 72.4907 73.2689 72.1129 73.2722L46.2878 73.4921C46.0414 73.4942 45.7977 73.4411 45.5745 73.3368C45.3513 73.2325 45.1543 73.0797 44.9978 72.8894C44.8413 72.6991 44.7294 72.4762 44.6702 72.237C44.611 71.9979 44.6061 71.7485 44.6557 71.5072L48.4061 53.2783C48.4823 52.9082 48.6832 52.5754 48.975 52.3354C49.2669 52.0954 49.6323 51.9627 50.0101 51.9594L75.8352 51.7394C76.0815 51.7374 76.3252 51.7904 76.5484 51.8947C76.7716 51.999 76.9687 52.1519 77.1252 52.3422C77.2816 52.5325 77.3936 52.7553 77.4528 52.9945C77.512 53.2336 77.5169 53.483 77.4673 53.7243Z" fill="#292A2E"/>
<path d="M53.3862 66.6724C53.4 66.9124 53.3266 67.1494 53.1795 67.3396C53.0324 67.5298 52.8216 67.6605 52.5858 67.7075L51.7907 67.8827C51.8049 67.8874 51.8178 67.8955 51.8281 67.9063C51.8384 67.9171 51.846 67.9303 51.85 67.9447C51.8519 67.9616 51.8482 67.9787 51.8392 67.9932C52.0304 68.0469 52.2 68.1588 52.3247 68.3133C52.4493 68.4679 52.5226 68.6574 52.5346 68.8556C52.5357 69.0865 52.4589 69.3111 52.3166 69.4931C52.1743 69.675 51.9748 69.8036 51.7503 69.8581L45.0371 71.3485C44.6939 71.4256 44.3432 71.4644 43.9914 71.4643C43.2079 71.4642 42.4361 71.2735 41.7427 70.9087C41.0492 70.5439 40.4549 70.0159 40.0109 69.3703C39.5401 68.6873 39.3544 67.8474 39.4933 67.0296C39.6323 66.2117 40.0848 65.4803 40.7547 64.991L46.4654 60.8164C46.5911 60.7244 46.7372 60.6643 46.8912 60.6412L46.3657 63.1934L46.5058 63.1611L46.5355 63.1557L50.9149 62.2636C51.4027 62.1558 52.071 62.3337 52.1573 62.8889C52.2035 63.1014 52.1764 63.3233 52.0805 63.5186C51.9846 63.7138 51.8255 63.8708 51.629 63.9642C51.6317 63.9669 51.6371 63.9696 51.6371 63.9749C51.6371 63.9803 51.6344 63.983 51.6344 63.9884L52.3917 63.8213C52.5303 63.7906 52.6739 63.791 52.8123 63.8225C52.9507 63.854 53.0803 63.9158 53.192 64.0034C53.3036 64.091 53.3944 64.2024 53.4578 64.3293C53.5212 64.4563 53.5556 64.5957 53.5586 64.7376C53.5586 64.9642 53.4802 65.1837 53.3368 65.3591C53.1934 65.5344 52.9937 65.6548 52.7717 65.6997L52.4456 65.7725C52.4429 65.7833 52.4456 65.7941 52.4402 65.8021C52.6778 65.8039 52.9062 65.894 53.081 66.0548C53.2559 66.2157 53.3646 66.4358 53.3862 66.6724Z" fill="#E98862"/>
<g opacity="0.25">
<path d="M47.2747 64.873C47.28 64.8955 47.2937 64.915 47.3132 64.9275C47.3326 64.94 47.3561 64.9444 47.3788 64.9398L51.5689 64.0806C51.5807 64.0787 51.5921 64.0745 51.6022 64.0681C51.6123 64.0617 51.621 64.0533 51.6278 64.0435C51.6346 64.0337 51.6394 64.0225 51.6418 64.0108C51.6442 63.9991 51.6442 63.987 51.6417 63.9753C51.6393 63.9636 51.6346 63.9524 51.6278 63.9426C51.621 63.9328 51.6122 63.9244 51.6021 63.918C51.592 63.9117 51.5807 63.9074 51.5689 63.9055C51.557 63.9036 51.545 63.9042 51.5334 63.9071L47.3432 64.7665C47.3202 64.7712 47.3 64.7849 47.2871 64.8045C47.2741 64.8241 47.2695 64.8481 47.2742 64.8711L47.2747 64.873Z" fill="#0C0C0C"/>
</g>
<g opacity="0.25">
<path d="M47.6027 66.7314C47.6079 66.754 47.6217 66.7736 47.6411 66.7861C47.6606 66.7986 47.6841 66.8029 47.7068 66.7983L52.3831 65.8394C52.4061 65.8346 52.4262 65.8209 52.4391 65.8013C52.4521 65.7817 52.4567 65.7578 52.4521 65.7348C52.4466 65.7122 52.4328 65.6925 52.4134 65.6797C52.394 65.6669 52.3705 65.662 52.3475 65.6658L47.6712 66.625C47.6482 66.6297 47.628 66.6434 47.6151 66.663C47.6021 66.6826 47.5975 66.7065 47.6022 66.7295L47.6027 66.7314Z" fill="#0C0C0C"/>
</g>
<g opacity="0.25">
<path d="M47.9463 68.7464C47.9515 68.7689 47.9653 68.7885 47.9847 68.801C48.0042 68.8134 48.0277 68.8178 48.0503 68.8132L51.7805 68.0484C51.7923 68.0465 51.8036 68.0422 51.8137 68.0359C51.8238 68.0295 51.8326 68.0211 51.8394 68.0113C51.8462 68.0014 51.8509 67.9903 51.8533 67.9786C51.8557 67.9669 51.8557 67.9548 51.8533 67.9431C51.8509 67.9313 51.8461 67.9202 51.8393 67.9104C51.8325 67.9005 51.8238 67.8922 51.8136 67.8858C51.8035 67.8794 51.7922 67.8752 51.7804 67.8733C51.7686 67.8714 51.7565 67.8719 51.7449 67.8748L48.0147 68.64C48.0034 68.6423 47.9926 68.6468 47.9829 68.6533C47.9733 68.6598 47.965 68.6681 47.9586 68.6778C47.9522 68.6875 47.9478 68.6983 47.9456 68.7097C47.9434 68.7211 47.9434 68.7329 47.9458 68.7443L47.9463 68.7464Z" fill="#0C0C0C"/>
</g>
<path d="M44.6212 74.0049L8.19972 80.5864C7.06318 80.7101 5.91342 80.5688 4.84067 80.1735C3.76793 79.7782 2.80138 79.1398 2.01687 78.3081C1.23236 77.4765 0.651237 76.4744 0.319106 75.3805C-0.0130256 74.2865 -0.0871306 73.1305 0.102606 72.0031L5.20127 41.696C5.52684 39.7608 6.60783 38.0342 8.20644 36.896C9.80505 35.7578 11.7903 35.3013 13.7255 35.6269C15.6607 35.9524 17.3873 37.0334 18.5255 38.632C19.6637 40.2307 20.1202 42.2159 19.7947 44.1511L16.3181 65.0144L43.0199 61.6619L44.6212 74.0049Z" fill="#367CFF"/>
<path d="M8.19946 80.7211C8.16584 80.721 8.13345 80.7084 8.10867 80.6856C8.08389 80.6629 8.0685 80.6317 8.06553 80.5982C8.06256 80.5647 8.07222 80.5313 8.09261 80.5046C8.113 80.4779 8.14266 80.4597 8.17575 80.4537L44.4711 73.8947L42.9043 61.8114L16.3346 65.148C16.3137 65.1509 16.2926 65.1487 16.2727 65.1417C16.2529 65.1347 16.235 65.1231 16.2206 65.1079C16.206 65.0928 16.1952 65.0744 16.1889 65.0543C16.1827 65.0343 16.1813 65.013 16.1847 64.9923L18.3946 51.6583C18.3975 51.6408 18.4038 51.6241 18.4131 51.609C18.4225 51.594 18.4347 51.5809 18.4491 51.5706C18.4635 51.5603 18.4798 51.5529 18.497 51.5489C18.5143 51.5449 18.5321 51.5443 18.5496 51.5472C18.5671 51.5501 18.5838 51.5564 18.5989 51.5658C18.6139 51.5751 18.627 51.5874 18.6373 51.6018C18.6476 51.6162 18.655 51.6325 18.659 51.6498C18.663 51.6671 18.6636 51.685 18.6606 51.7025L16.4801 64.8581L43.0032 61.5271C43.0385 61.5226 43.0741 61.5323 43.1023 61.5541C43.1305 61.5759 43.1489 61.6079 43.1535 61.6432L44.7549 73.9863C44.7594 74.0206 44.7505 74.0553 44.7301 74.0833C44.7097 74.1112 44.6793 74.1303 44.6452 74.1364L8.22372 80.7192C8.21568 80.7204 8.20758 80.721 8.19946 80.7211Z" fill="#0C0C0C"/>
<path d="M16.2968 64.8817L13.9539 65.2567L13.9966 65.5231L16.3394 65.148L16.2968 64.8817Z" fill="#0C0C0C"/>
<path d="M207.458 207.554H2.52569C2.47565 207.554 2.42767 207.534 2.39229 207.499C2.35691 207.464 2.33704 207.416 2.33704 207.366C2.33704 207.316 2.35691 207.268 2.39229 207.232C2.42767 207.197 2.47565 207.177 2.52569 207.177H207.458C207.483 207.177 207.508 207.182 207.53 207.191C207.553 207.201 207.574 207.215 207.592 207.232C207.609 207.25 207.623 207.271 207.632 207.293C207.642 207.316 207.647 207.341 207.647 207.366C207.647 207.39 207.642 207.415 207.632 207.438C207.623 207.461 207.609 207.482 207.592 207.499C207.574 207.517 207.553 207.53 207.53 207.54C207.508 207.549 207.483 207.554 207.458 207.554Z" fill="#292A2E"/>
<path d="M197.722 178.502C197.693 178.502 197.664 178.496 197.638 178.485C197.611 178.474 197.586 178.457 197.566 178.437C197.254 178.125 196.745 172.398 195.374 155.348C194.814 148.371 194.284 141.781 193.897 137.776C193.87 137.49 193.759 137.457 193.722 137.446C193.193 137.286 191.584 138.555 190.686 139.666C190.649 139.712 190.595 139.741 190.537 139.747C190.478 139.754 190.42 139.736 190.374 139.699C190.329 139.662 190.299 139.609 190.293 139.55C190.287 139.492 190.304 139.433 190.341 139.388C190.934 138.653 192.872 136.727 193.85 137.022C193.997 137.072 194.124 137.169 194.212 137.297C194.3 137.425 194.344 137.578 194.338 137.734C194.725 141.742 195.255 148.333 195.816 155.312C196.649 165.673 197.592 177.411 197.902 178.151C197.926 178.184 197.94 178.223 197.943 178.263C197.946 178.304 197.937 178.344 197.919 178.381C197.9 178.417 197.872 178.447 197.837 178.468C197.803 178.489 197.763 178.501 197.722 178.501V178.502Z" fill="#494949"/>
<path d="M193.328 145.125C197.004 142.178 198.223 137.592 196.05 134.88C193.876 132.169 189.135 132.36 185.458 135.307C181.782 138.254 180.564 142.84 182.737 145.552C184.91 148.263 189.652 148.072 193.328 145.125Z" fill="#0CBC8B"/>
<path opacity="0.2" d="M193.328 145.125C197.004 142.178 198.223 137.592 196.05 134.88C193.876 132.169 189.135 132.36 185.458 135.307C181.782 138.254 180.564 142.84 182.737 145.552C184.91 148.263 189.652 148.072 193.328 145.125Z" fill="white"/>
<path d="M183.768 146.241C183.747 146.241 183.726 146.235 183.708 146.224C183.69 146.213 183.676 146.197 183.667 146.178C183.658 146.159 183.655 146.137 183.658 146.117C183.66 146.096 183.669 146.076 183.682 146.06L194.159 133.426C194.178 133.403 194.205 133.389 194.234 133.386C194.263 133.384 194.293 133.393 194.315 133.412C194.338 133.43 194.352 133.457 194.355 133.487C194.358 133.516 194.349 133.545 194.33 133.568L183.852 146.201C183.842 146.214 183.829 146.224 183.814 146.231C183.8 146.238 183.784 146.241 183.768 146.241Z" fill="white"/>
<path d="M200.007 175.793C199.983 175.793 199.958 175.789 199.935 175.781C199.907 175.771 199.882 175.756 199.86 175.737C199.838 175.718 199.821 175.694 199.808 175.668C199.795 175.642 199.788 175.614 199.786 175.585C199.785 175.555 199.789 175.526 199.798 175.499L203.733 164.181C203.849 163.849 204.046 163.55 204.307 163.314C204.568 163.077 204.884 162.91 205.226 162.827C205.569 162.745 205.926 162.749 206.267 162.841C206.607 162.932 206.918 163.108 207.173 163.351L209.254 165.339C209.296 165.379 209.321 165.435 209.322 165.494C209.323 165.552 209.301 165.609 209.261 165.652C209.22 165.694 209.164 165.719 209.106 165.72C209.047 165.722 208.99 165.7 208.947 165.659L206.867 163.671C206.666 163.479 206.42 163.341 206.151 163.269C205.883 163.196 205.6 163.193 205.33 163.258C205.06 163.323 204.81 163.455 204.604 163.642C204.398 163.829 204.243 164.064 204.151 164.327L200.217 175.646C200.201 175.689 200.173 175.726 200.135 175.753C200.098 175.779 200.053 175.793 200.007 175.793Z" fill="#494949"/>
<path d="M215.067 171.605C217.791 169.449 217.63 164.706 214.705 161.012C211.781 157.317 207.202 156.071 204.478 158.227C201.754 160.384 201.916 165.127 204.84 168.821C207.764 172.515 212.343 173.761 215.067 171.605Z" fill="#0CBC8B"/>
<path d="M195.934 177.78C195.885 177.78 195.836 177.763 195.797 177.732C195.758 177.701 195.73 177.658 195.719 177.61L189.116 149.997C189.071 149.808 188.975 149.636 188.838 149.499C188.702 149.362 188.53 149.265 188.342 149.219C188.154 149.173 187.957 149.18 187.772 149.239C187.588 149.298 187.423 149.406 187.297 149.553L185.261 151.905C185.222 151.95 185.168 151.977 185.109 151.981C185.051 151.985 184.993 151.966 184.948 151.928C184.904 151.889 184.877 151.835 184.872 151.776C184.868 151.718 184.887 151.66 184.926 151.615L186.962 149.263C187.142 149.055 187.376 148.9 187.638 148.817C187.9 148.733 188.18 148.723 188.447 148.789C188.714 148.854 188.958 148.992 189.152 149.186C189.347 149.381 189.483 149.626 189.547 149.894L196.15 177.507C196.157 177.535 196.158 177.565 196.153 177.593C196.149 177.622 196.138 177.65 196.123 177.674C196.108 177.699 196.088 177.721 196.064 177.738C196.041 177.755 196.014 177.767 195.986 177.774C195.969 177.778 195.952 177.78 195.934 177.78Z" fill="#494949"/>
<path d="M193.499 158.041C194.302 153.398 192.177 149.155 188.753 148.563C185.33 147.971 181.903 151.254 181.1 155.897C180.298 160.539 182.422 164.783 185.846 165.375C189.27 165.967 192.696 162.683 193.499 158.041Z" fill="#0CBC8B"/>
<path d="M197.723 178.502C197.714 178.502 197.705 178.501 197.696 178.5C197.637 178.493 197.584 178.463 197.548 178.417C197.512 178.37 197.496 178.312 197.503 178.253L201.72 144.013C201.766 143.64 201.919 143.288 202.16 143C202.401 142.712 202.72 142.499 203.079 142.388C203.438 142.277 203.822 142.272 204.184 142.373C204.545 142.475 204.87 142.678 205.119 142.96L209.939 148.42C209.959 148.441 209.975 148.467 209.985 148.495C209.995 148.522 209.999 148.552 209.998 148.581C209.996 148.611 209.989 148.639 209.976 148.666C209.963 148.693 209.945 148.716 209.923 148.736C209.901 148.755 209.875 148.77 209.847 148.78C209.819 148.789 209.79 148.793 209.76 148.791C209.731 148.789 209.702 148.781 209.676 148.767C209.65 148.754 209.626 148.735 209.607 148.713L204.787 143.254C204.594 143.036 204.343 142.879 204.064 142.801C203.784 142.723 203.488 142.727 203.211 142.813C202.934 142.899 202.687 143.063 202.501 143.285C202.315 143.508 202.196 143.779 202.16 144.067L197.943 178.307C197.936 178.361 197.91 178.41 197.87 178.446C197.829 178.482 197.777 178.502 197.723 178.502Z" fill="#494949"/>
<path d="M214.882 151.453C216.564 148.413 214.585 144.1 210.463 141.819C206.34 139.539 201.634 140.155 199.953 143.195C198.271 146.236 200.25 150.549 204.372 152.829C208.495 155.11 213.201 154.494 214.882 151.453Z" fill="#0CBC8B"/>
<path opacity="0.2" d="M215.067 171.605C217.791 169.449 217.63 164.706 214.705 161.012C211.781 157.317 207.202 156.071 204.478 158.227C201.754 160.384 201.916 165.127 204.84 168.821C207.764 172.515 212.343 173.761 215.067 171.605Z" fill="white"/>
<path opacity="0.5" d="M193.499 158.041C194.302 153.398 192.177 149.155 188.753 148.563C185.33 147.971 181.903 151.254 181.1 155.897C180.298 160.539 182.422 164.783 185.846 165.375C189.27 165.967 192.696 162.683 193.499 158.041Z" fill="white"/>
<path opacity="0.5" d="M214.882 151.453C216.564 148.413 214.585 144.1 210.463 141.819C206.34 139.539 201.634 140.155 199.953 143.195C198.271 146.236 200.25 150.549 204.372 152.829C208.495 155.11 213.201 154.494 214.882 151.453Z" fill="white"/>
<path d="M203.116 207.554H192.328L190.541 173.038H204.904L203.116 207.554Z" fill="#292A2E"/>
<path opacity="0.3" d="M203.116 207.554H192.328L190.541 173.038H204.904L203.116 207.554Z" fill="white"/>
<path d="M215.067 171.714C215.05 171.714 215.034 171.71 215.019 171.703C215.003 171.696 214.99 171.685 214.98 171.671L204.391 158.294C204.372 158.27 204.364 158.241 204.367 158.212C204.371 158.183 204.386 158.156 204.409 158.138C204.432 158.12 204.461 158.111 204.49 158.115C204.519 158.118 204.546 158.133 204.564 158.156L215.154 171.534C215.167 171.55 215.175 171.57 215.177 171.59C215.179 171.611 215.176 171.632 215.167 171.651C215.158 171.67 215.143 171.685 215.126 171.696C215.108 171.708 215.088 171.713 215.067 171.713L215.067 171.714Z" fill="white"/>
<path d="M214.178 152.525C214.154 152.525 214.132 152.518 214.113 152.504L200.561 142.609C200.549 142.601 200.539 142.59 200.531 142.578C200.522 142.565 200.517 142.551 200.514 142.537C200.512 142.522 200.512 142.507 200.516 142.493C200.519 142.478 200.525 142.464 200.534 142.452C200.543 142.44 200.554 142.43 200.567 142.423C200.58 142.415 200.594 142.41 200.609 142.408C200.623 142.406 200.638 142.407 200.653 142.411C200.667 142.415 200.68 142.422 200.692 142.431L214.243 152.325C214.262 152.339 214.276 152.358 214.283 152.38C214.29 152.403 214.29 152.427 214.283 152.449C214.275 152.471 214.261 152.49 214.242 152.504C214.223 152.518 214.201 152.525 214.177 152.525H214.178Z" fill="white"/>
<path d="M185.295 165.23C185.286 165.23 185.276 165.229 185.267 165.227C185.238 165.219 185.214 165.201 185.2 165.175C185.185 165.15 185.181 165.12 185.188 165.092L189.502 148.93C189.51 148.902 189.529 148.879 189.554 148.865C189.579 148.85 189.609 148.847 189.637 148.854C189.665 148.862 189.689 148.88 189.704 148.905C189.718 148.93 189.723 148.959 189.716 148.987L185.402 165.148C185.396 165.171 185.382 165.192 185.363 165.207C185.344 165.222 185.32 165.23 185.295 165.23Z" fill="white"/>
</svg>
