<svg width="256" height="59" viewBox="0 0 256 59" fill="none" xmlns="http://www.w3.org/2000/svg">
<path fill-rule="evenodd" clip-rule="evenodd" d="M127.988 0.949707C127.312 0.950006 126.651 1.14223 126.08 1.504C125.51 1.86577 125.054 2.3822 124.765 2.99314L119.321 13.9817C119.306 14.0076 119.293 14.0339 119.279 14.0606C119.253 14.0645 119.227 14.0691 119.201 14.0743L107.211 15.8503C106.531 15.9163 105.884 16.1762 105.348 16.5992C104.811 17.0222 104.408 17.5904 104.185 18.2362C103.962 18.882 103.929 19.5782 104.091 20.242C104.252 20.9058 104.601 21.5093 105.095 21.9806L113.873 30.4457L113.893 30.4628C113.906 30.4745 113.915 30.4891 113.92 30.5052C113.926 30.5214 113.927 30.5386 113.924 30.5554V30.5691L111.833 42.8023V42.8057C111.718 43.469 111.791 44.1511 112.045 44.7747C112.298 45.3983 112.721 45.9384 113.266 46.3337C113.811 46.7289 114.456 46.9635 115.127 47.0108C115.799 47.0581 116.47 46.9161 117.065 46.6011L127.865 40.8926C127.904 40.8756 127.946 40.8668 127.988 40.8668C128.031 40.8668 128.073 40.8756 128.111 40.8926L138.911 46.5977C139.506 46.9148 140.178 47.0585 140.85 47.0124C141.522 46.9663 142.168 46.7323 142.714 46.337C143.259 45.9418 143.683 45.4012 143.936 44.7768C144.19 44.1525 144.263 43.4695 144.147 42.8057L142.055 30.5657V30.5554C142.049 30.5417 142.052 30.5211 142.055 30.5074C142.061 30.4904 142.07 30.4751 142.083 30.4628L142.103 30.4457L150.877 21.9771C151.371 21.5057 151.718 20.9025 151.879 20.2392C152.04 19.5759 152.007 18.8804 151.784 18.2353C151.562 17.5901 151.158 17.0225 150.623 16.5997C150.087 16.177 149.441 15.9168 148.762 15.8503L136.775 14.0743C136.749 14.0691 136.723 14.0645 136.697 14.0606C136.684 14.0339 136.67 14.0076 136.655 13.9817L131.211 2.99314C130.922 2.3822 130.466 1.86577 129.896 1.504C129.325 1.14223 128.664 0.950006 127.988 0.949707Z" fill="#FDB600"/>
<path fill-rule="evenodd" clip-rule="evenodd" d="M179.978 6C179.302 6.0003 178.641 6.19253 178.07 6.5543C177.499 6.91607 177.043 7.43249 176.755 8.04343L171.31 19.032C171.296 19.0579 171.282 19.0842 171.269 19.1109C171.243 19.1148 171.217 19.1194 171.19 19.1246L159.201 20.9006C158.521 20.9666 157.874 21.2265 157.338 21.6495C156.801 22.0725 156.397 22.6407 156.175 23.2865C155.952 23.9322 155.919 24.6285 156.08 25.2923C156.242 25.9561 156.591 26.5595 157.085 27.0309L165.862 35.496L165.883 35.5131C165.895 35.5248 165.905 35.5394 165.91 35.5555C165.915 35.5717 165.917 35.5889 165.914 35.6057V35.6194L163.822 47.8526V47.856C163.708 48.5193 163.781 49.2014 164.034 49.825C164.288 50.4486 164.711 50.9887 165.256 51.384C165.801 51.7792 166.445 52.0138 167.117 52.0611C167.788 52.1084 168.46 51.9664 169.054 51.6514L179.854 45.9429C179.893 45.9259 179.935 45.9171 179.978 45.9171C180.02 45.9171 180.062 45.9259 180.101 45.9429L190.901 51.648C191.496 51.9651 192.167 52.1088 192.84 52.0627C193.512 52.0166 194.158 51.7826 194.703 51.3873C195.249 50.9921 195.673 50.4515 195.926 49.8271C196.18 49.2028 196.253 48.5198 196.137 47.856L194.045 35.616V35.6057C194.038 35.592 194.042 35.5714 194.045 35.5577C194.05 35.5407 194.06 35.5254 194.073 35.5131L194.093 35.496L202.867 27.0274C203.36 26.556 203.708 25.9528 203.869 25.2895C204.03 24.6262 203.997 23.9307 203.774 23.2856C203.551 22.6404 203.148 22.0728 202.612 21.65C202.077 21.2273 201.431 20.9671 200.752 20.9006L188.765 19.1246C188.739 19.1194 188.713 19.1148 188.686 19.1109C188.673 19.0842 188.66 19.0579 188.645 19.032L183.201 8.04343C182.912 7.43249 182.456 6.91607 181.886 6.5543C181.315 6.19253 180.653 6.0003 179.978 6Z" fill="#FDB600"/>
<path fill-rule="evenodd" clip-rule="evenodd" d="M231.968 12C231.292 12.0003 230.63 12.1925 230.06 12.5543C229.489 12.9161 229.033 13.4325 228.745 14.0434L223.3 25.032C223.286 25.0579 223.272 25.0842 223.259 25.1109C223.233 25.1148 223.206 25.1194 223.18 25.1246L211.19 26.9006C210.51 26.9666 209.864 27.2265 209.327 27.6495C208.791 28.0725 208.387 28.6407 208.164 29.2865C207.941 29.9322 207.909 30.6285 208.07 31.2923C208.232 31.9561 208.58 32.5595 209.075 33.0309L217.852 41.496L217.873 41.5131C217.885 41.5248 217.894 41.5394 217.9 41.5555C217.905 41.5717 217.906 41.5889 217.904 41.6057V41.6194L215.812 53.8526V53.856C215.697 54.5193 215.771 55.2014 216.024 55.825C216.278 56.4486 216.701 56.9887 217.245 57.384C217.79 57.7792 218.435 58.0138 219.107 58.0611C219.778 58.1084 220.449 57.9664 221.044 57.6514L231.844 51.9429C231.883 51.9259 231.925 51.9171 231.968 51.9171C232.01 51.9171 232.052 51.9259 232.091 51.9429L242.891 57.648C243.486 57.9651 244.157 58.1088 244.829 58.0627C245.502 58.0166 246.147 57.7826 246.693 57.3873C247.239 56.9921 247.663 56.4515 247.916 55.8271C248.169 55.2028 248.242 54.5198 248.126 53.856L246.035 41.616V41.6057C246.028 41.592 246.032 41.5714 246.035 41.5577C246.04 41.5407 246.05 41.5254 246.062 41.5131L246.083 41.496L254.857 33.0274C255.35 32.556 255.698 31.9528 255.859 31.2895C256.02 30.6262 255.987 29.9307 255.764 29.2856C255.541 28.6404 255.138 28.0728 254.602 27.65C254.066 27.2273 253.421 26.9671 252.741 26.9006L240.755 25.1246C240.729 25.1194 240.703 25.1148 240.676 25.1109C240.663 25.0842 240.649 25.0579 240.635 25.032L235.19 14.0434C234.902 13.4325 234.446 12.9161 233.875 12.5543C233.305 12.1925 232.643 12.0003 231.968 12Z" fill="#FDB600"/>
<path fill-rule="evenodd" clip-rule="evenodd" d="M75.9983 6C75.3227 6.0003 74.6611 6.19253 74.0905 6.5543C73.52 6.91607 73.0639 7.43249 72.7755 8.04343L67.3309 19.032C67.3165 19.0579 67.3028 19.0842 67.2897 19.1109C67.2634 19.1148 67.2371 19.1194 67.2109 19.1246L55.2212 20.9006C54.5412 20.9666 53.8945 21.2265 53.358 21.6495C52.8216 22.0725 52.4179 22.6407 52.195 23.2865C51.9722 23.9322 51.9396 24.6285 52.101 25.2923C52.2625 25.9561 52.6112 26.5595 53.1057 27.0309L61.8829 35.496L61.9035 35.5131C61.9159 35.5248 61.9252 35.5394 61.9306 35.5555C61.936 35.5717 61.9372 35.5889 61.9343 35.6057V35.6194L59.8429 47.8526V47.856C59.7281 48.5193 59.8015 49.2014 60.0549 49.825C60.3083 50.4486 60.7314 50.9887 61.2763 51.384C61.8211 51.7792 62.4659 52.0138 63.1373 52.0611C63.8088 52.1084 64.48 51.9664 65.0749 51.6514L75.8749 45.9429C75.9138 45.9259 75.9558 45.9171 75.9983 45.9171C76.0408 45.9171 76.0828 45.9259 76.1217 45.9429L86.9217 51.648C87.5163 51.9651 88.188 52.1088 88.8602 52.0627C89.5324 52.0166 90.1782 51.7826 90.7239 51.3873C91.2696 50.9921 91.6933 50.4515 91.9467 49.8271C92.2001 49.2028 92.2731 48.5198 92.1572 47.856L90.0657 35.616V35.6057C90.0589 35.592 90.0623 35.5714 90.0657 35.5577C90.0709 35.5407 90.0803 35.5254 90.0932 35.5131L90.1137 35.496L98.8875 27.0274C99.3809 26.556 99.7287 25.9528 99.8895 25.2895C100.05 24.6262 100.017 23.9307 99.7947 23.2856C99.572 22.6404 99.1687 22.0728 98.6329 21.65C98.0971 21.2273 97.4513 20.9671 96.772 20.9006L84.7857 19.1246C84.7596 19.1194 84.7333 19.1148 84.7069 19.1109C84.6939 19.0842 84.6801 19.0579 84.6657 19.032L79.2212 8.04343C78.9327 7.43249 78.4767 6.91607 77.9061 6.5543C77.3355 6.19253 76.6739 6.0003 75.9983 6Z" fill="#FDB600"/>
<path fill-rule="evenodd" clip-rule="evenodd" d="M23.9983 12C23.3227 12.0003 22.6611 12.1925 22.0905 12.5543C21.52 12.9161 21.0639 13.4325 20.7755 14.0434L15.3309 25.032C15.3165 25.0579 15.3028 25.0842 15.2897 25.1109C15.2634 25.1148 15.2371 25.1194 15.2109 25.1246L3.22118 26.9006C2.54121 26.9666 1.89452 27.2265 1.35805 27.6495C0.82157 28.0725 0.417894 28.6407 0.195045 29.2865C-0.027804 29.9322 -0.0604453 30.6285 0.101005 31.2923C0.262455 31.9561 0.6112 32.5595 1.10575 33.0309L9.88289 41.496L9.90346 41.5131C9.91587 41.5248 9.92518 41.5394 9.93057 41.5555C9.93595 41.5717 9.93724 41.5889 9.93432 41.6057V41.6194L7.84289 53.8526V53.856C7.72809 54.5193 7.80154 55.2014 8.05491 55.825C8.30827 56.4486 8.7314 56.9887 9.27625 57.384C9.82111 57.7792 10.4659 58.0138 11.1373 58.0611C11.8088 58.1084 12.48 57.9664 13.0749 57.6514L23.8749 51.9429C23.9138 51.9259 23.9558 51.9171 23.9983 51.9171C24.0408 51.9171 24.0828 51.9259 24.1217 51.9429L34.9217 57.648C35.5163 57.9651 36.188 58.1088 36.8602 58.0627C37.5324 58.0166 38.1782 57.7826 38.7239 57.3873C39.2696 56.9921 39.6933 56.4515 39.9467 55.8271C40.2001 55.2028 40.2731 54.5198 40.1572 53.856L38.0657 41.616V41.6057C38.0589 41.592 38.0623 41.5714 38.0657 41.5577C38.0709 41.5407 38.0803 41.5254 38.0932 41.5131L38.1137 41.496L46.8875 33.0274C47.3809 32.556 47.7287 31.9528 47.8895 31.2895C48.0504 30.6262 48.0174 29.9307 47.7947 29.2856C47.572 28.6404 47.1687 28.0728 46.6329 27.65C46.0971 27.2273 45.4513 26.9671 44.772 26.9006L32.7857 25.1246C32.7596 25.1194 32.7333 25.1148 32.7069 25.1109C32.6939 25.0842 32.6801 25.0579 32.6657 25.032L27.2212 14.0434C26.9327 13.4325 26.4767 12.9161 25.9061 12.5543C25.3355 12.1925 24.6739 12.0003 23.9983 12Z" fill="#FDB600"/>
</svg>
