<svg width="204" height="54" viewBox="0 0 204 54" fill="none" xmlns="http://www.w3.org/2000/svg">
<path fill-rule="evenodd" clip-rule="evenodd" d="M75.9881 2C75.3125 2.0003 74.6509 2.19253 74.0803 2.5543C73.5097 2.91607 73.0536 3.43249 72.7652 4.04343L67.3206 15.032C67.3062 15.0579 67.2925 15.0842 67.2795 15.1109C67.2531 15.1148 67.2268 15.1194 67.2006 15.1246L55.2109 16.9006C54.531 16.9666 53.8843 17.2265 53.3478 17.6495C52.8113 18.0725 52.4076 18.6407 52.1848 19.2865C51.9619 19.9322 51.9293 20.6285 52.0908 21.2923C52.2522 21.9561 52.6009 22.5595 53.0955 23.0309L61.8726 31.496L61.8932 31.5131C61.9056 31.5248 61.9149 31.5394 61.9203 31.5555C61.9257 31.5717 61.927 31.5889 61.9241 31.6057V31.6194L59.8326 43.8526V43.856C59.7178 44.5193 59.7913 45.2014 60.0447 45.825C60.298 46.4486 60.7211 46.9887 61.266 47.384C61.8109 47.7792 62.4556 48.0138 63.1271 48.0611C63.7985 48.1084 64.4698 47.9664 65.0646 47.6514L75.8646 41.9429C75.9036 41.9259 75.9456 41.9171 75.9881 41.9171C76.0305 41.9171 76.0726 41.9259 76.1115 41.9429L86.9115 47.648C87.506 47.9651 88.1777 48.1088 88.8499 48.0627C89.5222 48.0166 90.168 47.7826 90.7137 47.3873C91.2594 46.9921 91.6831 46.4515 91.9365 45.8271C92.1899 45.2028 92.2628 44.5198 92.1469 43.856L90.0555 31.616V31.6057C90.0486 31.592 90.0521 31.5714 90.0555 31.5577C90.0606 31.5407 90.0701 31.5254 90.0829 31.5131L90.1035 31.496L98.8772 23.0274C99.3707 22.556 99.7185 21.9528 99.8793 21.2895C100.04 20.6262 100.007 19.9307 99.7845 19.2856C99.5617 18.6404 99.1585 18.0728 98.6227 17.65C98.0869 17.2273 97.441 16.9671 96.7618 16.9006L84.7755 15.1246C84.7493 15.1194 84.723 15.1148 84.6966 15.1109C84.6836 15.0842 84.6699 15.0579 84.6555 15.032L79.2109 4.04343C78.9225 3.43249 78.4664 2.91607 77.8959 2.5543C77.3253 2.19253 76.6637 2.0003 75.9881 2Z" fill="#FDB600"/>
<path fill-rule="evenodd" clip-rule="evenodd" d="M127.978 2C127.302 2.0003 126.641 2.19253 126.07 2.5543C125.499 2.91607 125.043 3.43249 124.755 4.04343L119.31 15.032C119.296 15.0579 119.282 15.0842 119.269 15.1109C119.243 15.1148 119.217 15.1194 119.19 15.1246L107.201 16.9006C106.521 16.9666 105.874 17.2265 105.338 17.6495C104.801 18.0725 104.397 18.6407 104.175 19.2865C103.952 19.9322 103.919 20.6285 104.08 21.2923C104.242 21.9561 104.591 22.5595 105.085 23.0309L113.862 31.496L113.883 31.5131C113.895 31.5248 113.905 31.5394 113.91 31.5555C113.915 31.5717 113.917 31.5889 113.914 31.6057V31.6194L111.822 43.8526V43.856C111.708 44.5193 111.781 45.2014 112.034 45.825C112.288 46.4486 112.711 46.9887 113.256 47.384C113.801 47.7792 114.445 48.0138 115.117 48.0611C115.788 48.1084 116.46 47.9664 117.054 47.6514L127.854 41.9429C127.893 41.9259 127.935 41.9171 127.978 41.9171C128.02 41.9171 128.062 41.9259 128.101 41.9429L138.901 47.648C139.496 47.9651 140.167 48.1088 140.84 48.0627C141.512 48.0166 142.158 47.7826 142.703 47.3873C143.249 46.9921 143.673 46.4515 143.926 45.8271C144.18 45.2028 144.253 44.5198 144.137 43.856L142.045 31.616V31.6057C142.038 31.592 142.042 31.5714 142.045 31.5577C142.05 31.5407 142.06 31.5254 142.073 31.5131L142.093 31.496L150.867 23.0274C151.36 22.556 151.708 21.9528 151.869 21.2895C152.03 20.6262 151.997 19.9307 151.774 19.2856C151.551 18.6404 151.148 18.0728 150.612 17.65C150.077 17.2273 149.431 16.9671 148.752 16.9006L136.765 15.1246C136.739 15.1194 136.713 15.1148 136.686 15.1109C136.673 15.0842 136.66 15.0579 136.645 15.032L131.201 4.04343C130.912 3.43249 130.456 2.91607 129.886 2.5543C129.315 2.19253 128.653 2.0003 127.978 2Z" fill="#FDB600"/>
<path fill-rule="evenodd" clip-rule="evenodd" d="M179.978 7C179.302 7.0003 178.641 7.19253 178.07 7.5543C177.499 7.91607 177.043 8.43249 176.755 9.04343L171.31 20.032C171.296 20.0579 171.282 20.0842 171.269 20.1109C171.243 20.1148 171.217 20.1194 171.19 20.1246L159.201 21.9006C158.521 21.9666 157.874 22.2265 157.338 22.6495C156.801 23.0725 156.397 23.6407 156.175 24.2865C155.952 24.9322 155.919 25.6285 156.08 26.2923C156.242 26.9561 156.591 27.5595 157.085 28.0309L165.862 36.496L165.883 36.5131C165.895 36.5248 165.905 36.5394 165.91 36.5555C165.915 36.5717 165.917 36.5889 165.914 36.6057V36.6194L163.822 48.8526V48.856C163.708 49.5193 163.781 50.2014 164.034 50.825C164.288 51.4486 164.711 51.9887 165.256 52.384C165.801 52.7792 166.445 53.0138 167.117 53.0611C167.788 53.1084 168.46 52.9664 169.054 52.6514L179.854 46.9429C179.893 46.9259 179.935 46.9171 179.978 46.9171C180.02 46.9171 180.062 46.9259 180.101 46.9429L190.901 52.648C191.496 52.9651 192.167 53.1088 192.84 53.0627C193.512 53.0166 194.158 52.7826 194.703 52.3873C195.249 51.9921 195.673 51.4515 195.926 50.8271C196.18 50.2028 196.253 49.5198 196.137 48.856L194.045 36.616V36.6057C194.038 36.592 194.042 36.5714 194.045 36.5577C194.05 36.5407 194.06 36.5254 194.073 36.5131L194.093 36.496L202.867 28.0274C203.36 27.556 203.708 26.9528 203.869 26.2895C204.03 25.6262 203.997 24.9307 203.774 24.2856C203.551 23.6404 203.148 23.0728 202.612 22.65C202.077 22.2273 201.431 21.9671 200.752 21.9006L188.765 20.1246C188.739 20.1194 188.713 20.1148 188.686 20.1109C188.673 20.0842 188.66 20.0579 188.645 20.032L183.201 9.04343C182.912 8.43249 182.456 7.91607 181.886 7.5543C181.315 7.19253 180.653 7.0003 179.978 7Z" fill="#FDB600"/>
<path fill-rule="evenodd" clip-rule="evenodd" d="M23.9983 7C23.3227 7.0003 22.6611 7.19253 22.0905 7.5543C21.52 7.91607 21.0639 8.43249 20.7755 9.04343L15.3309 20.032C15.3165 20.0579 15.3028 20.0842 15.2897 20.1109C15.2634 20.1148 15.2371 20.1194 15.2109 20.1246L3.22118 21.9006C2.54121 21.9666 1.89452 22.2265 1.35805 22.6495C0.82157 23.0725 0.417894 23.6407 0.195045 24.2865C-0.027804 24.9322 -0.0604453 25.6285 0.101005 26.2923C0.262455 26.9561 0.6112 27.5595 1.10575 28.0309L9.88289 36.496L9.90346 36.5131C9.91587 36.5248 9.92518 36.5394 9.93057 36.5555C9.93595 36.5717 9.93724 36.5889 9.93432 36.6057V36.6194L7.84289 48.8526V48.856C7.72809 49.5193 7.80154 50.2014 8.05491 50.825C8.30827 51.4486 8.7314 51.9887 9.27625 52.384C9.82111 52.7792 10.4659 53.0138 11.1373 53.0611C11.8088 53.1084 12.48 52.9664 13.0749 52.6514L23.8749 46.9429C23.9138 46.9259 23.9558 46.9171 23.9983 46.9171C24.0408 46.9171 24.0828 46.9259 24.1217 46.9429L34.9217 52.648C35.5163 52.9651 36.188 53.1088 36.8602 53.0627C37.5324 53.0166 38.1782 52.7826 38.7239 52.3873C39.2696 51.9921 39.6933 51.4515 39.9467 50.8271C40.2001 50.2028 40.2731 49.5198 40.1572 48.856L38.0657 36.616V36.6057C38.0589 36.592 38.0623 36.5714 38.0657 36.5577C38.0709 36.5407 38.0803 36.5254 38.0932 36.5131L38.1137 36.496L46.8875 28.0274C47.3809 27.556 47.7287 26.9528 47.8895 26.2895C48.0504 25.6262 48.0174 24.9307 47.7947 24.2856C47.572 23.6404 47.1687 23.0728 46.6329 22.65C46.0971 22.2273 45.4513 21.9671 44.772 21.9006L32.7857 20.1246C32.7596 20.1194 32.7333 20.1148 32.7069 20.1109C32.6939 20.0842 32.6801 20.0579 32.6657 20.032L27.2212 9.04343C26.9327 8.43249 26.4767 7.91607 25.9061 7.5543C25.3355 7.19253 24.6739 7.0003 23.9983 7Z" fill="#FDB600"/>
</svg>
