<svg width="48" height="48" viewBox="0 0 48 48" fill="none" xmlns="http://www.w3.org/2000/svg">
<g clip-path="url(#clip0_794_2582)">
<path fill-rule="evenodd" clip-rule="evenodd" d="M23.9998 0.949707C23.3242 0.950006 22.6626 1.14223 22.092 1.504C21.5214 1.86577 21.0654 2.3822 20.7769 2.99314L15.3324 13.9817C15.318 14.0076 15.3042 14.0339 15.2912 14.0606C15.2648 14.0645 15.2385 14.0691 15.2124 14.0743L3.22264 15.8503C2.54268 15.9163 1.89599 16.1762 1.35951 16.5992C0.823035 17.0222 0.419359 17.5904 0.19651 18.2362C-0.0263391 18.882 -0.0589804 19.5782 0.10247 20.242C0.26392 20.9058 0.612665 21.5093 1.10721 21.9806L9.88436 30.4457L9.90493 30.4628C9.91733 30.4745 9.92665 30.4891 9.93203 30.5052C9.93742 30.5214 9.93871 30.5386 9.93578 30.5554V30.5691L7.84436 42.8023V42.8057C7.72956 43.469 7.80301 44.1511 8.05637 44.7747C8.30974 45.3983 8.73286 45.9384 9.27772 46.3337C9.82257 46.7289 10.4673 46.9635 11.1388 47.0108C11.8102 47.0581 12.4815 46.9161 13.0764 46.6011L23.8764 40.8926C23.9153 40.8756 23.9573 40.8668 23.9998 40.8668C24.0423 40.8668 24.0843 40.8756 24.1232 40.8926L34.9232 46.5977C35.5178 46.9148 36.1894 47.0585 36.8617 47.0124C37.5339 46.9663 38.1797 46.7323 38.7254 46.337C39.2711 45.9418 39.6948 45.4012 39.9482 44.7768C40.2016 44.1525 40.2745 43.4695 40.1586 42.8057L38.0672 30.5657V30.5554C38.0604 30.5417 38.0638 30.5211 38.0672 30.5074C38.0724 30.4904 38.0818 30.4751 38.0946 30.4628L38.1152 30.4457L46.8889 21.9771C47.3824 21.5057 47.7302 20.9025 47.891 20.2392C48.0518 19.5759 48.0189 18.8804 47.7962 18.2353C47.5734 17.5901 47.1702 17.0225 46.6344 16.5997C46.0986 16.177 45.4527 15.9168 44.7735 15.8503L32.7872 14.0743C32.761 14.0691 32.7347 14.0645 32.7084 14.0606C32.6953 14.0339 32.6816 14.0076 32.6672 13.9817L27.2226 2.99314C26.9342 2.3822 26.4782 1.86577 25.9076 1.504C25.337 1.14223 24.6754 0.950006 23.9998 0.949707Z" fill="#FDB600"/>
</g>
<defs>
<clipPath id="clip0_794_2582">
<rect width="48" height="48" fill="white"/>
</clipPath>
</defs>
</svg>
