<svg width="308" height="61" viewBox="0 0 308 61" fill="none" xmlns="http://www.w3.org/2000/svg">
<path fill-rule="evenodd" clip-rule="evenodd" d="M127.988 2C127.312 2.0003 126.651 2.19253 126.08 2.5543C125.51 2.91607 125.054 3.43249 124.765 4.04343L119.321 15.032C119.306 15.0579 119.293 15.0842 119.279 15.1109C119.253 15.1148 119.227 15.1194 119.201 15.1246L107.211 16.9006C106.531 16.9666 105.884 17.2265 105.348 17.6495C104.811 18.0725 104.408 18.6407 104.185 19.2865C103.962 19.9322 103.929 20.6285 104.091 21.2923C104.252 21.9561 104.601 22.5595 105.095 23.0309L113.873 31.496L113.893 31.5131C113.906 31.5248 113.915 31.5394 113.92 31.5555C113.926 31.5717 113.927 31.5889 113.924 31.6057V31.6194L111.833 43.8526V43.856C111.718 44.5193 111.791 45.2014 112.045 45.825C112.298 46.4486 112.721 46.9887 113.266 47.384C113.811 47.7792 114.456 48.0138 115.127 48.0611C115.799 48.1084 116.47 47.9664 117.065 47.6514L127.865 41.9429C127.904 41.9259 127.946 41.9171 127.988 41.9171C128.031 41.9171 128.073 41.9259 128.111 41.9429L138.911 47.648C139.506 47.9651 140.178 48.1088 140.85 48.0627C141.522 48.0166 142.168 47.7826 142.714 47.3873C143.259 46.9921 143.683 46.4515 143.936 45.8271C144.19 45.2028 144.263 44.5198 144.147 43.856L142.055 31.616V31.6057C142.049 31.592 142.052 31.5714 142.055 31.5577C142.061 31.5407 142.07 31.5254 142.083 31.5131L142.103 31.496L150.877 23.0274C151.371 22.556 151.718 21.9528 151.879 21.2895C152.04 20.6262 152.007 19.9307 151.784 19.2856C151.562 18.6404 151.158 18.0728 150.623 17.65C150.087 17.2273 149.441 16.9671 148.762 16.9006L136.775 15.1246C136.749 15.1194 136.723 15.1148 136.697 15.1109C136.684 15.0842 136.67 15.0579 136.655 15.032L131.211 4.04343C130.922 3.43249 130.466 2.91607 129.896 2.5543C129.325 2.19253 128.664 2.0003 127.988 2Z" fill="#FDB600"/>
<path fill-rule="evenodd" clip-rule="evenodd" d="M179.978 2C179.302 2.0003 178.641 2.19253 178.07 2.5543C177.499 2.91607 177.043 3.43249 176.755 4.04343L171.31 15.032C171.296 15.0579 171.282 15.0842 171.269 15.1109C171.243 15.1148 171.217 15.1194 171.19 15.1246L159.201 16.9006C158.521 16.9666 157.874 17.2265 157.338 17.6495C156.801 18.0725 156.397 18.6407 156.175 19.2865C155.952 19.9322 155.919 20.6285 156.08 21.2923C156.242 21.9561 156.591 22.5595 157.085 23.0309L165.862 31.496L165.883 31.5131C165.895 31.5248 165.905 31.5394 165.91 31.5555C165.915 31.5717 165.917 31.5889 165.914 31.6057V31.6194L163.822 43.8526V43.856C163.708 44.5193 163.781 45.2014 164.034 45.825C164.288 46.4486 164.711 46.9887 165.256 47.384C165.801 47.7792 166.445 48.0138 167.117 48.0611C167.788 48.1084 168.46 47.9664 169.054 47.6514L179.854 41.9429C179.893 41.9259 179.935 41.9171 179.978 41.9171C180.02 41.9171 180.062 41.9259 180.101 41.9429L190.901 47.648C191.496 47.9651 192.167 48.1088 192.84 48.0627C193.512 48.0166 194.158 47.7826 194.703 47.3873C195.249 46.9921 195.673 46.4515 195.926 45.8271C196.18 45.2028 196.253 44.5198 196.137 43.856L194.045 31.616V31.6057C194.038 31.592 194.042 31.5714 194.045 31.5577C194.05 31.5407 194.06 31.5254 194.073 31.5131L194.093 31.496L202.867 23.0274C203.36 22.556 203.708 21.9528 203.869 21.2895C204.03 20.6262 203.997 19.9307 203.774 19.2856C203.551 18.6404 203.148 18.0728 202.612 17.65C202.077 17.2273 201.431 16.9671 200.752 16.9006L188.765 15.1246C188.739 15.1194 188.713 15.1148 188.686 15.1109C188.673 15.0842 188.66 15.0579 188.645 15.032L183.201 4.04343C182.912 3.43249 182.456 2.91607 181.886 2.5543C181.315 2.19253 180.653 2.0003 179.978 2Z" fill="#FDB600"/>
<path fill-rule="evenodd" clip-rule="evenodd" d="M231.968 7C231.292 7.0003 230.63 7.19253 230.06 7.5543C229.489 7.91607 229.033 8.43249 228.745 9.04343L223.3 20.032C223.286 20.0579 223.272 20.0842 223.259 20.1109C223.233 20.1148 223.206 20.1194 223.18 20.1246L211.19 21.9006C210.51 21.9666 209.864 22.2265 209.327 22.6495C208.791 23.0725 208.387 23.6407 208.164 24.2865C207.941 24.9322 207.909 25.6285 208.07 26.2923C208.232 26.9561 208.58 27.5595 209.075 28.0309L217.852 36.496L217.873 36.5131C217.885 36.5248 217.894 36.5394 217.9 36.5555C217.905 36.5717 217.906 36.5889 217.904 36.6057V36.6194L215.812 48.8526V48.856C215.697 49.5193 215.771 50.2014 216.024 50.825C216.278 51.4486 216.701 51.9887 217.245 52.384C217.79 52.7792 218.435 53.0138 219.107 53.0611C219.778 53.1084 220.449 52.9664 221.044 52.6514L231.844 46.9429C231.883 46.9259 231.925 46.9171 231.968 46.9171C232.01 46.9171 232.052 46.9259 232.091 46.9429L242.891 52.648C243.486 52.9651 244.157 53.1088 244.829 53.0627C245.502 53.0166 246.147 52.7826 246.693 52.3873C247.239 51.9921 247.663 51.4515 247.916 50.8271C248.169 50.2028 248.242 49.5198 248.126 48.856L246.035 36.616V36.6057C246.028 36.592 246.032 36.5714 246.035 36.5577C246.04 36.5407 246.05 36.5254 246.062 36.5131L246.083 36.496L254.857 28.0274C255.35 27.556 255.698 26.9528 255.859 26.2895C256.02 25.6262 255.987 24.9307 255.764 24.2856C255.541 23.6404 255.138 23.0728 254.602 22.65C254.066 22.2273 253.421 21.9671 252.741 21.9006L240.755 20.1246C240.729 20.1194 240.703 20.1148 240.676 20.1109C240.663 20.0842 240.649 20.0579 240.635 20.032L235.19 9.04343C234.902 8.43249 234.446 7.91607 233.875 7.5543C233.305 7.19253 232.643 7.0003 231.968 7Z" fill="#FDB600"/>
<path fill-rule="evenodd" clip-rule="evenodd" d="M75.9983 7C75.3227 7.0003 74.6611 7.19253 74.0905 7.5543C73.52 7.91607 73.0639 8.43249 72.7755 9.04343L67.3309 20.032C67.3165 20.0579 67.3028 20.0842 67.2897 20.1109C67.2634 20.1148 67.2371 20.1194 67.2109 20.1246L55.2212 21.9006C54.5412 21.9666 53.8945 22.2265 53.358 22.6495C52.8216 23.0725 52.4179 23.6407 52.195 24.2865C51.9722 24.9322 51.9396 25.6285 52.101 26.2923C52.2625 26.9561 52.6112 27.5595 53.1057 28.0309L61.8829 36.496L61.9035 36.5131C61.9159 36.5248 61.9252 36.5394 61.9306 36.5555C61.936 36.5717 61.9372 36.5889 61.9343 36.6057V36.6194L59.8429 48.8526V48.856C59.7281 49.5193 59.8015 50.2014 60.0549 50.825C60.3083 51.4486 60.7314 51.9887 61.2763 52.384C61.8211 52.7792 62.4659 53.0138 63.1373 53.0611C63.8088 53.1084 64.48 52.9664 65.0749 52.6514L75.8749 46.9429C75.9138 46.9259 75.9558 46.9171 75.9983 46.9171C76.0408 46.9171 76.0828 46.9259 76.1217 46.9429L86.9217 52.648C87.5163 52.9651 88.188 53.1088 88.8602 53.0627C89.5324 53.0166 90.1782 52.7826 90.7239 52.3873C91.2696 51.9921 91.6933 51.4515 91.9467 50.8271C92.2001 50.2028 92.2731 49.5198 92.1572 48.856L90.0657 36.616V36.6057C90.0589 36.592 90.0623 36.5714 90.0657 36.5577C90.0709 36.5407 90.0803 36.5254 90.0932 36.5131L90.1137 36.496L98.8875 28.0274C99.3809 27.556 99.7287 26.9528 99.8895 26.2895C100.05 25.6262 100.017 24.9307 99.7947 24.2856C99.572 23.6404 99.1687 23.0728 98.6329 22.65C98.0971 22.2273 97.4513 21.9671 96.772 21.9006L84.7857 20.1246C84.7596 20.1194 84.7333 20.1148 84.7069 20.1109C84.6939 20.0842 84.6801 20.0579 84.6657 20.032L79.2212 9.04343C78.9327 8.43249 78.4767 7.91607 77.9061 7.5543C77.3355 7.19253 76.6739 7.0003 75.9983 7Z" fill="#FDB600"/>
<path fill-rule="evenodd" clip-rule="evenodd" d="M283.957 14C283.282 14.0003 282.62 14.1925 282.05 14.5543C281.479 14.9161 281.023 15.4325 280.734 16.0434L275.29 27.032C275.275 27.0579 275.262 27.0842 275.249 27.1109C275.222 27.1148 275.196 27.1194 275.17 27.1246L263.18 28.9006C262.5 28.9666 261.854 29.2265 261.317 29.6495C260.781 30.0725 260.377 30.6407 260.154 31.2865C259.931 31.9322 259.899 32.6285 260.06 33.2923C260.221 33.9561 260.57 34.5595 261.065 35.0309L269.842 43.496L269.862 43.5131C269.875 43.5248 269.884 43.5394 269.89 43.5555C269.895 43.5717 269.896 43.5889 269.893 43.6057V43.6194L267.802 55.8526V55.856C267.687 56.5193 267.761 57.2014 268.014 57.825C268.267 58.4486 268.69 58.9887 269.235 59.384C269.78 59.7792 270.425 60.0138 271.096 60.0611C271.768 60.1084 272.439 59.9664 273.034 59.6514L283.834 53.9429C283.873 53.9259 283.915 53.9171 283.957 53.9171C284 53.9171 284.042 53.9259 284.081 53.9429L294.881 59.648C295.475 59.9651 296.147 60.1088 296.819 60.0627C297.491 60.0166 298.137 59.7826 298.683 59.3873C299.229 58.9921 299.652 58.4515 299.906 57.8271C300.159 57.2028 300.232 56.5198 300.116 55.856L298.025 43.616V43.6057C298.018 43.592 298.021 43.5714 298.025 43.5577C298.03 43.5407 298.039 43.5254 298.052 43.5131L298.073 43.496L306.846 35.0274C307.34 34.556 307.688 33.9528 307.849 33.2895C308.009 32.6262 307.976 31.9307 307.754 31.2856C307.531 30.6404 307.128 30.0728 306.592 29.65C306.056 29.2273 305.41 28.9671 304.731 28.9006L292.745 27.1246C292.719 27.1194 292.692 27.1148 292.666 27.1109C292.653 27.0842 292.639 27.0579 292.625 27.032L287.18 16.0434C286.892 15.4325 286.436 14.9161 285.865 14.5543C285.295 14.1925 284.633 14.0003 283.957 14Z" fill="#FDB600"/>
<path fill-rule="evenodd" clip-rule="evenodd" d="M23.9983 14C23.3227 14.0003 22.6611 14.1925 22.0905 14.5543C21.52 14.9161 21.0639 15.4325 20.7755 16.0434L15.3309 27.032C15.3165 27.0579 15.3028 27.0842 15.2897 27.1109C15.2634 27.1148 15.2371 27.1194 15.2109 27.1246L3.22118 28.9006C2.54121 28.9666 1.89452 29.2265 1.35805 29.6495C0.82157 30.0725 0.417894 30.6407 0.195045 31.2865C-0.027804 31.9322 -0.0604453 32.6285 0.101005 33.2923C0.262455 33.9561 0.6112 34.5595 1.10575 35.0309L9.88289 43.496L9.90346 43.5131C9.91587 43.5248 9.92518 43.5394 9.93057 43.5555C9.93595 43.5717 9.93724 43.5889 9.93432 43.6057V43.6194L7.84289 55.8526V55.856C7.72809 56.5193 7.80154 57.2014 8.05491 57.825C8.30827 58.4486 8.7314 58.9887 9.27625 59.384C9.82111 59.7792 10.4659 60.0138 11.1373 60.0611C11.8088 60.1084 12.48 59.9664 13.0749 59.6514L23.8749 53.9429C23.9138 53.9259 23.9558 53.9171 23.9983 53.9171C24.0408 53.9171 24.0828 53.9259 24.1217 53.9429L34.9217 59.648C35.5163 59.9651 36.188 60.1088 36.8602 60.0627C37.5324 60.0166 38.1782 59.7826 38.7239 59.3873C39.2696 58.9921 39.6933 58.4515 39.9467 57.8271C40.2001 57.2028 40.2731 56.5198 40.1572 55.856L38.0657 43.616V43.6057C38.0589 43.592 38.0623 43.5714 38.0657 43.5577C38.0709 43.5407 38.0803 43.5254 38.0932 43.5131L38.1137 43.496L46.8875 35.0274C47.3809 34.556 47.7287 33.9528 47.8895 33.2895C48.0504 32.6262 48.0174 31.9307 47.7947 31.2856C47.572 30.6404 47.1687 30.0728 46.6329 29.65C46.0971 29.2273 45.4513 28.9671 44.772 28.9006L32.7857 27.1246C32.7596 27.1194 32.7333 27.1148 32.7069 27.1109C32.6939 27.0842 32.6801 27.0579 32.6657 27.032L27.2212 16.0434C26.9327 15.4325 26.4767 14.9161 25.9061 14.5543C25.3355 14.1925 24.6739 14.0003 23.9983 14Z" fill="#FDB600"/>
</svg>
