<svg width="152" height="53" viewBox="0 0 152 53" fill="none" xmlns="http://www.w3.org/2000/svg">
<path fill-rule="evenodd" clip-rule="evenodd" d="M75.9881 0.949707C75.3125 0.950006 74.6509 1.14223 74.0803 1.504C73.5097 1.86577 73.0536 2.3822 72.7652 2.99314L67.3206 13.9817C67.3062 14.0076 67.2925 14.0339 67.2795 14.0606C67.2531 14.0645 67.2268 14.0691 67.2006 14.0743L55.2109 15.8503C54.531 15.9163 53.8843 16.1762 53.3478 16.5992C52.8113 17.0222 52.4076 17.5904 52.1848 18.2362C51.9619 18.882 51.9293 19.5782 52.0908 20.242C52.2522 20.9058 52.6009 21.5093 53.0955 21.9806L61.8726 30.4457L61.8932 30.4628C61.9056 30.4745 61.9149 30.4891 61.9203 30.5052C61.9257 30.5214 61.927 30.5386 61.9241 30.5554V30.5691L59.8326 42.8023V42.8057C59.7178 43.469 59.7913 44.1511 60.0447 44.7747C60.298 45.3983 60.7211 45.9384 61.266 46.3337C61.8109 46.7289 62.4556 46.9635 63.1271 47.0108C63.7985 47.0581 64.4698 46.9161 65.0646 46.6011L75.8646 40.8926C75.9036 40.8756 75.9456 40.8668 75.9881 40.8668C76.0305 40.8668 76.0726 40.8756 76.1115 40.8926L86.9115 46.5977C87.506 46.9148 88.1777 47.0585 88.8499 47.0124C89.5222 46.9663 90.168 46.7323 90.7137 46.337C91.2594 45.9418 91.6831 45.4012 91.9365 44.7768C92.1899 44.1525 92.2628 43.4695 92.1469 42.8057L90.0555 30.5657V30.5554C90.0486 30.5417 90.0521 30.5211 90.0555 30.5074C90.0606 30.4904 90.0701 30.4751 90.0829 30.4628L90.1035 30.4457L98.8772 21.9771C99.3707 21.5057 99.7185 20.9025 99.8793 20.2392C100.04 19.5759 100.007 18.8804 99.7845 18.2353C99.5617 17.5901 99.1585 17.0225 98.6227 16.5997C98.0869 16.177 97.441 15.9168 96.7618 15.8503L84.7755 14.0743C84.7493 14.0691 84.723 14.0645 84.6966 14.0606C84.6836 14.0339 84.6699 14.0076 84.6555 13.9817L79.2109 2.99314C78.9225 2.3822 78.4664 1.86577 77.8959 1.504C77.3253 1.14223 76.6637 0.950006 75.9881 0.949707Z" fill="#FDB600"/>
<path fill-rule="evenodd" clip-rule="evenodd" d="M23.9983 6C23.3227 6.0003 22.6611 6.19253 22.0905 6.5543C21.52 6.91607 21.0639 7.43249 20.7755 8.04343L15.3309 19.032C15.3165 19.0579 15.3028 19.0842 15.2897 19.1109C15.2634 19.1148 15.2371 19.1194 15.2109 19.1246L3.22118 20.9006C2.54121 20.9666 1.89452 21.2265 1.35805 21.6495C0.82157 22.0725 0.417894 22.6407 0.195045 23.2865C-0.027804 23.9322 -0.0604453 24.6285 0.101005 25.2923C0.262455 25.9561 0.6112 26.5595 1.10575 27.0309L9.88289 35.496L9.90346 35.5131C9.91587 35.5248 9.92518 35.5394 9.93057 35.5555C9.93595 35.5717 9.93724 35.5889 9.93432 35.6057V35.6194L7.84289 47.8526V47.856C7.72809 48.5193 7.80154 49.2014 8.05491 49.825C8.30827 50.4486 8.7314 50.9887 9.27625 51.384C9.82111 51.7792 10.4659 52.0138 11.1373 52.0611C11.8088 52.1084 12.48 51.9664 13.0749 51.6514L23.8749 45.9429C23.9138 45.9259 23.9558 45.9171 23.9983 45.9171C24.0408 45.9171 24.0828 45.9259 24.1217 45.9429L34.9217 51.648C35.5163 51.9651 36.188 52.1088 36.8602 52.0627C37.5324 52.0166 38.1782 51.7826 38.7239 51.3873C39.2696 50.9921 39.6933 50.4515 39.9467 49.8271C40.2001 49.2028 40.2731 48.5198 40.1572 47.856L38.0657 35.616V35.6057C38.0589 35.592 38.0623 35.5714 38.0657 35.5577C38.0709 35.5407 38.0803 35.5254 38.0932 35.5131L38.1137 35.496L46.8875 27.0274C47.3809 26.556 47.7287 25.9528 47.8895 25.2895C48.0504 24.6262 48.0174 23.9307 47.7947 23.2856C47.572 22.6404 47.1687 22.0728 46.6329 21.65C46.0971 21.2273 45.4513 20.9671 44.772 20.9006L32.7857 19.1246C32.7596 19.1194 32.7333 19.1148 32.7069 19.1109C32.6939 19.0842 32.6801 19.0579 32.6657 19.032L27.2212 8.04343C26.9327 7.43249 26.4767 6.91607 25.9061 6.5543C25.3355 6.19253 24.6739 6.0003 23.9983 6Z" fill="#FDB600"/>
<path fill-rule="evenodd" clip-rule="evenodd" d="M127.978 6C127.302 6.0003 126.641 6.19253 126.07 6.5543C125.499 6.91607 125.043 7.43249 124.755 8.04343L119.31 19.032C119.296 19.0579 119.282 19.0842 119.269 19.1109C119.243 19.1148 119.217 19.1194 119.19 19.1246L107.201 20.9006C106.521 20.9666 105.874 21.2265 105.338 21.6495C104.801 22.0725 104.397 22.6407 104.175 23.2865C103.952 23.9322 103.919 24.6285 104.08 25.2923C104.242 25.9561 104.591 26.5595 105.085 27.0309L113.862 35.496L113.883 35.5131C113.895 35.5248 113.905 35.5394 113.91 35.5555C113.915 35.5717 113.917 35.5889 113.914 35.6057V35.6194L111.822 47.8526V47.856C111.708 48.5193 111.781 49.2014 112.034 49.825C112.288 50.4486 112.711 50.9887 113.256 51.384C113.801 51.7792 114.445 52.0138 115.117 52.0611C115.788 52.1084 116.46 51.9664 117.054 51.6514L127.854 45.9429C127.893 45.9259 127.935 45.9171 127.978 45.9171C128.02 45.9171 128.062 45.9259 128.101 45.9429L138.901 51.648C139.496 51.9651 140.167 52.1088 140.84 52.0627C141.512 52.0166 142.158 51.7826 142.703 51.3873C143.249 50.9921 143.673 50.4515 143.926 49.8271C144.18 49.2028 144.253 48.5198 144.137 47.856L142.045 35.616V35.6057C142.038 35.592 142.042 35.5714 142.045 35.5577C142.05 35.5407 142.06 35.5254 142.073 35.5131L142.093 35.496L150.867 27.0274C151.36 26.556 151.708 25.9528 151.869 25.2895C152.03 24.6262 151.997 23.9307 151.774 23.2856C151.551 22.6404 151.148 22.0728 150.612 21.65C150.077 21.2273 149.431 20.9671 148.752 20.9006L136.765 19.1246C136.739 19.1194 136.713 19.1148 136.686 19.1109C136.673 19.0842 136.66 19.0579 136.645 19.032L131.201 8.04343C130.912 7.43249 130.456 6.91607 129.886 6.5543C129.315 6.19253 128.653 6.0003 127.978 6Z" fill="#FDB600"/>
</svg>
