<svg width="100" height="48" viewBox="0 0 100 48" fill="none" xmlns="http://www.w3.org/2000/svg">
<path fill-rule="evenodd" clip-rule="evenodd" d="M75.9881 1C75.3125 1.0003 74.6509 1.19253 74.0803 1.5543C73.5097 1.91607 73.0536 2.43249 72.7652 3.04343L67.3206 14.032C67.3062 14.0579 67.2925 14.0842 67.2795 14.1109C67.2531 14.1148 67.2268 14.1194 67.2006 14.1246L55.2109 15.9006C54.531 15.9666 53.8843 16.2265 53.3478 16.6495C52.8113 17.0725 52.4076 17.6407 52.1848 18.2865C51.9619 18.9322 51.9293 19.6285 52.0908 20.2923C52.2522 20.9561 52.6009 21.5595 53.0955 22.0309L61.8726 30.496L61.8932 30.5131C61.9056 30.5248 61.9149 30.5394 61.9203 30.5555C61.9257 30.5717 61.927 30.5889 61.9241 30.6057V30.6194L59.8326 42.8526V42.856C59.7178 43.5193 59.7913 44.2014 60.0447 44.825C60.298 45.4486 60.7211 45.9887 61.266 46.384C61.8109 46.7792 62.4556 47.0138 63.1271 47.0611C63.7985 47.1084 64.4698 46.9664 65.0646 46.6514L75.8646 40.9429C75.9036 40.9259 75.9456 40.9171 75.9881 40.9171C76.0305 40.9171 76.0726 40.9259 76.1115 40.9429L86.9115 46.648C87.506 46.9651 88.1777 47.1088 88.8499 47.0627C89.5222 47.0166 90.168 46.7826 90.7137 46.3873C91.2594 45.9921 91.6831 45.4515 91.9365 44.8271C92.1899 44.2028 92.2628 43.5198 92.1469 42.856L90.0555 30.616V30.6057C90.0486 30.592 90.0521 30.5714 90.0555 30.5577C90.0606 30.5407 90.0701 30.5254 90.0829 30.5131L90.1035 30.496L98.8772 22.0274C99.3707 21.556 99.7185 20.9528 99.8793 20.2895C100.04 19.6262 100.007 18.9307 99.7845 18.2856C99.5617 17.6404 99.1585 17.0728 98.6227 16.65C98.0869 16.2273 97.441 15.9671 96.7618 15.9006L84.7755 14.1246C84.7493 14.1194 84.723 14.1148 84.6966 14.1109C84.6836 14.0842 84.6699 14.0579 84.6555 14.032L79.2109 3.04343C78.9225 2.43249 78.4664 1.91607 77.8959 1.5543C77.3253 1.19253 76.6637 1.0003 75.9881 1Z" fill="#FDB600"/>
<path fill-rule="evenodd" clip-rule="evenodd" d="M23.9983 1C23.3227 1.0003 22.6611 1.19253 22.0905 1.5543C21.52 1.91607 21.0639 2.43249 20.7755 3.04343L15.3309 14.032C15.3165 14.0579 15.3028 14.0842 15.2897 14.1109C15.2634 14.1148 15.2371 14.1194 15.2109 14.1246L3.22118 15.9006C2.54121 15.9666 1.89452 16.2265 1.35805 16.6495C0.82157 17.0725 0.417894 17.6407 0.195045 18.2865C-0.027804 18.9322 -0.0604453 19.6285 0.101005 20.2923C0.262455 20.9561 0.6112 21.5595 1.10575 22.0309L9.88289 30.496L9.90346 30.5131C9.91587 30.5248 9.92518 30.5394 9.93057 30.5555C9.93595 30.5717 9.93724 30.5889 9.93432 30.6057V30.6194L7.84289 42.8526V42.856C7.72809 43.5193 7.80154 44.2014 8.05491 44.825C8.30827 45.4486 8.7314 45.9887 9.27625 46.384C9.82111 46.7792 10.4659 47.0138 11.1373 47.0611C11.8088 47.1084 12.48 46.9664 13.0749 46.6514L23.8749 40.9429C23.9138 40.9259 23.9558 40.9171 23.9983 40.9171C24.0408 40.9171 24.0828 40.9259 24.1217 40.9429L34.9217 46.648C35.5163 46.9651 36.188 47.1088 36.8602 47.0627C37.5324 47.0166 38.1782 46.7826 38.7239 46.3873C39.2696 45.9921 39.6933 45.4515 39.9467 44.8271C40.2001 44.2028 40.2731 43.5198 40.1572 42.856L38.0657 30.616V30.6057C38.0589 30.592 38.0623 30.5714 38.0657 30.5577C38.0709 30.5407 38.0803 30.5254 38.0932 30.5131L38.1137 30.496L46.8875 22.0274C47.3809 21.556 47.7287 20.9528 47.8895 20.2895C48.0504 19.6262 48.0174 18.9307 47.7947 18.2856C47.572 17.6404 47.1687 17.0728 46.6329 16.65C46.0971 16.2273 45.4513 15.9671 44.772 15.9006L32.7857 14.1246C32.7596 14.1194 32.7333 14.1148 32.7069 14.1109C32.6939 14.0842 32.6801 14.0579 32.6657 14.032L27.2212 3.04343C26.9327 2.43249 26.4767 1.91607 25.9061 1.5543C25.3355 1.19253 24.6739 1.0003 23.9983 1Z" fill="#FDB600"/>
</svg>
